<?xml version="1.0" encoding="utf-8"?>
<!-- Generator: Adobe Illustrator 16.0.4, SVG Export Plug-In . SVG Version: 6.00 Build 0)  -->
<!DOCTYPE svg PUBLIC "-//W3C//DTD SVG 1.1//EN" "http://www.w3.org/Graphics/SVG/1.1/DTD/svg11.dtd">
<svg version="1.1" id="Layer_1" xmlns="http://www.w3.org/2000/svg" xmlns:xlink="http://www.w3.org/1999/xlink" x="0px" y="0px"
	 width="1170px" height="589.087px" viewBox="0 0 1170 589.087" enable-background="new 0 0 1170 589.087" xml:space="preserve">
<rect x="106.816" y="392.698" fill="#A88C57" width="121.103" height="196.389"/>
<rect x="1.009" y="475.106" fill="#A88C57" width="50.903" height="47.851"/>
<rect x="1.009" y="425.255" fill="#A88C57" width="50.903" height="47.852"/>
<rect x="1.009" y="392.698" fill="#A88C57" width="50.903" height="30.557"/>
<polygon fill="#A88C57" points="53.912,423.255 53.912,425.255 53.912,473.106 53.912,475.106 53.912,522.957 53.912,524.957 
	53.912,589.087 104.816,589.087 104.816,392.698 53.912,392.698 "/>
<rect x="1.009" y="524.957" fill="#A88C57" width="50.903" height="64.13"/>
<rect x="1.009" y="228.901" fill="#8E5C64" width="226.91" height="151.624"/>
<polygon fill="#286275" points="757.937,393.716 757.937,589.087 1168.991,589.087 1168.991,393.716 899.352,393.716 
	897.352,393.716 "/>
<polygon fill="#286275" points="899.352,140.389 899.352,391.716 1168.991,391.716 1168.991,140.389 1015.333,140.389 
	1013.333,140.389 "/>
<polygon fill="#286275" points="899.352,138.389 1013.333,138.389 1013.333,1.009 876.97,1.009 876.97,138.389 897.352,138.389 "/>
<rect x="757.937" y="1.009" fill="#286275" width="50.903" height="137.38"/>
<polygon fill="#286275" points="876.97,140.389 874.97,140.389 810.84,140.389 808.84,140.389 757.937,140.389 757.937,391.716 
	897.352,391.716 897.352,140.389 "/>
<rect x="810.84" y="1.009" fill="#286275" width="64.13" height="137.38"/>
<rect x="1015.333" y="1.009" fill="#286275" width="153.658" height="137.38"/>
<rect x="1.009" y="1.009" fill="#EFC164" width="226.91" height="51.921"/>
<polygon fill="#95A565" points="34.582,216.727 227.918,216.727 227.918,65.104 34.582,65.104 34.582,113.972 34.582,115.972 "/>
<rect x="1.009" y="115.972" fill="#95A565" width="31.573" height="100.755"/>
<rect x="1.009" y="65.104" fill="#95A565" width="31.573" height="48.869"/>
<polygon fill="#F3835D" points="414.063,112.955 745.763,112.955 745.763,1.009 414.063,1.009 414.063,43.773 414.063,45.773 "/>
<rect x="240.092" y="45.773" fill="#F3835D" width="171.971" height="67.182"/>
<rect x="240.092" y="1.009" fill="#F3835D" width="171.971" height="42.765"/>
<rect x="240.092" y="125.128" fill="#FF5A52" width="505.67" height="463.958"/>
<text transform="matrix(1 0 0 1 145.4331 493.4707)" font-family="'SourceSansPro-Regular'" font-size="11">Polar bear</text>
<text transform="matrix(1 0 0 1 8.1211 501.7959)" font-family="'SourceSansPro-Regular'" font-size="11">Reindeer</text>
<text transform="matrix(1 0 0 1 18.1528 452.2324)" font-family="'SourceSansPro-Regular'" font-size="11">Fish</text>
<text transform="matrix(1 0 0 1 8.1479 410.4531)" font-family="'SourceSansPro-Regular'" font-size="11">Sea lions</text>
<text transform="matrix(-4.371139e-08 -1 1 -4.371139e-08 82.8423 520.5752)" font-family="'SourceSansPro-Regular'" font-size="11">Dead animals</text>
<text transform="matrix(1 0 0 1 6.4521 560.6514)" font-family="'SourceSansPro-Regular'" font-size="11">Penguins</text>
<text transform="matrix(1 0 0 1 944.4854 493.9795)" font-family="'SourceSansPro-Regular'" font-size="11">Disasters</text>
<text transform="matrix(1 0 0 1 995.6768 269.9702)" font-family="'SourceSansPro-Regular'" font-size="11">Land and sea</text>
<text transform="matrix(1 0 0 1 917.8125 73.6167)" font-family="'SourceSansPro-Regular'" font-size="11">Ecosystems</text>
<text transform="matrix(1 0 0 1 774.9277 73.6157)" font-family="'SourceSansPro-Regular'" font-size="11">Food</text>
<text transform="matrix(1 0 0 1 794.3096 269.9702)" font-family="'SourceSansPro-Regular'" font-size="11">Infrastructure</text>
<text transform="matrix(-4.371139e-08 -1 1 -4.371139e-08 845.7891 100.2007)" font-family="'SourceSansPro-Regular'" font-size="11">Human habitat</text>
<text transform="matrix(1 0 0 1 1074.9912 73.6167)" font-family="'SourceSansPro-Regular'" font-size="11">Globes</text>
<text transform="matrix(1 0 0 1 100.0894 143.4937)" font-family="'SourceSansPro-Regular'" font-size="11">Globe in hands</text>
<text transform="matrix(-4.371139e-08 -1 1 -4.371139e-08 19.1948 186.3276)" font-family="'SourceSansPro-Regular'" font-size="11">Road sign</text>
<text transform="matrix(-4.371139e-08 -1 1 -4.371139e-08 18.5825 109.0991)" font-family="'SourceSansPro-Regular'" font-size="11">Speedometer</text>
<text transform="matrix(1 0 0 1 544.5557 60.8994)" font-family="'SourceSansPro-Regular'" font-size="11">Decision-making</text>
<text transform="matrix(1 0 0 1 299.6431 83.2817)" font-family="'SourceSansPro-Regular'" font-size="11">Activist</text>
<text transform="matrix(1 0 0 1 274.7583 26.3086)" font-family="'SourceSansPro-Regular'" font-size="11">Raising awareness</text>
<g>
	<g>
		<g>
			<text transform="matrix(1 0 0 1 55.812 30.3594)" font-family="'SourceSansPro-Semibold'" font-size="14.2433">LITERATURE</text>
		</g>
		<text transform="matrix(1 0 0 1 141.1743 30.5967)" font-family="'SourceSansPro-Semibold'" font-size="14.2433">(16)</text>
	</g>
</g>
<g>
	<g>
		<g>
			<text transform="matrix(1 0 0 1 56.1372 208.5903)" font-family="'SourceSansPro-Semibold'" font-size="14.2433">METAPHORS</text>
		</g>
		<text transform="matrix(1 0 0 1 140.8496 208.8276)" font-family="'SourceSansPro-Semibold'" font-size="14.2433">(41)</text>
	</g>
</g>
<g>
	<g>
		<g>
			<text transform="matrix(1 0 0 1 59.1187 308.1035)" font-family="'SourceSansPro-Semibold'" font-size="14.2433">CARTOONS</text>
		</g>
		<text transform="matrix(1 0 0 1 137.8682 308.3418)" font-family="'SourceSansPro-Semibold'" font-size="14.2433">(41)</text>
	</g>
</g>
<g>
	<g>
		<g>
			<text transform="matrix(1 0 0 1 66.9238 582.1523)" font-family="'SourceSansPro-Semibold'" font-size="14.2433">ANIMALS</text>
		</g>
		<text transform="matrix(1 0 0 1 130.1201 582.3896)" font-family="'SourceSansPro-Semibold'" font-size="14.2433">(52)</text>
	</g>
</g>
<g>
	<g>
		<g>
			<text transform="matrix(1 0 0 1 448.002 360.498)" font-family="'SourceSansPro-Semibold'" font-size="14.2433">SCIENCE</text>
		</g>
		<text transform="matrix(1 0 0 1 508.6724 360.498)" font-family="'SourceSansPro-Semibold'" font-size="14.2433">(258)</text>
	</g>
</g>
<g>
	<g>
		<g>
			<text transform="matrix(1 0 0 1 446.002 106.3301)" font-family="'SourceSansPro-Semibold'" font-size="14.2433">PEOPLE</text>
		</g>
		<text transform="matrix(1 0 0 1 499.6167 106.5674)" font-family="'SourceSansPro-Semibold'" font-size="14.2433">(67)</text>
	</g>
</g>
<g>
	<g>
		<text transform="matrix(1 0 0 1 904.3516 582.1523)" font-family="'SourceSansPro-Semibold'" font-size="14.2433">LANDSCAPES</text>
		<text transform="matrix(1 0 0 1 993.3955 582.1523)" font-family="'SourceSansPro-Semibold'" font-size="14.2433">(251)</text>
	</g>
</g>
</svg>
