<?xml version="1.0" encoding="utf-8"?>
<!-- Generator: Adobe Illustrator 16.0.4, SVG Export Plug-In . SVG Version: 6.00 Build 0)  -->
<!DOCTYPE svg PUBLIC "-//W3C//DTD SVG 1.1//EN" "http://www.w3.org/Graphics/SVG/1.1/DTD/svg11.dtd">
<svg version="1.1"
	 id="svg3838" inkscape:version="0.48.5 r10040" sodipodi:docname="15b.svg" xmlns:dc="http://purl.org/dc/elements/1.1/" xmlns:inkscape="http://www.inkscape.org/namespaces/inkscape" xmlns:cc="http://creativecommons.org/ns#" xmlns:svg="http://www.w3.org/2000/svg" xmlns:rdf="http://www.w3.org/1999/02/22-rdf-syntax-ns#" xmlns:sodipodi="http://sodipodi.sourceforge.net/DTD/sodipodi-0.dtd"
	 xmlns="http://www.w3.org/2000/svg" xmlns:xlink="http://www.w3.org/1999/xlink" x="0px" y="0px" width="1170px"
	 height="544.128px" viewBox="0 0 1170 544.128" enable-background="new 0 0 1170 544.128" xml:space="preserve">
<g id="grid_2_">
	<g id="g3942_2_">
		<g id="g3944_2_">
			<g id="g3946_2_">
				
					<line id="line3948_2_" fill="none" stroke="#CCCACA" stroke-width="0.5" stroke-miterlimit="10" x1="309.951" y1="520.918" x2="309.951" y2="39.541"/>
				<g id="g3950_2_">
					<rect id="rect3952_2_" x="308.326" y="520.668" fill="#CCCACA" width="3.25" height="0.5"/>
				</g>
			</g>
		</g>
		<g id="g3954_2_">
			<g id="g3956_2_">
				
					<line id="line3958_2_" fill="none" stroke="#CCCACA" stroke-width="0.5" stroke-miterlimit="10" x1="370.152" y1="520.918" x2="370.152" y2="39.541"/>
				<g id="g3960_2_">
					<rect id="rect3962_2_" x="368.527" y="520.668" fill="#CCCACA" width="3.25" height="0.5"/>
				</g>
			</g>
		</g>
		<g id="g3964_2_">
			<g id="g3966_2_">
				
					<line id="line3968_2_" fill="none" stroke="#CCCACA" stroke-width="0.5" stroke-miterlimit="10" x1="430.352" y1="520.918" x2="430.352" y2="39.541"/>
				<g id="g3970_2_">
					<rect id="rect3972_2_" x="428.727" y="520.668" fill="#CCCACA" width="3.25" height="0.5"/>
				</g>
			</g>
		</g>
		<g id="g3974_2_">
			<g id="g3976_2_">
				
					<line id="line3978_2_" fill="none" stroke="#CCCACA" stroke-width="0.5" stroke-miterlimit="10" x1="490.553" y1="520.918" x2="490.553" y2="39.541"/>
				<g id="g3980_2_">
					<rect id="rect3982_2_" x="488.928" y="520.668" fill="#CCCACA" width="3.25" height="0.5"/>
				</g>
			</g>
		</g>
		<g id="g3984_2_">
			<g id="g3986_2_">
				
					<line id="line3988_2_" fill="none" stroke="#CCCACA" stroke-width="0.5" stroke-miterlimit="10" x1="550.754" y1="520.918" x2="550.754" y2="39.541"/>
				<g id="g3990_2_">
					<rect id="rect3992_2_" x="549.129" y="520.668" fill="#CCCACA" width="3.25" height="0.5"/>
				</g>
			</g>
		</g>
		<g id="g3994_2_">
			<g id="g3996_2_">
				
					<line id="line3998_2_" fill="none" stroke="#CCCACA" stroke-width="0.5" stroke-miterlimit="10" x1="610.953" y1="520.918" x2="610.953" y2="39.541"/>
				<g id="g4000_2_">
					<rect id="rect4002_2_" x="609.328" y="520.668" fill="#CCCACA" width="3.251" height="0.5"/>
				</g>
			</g>
		</g>
		<g id="g4004_2_">
			<g id="g4006_2_">
				
					<line id="line4008_2_" fill="none" stroke="#CCCACA" stroke-width="0.5" stroke-miterlimit="10" x1="671.154" y1="520.918" x2="671.154" y2="39.541"/>
				<g id="g4010_2_">
					<rect id="rect4012_2_" x="669.529" y="520.668" fill="#CCCACA" width="3.25" height="0.5"/>
				</g>
			</g>
		</g>
		<g id="g4014_2_">
			<g id="g4016_2_">
				
					<line id="line4018_2_" fill="none" stroke="#CCCACA" stroke-width="0.5" stroke-miterlimit="10" x1="731.355" y1="520.918" x2="731.355" y2="39.541"/>
				<g id="g4020_2_">
					<rect id="rect4022_2_" x="729.73" y="520.668" fill="#CCCACA" width="3.25" height="0.5"/>
				</g>
			</g>
		</g>
		<g id="g4024_2_">
			<g id="g4026_2_">
				
					<line id="line4028_2_" fill="none" stroke="#CCCACA" stroke-width="0.5" stroke-miterlimit="10" x1="791.556" y1="520.918" x2="791.556" y2="39.541"/>
				<g id="g4030_2_">
					<rect id="rect4032_2_" x="789.931" y="520.668" fill="#CCCACA" width="3.25" height="0.5"/>
				</g>
			</g>
		</g>
		<g id="g4034_2_">
			<g id="g4036_2_">
				
					<line id="line4038_2_" fill="none" stroke="#CCCACA" stroke-width="0.5" stroke-miterlimit="10" x1="851.757" y1="520.918" x2="851.757" y2="39.541"/>
				<g id="g4040_2_">
					<rect id="rect4042_2_" x="850.132" y="520.668" fill="#CCCACA" width="3.25" height="0.5"/>
				</g>
			</g>
		</g>
		<g id="g4044_2_">
			<g id="g4046_2_">
				
					<line id="line4048_2_" fill="none" stroke="#CCCACA" stroke-width="0.5" stroke-miterlimit="10" x1="911.958" y1="520.918" x2="911.958" y2="39.541"/>
				<g id="g4050_2_">
					<rect id="rect4052_2_" x="910.333" y="520.668" fill="#CCCACA" width="3.25" height="0.5"/>
				</g>
			</g>
		</g>
		<g id="g4054_2_">
			<g id="g4056_2_">
				
					<line id="line4058_2_" fill="none" stroke="#CCCACA" stroke-width="0.5" stroke-miterlimit="10" x1="972.158" y1="520.918" x2="972.158" y2="39.541"/>
				<g id="g4060_2_">
					<rect id="rect4062_2_" x="970.533" y="520.668" fill="#CCCACA" width="3.25" height="0.5"/>
				</g>
			</g>
		</g>
		<g id="g4064_2_">
			<g id="g4066_2_">
				
					<line id="line4068_2_" fill="none" stroke="#CCCACA" stroke-width="0.5" stroke-miterlimit="10" x1="1032.358" y1="520.918" x2="1032.358" y2="39.541"/>
				<g id="g4070_2_">
					<rect id="rect4072_2_" x="1030.733" y="520.668" fill="#CCCACA" width="3.25" height="0.5"/>
				</g>
			</g>
		</g>
		<g id="g4074_2_">
			<g id="g4076_2_">
				
					<line id="line4078_2_" fill="none" stroke="#CCCACA" stroke-width="0.5" stroke-miterlimit="10" x1="1092.56" y1="520.918" x2="1092.56" y2="39.541"/>
				<g id="g4080_2_">
					<rect id="rect4082_2_" x="1090.935" y="520.668" fill="#CCCACA" width="3.25" height="0.5"/>
				</g>
			</g>
		</g>
		<g id="g4084_2_">
			<g id="g4086_2_">
				
					<line id="line4088_2_" fill="none" stroke="#CCCACA" stroke-width="0.5" stroke-miterlimit="10" x1="1152.761" y1="520.918" x2="1152.761" y2="39.541"/>
				<g id="g4090_2_">
					<rect id="rect4092_2_" x="1151.136" y="520.668" fill="#CCCACA" width="3.25" height="0.5"/>
				</g>
			</g>
		</g>
	</g>
	<g id="g4094_2_">
		<text id="text4096_2_" transform="matrix(1.166 0 0 1 295.5195 543.1279)" font-family="'SourceSansPro-Regular'" font-size="12">2000</text>
	</g>
	<g id="g4098_2_">
		<text id="text4100_2_" transform="matrix(1.166 0 0 1 355.7217 543.1279)" font-family="'SourceSansPro-Regular'" font-size="12">2001</text>
	</g>
	<g id="g4102_2_">
		<text id="text4104_2_" transform="matrix(1.166 0 0 1 415.9238 543.1279)" font-family="'SourceSansPro-Regular'" font-size="12">2002</text>
	</g>
	<g id="g4106_2_">
		<text id="text4108_2_" transform="matrix(1.166 0 0 1 476.126 543.1279)" font-family="'SourceSansPro-Regular'" font-size="12">2003</text>
	</g>
	<g id="g4110_2_">
		<text id="text4112_2_" transform="matrix(1.166 0 0 1 536.3428 543.1279)" font-family="'SourceSansPro-Regular'" font-size="12">2004</text>
	</g>
	<g id="g4114_2_">
		<text id="text4116_2_" transform="matrix(1.166 0 0 1 596.5137 543.1279)" font-family="'SourceSansPro-Regular'" font-size="12">2005</text>
	</g>
	<g id="g4118_2_">
		<text id="text4120_2_" transform="matrix(1.166 0 0 1 656.7305 543.1279)" font-family="'SourceSansPro-Regular'" font-size="12">2006</text>
	</g>
	<g id="g4122_2_">
		<text id="text4124_2_" transform="matrix(1.166 0 0 1 716.9326 543.1279)" font-family="'SourceSansPro-Regular'" font-size="12">2007</text>
	</g>
	<g id="g4126_2_">
		<text id="text4128_2_" transform="matrix(1.166 0 0 1 777.1182 543.1279)" font-family="'SourceSansPro-Regular'" font-size="12">2008</text>
	</g>
	<g id="g4130_2_">
		<text id="text4132_2_" transform="matrix(1.166 0 0 1 837.3203 543.1279)" font-family="'SourceSansPro-Regular'" font-size="12">2009</text>
	</g>
	<g id="g4134_2_">
		<text id="text4136_2_" transform="matrix(1.166 0 0 1 897.5225 543.1279)" font-family="'SourceSansPro-Regular'" font-size="12">2010</text>
	</g>
	<g id="g4138_2_">
		<text id="text4140_2_" transform="matrix(1.166 0 0 1 957.7246 543.1279)" font-family="'SourceSansPro-Regular'" font-size="12">2011</text>
	</g>
	<g id="g4142_2_">
		
			<text id="text4144_2_" transform="matrix(1.166 0 0 1 1017.9258 543.1279)" font-family="'SourceSansPro-Regular'" font-size="12">2012</text>
	</g>
	<g id="g4146_2_">
		
			<text id="text4148_2_" transform="matrix(1.166 0 0 1 1078.1289 543.1279)" font-family="'SourceSansPro-Regular'" font-size="12">2013</text>
	</g>
	<g id="g4150_2_">
		
			<text id="text4152_2_" transform="matrix(1.166 0 0 1 1138.3457 543.1279)" font-family="'SourceSansPro-Regular'" font-size="12">2014</text>
	</g>
</g>
<g id="interactive_2_">
	<g id="g4155_2_">
		<path id="path4157_2_" inkscape:connector-curvature="0" opacity="0.5" fill="#EEC064" enable-background="new    " d="
			M309.953,511.551h7.348c0,4.056-3.29,7.352-7.348,7.352c-4.058,0-7.351-3.296-7.351-7.352c0-4.061,3.293-7.352,7.351-7.352
			c4.058,0,7.348,3.291,7.348,7.352l0,0H309.953z"/>
		<path id="path4159_2_" inkscape:connector-curvature="0" fill="#EEC064" d="M309.952,511.551h3.266
			c0,1.803-1.462,3.268-3.266,3.268c-1.803,0-3.267-1.465-3.267-3.268c0-1.805,1.463-3.268,3.267-3.268
			c1.804,0,3.266,1.463,3.266,3.268l0,0H309.952z"/>
	</g>
	<g id="g4161_2_">
		<path id="path4163_2_" inkscape:connector-curvature="0" opacity="0.5" fill="#F15B55" enable-background="new    " d="
			M309.953,478.34h7.348c0,4.055-3.29,7.352-7.348,7.352c-4.058,0-7.351-3.297-7.351-7.352c0-4.061,3.293-7.352,7.351-7.352
			c4.058,0,7.348,3.291,7.348,7.352l0,0H309.953z"/>
		<path id="path4165_2_" inkscape:connector-curvature="0" fill="#F15B55" d="M309.952,478.34h3.266
			c0,1.802-1.462,3.268-3.266,3.268c-1.803,0-3.267-1.466-3.267-3.268c0-1.805,1.463-3.268,3.267-3.268
			c1.804,0,3.266,1.463,3.266,3.268l0,0H309.952L309.952,478.34z"/>
	</g>
	<g id="g4167_2_">
		<path id="path4169_2_" inkscape:connector-curvature="0" opacity="0.5" fill="#F15B55" enable-background="new    " d="
			M309.953,445.129h7.348c0,4.055-3.29,7.352-7.348,7.352c-4.058,0-7.351-3.297-7.351-7.352c0-4.061,3.293-7.352,7.351-7.352
			c4.058,0,7.348,3.291,7.348,7.352l0,0H309.953z"/>
		<path id="path4171_2_" inkscape:connector-curvature="0" fill="#F15B55" d="M309.952,445.129h3.266
			c0,1.802-1.462,3.268-3.266,3.268c-1.803,0-3.267-1.466-3.267-3.268c0-1.805,1.463-3.268,3.267-3.268
			c1.804,0,3.266,1.463,3.266,3.268l0,0H309.952z"/>
	</g>
	<g id="g4173_2_">
		<path id="path4175_2_" inkscape:connector-curvature="0" opacity="0.5" fill="#F15B55" enable-background="new    " d="
			M309.953,411.918h7.348c0,4.055-3.29,7.352-7.348,7.352c-4.058,0-7.351-3.297-7.351-7.352c0-4.061,3.293-7.352,7.351-7.352
			c4.058,0,7.348,3.291,7.348,7.352l0,0H309.953z"/>
		<path id="path4177_2_" inkscape:connector-curvature="0" fill="#F15B55" d="M309.952,411.918h3.266
			c0,1.802-1.462,3.267-3.266,3.267c-1.803,0-3.267-1.465-3.267-3.267c0-1.805,1.463-3.268,3.267-3.268
			c1.804,0,3.266,1.463,3.266,3.268l0,0H309.952z"/>
	</g>
	<g id="g4179_2_">
		<path id="path4181_2_" inkscape:connector-curvature="0" opacity="0.5" fill="#CCCACA" enable-background="new    " d="
			M490.554,511.551h7.348c0,4.056-3.29,7.352-7.348,7.352s-7.351-3.296-7.351-7.352c0-4.061,3.293-7.352,7.351-7.352
			s7.348,3.291,7.348,7.352l0,0H490.554z"/>
		<path id="path4183_2_" inkscape:connector-curvature="0" fill="#CCCACA" d="M490.553,511.551h3.266
			c0,1.803-1.462,3.268-3.266,3.268c-1.803,0-3.267-1.465-3.267-3.268c0-1.805,1.463-3.268,3.267-3.268
			c1.804,0,3.266,1.463,3.266,3.268l0,0H490.553z"/>
	</g>
	<g id="g4185_2_">
		<path id="path4187_2_" inkscape:connector-curvature="0" opacity="0.5" fill="#F15B55" enable-background="new    " d="
			M550.754,511.551h7.348c0,4.056-3.288,7.352-7.348,7.352c-4.057,0-7.349-3.296-7.349-7.352c0-4.061,3.292-7.352,7.349-7.352
			c4.06,0,7.348,3.291,7.348,7.352l0,0H550.754z"/>
		<path id="path4189_2_" inkscape:connector-curvature="0" fill="#F15B55" d="M550.754,511.551h3.266
			c0,1.803-1.462,3.268-3.266,3.268c-1.803,0-3.267-1.465-3.267-3.268c0-1.805,1.463-3.268,3.267-3.268
			c1.804,0,3.266,1.463,3.266,3.268l0,0H550.754z"/>
	</g>
	<g id="g4191_2_">
		<path id="path4193_2_" inkscape:connector-curvature="0" opacity="0.5" fill="#F15B55" enable-background="new    " d="
			M490.554,478.34h7.348c0,4.055-3.29,7.352-7.348,7.352s-7.351-3.297-7.351-7.352c0-4.061,3.293-7.352,7.351-7.352
			s7.348,3.291,7.348,7.352l0,0H490.554z"/>
		<path id="path4195_2_" inkscape:connector-curvature="0" fill="#F15B55" d="M490.553,478.34h3.266
			c0,1.802-1.462,3.268-3.266,3.268c-1.803,0-3.267-1.466-3.267-3.268c0-1.805,1.463-3.268,3.267-3.268
			c1.804,0,3.266,1.463,3.266,3.268l0,0H490.553L490.553,478.34z"/>
	</g>
	<g id="g4197_2_">
		<path id="path4199_2_" inkscape:connector-curvature="0" opacity="0.5" fill="#F15B55" enable-background="new    " d="
			M731.356,511.551h7.349c0,4.056-3.29,7.352-7.349,7.352c-4.058,0-7.351-3.296-7.351-7.352c0-4.061,3.293-7.352,7.351-7.352
			c4.059,0,7.349,3.291,7.349,7.352l0,0H731.356z"/>
		<path id="path4201_2_" inkscape:connector-curvature="0" fill="#F15B55" d="M731.355,511.551h3.267
			c0,1.803-1.462,3.268-3.267,3.268c-1.803,0-3.267-1.465-3.267-3.268c0-1.805,1.463-3.268,3.267-3.268
			c1.805,0,3.267,1.463,3.267,3.268l0,0H731.355z"/>
	</g>
	<g id="g4203_2_">
		<path id="path4205_2_" inkscape:connector-curvature="0" opacity="0.5" fill="#F15B55" enable-background="new    " d="
			M731.356,478.34h7.349c0,4.055-3.29,7.352-7.349,7.352c-4.058,0-7.351-3.297-7.351-7.352c0-4.061,3.293-7.352,7.351-7.352
			c4.059,0,7.349,3.291,7.349,7.352l0,0H731.356z"/>
		<path id="path4207_2_" inkscape:connector-curvature="0" fill="#F15B55" d="M731.355,478.34h3.267
			c0,1.802-1.462,3.268-3.267,3.268c-1.803,0-3.267-1.466-3.267-3.268c0-1.805,1.463-3.268,3.267-3.268
			c1.805,0,3.267,1.463,3.267,3.268l0,0H731.355L731.355,478.34z"/>
	</g>
	<g id="g4209_2_">
		<path id="path4211_2_" inkscape:connector-curvature="0" opacity="0.5" fill="#F15B55" enable-background="new    " d="
			M490.554,445.129h7.348c0,4.055-3.29,7.352-7.348,7.352s-7.351-3.297-7.351-7.352c0-4.061,3.293-7.352,7.351-7.352
			s7.348,3.291,7.348,7.352l0,0H490.554z"/>
		<path id="path4213_2_" inkscape:connector-curvature="0" fill="#F15B55" d="M490.553,445.129h3.266
			c0,1.802-1.462,3.268-3.266,3.268c-1.803,0-3.267-1.466-3.267-3.268c0-1.805,1.463-3.268,3.267-3.268
			c1.804,0,3.266,1.463,3.266,3.268l0,0H490.553z"/>
	</g>
	<g id="g4215_2_">
		<path id="path4217_2_" inkscape:connector-curvature="0" opacity="0.5" fill="#F15B55" enable-background="new    " d="
			M490.554,411.918h7.348c0,4.055-3.29,7.352-7.348,7.352s-7.351-3.297-7.351-7.352c0-4.061,3.293-7.352,7.351-7.352
			s7.348,3.291,7.348,7.352l0,0H490.554z"/>
		<path id="path4219_2_" inkscape:connector-curvature="0" fill="#F15B55" d="M490.553,411.918h3.266
			c0,1.802-1.462,3.267-3.266,3.267c-1.803,0-3.267-1.465-3.267-3.267c0-1.805,1.463-3.268,3.267-3.268
			c1.804,0,3.266,1.463,3.266,3.268l0,0H490.553z"/>
	</g>
	<g id="g4221_2_">
		<path id="path4223_2_" inkscape:connector-curvature="0" opacity="0.5" fill="#95A565" enable-background="new    " d="
			M370.152,511.551h7.348c0,4.056-3.288,7.352-7.348,7.352c-4.057,0-7.349-3.296-7.349-7.352c0-4.061,3.292-7.352,7.349-7.352
			c4.06,0,7.348,3.291,7.348,7.352l0,0H370.152z"/>
		<path id="path4225_2_" inkscape:connector-curvature="0" fill="#95A565" d="M370.152,511.551h3.266
			c0,1.803-1.462,3.268-3.266,3.268c-1.803,0-3.267-1.465-3.267-3.268c0-1.805,1.463-3.268,3.267-3.268s3.266,1.463,3.266,3.268l0,0
			H370.152z"/>
	</g>
	<g id="g4227_2_">
		<path id="path4229_2_" inkscape:connector-curvature="0" opacity="0.5" fill="#F15B55" enable-background="new    " d="
			M370.152,478.34h7.348c0,4.055-3.288,7.352-7.348,7.352c-4.057,0-7.349-3.297-7.349-7.352c0-4.061,3.292-7.352,7.349-7.352
			c4.06,0,7.348,3.291,7.348,7.352l0,0H370.152z"/>
		<path id="path4231_2_" inkscape:connector-curvature="0" fill="#F15B55" d="M370.152,478.34h3.266
			c0,1.802-1.462,3.268-3.266,3.268c-1.803,0-3.267-1.466-3.267-3.268c0-1.805,1.463-3.268,3.267-3.268s3.266,1.463,3.266,3.268l0,0
			H370.152L370.152,478.34z"/>
	</g>
	<g id="g4233_2_">
		<path id="path4235_2_" inkscape:connector-curvature="0" opacity="0.5" fill="#F15B55" enable-background="new    " d="
			M370.152,445.129h7.348c0,4.055-3.288,7.352-7.348,7.352c-4.057,0-7.349-3.297-7.349-7.352c0-4.061,3.292-7.352,7.349-7.352
			c4.06,0,7.348,3.291,7.348,7.352l0,0H370.152z"/>
		<path id="path4237_2_" inkscape:connector-curvature="0" fill="#F15B55" d="M370.152,445.129h3.266
			c0,1.802-1.462,3.268-3.266,3.268c-1.803,0-3.267-1.466-3.267-3.268c0-1.805,1.463-3.268,3.267-3.268s3.266,1.463,3.266,3.268l0,0
			H370.152z"/>
	</g>
	<g id="g4239_2_">
		<path id="path4241_2_" inkscape:connector-curvature="0" opacity="0.5" fill="#F15B55" enable-background="new    " d="
			M370.152,411.918h7.348c0,4.055-3.288,7.352-7.348,7.352c-4.057,0-7.349-3.297-7.349-7.352c0-4.061,3.292-7.352,7.349-7.352
			c4.06,0,7.348,3.291,7.348,7.352l0,0H370.152z"/>
		<path id="path4243_2_" inkscape:connector-curvature="0" fill="#F15B55" d="M370.152,411.918h3.266
			c0,1.802-1.462,3.267-3.266,3.267c-1.803,0-3.267-1.465-3.267-3.267c0-1.805,1.463-3.268,3.267-3.268s3.266,1.463,3.266,3.268l0,0
			H370.152z"/>
	</g>
	<g id="g4245_2_">
		<path id="path4247_2_" inkscape:connector-curvature="0" opacity="0.5" fill="#F15B55" enable-background="new    " d="
			M370.152,378.707h7.348c0,4.055-3.288,7.351-7.348,7.351c-4.057,0-7.349-3.296-7.349-7.351c0-4.061,3.292-7.352,7.349-7.352
			c4.06,0,7.348,3.291,7.348,7.352l0,0H370.152z"/>
		<path id="path4249_2_" inkscape:connector-curvature="0" fill="#F15B55" d="M370.152,378.707h3.266
			c0,1.802-1.462,3.267-3.266,3.267c-1.803,0-3.267-1.465-3.267-3.267c0-1.805,1.463-3.268,3.267-3.268s3.266,1.463,3.266,3.268l0,0
			H370.152z"/>
	</g>
	<g id="g4251_2_">
		<path id="path4253_2_" inkscape:connector-curvature="0" opacity="0.5" fill="#F3835D" enable-background="new    " d="
			M671.154,511.551h7.349c0,4.056-3.288,7.352-7.349,7.352c-4.057,0-7.349-3.296-7.349-7.352c0-4.061,3.292-7.352,7.349-7.352
			c4.061,0,7.349,3.291,7.349,7.352l0,0H671.154z"/>
		<path id="path4255_2_" inkscape:connector-curvature="0" fill="#F3835D" d="M671.154,511.551h3.267
			c0,1.803-1.462,3.268-3.267,3.268c-1.803,0-3.267-1.465-3.267-3.268c0-1.805,1.463-3.268,3.267-3.268
			c1.805,0,3.267,1.463,3.267,3.268l0,0H671.154z"/>
	</g>
	<g id="g4257_2_">
		<path id="path4259_2_" inkscape:connector-curvature="0" opacity="0.5" fill="#01434C" enable-background="new    " d="
			M671.154,478.34h7.349c0,4.055-3.288,7.352-7.349,7.352c-4.057,0-7.349-3.297-7.349-7.352c0-4.061,3.292-7.352,7.349-7.352
			c4.061,0,7.349,3.291,7.349,7.352l0,0H671.154z"/>
		<path id="path4261_2_" inkscape:connector-curvature="0" fill="#01434C" d="M671.154,478.34h3.267
			c0,1.802-1.462,3.268-3.267,3.268c-1.803,0-3.267-1.466-3.267-3.268c0-1.805,1.463-3.268,3.267-3.268
			c1.805,0,3.267,1.463,3.267,3.268l0,0H671.154L671.154,478.34z"/>
	</g>
	<g id="g4263_2_">
		<path id="path4265_2_" inkscape:connector-curvature="0" opacity="0.5" fill="#8E5C64" enable-background="new    " d="
			M671.154,445.129h7.349c0,4.055-3.288,7.352-7.349,7.352c-4.057,0-7.349-3.297-7.349-7.352c0-4.061,3.292-7.352,7.349-7.352
			c4.061,0,7.349,3.291,7.349,7.352l0,0H671.154z"/>
		<path id="path4267_2_" inkscape:connector-curvature="0" fill="#8E5C64" d="M671.154,445.129h3.267
			c0,1.802-1.462,3.268-3.267,3.268c-1.803,0-3.267-1.466-3.267-3.268c0-1.805,1.463-3.268,3.267-3.268
			c1.805,0,3.267,1.463,3.267,3.268l0,0H671.154z"/>
	</g>
	<g id="g4269_2_">
		<path id="path4271_2_" inkscape:connector-curvature="0" opacity="0.5" fill="#F15B55" enable-background="new    " d="
			M671.154,411.918h7.349c0,4.055-3.288,7.352-7.349,7.352c-4.057,0-7.349-3.297-7.349-7.352c0-4.061,3.292-7.352,7.349-7.352
			c4.061,0,7.349,3.291,7.349,7.352l0,0H671.154z"/>
		<path id="path4273_2_" inkscape:connector-curvature="0" fill="#F15B55" d="M671.154,411.918h3.267
			c0,1.802-1.462,3.267-3.267,3.267c-1.803,0-3.267-1.465-3.267-3.267c0-1.805,1.463-3.268,3.267-3.268
			c1.805,0,3.267,1.463,3.267,3.268l0,0H671.154z"/>
	</g>
	<g id="g4275_2_">
		<path id="path4277_2_" inkscape:connector-curvature="0" opacity="0.5" fill="#F15B55" enable-background="new    " d="
			M671.154,378.707h7.349c0,4.055-3.288,7.351-7.349,7.351c-4.057,0-7.349-3.296-7.349-7.351c0-4.061,3.292-7.352,7.349-7.352
			c4.061,0,7.349,3.291,7.349,7.352l0,0H671.154z"/>
		<path id="path4279_2_" inkscape:connector-curvature="0" fill="#F15B55" d="M671.154,378.707h3.267
			c0,1.802-1.462,3.267-3.267,3.267c-1.803,0-3.267-1.465-3.267-3.267c0-1.805,1.463-3.268,3.267-3.268
			c1.805,0,3.267,1.463,3.267,3.268l0,0H671.154z"/>
	</g>
	<g id="g4281_2_">
		<path id="path4283_2_" inkscape:connector-curvature="0" opacity="0.5" fill="#95A565" enable-background="new    " d="
			M851.758,511.551h7.348c0,4.056-3.29,7.352-7.348,7.352s-7.351-3.296-7.351-7.352c0-4.061,3.293-7.352,7.351-7.352
			s7.348,3.291,7.348,7.352l0,0H851.758z"/>
		<path id="path4285_2_" inkscape:connector-curvature="0" fill="#95A565" d="M851.758,511.551h3.266
			c0,1.803-1.462,3.268-3.266,3.268c-1.803,0-3.267-1.465-3.267-3.268c0-1.805,1.463-3.268,3.267-3.268s3.266,1.463,3.266,3.268l0,0
			H851.758z"/>
	</g>
	<g id="g4287_2_">
		<path id="path4289_2_" inkscape:connector-curvature="0" opacity="0.5" fill="#F15B55" enable-background="new    " d="
			M851.758,478.34h7.348c0,4.055-3.29,7.352-7.348,7.352s-7.351-3.297-7.351-7.352c0-4.061,3.293-7.352,7.351-7.352
			s7.348,3.291,7.348,7.352l0,0H851.758z"/>
		<path id="path4291_2_" inkscape:connector-curvature="0" fill="#F15B55" d="M851.758,478.34h3.266
			c0,1.802-1.462,3.268-3.266,3.268c-1.803,0-3.267-1.466-3.267-3.268c0-1.805,1.463-3.268,3.267-3.268s3.266,1.463,3.266,3.268l0,0
			H851.758L851.758,478.34z"/>
	</g>
	<g id="g4293_2_">
		<path id="path4295_2_" inkscape:connector-curvature="0" opacity="0.5" fill="#F15B55" enable-background="new    " d="
			M851.758,445.129h7.348c0,4.055-3.29,7.352-7.348,7.352s-7.351-3.297-7.351-7.352c0-4.061,3.293-7.352,7.351-7.352
			s7.348,3.291,7.348,7.352l0,0H851.758z"/>
		<path id="path4297_2_" inkscape:connector-curvature="0" fill="#F15B55" d="M851.758,445.129h3.266
			c0,1.802-1.462,3.268-3.266,3.268c-1.803,0-3.267-1.466-3.267-3.268c0-1.805,1.463-3.268,3.267-3.268s3.266,1.463,3.266,3.268l0,0
			H851.758z"/>
	</g>
	<g id="g4299_2_">
		<path id="path4301_2_" inkscape:connector-curvature="0" opacity="0.5" fill="#F15B55" enable-background="new    " d="
			M851.758,411.918h7.348c0,4.055-3.29,7.352-7.348,7.352s-7.351-3.297-7.351-7.352c0-4.061,3.293-7.352,7.351-7.352
			s7.348,3.291,7.348,7.352l0,0H851.758z"/>
		<path id="path4303_2_" inkscape:connector-curvature="0" fill="#F15B55" d="M851.758,411.918h3.266
			c0,1.802-1.462,3.267-3.266,3.267c-1.803,0-3.267-1.465-3.267-3.267c0-1.805,1.463-3.268,3.267-3.268s3.266,1.463,3.266,3.268l0,0
			H851.758z"/>
	</g>
	<g id="g4305_2_">
		<path id="path4307_2_" inkscape:connector-curvature="0" opacity="0.5" fill="#F15B55" enable-background="new    " d="
			M851.758,378.707h7.348c0,4.055-3.29,7.351-7.348,7.351s-7.351-3.296-7.351-7.351c0-4.061,3.293-7.352,7.351-7.352
			s7.348,3.291,7.348,7.352l0,0H851.758z"/>
		<path id="path4309_2_" inkscape:connector-curvature="0" fill="#F15B55" d="M851.758,378.707h3.266
			c0,1.802-1.462,3.267-3.266,3.267c-1.803,0-3.267-1.465-3.267-3.267c0-1.805,1.463-3.268,3.267-3.268s3.266,1.463,3.266,3.268l0,0
			H851.758z"/>
	</g>
	<g id="g4311_2_">
		<path id="path4313_2_" inkscape:connector-curvature="0" opacity="0.5" fill="#95A565" enable-background="new    " d="
			M911.958,511.551h7.348c0,4.056-3.288,7.352-7.348,7.352c-4.058,0-7.35-3.296-7.35-7.352c0-4.061,3.292-7.352,7.35-7.352
			c4.06,0,7.348,3.291,7.348,7.352l0,0H911.958z"/>
		<path id="path4315_2_" inkscape:connector-curvature="0" fill="#95A565" d="M911.958,511.551h3.266
			c0,1.803-1.462,3.268-3.266,3.268c-1.803,0-3.268-1.465-3.268-3.268c0-1.805,1.464-3.268,3.268-3.268s3.266,1.463,3.266,3.268l0,0
			H911.958z"/>
	</g>
	<g id="g4317_2_">
		<path id="path4319_2_" inkscape:connector-curvature="0" opacity="0.5" fill="#F3835D" enable-background="new    " d="
			M911.958,478.34h7.348c0,4.055-3.288,7.352-7.348,7.352c-4.058,0-7.35-3.297-7.35-7.352c0-4.061,3.292-7.352,7.35-7.352
			c4.06,0,7.348,3.291,7.348,7.352l0,0H911.958z"/>
		<path id="path4321_2_" inkscape:connector-curvature="0" fill="#F3835D" d="M911.958,478.34h3.266
			c0,1.802-1.462,3.268-3.266,3.268c-1.803,0-3.268-1.466-3.268-3.268c0-1.805,1.464-3.268,3.268-3.268s3.266,1.463,3.266,3.268l0,0
			H911.958L911.958,478.34z"/>
	</g>
	<g id="g4323_2_">
		<path id="path4325_2_" inkscape:connector-curvature="0" opacity="0.5" fill="#8E5C64" enable-background="new    " d="
			M911.958,445.129h7.348c0,4.055-3.288,7.352-7.348,7.352c-4.058,0-7.35-3.297-7.35-7.352c0-4.061,3.292-7.352,7.35-7.352
			c4.06,0,7.348,3.291,7.348,7.352l0,0H911.958z"/>
		<path id="path4327_2_" inkscape:connector-curvature="0" fill="#8E5C64" d="M911.958,445.129h3.266
			c0,1.802-1.462,3.268-3.266,3.268c-1.803,0-3.268-1.466-3.268-3.268c0-1.805,1.464-3.268,3.268-3.268s3.266,1.463,3.266,3.268l0,0
			H911.958z"/>
	</g>
	<g id="g4329_2_">
		<path id="path4331_2_" inkscape:connector-curvature="0" opacity="0.5" fill="#EEC064" enable-background="new    " d="
			M911.958,411.918h7.348c0,4.055-3.288,7.352-7.348,7.352c-4.058,0-7.35-3.297-7.35-7.352c0-4.061,3.292-7.352,7.35-7.352
			c4.06,0,7.348,3.291,7.348,7.352l0,0H911.958z"/>
		<path id="path4333_2_" inkscape:connector-curvature="0" fill="#EEC064" d="M911.958,411.918h3.266
			c0,1.802-1.462,3.267-3.266,3.267c-1.803,0-3.268-1.465-3.268-3.267c0-1.805,1.464-3.268,3.268-3.268s3.266,1.463,3.266,3.268l0,0
			H911.958z"/>
	</g>
	<g id="g4335_2_">
		<path id="path4337_2_" inkscape:connector-curvature="0" opacity="0.5" fill="#EEC064" enable-background="new    " d="
			M911.958,378.707h7.348c0,4.055-3.288,7.351-7.348,7.351c-4.058,0-7.35-3.296-7.35-7.351c0-4.061,3.292-7.352,7.35-7.352
			c4.06,0,7.348,3.291,7.348,7.352l0,0H911.958z"/>
		<path id="path4339_2_" inkscape:connector-curvature="0" fill="#EEC064" d="M911.958,378.707h3.266
			c0,1.802-1.462,3.267-3.266,3.267c-1.803,0-3.268-1.465-3.268-3.267c0-1.805,1.464-3.268,3.268-3.268s3.266,1.463,3.266,3.268l0,0
			H911.958z"/>
	</g>
	<g id="g4341_2_">
		<path id="path4343_2_" inkscape:connector-curvature="0" opacity="0.5" fill="#F15B55" enable-background="new    " d="
			M911.958,345.494h7.348c0,4.055-3.288,7.351-7.348,7.351c-4.058,0-7.35-3.296-7.35-7.351c0-4.062,3.292-7.353,7.35-7.353
			c4.06,0,7.348,3.291,7.348,7.353l0,0H911.958z"/>
		<path id="path4345_2_" inkscape:connector-curvature="0" fill="#F15B55" d="M911.958,345.494h3.266
			c0,1.802-1.462,3.267-3.266,3.267c-1.803,0-3.268-1.465-3.268-3.267c0-1.805,1.464-3.269,3.268-3.269s3.266,1.464,3.266,3.269l0,0
			H911.958z"/>
	</g>
	<g id="g4347_2_">
		<path id="path4349_2_" inkscape:connector-curvature="0" opacity="0.5" fill="#F15B55" enable-background="new    " d="
			M911.958,312.283h7.348c0,4.055-3.288,7.351-7.348,7.351c-4.058,0-7.35-3.296-7.35-7.351c0-4.062,3.292-7.353,7.35-7.353
			c4.06,0,7.348,3.291,7.348,7.353l0,0H911.958z"/>
		<path id="path4351_2_" inkscape:connector-curvature="0" fill="#F15B55" d="M911.958,312.283h3.266
			c0,1.802-1.462,3.267-3.266,3.267c-1.803,0-3.268-1.465-3.268-3.267c0-1.805,1.464-3.269,3.268-3.269s3.266,1.464,3.266,3.269l0,0
			H911.958z"/>
	</g>
	<g id="g4353_2_">
		<path id="path4355_2_" inkscape:connector-curvature="0" opacity="0.5" fill="#F15B55" enable-background="new    " d="
			M911.958,279.072h7.348c0,4.055-3.288,7.351-7.348,7.351c-4.058,0-7.35-3.296-7.35-7.351c0-4.062,3.292-7.352,7.35-7.352
			c4.06,0,7.348,3.29,7.348,7.352l0,0H911.958z"/>
		<path id="path4357_2_" inkscape:connector-curvature="0" fill="#F15B55" d="M911.958,279.072h3.266
			c0,1.802-1.462,3.267-3.266,3.267c-1.803,0-3.268-1.465-3.268-3.267c0-1.806,1.464-3.269,3.268-3.269s3.266,1.463,3.266,3.269l0,0
			H911.958z"/>
	</g>
	<g id="g4359_2_">
		<path id="path4361_2_" inkscape:connector-curvature="0" opacity="0.5" fill="#F15B55" enable-background="new    " d="
			M911.958,245.861h7.348c0,4.055-3.288,7.351-7.348,7.351c-4.058,0-7.35-3.296-7.35-7.351c0-4.061,3.292-7.352,7.35-7.352
			c4.06,0,7.348,3.291,7.348,7.352l0,0H911.958z"/>
		<path id="path4363_2_" inkscape:connector-curvature="0" fill="#F15B55" d="M911.958,245.861h3.266
			c0,1.802-1.462,3.267-3.266,3.267c-1.803,0-3.268-1.465-3.268-3.267c0-1.805,1.464-3.268,3.268-3.268s3.266,1.463,3.266,3.268l0,0
			H911.958z"/>
	</g>
	<g id="g4365_2_">
		<path id="path4367_2_" inkscape:connector-curvature="0" opacity="0.5" fill="#CCCACA" enable-background="new    " d="
			M972.16,511.551h7.348c0,4.056-3.29,7.352-7.348,7.352c-4.059,0-7.352-3.296-7.352-7.352c0-4.061,3.293-7.352,7.352-7.352
			c4.058,0,7.348,3.291,7.348,7.352l0,0H972.16z"/>
		<path id="path4369_2_" inkscape:connector-curvature="0" fill="#CCCACA" d="M972.159,511.551h3.266
			c0,1.803-1.462,3.268-3.266,3.268s-3.268-1.465-3.268-3.268c0-1.805,1.463-3.268,3.268-3.268c1.804,0,3.266,1.463,3.266,3.268l0,0
			H972.159z"/>
	</g>
	<g id="g4371_2_">
		<path id="path4373_2_" inkscape:connector-curvature="0" opacity="0.5" fill="#EEC064" enable-background="new    " d="
			M972.16,478.34h7.348c0,4.055-3.29,7.352-7.348,7.352c-4.059,0-7.352-3.297-7.352-7.352c0-4.061,3.293-7.352,7.352-7.352
			c4.058,0,7.348,3.291,7.348,7.352l0,0H972.16z"/>
		<path id="path4375_2_" inkscape:connector-curvature="0" fill="#EEC064" d="M972.159,478.34h3.266
			c0,1.802-1.462,3.268-3.266,3.268s-3.268-1.466-3.268-3.268c0-1.805,1.463-3.268,3.268-3.268c1.804,0,3.266,1.463,3.266,3.268l0,0
			H972.159L972.159,478.34z"/>
	</g>
	<g id="g4377_2_">
		<path id="path4379_2_" inkscape:connector-curvature="0" opacity="0.5" fill="#95A565" enable-background="new    " d="
			M972.16,445.129h7.348c0,4.055-3.29,7.352-7.348,7.352c-4.059,0-7.352-3.297-7.352-7.352c0-4.061,3.293-7.352,7.352-7.352
			c4.058,0,7.348,3.291,7.348,7.352l0,0H972.16z"/>
		<path id="path4381_2_" inkscape:connector-curvature="0" fill="#95A565" d="M972.159,445.129h3.266
			c0,1.802-1.462,3.268-3.266,3.268s-3.268-1.466-3.268-3.268c0-1.805,1.463-3.268,3.268-3.268c1.804,0,3.266,1.463,3.266,3.268l0,0
			H972.159z"/>
	</g>
	<g id="g4383_2_">
		<path id="path4385_2_" inkscape:connector-curvature="0" opacity="0.5" fill="#F15B55" enable-background="new    " d="
			M972.16,411.918h7.348c0,4.055-3.29,7.352-7.348,7.352c-4.059,0-7.352-3.297-7.352-7.352c0-4.061,3.293-7.352,7.352-7.352
			c4.058,0,7.348,3.291,7.348,7.352l0,0H972.16z"/>
		<path id="path4387_2_" inkscape:connector-curvature="0" fill="#F15B55" d="M972.159,411.918h3.266
			c0,1.802-1.462,3.267-3.266,3.267s-3.268-1.465-3.268-3.267c0-1.805,1.463-3.268,3.268-3.268c1.804,0,3.266,1.463,3.266,3.268l0,0
			H972.159z"/>
	</g>
	<g id="g4389_2_">
		<path id="path4391_2_" inkscape:connector-curvature="0" opacity="0.5" fill="#F15B55" enable-background="new    " d="
			M972.16,378.707h7.348c0,4.055-3.29,7.351-7.348,7.351c-4.059,0-7.352-3.296-7.352-7.351c0-4.061,3.293-7.352,7.352-7.352
			c4.058,0,7.348,3.291,7.348,7.352l0,0H972.16z"/>
		<path id="path4393_2_" inkscape:connector-curvature="0" fill="#F15B55" d="M972.159,378.707h3.266
			c0,1.802-1.462,3.267-3.266,3.267s-3.268-1.465-3.268-3.267c0-1.805,1.463-3.268,3.268-3.268c1.804,0,3.266,1.463,3.266,3.268l0,0
			H972.159z"/>
	</g>
	<g id="g4395_2_">
		<path id="path4397_2_" inkscape:connector-curvature="0" opacity="0.5" fill="#F15B55" enable-background="new    " d="
			M972.16,345.494h7.348c0,4.055-3.29,7.351-7.348,7.351c-4.059,0-7.352-3.296-7.352-7.351c0-4.062,3.293-7.353,7.352-7.353
			c4.058,0,7.348,3.291,7.348,7.353l0,0H972.16z"/>
		<path id="path4399_2_" inkscape:connector-curvature="0" fill="#F15B55" d="M972.159,345.494h3.266
			c0,1.802-1.462,3.267-3.266,3.267s-3.268-1.465-3.268-3.267c0-1.805,1.463-3.269,3.268-3.269c1.804,0,3.266,1.464,3.266,3.269l0,0
			H972.159z"/>
	</g>
	<g id="g4401_2_">
		<path id="path4403_2_" inkscape:connector-curvature="0" opacity="0.5" fill="#F15B55" enable-background="new    " d="
			M972.16,312.283h7.348c0,4.055-3.29,7.351-7.348,7.351c-4.059,0-7.352-3.296-7.352-7.351c0-4.062,3.293-7.353,7.352-7.353
			c4.058,0,7.348,3.291,7.348,7.353l0,0H972.16z"/>
		<path id="path4405_2_" inkscape:connector-curvature="0" fill="#F15B55" d="M972.159,312.283h3.266
			c0,1.802-1.462,3.267-3.266,3.267s-3.268-1.465-3.268-3.267c0-1.805,1.463-3.269,3.268-3.269c1.804,0,3.266,1.464,3.266,3.269l0,0
			H972.159z"/>
	</g>
	<g id="g4407_2_">
		<path id="path4409_2_" inkscape:connector-curvature="0" opacity="0.5" fill="#F15B55" enable-background="new    " d="
			M972.16,279.072h7.348c0,4.055-3.29,7.351-7.348,7.351c-4.059,0-7.352-3.296-7.352-7.351c0-4.062,3.293-7.352,7.352-7.352
			c4.058,0,7.348,3.29,7.348,7.352l0,0H972.16z"/>
		<path id="path4411_2_" inkscape:connector-curvature="0" fill="#F15B55" d="M972.159,279.072h3.266
			c0,1.802-1.462,3.267-3.266,3.267s-3.268-1.465-3.268-3.267c0-1.806,1.463-3.269,3.268-3.269c1.804,0,3.266,1.463,3.266,3.269l0,0
			H972.159z"/>
	</g>
	<g id="g4413_2_">
		<path id="path4415_2_" inkscape:connector-curvature="0" opacity="0.5" fill="#CCCACA" enable-background="new    " d="
			M1092.561,511.551h7.349c0,4.056-3.29,7.352-7.349,7.352c-4.058,0-7.351-3.296-7.351-7.352c0-4.061,3.293-7.352,7.351-7.352
			c4.059,0,7.349,3.291,7.349,7.352l0,0H1092.561z"/>
		<path id="path4417_2_" inkscape:connector-curvature="0" fill="#CCCACA" d="M1092.56,511.551h3.267
			c0,1.803-1.462,3.268-3.267,3.268c-1.803,0-3.267-1.465-3.267-3.268c0-1.805,1.463-3.268,3.267-3.268
			c1.805,0,3.267,1.463,3.267,3.268l0,0H1092.56z"/>
	</g>
	<g id="g4419_2_">
		<path id="path4421_2_" inkscape:connector-curvature="0" opacity="0.5" fill="#CCCACA" enable-background="new    " d="
			M1092.561,478.34h7.349c0,4.055-3.29,7.352-7.349,7.352c-4.058,0-7.351-3.297-7.351-7.352c0-4.061,3.293-7.352,7.351-7.352
			c4.059,0,7.349,3.291,7.349,7.352l0,0H1092.561z"/>
		<path id="path4423_2_" inkscape:connector-curvature="0" fill="#CCCACA" d="M1092.56,478.34h3.267
			c0,1.802-1.462,3.268-3.267,3.268c-1.803,0-3.267-1.466-3.267-3.268c0-1.805,1.463-3.268,3.267-3.268
			c1.805,0,3.267,1.463,3.267,3.268l0,0H1092.56L1092.56,478.34z"/>
	</g>
	<g id="g4425_2_">
		<path id="path4427_2_" inkscape:connector-curvature="0" opacity="0.5" fill="#CCCACA" enable-background="new    " d="
			M1152.762,511.551h7.348c0,4.056-3.289,7.352-7.348,7.352c-4.058,0-7.351-3.296-7.351-7.352c0-4.061,3.293-7.352,7.351-7.352
			c4.059,0,7.348,3.291,7.348,7.352l0,0H1152.762z"/>
		<path id="path4429_2_" inkscape:connector-curvature="0" fill="#CCCACA" d="M1152.761,511.551h3.267
			c0,1.803-1.463,3.268-3.267,3.268c-1.803,0-3.267-1.465-3.267-3.268c0-1.805,1.463-3.268,3.267-3.268s3.267,1.463,3.267,3.268l0,0
			H1152.761z"/>
	</g>
	<g id="g4431_2_">
		<path id="path4433_2_" inkscape:connector-curvature="0" opacity="0.5" fill="#F15B55" enable-background="new    " d="
			M1152.762,478.34h7.348c0,4.055-3.289,7.352-7.348,7.352c-4.058,0-7.351-3.297-7.351-7.352c0-4.061,3.293-7.352,7.351-7.352
			c4.059,0,7.348,3.291,7.348,7.352l0,0H1152.762z"/>
		<path id="path4435_2_" inkscape:connector-curvature="0" fill="#F15B55" d="M1152.761,478.34h3.267
			c0,1.802-1.463,3.268-3.267,3.268c-1.803,0-3.267-1.466-3.267-3.268c0-1.805,1.463-3.268,3.267-3.268s3.267,1.463,3.267,3.268l0,0
			H1152.761L1152.761,478.34z"/>
	</g>
	<g id="g4437_2_">
		<path id="path4439_2_" inkscape:connector-curvature="0" opacity="0.5" fill="#F3835D" enable-background="new    " d="
			M1092.561,445.129h7.349c0,4.055-3.29,7.352-7.349,7.352c-4.058,0-7.351-3.297-7.351-7.352c0-4.061,3.293-7.352,7.351-7.352
			c4.059,0,7.349,3.291,7.349,7.352l0,0H1092.561z"/>
		<path id="path4441_2_" inkscape:connector-curvature="0" fill="#F3835D" d="M1092.56,445.129h3.267
			c0,1.802-1.462,3.268-3.267,3.268c-1.803,0-3.267-1.466-3.267-3.268c0-1.805,1.463-3.268,3.267-3.268
			c1.805,0,3.267,1.463,3.267,3.268l0,0H1092.56z"/>
	</g>
	<g id="g4443_2_">
		<path id="path4445_2_" inkscape:connector-curvature="0" opacity="0.5" fill="#8E5C64" enable-background="new    " d="
			M1092.561,411.918h7.349c0,4.055-3.29,7.352-7.349,7.352c-4.058,0-7.351-3.297-7.351-7.352c0-4.061,3.293-7.352,7.351-7.352
			c4.059,0,7.349,3.291,7.349,7.352l0,0H1092.561z"/>
		<path id="path4447_2_" inkscape:connector-curvature="0" fill="#8E5C64" d="M1092.56,411.918h3.267
			c0,1.802-1.462,3.267-3.267,3.267c-1.803,0-3.267-1.465-3.267-3.267c0-1.805,1.463-3.268,3.267-3.268
			c1.805,0,3.267,1.463,3.267,3.268l0,0H1092.56z"/>
	</g>
	<g id="g4449_2_">
		<path id="path4451_2_" inkscape:connector-curvature="0" opacity="0.5" fill="#F15B55" enable-background="new    " d="
			M1092.561,378.707h7.349c0,4.055-3.29,7.351-7.349,7.351c-4.058,0-7.351-3.296-7.351-7.351c0-4.061,3.293-7.352,7.351-7.352
			c4.059,0,7.349,3.291,7.349,7.352l0,0H1092.561z"/>
		<path id="path4453_2_" inkscape:connector-curvature="0" fill="#F15B55" d="M1092.56,378.707h3.267
			c0,1.802-1.462,3.267-3.267,3.267c-1.803,0-3.267-1.465-3.267-3.267c0-1.805,1.463-3.268,3.267-3.268
			c1.805,0,3.267,1.463,3.267,3.268l0,0H1092.56z"/>
	</g>
	<g id="g4455_2_">
		<path id="path4457_2_" inkscape:connector-curvature="0" opacity="0.5" fill="#F15B55" enable-background="new    " d="
			M1092.561,345.494h7.349c0,4.055-3.29,7.351-7.349,7.351c-4.058,0-7.351-3.296-7.351-7.351c0-4.062,3.293-7.353,7.351-7.353
			c4.059,0,7.349,3.291,7.349,7.353l0,0H1092.561z"/>
		<path id="path4459_2_" inkscape:connector-curvature="0" fill="#F15B55" d="M1092.56,345.494h3.267
			c0,1.802-1.462,3.267-3.267,3.267c-1.803,0-3.267-1.465-3.267-3.267c0-1.805,1.463-3.269,3.267-3.269
			c1.805,0,3.267,1.464,3.267,3.269l0,0H1092.56z"/>
	</g>
	<g id="g4461_2_">
		<path id="path4463_2_" inkscape:connector-curvature="0" opacity="0.5" fill="#F15B55" enable-background="new    " d="
			M1092.561,312.283h7.349c0,4.055-3.29,7.351-7.349,7.351c-4.058,0-7.351-3.296-7.351-7.351c0-4.062,3.293-7.353,7.351-7.353
			c4.059,0,7.349,3.291,7.349,7.353l0,0H1092.561z"/>
		<path id="path4465_2_" inkscape:connector-curvature="0" fill="#F15B55" d="M1092.56,312.283h3.267
			c0,1.802-1.462,3.267-3.267,3.267c-1.803,0-3.267-1.465-3.267-3.267c0-1.805,1.463-3.269,3.267-3.269
			c1.805,0,3.267,1.464,3.267,3.269l0,0H1092.56z"/>
	</g>
	<g id="g4467_2_">
		<path id="path4469_2_" inkscape:connector-curvature="0" opacity="0.5" fill="#F15B55" enable-background="new    " d="
			M1092.561,279.072h7.349c0,4.055-3.29,7.351-7.349,7.351c-4.058,0-7.351-3.296-7.351-7.351c0-4.062,3.293-7.352,7.351-7.352
			c4.059,0,7.349,3.29,7.349,7.352l0,0H1092.561z"/>
		<path id="path4471_2_" inkscape:connector-curvature="0" fill="#F15B55" d="M1092.56,279.072h3.267
			c0,1.802-1.462,3.267-3.267,3.267c-1.803,0-3.267-1.465-3.267-3.267c0-1.806,1.463-3.269,3.267-3.269
			c1.805,0,3.267,1.463,3.267,3.269l0,0H1092.56z"/>
	</g>
	<g id="g4473_2_">
		<path id="path4475_2_" inkscape:connector-curvature="0" opacity="0.5" fill="#F15B55" enable-background="new    " d="
			M972.16,245.861h7.348c0,4.055-3.29,7.351-7.348,7.351c-4.059,0-7.352-3.296-7.352-7.351c0-4.061,3.293-7.352,7.352-7.352
			c4.058,0,7.348,3.291,7.348,7.352l0,0H972.16z"/>
		<path id="path4477_2_" inkscape:connector-curvature="0" fill="#F15B55" d="M972.159,245.861h3.266
			c0,1.802-1.462,3.267-3.266,3.267s-3.268-1.465-3.268-3.267c0-1.805,1.463-3.268,3.268-3.268c1.804,0,3.266,1.463,3.266,3.268l0,0
			H972.159z"/>
	</g>
	<g id="g4479_2_">
		<path id="path4481_2_" inkscape:connector-curvature="0" opacity="0.5" fill="#F15B55" enable-background="new    " d="
			M911.958,212.65h7.348c0,4.055-3.288,7.351-7.348,7.351c-4.058,0-7.35-3.296-7.35-7.351c0-4.061,3.292-7.352,7.35-7.352
			c4.06,0,7.348,3.291,7.348,7.352l0,0H911.958z"/>
		<path id="path4483_2_" inkscape:connector-curvature="0" fill="#F15B55" d="M911.958,212.65h3.266
			c0,1.802-1.462,3.267-3.266,3.267c-1.803,0-3.268-1.465-3.268-3.267c0-1.805,1.464-3.268,3.268-3.268s3.266,1.463,3.266,3.268l0,0
			H911.958z"/>
	</g>
	<g id="g4485_2_">
		<path id="path4487_2_" inkscape:connector-curvature="0" opacity="0.5" fill="#F15B55" enable-background="new    " d="
			M911.958,179.793h7.348c0,4.055-3.288,7.351-7.348,7.351c-4.058,0-7.35-3.296-7.35-7.351c0-4.061,3.292-7.352,7.35-7.352
			c4.06,0,7.348,3.291,7.348,7.352l0,0H911.958z"/>
		<path id="path4489_2_" inkscape:connector-curvature="0" fill="#F15B55" d="M911.958,179.793h3.266
			c0,1.802-1.462,3.267-3.266,3.267c-1.803,0-3.268-1.465-3.268-3.267c0-1.805,1.464-3.268,3.268-3.268s3.266,1.463,3.266,3.268l0,0
			H911.958z"/>
	</g>
	<g id="g4491_2_">
		<path id="path4493_2_" inkscape:connector-curvature="0" opacity="0.5" fill="#F15B55" enable-background="new    " d="
			M911.958,146.582h7.348c0,4.055-3.288,7.351-7.348,7.351c-4.058,0-7.35-3.296-7.35-7.351c0-4.061,3.292-7.352,7.35-7.352
			c4.06,0,7.348,3.291,7.348,7.352l0,0H911.958z"/>
		<path id="path4495_2_" inkscape:connector-curvature="0" fill="#F15B55" d="M911.958,146.582h3.266
			c0,1.802-1.462,3.267-3.266,3.267c-1.803,0-3.268-1.465-3.268-3.267c0-1.805,1.464-3.268,3.268-3.268s3.266,1.463,3.266,3.268l0,0
			H911.958z"/>
	</g>
	<g id="g4497_2_">
		<path id="path4499_2_" inkscape:connector-curvature="0" opacity="0.5" fill="#F15B55" enable-background="new    " d="
			M911.958,113.371h7.348c0,4.055-3.288,7.351-7.348,7.351c-4.058,0-7.35-3.296-7.35-7.351c0-4.061,3.292-7.352,7.35-7.352
			c4.06,0,7.348,3.291,7.348,7.352l0,0H911.958z"/>
		<path id="path4501_2_" inkscape:connector-curvature="0" fill="#F15B55" d="M911.958,113.371h3.266
			c0,1.802-1.462,3.267-3.266,3.267c-1.803,0-3.268-1.465-3.268-3.267c0-1.805,1.464-3.268,3.268-3.268s3.266,1.463,3.266,3.268l0,0
			H911.958z"/>
	</g>
	<g id="g4503_2_">
		<path id="path4505_2_" inkscape:connector-curvature="0" opacity="0.5" fill="#CCCACA" enable-background="new    " d="
			M1032.359,511.551h7.349c0,4.056-3.288,7.352-7.349,7.352c-4.057,0-7.349-3.296-7.349-7.352c0-4.061,3.292-7.352,7.349-7.352
			c4.061,0,7.349,3.291,7.349,7.352l0,0H1032.359z"/>
		<path id="path4507_2_" inkscape:connector-curvature="0" fill="#CCCACA" d="M1032.359,511.551h3.267
			c0,1.803-1.462,3.268-3.267,3.268c-1.803,0-3.267-1.465-3.267-3.268c0-1.805,1.463-3.268,3.267-3.268
			c1.805,0,3.267,1.463,3.267,3.268l0,0H1032.359z"/>
	</g>
	<g id="g4509_2_">
		<path id="path4511_2_" inkscape:connector-curvature="0" opacity="0.5" fill="#CCCACA" enable-background="new    " d="
			M1032.359,478.34h7.349c0,4.055-3.288,7.352-7.349,7.352c-4.057,0-7.349-3.297-7.349-7.352c0-4.061,3.292-7.352,7.349-7.352
			c4.061,0,7.349,3.291,7.349,7.352l0,0H1032.359z"/>
		<path id="path4513_2_" inkscape:connector-curvature="0" fill="#CCCACA" d="M1032.359,478.34h3.267
			c0,1.802-1.462,3.268-3.267,3.268c-1.803,0-3.267-1.466-3.267-3.268c0-1.805,1.463-3.268,3.267-3.268
			c1.805,0,3.267,1.463,3.267,3.268l0,0H1032.359L1032.359,478.34z"/>
	</g>
	<g id="g4515_2_">
		<path id="path4517_2_" inkscape:connector-curvature="0" opacity="0.5" fill="#CCCACA" enable-background="new    " d="
			M1032.359,445.129h7.349c0,4.055-3.288,7.352-7.349,7.352c-4.057,0-7.349-3.297-7.349-7.352c0-4.061,3.292-7.352,7.349-7.352
			c4.061,0,7.349,3.291,7.349,7.352l0,0H1032.359z"/>
		<path id="path4519_2_" inkscape:connector-curvature="0" fill="#CCCACA" d="M1032.359,445.129h3.267
			c0,1.802-1.462,3.268-3.267,3.268c-1.803,0-3.267-1.466-3.267-3.268c0-1.805,1.463-3.268,3.267-3.268
			c1.805,0,3.267,1.463,3.267,3.268l0,0H1032.359z"/>
	</g>
	<g id="g4521_2_">
		<path id="path4523_2_" inkscape:connector-curvature="0" opacity="0.5" fill="#CCCACA" enable-background="new    " d="
			M1032.359,411.918h7.349c0,4.055-3.288,7.352-7.349,7.352c-4.057,0-7.349-3.297-7.349-7.352c0-4.061,3.292-7.352,7.349-7.352
			c4.061,0,7.349,3.291,7.349,7.352l0,0H1032.359z"/>
		<path id="path4525_2_" inkscape:connector-curvature="0" fill="#CCCACA" d="M1032.359,411.918h3.267
			c0,1.802-1.462,3.267-3.267,3.267c-1.803,0-3.267-1.465-3.267-3.267c0-1.805,1.463-3.268,3.267-3.268
			c1.805,0,3.267,1.463,3.267,3.268l0,0H1032.359z"/>
	</g>
	<g id="g4527_2_">
		<path id="path4529_2_" inkscape:connector-curvature="0" opacity="0.5" fill="#CCCACA" enable-background="new    " d="
			M1032.359,378.707h7.349c0,4.055-3.288,7.351-7.349,7.351c-4.057,0-7.349-3.296-7.349-7.351c0-4.061,3.292-7.352,7.349-7.352
			c4.061,0,7.349,3.291,7.349,7.352l0,0H1032.359z"/>
		<path id="path4531_2_" inkscape:connector-curvature="0" fill="#CCCACA" d="M1032.359,378.707h3.267
			c0,1.802-1.462,3.267-3.267,3.267c-1.803,0-3.267-1.465-3.267-3.267c0-1.805,1.463-3.268,3.267-3.268
			c1.805,0,3.267,1.463,3.267,3.268l0,0H1032.359z"/>
	</g>
	<g id="g4533_2_">
		<path id="path4535_2_" inkscape:connector-curvature="0" opacity="0.5" fill="#EEC064" enable-background="new    " d="
			M1032.359,345.494h7.349c0,4.055-3.288,7.351-7.349,7.351c-4.057,0-7.349-3.296-7.349-7.351c0-4.062,3.292-7.353,7.349-7.353
			c4.061,0,7.349,3.291,7.349,7.353l0,0H1032.359z"/>
		<path id="path4537_2_" inkscape:connector-curvature="0" fill="#EEC064" d="M1032.359,345.494h3.267
			c0,1.802-1.462,3.267-3.267,3.267c-1.803,0-3.267-1.465-3.267-3.267c0-1.805,1.463-3.269,3.267-3.269
			c1.805,0,3.267,1.464,3.267,3.269l0,0H1032.359z"/>
	</g>
	<g id="g4539_2_">
		<path id="path4541_2_" inkscape:connector-curvature="0" opacity="0.5" fill="#EEC064" enable-background="new    " d="
			M1032.359,312.283h7.349c0,4.055-3.288,7.351-7.349,7.351c-4.057,0-7.349-3.296-7.349-7.351c0-4.062,3.292-7.353,7.349-7.353
			c4.061,0,7.349,3.291,7.349,7.353l0,0H1032.359z"/>
		<path id="path4543_2_" inkscape:connector-curvature="0" fill="#EEC064" d="M1032.359,312.283h3.267
			c0,1.802-1.462,3.267-3.267,3.267c-1.803,0-3.267-1.465-3.267-3.267c0-1.805,1.463-3.269,3.267-3.269
			c1.805,0,3.267,1.464,3.267,3.269l0,0H1032.359z"/>
	</g>
	<g id="g4545_2_">
		<path id="path4547_2_" inkscape:connector-curvature="0" opacity="0.5" fill="#95A565" enable-background="new    " d="
			M1032.359,279.072h7.349c0,4.055-3.288,7.351-7.349,7.351c-4.057,0-7.349-3.296-7.349-7.351c0-4.062,3.292-7.352,7.349-7.352
			c4.061,0,7.349,3.29,7.349,7.352l0,0H1032.359z"/>
		<path id="path4549_2_" inkscape:connector-curvature="0" fill="#95A565" d="M1032.359,279.072h3.267
			c0,1.802-1.462,3.267-3.267,3.267c-1.803,0-3.267-1.465-3.267-3.267c0-1.806,1.463-3.269,3.267-3.269
			c1.805,0,3.267,1.463,3.267,3.269l0,0H1032.359z"/>
	</g>
	<g id="g4551_2_">
		<path id="path4553_2_" inkscape:connector-curvature="0" opacity="0.5" fill="#95A565" enable-background="new    " d="
			M1032.359,245.861h7.349c0,4.055-3.288,7.351-7.349,7.351c-4.057,0-7.349-3.296-7.349-7.351c0-4.061,3.292-7.352,7.349-7.352
			c4.061,0,7.349,3.291,7.349,7.352l0,0H1032.359z"/>
		<path id="path4555_2_" inkscape:connector-curvature="0" fill="#95A565" d="M1032.359,245.861h3.267
			c0,1.802-1.462,3.267-3.267,3.267c-1.803,0-3.267-1.465-3.267-3.267c0-1.805,1.463-3.268,3.267-3.268
			c1.805,0,3.267,1.463,3.267,3.268l0,0H1032.359z"/>
	</g>
	<g id="g4557_2_">
		<path id="path4559_2_" inkscape:connector-curvature="0" opacity="0.5" fill="#F15B55" enable-background="new    " d="
			M1032.359,212.65h7.349c0,4.055-3.288,7.351-7.349,7.351c-4.057,0-7.349-3.296-7.349-7.351c0-4.061,3.292-7.352,7.349-7.352
			c4.061,0,7.349,3.291,7.349,7.352l0,0H1032.359z"/>
		<path id="path4561_2_" inkscape:connector-curvature="0" fill="#F15B55" d="M1032.359,212.65h3.267
			c0,1.802-1.462,3.267-3.267,3.267c-1.803,0-3.267-1.465-3.267-3.267c0-1.805,1.463-3.268,3.267-3.268
			c1.805,0,3.267,1.463,3.267,3.268l0,0H1032.359z"/>
	</g>
	<g id="g4563_2_">
		<path id="path4565_2_" inkscape:connector-curvature="0" opacity="0.5" fill="#F15B55" enable-background="new    " d="
			M1032.359,179.793h7.349c0,4.055-3.288,7.351-7.349,7.351c-4.057,0-7.349-3.296-7.349-7.351c0-4.061,3.292-7.352,7.349-7.352
			c4.061,0,7.349,3.291,7.349,7.352l0,0H1032.359z"/>
		<path id="path4567_2_" inkscape:connector-curvature="0" fill="#F15B55" d="M1032.359,179.793h3.267
			c0,1.802-1.462,3.267-3.267,3.267c-1.803,0-3.267-1.465-3.267-3.267c0-1.805,1.463-3.268,3.267-3.268
			c1.805,0,3.267,1.463,3.267,3.268l0,0H1032.359z"/>
	</g>
	<g id="g4569_2_">
		<path id="path4571_2_" inkscape:connector-curvature="0" opacity="0.5" fill="#F15B55" enable-background="new    " d="
			M1032.359,146.582h7.349c0,4.055-3.288,7.351-7.349,7.351c-4.057,0-7.349-3.296-7.349-7.351c0-4.061,3.292-7.352,7.349-7.352
			c4.061,0,7.349,3.291,7.349,7.352l0,0H1032.359z"/>
		<path id="path4573_2_" inkscape:connector-curvature="0" fill="#F15B55" d="M1032.359,146.582h3.267
			c0,1.802-1.462,3.267-3.267,3.267c-1.803,0-3.267-1.465-3.267-3.267c0-1.805,1.463-3.268,3.267-3.268
			c1.805,0,3.267,1.463,3.267,3.268l0,0H1032.359z"/>
	</g>
	<g id="g4575_2_">
		<path id="path4577_2_" inkscape:connector-curvature="0" opacity="0.5" fill="#F15B55" enable-background="new    " d="
			M1032.359,113.371h7.349c0,4.055-3.288,7.351-7.349,7.351c-4.057,0-7.349-3.296-7.349-7.351c0-4.061,3.292-7.352,7.349-7.352
			c4.061,0,7.349,3.291,7.349,7.352l0,0H1032.359z"/>
		<path id="path4579_2_" inkscape:connector-curvature="0" fill="#F15B55" d="M1032.359,113.371h3.267
			c0,1.802-1.462,3.267-3.267,3.267c-1.803,0-3.267-1.465-3.267-3.267c0-1.805,1.463-3.268,3.267-3.268
			c1.805,0,3.267,1.463,3.267,3.268l0,0H1032.359z"/>
	</g>
	<g id="g4581_2_">
		<path id="path4583_2_" inkscape:connector-curvature="0" opacity="0.5" fill="#F15B55" enable-background="new    " d="
			M1032.359,79.813h7.349c0,4.055-3.288,7.351-7.349,7.351c-4.057,0-7.349-3.296-7.349-7.351c0-4.061,3.292-7.352,7.349-7.352
			c4.061,0,7.349,3.291,7.349,7.352l0,0H1032.359z"/>
		<path id="path4585_2_" inkscape:connector-curvature="0" fill="#F15B55" d="M1032.359,79.813h3.267
			c0,1.802-1.462,3.267-3.267,3.267c-1.803,0-3.267-1.465-3.267-3.267c0-1.805,1.463-3.268,3.267-3.268
			c1.805,0,3.267,1.463,3.267,3.268l0,0H1032.359z"/>
	</g>
	<g id="g4587_2_">
		<path id="path4589_2_" inkscape:connector-curvature="0" opacity="0.5" fill="#F15B55" enable-background="new    " d="
			M1032.359,46.603h7.349c0,4.055-3.288,7.351-7.349,7.351c-4.057,0-7.349-3.296-7.349-7.351c0-4.061,3.292-7.352,7.349-7.352
			c4.061,0,7.349,3.291,7.349,7.352l0,0H1032.359z"/>
		<path id="path4591_2_" inkscape:connector-curvature="0" fill="#F15B55" d="M1032.359,46.603h3.267
			c0,1.802-1.462,3.267-3.267,3.267c-1.803,0-3.267-1.465-3.267-3.267c0-1.805,1.463-3.268,3.267-3.268
			c1.805,0,3.267,1.463,3.267,3.268l0,0H1032.359z"/>
	</g>
	<g id="g4593_2_">
		<path id="path4595_2_" inkscape:connector-curvature="0" opacity="0.5" fill="#CCCACA" enable-background="new    " d="
			M430.353,511.551h7.348c0,4.056-3.289,7.352-7.348,7.352c-4.057,0-7.35-3.296-7.35-7.352c0-4.061,3.293-7.352,7.35-7.352
			c4.059,0,7.348,3.291,7.348,7.352l0,0H430.353z"/>
		<path id="path4597_2_" inkscape:connector-curvature="0" fill="#CCCACA" d="M430.353,511.551h3.266
			c0,1.803-1.462,3.268-3.266,3.268c-1.803,0-3.267-1.465-3.267-3.268c0-1.805,1.463-3.268,3.267-3.268
			c1.804,0,3.266,1.463,3.266,3.268l0,0H430.353z"/>
	</g>
	<g id="g4599_2_">
		<path id="path4601_2_" inkscape:connector-curvature="0" opacity="0.5" fill="#95A565" enable-background="new    " d="
			M430.353,478.34h7.348c0,4.055-3.289,7.352-7.348,7.352c-4.057,0-7.35-3.297-7.35-7.352c0-4.061,3.293-7.352,7.35-7.352
			c4.059,0,7.348,3.291,7.348,7.352l0,0H430.353z"/>
		<path id="path4603_2_" inkscape:connector-curvature="0" fill="#95A565" d="M430.353,478.34h3.266
			c0,1.802-1.462,3.268-3.266,3.268c-1.803,0-3.267-1.466-3.267-3.268c0-1.805,1.463-3.268,3.267-3.268
			c1.804,0,3.266,1.463,3.266,3.268l0,0H430.353L430.353,478.34z"/>
	</g>
	<g id="g4605_2_">
		<path id="path4607_2_" inkscape:connector-curvature="0" opacity="0.5" fill="#01434C" enable-background="new    " d="
			M430.353,445.129h7.348c0,4.055-3.289,7.352-7.348,7.352c-4.057,0-7.35-3.297-7.35-7.352c0-4.061,3.293-7.352,7.35-7.352
			c4.059,0,7.348,3.291,7.348,7.352l0,0H430.353z"/>
		<path id="path4609_2_" inkscape:connector-curvature="0" fill="#01434C" d="M430.353,445.129h3.266
			c0,1.802-1.462,3.268-3.266,3.268c-1.803,0-3.267-1.466-3.267-3.268c0-1.805,1.463-3.268,3.267-3.268
			c1.804,0,3.266,1.463,3.266,3.268l0,0H430.353z"/>
	</g>
	<g id="g4611_2_">
		<path id="path4613_2_" inkscape:connector-curvature="0" opacity="0.5" fill="#01434C" enable-background="new    " d="
			M430.353,411.918h7.348c0,4.055-3.289,7.352-7.348,7.352c-4.057,0-7.35-3.297-7.35-7.352c0-4.061,3.293-7.352,7.35-7.352
			c4.059,0,7.348,3.291,7.348,7.352l0,0H430.353z"/>
		<path id="path4615_2_" inkscape:connector-curvature="0" fill="#01434C" d="M430.353,411.918h3.266
			c0,1.802-1.462,3.267-3.266,3.267c-1.803,0-3.267-1.465-3.267-3.267c0-1.805,1.463-3.268,3.267-3.268
			c1.804,0,3.266,1.463,3.266,3.268l0,0H430.353z"/>
	</g>
	<g id="g4617_2_">
		<path id="path4619_2_" inkscape:connector-curvature="0" opacity="0.5" fill="#01434C" enable-background="new    " d="
			M430.353,378.707h7.348c0,4.055-3.289,7.351-7.348,7.351c-4.057,0-7.35-3.296-7.35-7.351c0-4.061,3.293-7.352,7.35-7.352
			c4.059,0,7.348,3.291,7.348,7.352l0,0H430.353z"/>
		<path id="path4621_2_" inkscape:connector-curvature="0" fill="#01434C" d="M430.353,378.707h3.266
			c0,1.802-1.462,3.267-3.266,3.267c-1.803,0-3.267-1.465-3.267-3.267c0-1.805,1.463-3.268,3.267-3.268
			c1.804,0,3.266,1.463,3.266,3.268l0,0H430.353z"/>
	</g>
	<g id="g4623_2_">
		<path id="path4625_2_" inkscape:connector-curvature="0" opacity="0.5" fill="#F15B55" enable-background="new    " d="
			M430.353,345.494h7.348c0,4.055-3.289,7.351-7.348,7.351c-4.057,0-7.35-3.296-7.35-7.351c0-4.062,3.293-7.353,7.35-7.353
			c4.059,0,7.348,3.291,7.348,7.353l0,0H430.353z"/>
		<path id="path4627_2_" inkscape:connector-curvature="0" fill="#F15B55" d="M430.353,345.494h3.266
			c0,1.802-1.462,3.267-3.266,3.267c-1.803,0-3.267-1.465-3.267-3.267c0-1.805,1.463-3.269,3.267-3.269
			c1.804,0,3.266,1.464,3.266,3.269l0,0H430.353z"/>
	</g>
	<g id="g4629_2_">
		<path id="path4631_2_" inkscape:connector-curvature="0" opacity="0.5" fill="#F15B55" enable-background="new    " d="
			M430.353,312.283h7.348c0,4.055-3.289,7.351-7.348,7.351c-4.057,0-7.35-3.296-7.35-7.351c0-4.062,3.293-7.353,7.35-7.353
			c4.059,0,7.348,3.291,7.348,7.353l0,0H430.353z"/>
		<path id="path4633_2_" inkscape:connector-curvature="0" fill="#F15B55" d="M430.353,312.283h3.266
			c0,1.802-1.462,3.267-3.266,3.267c-1.803,0-3.267-1.465-3.267-3.267c0-1.805,1.463-3.269,3.267-3.269
			c1.804,0,3.266,1.464,3.266,3.269l0,0H430.353z"/>
	</g>
	<g id="g4635_2_">
		<path id="path4637_2_" inkscape:connector-curvature="0" opacity="0.5" fill="#F15B55" enable-background="new    " d="
			M430.353,279.072h7.348c0,4.055-3.289,7.351-7.348,7.351c-4.057,0-7.35-3.296-7.35-7.351c0-4.062,3.293-7.352,7.35-7.352
			c4.059,0,7.348,3.29,7.348,7.352l0,0H430.353z"/>
		<path id="path4639_2_" inkscape:connector-curvature="0" fill="#F15B55" d="M430.353,279.072h3.266
			c0,1.802-1.462,3.267-3.266,3.267c-1.803,0-3.267-1.465-3.267-3.267c0-1.806,1.463-3.269,3.267-3.269
			c1.804,0,3.266,1.463,3.266,3.269l0,0H430.353z"/>
	</g>
	<g id="g4641_2_">
		<path id="path4643_2_" inkscape:connector-curvature="0" opacity="0.5" fill="#F15B55" enable-background="new    " d="
			M430.353,245.861h7.348c0,4.055-3.289,7.351-7.348,7.351c-4.057,0-7.35-3.296-7.35-7.351c0-4.061,3.293-7.352,7.35-7.352
			c4.059,0,7.348,3.291,7.348,7.352l0,0H430.353z"/>
		<path id="path4645_2_" inkscape:connector-curvature="0" fill="#F15B55" d="M430.353,245.861h3.266
			c0,1.802-1.462,3.267-3.266,3.267c-1.803,0-3.267-1.465-3.267-3.267c0-1.805,1.463-3.268,3.267-3.268
			c1.804,0,3.266,1.463,3.266,3.268l0,0H430.353z"/>
	</g>
</g>
<g id="legenda">
	<g>
		<text id="text3843" transform="matrix(1 0 0 1 77.8359 47.8516)" font-family="'SourceSansPro-Regular'" font-size="12">Human Development Index</text>
		<text id="text3845" transform="matrix(1 0 0 1 77.8359 83.1787)" font-family="'SourceSansPro-Regular'" font-size="12">Human Poverty Index</text>
		<text id="text3847" transform="matrix(1 0 0 1 77.8359 118.5049)" font-family="'SourceSansPro-Regular'" font-size="12">Coastal Vulnerability Index</text>
		<text id="text3849" transform="matrix(1 0 0 1 77.8359 153.833)" font-family="'SourceSansPro-Regular'" font-size="12">Environmental Vulnerability Index</text>
		<text id="text3851" transform="matrix(1 0 0 1 77.8359 189.1592)" font-family="'SourceSansPro-Regular'" font-size="12">Climate Change Performance Index</text>
		<text id="text3853" transform="matrix(1 0 0 1 77.8359 224.4863)" font-family="'SourceSansPro-Regular'" font-size="12">Global Climate Risk Index</text>
		<text id="text3855" transform="matrix(1 0 0 1 77.8359 259.8135)" font-family="'SourceSansPro-Regular'" font-size="12">Gender-related Development Index</text>
		<text transform="matrix(1 0 0 1 77.8359 289.1406)" font-family="'SourceSansPro-Regular'" font-size="12">NatureServe Climate Change </text>
		<text transform="matrix(1 0 0 1 77.8359 301.1406)" font-family="'SourceSansPro-Regular'" font-size="12">Vulnerability Index</text>
		<text id="text3863" transform="matrix(1 0 0 1 77.8359 330.4678)" font-family="'SourceSansPro-Regular'" font-size="12">Climate Vulnerability Monitor</text>
		<text id="text3865" transform="matrix(1 0 0 1 77.8359 365.7939)" font-family="'SourceSansPro-Regular'" font-size="12">Economic Vulnerability Index</text>
		<text id="text3867" transform="matrix(1 0 0 1 77.8359 401.1211)" font-family="'SourceSansPro-Regular'" font-size="12">Gender Inequality Index</text>
		<text id="text3869" transform="matrix(1 0 0 1 77.8359 436.4473)" font-family="'SourceSansPro-Regular'" font-size="12">Global Adaptation Index</text>
		<text id="text3871" transform="matrix(1 0 0 1 77.8359 471.7744)" font-family="'SourceSansPro-Regular'" font-size="12">Livelihood Vulnerability Index</text>
		<text id="text3873" transform="matrix(1 0 0 1 77.8359 507.1016)" font-family="'SourceSansPro-Regular'" font-size="12">Multidimensional Poverty Index</text>
		<text id="text3875" transform="matrix(1 0 0 1 77.8359 542.4287)" font-family="'SourceSansPro-Regular'" font-size="12">Social Vulnerability Index</text>
		<path id="path3877" fill="#F15B55" d="M23.866,45.314h22.866c0,12.631-10.237,22.868-22.866,22.868
			C11.239,68.182,1,57.945,1,45.314C1,32.687,11.238,22.45,23.866,22.45c12.629,0,22.866,10.237,22.866,22.864l0,0H23.866z"/>
		<path id="path3879" fill="#95A565" d="M23.866,80.646h8.644c0,4.773-3.87,8.641-8.644,8.641s-8.643-3.867-8.643-8.641
			c0-4.775,3.87-8.646,8.643-8.646c4.771,0,8.644,3.871,8.644,8.646l0,0H23.866z"/>
		<path id="path3881" fill="#EEC064" d="M23.866,115.972h8.002c0,4.417-3.583,7.999-8.002,7.999s-8.002-3.582-8.002-7.999
			c0-4.419,3.583-8.001,8.002-8.001s8.002,3.582,8.002,8.001l0,0H23.866z"/>
		<path id="path3883" fill="#01434C" d="M23.867,151.296H30.4c0,3.608-2.923,6.535-6.533,6.535s-6.533-2.927-6.533-6.535
			c0-3.607,2.924-6.531,6.533-6.531c3.608,0,6.533,2.924,6.533,6.531l0,0H23.867z"/>
		<path id="path3885" fill="#8E5C64" d="M23.867,186.625h5.657c0,3.122-2.532,5.659-5.657,5.659c-3.126,0-5.658-2.537-5.658-5.659
			c0-3.126,2.532-5.659,5.658-5.659c3.125,0,5.657,2.533,5.657,5.659l0,0H23.867z"/>
		<path id="path3887" fill="#F3835D" d="M23.867,221.952h5.657c0,3.123-2.532,5.659-5.657,5.659c-3.126,0-5.658-2.536-5.658-5.659
			c0-3.125,2.532-5.659,5.658-5.659c3.125,0,5.657,2.534,5.657,5.659l0,0H23.867z"/>
		<path id="path3889" fill="#CCCACA" d="M23.866,257.28h4.619c0,2.552-2.068,4.618-4.619,4.618c-2.552,0-4.619-2.066-4.619-4.618
			c0-2.552,2.067-4.619,4.619-4.619c2.551,0,4.619,2.067,4.619,4.619l0,0H23.866z"/>
		<path id="path3891" fill="#CCCACA" d="M23.866,292.606h4.619c0,2.55-2.068,4.618-4.619,4.618c-2.552,0-4.619-2.068-4.619-4.618
			c0-2.551,2.067-4.619,4.619-4.619c2.551,0,4.619,2.068,4.619,4.619l0,0H23.866z"/>
		<path id="path3893" fill="#CCCACA" d="M23.867,327.934h3.266c0,1.804-1.462,3.269-3.266,3.269c-1.803,0-3.267-1.465-3.267-3.269
			c0-1.807,1.463-3.268,3.267-3.268s3.266,1.461,3.266,3.268l0,0H23.867z"/>
		<path id="path3895" fill="#CCCACA" d="M23.867,363.261h3.266c0,1.806-1.462,3.267-3.266,3.267c-1.803,0-3.267-1.461-3.267-3.267
			c0-1.807,1.463-3.266,3.267-3.266s3.266,1.459,3.266,3.266l0,0H23.867z"/>
		<path id="path3897" fill="#CCCACA" d="M23.867,398.588h3.266c0,1.805-1.462,3.268-3.266,3.268c-1.803,0-3.267-1.463-3.267-3.268
			s1.463-3.267,3.267-3.267s3.266,1.462,3.266,3.267l0,0H23.867z"/>
		<path id="path3899" fill="#CCCACA" d="M23.867,433.916h3.266c0,1.802-1.462,3.267-3.266,3.267c-1.803,0-3.267-1.465-3.267-3.267
			c0-1.805,1.463-3.268,3.267-3.268s3.266,1.463,3.266,3.268l0,0H23.867z"/>
		<path id="path3901" fill="#CCCACA" d="M23.867,469.242h3.266c0,1.803-1.462,3.266-3.266,3.266c-1.803,0-3.267-1.463-3.267-3.266
			c0-1.808,1.463-3.267,3.267-3.267s3.266,1.46,3.266,3.267l0,0H23.867z"/>
		<path id="path3903" fill="#CCCACA" d="M23.867,504.569h3.266c0,1.805-1.462,3.266-3.266,3.266c-1.803,0-3.267-1.461-3.267-3.266
			c0-1.806,1.463-3.266,3.267-3.266s3.266,1.46,3.266,3.266l0,0H23.867z"/>
		<path id="path3905" fill="#DEDCDC" d="M23.866,539.895h3.266c0,1.803-1.462,3.268-3.266,3.268s-3.268-1.465-3.268-3.268
			c0-1.806,1.464-3.268,3.268-3.268s3.266,1.462,3.266,3.268l0,0H23.866z"/>
		<text id="text3911" transform="matrix(1 0 0 1 56.5161 47.8516)" font-family="'SourceSansPro-Semibold'" font-size="12">49</text>
		<text id="text3913" transform="matrix(1 0 0 1 62.6714 83.1787)" font-family="'SourceSansPro-Semibold'" font-size="12">7</text>
		<text id="text3915" transform="matrix(1 0 0 1 62.6714 118.5059)" font-family="'SourceSansPro-Semibold'" font-size="12">6</text>
		<text id="text3917" transform="matrix(1 0 0 1 62.6714 153.832)" font-family="'SourceSansPro-Semibold'" font-size="12">4</text>
		<text id="text3919" transform="matrix(1 0 0 1 62.6714 189.1592)" font-family="'SourceSansPro-Semibold'" font-size="12">3</text>
		<text id="text3921" transform="matrix(1 0 0 1 62.6714 224.4863)" font-family="'SourceSansPro-Semibold'" font-size="12">3</text>
		<text id="text3923" transform="matrix(1 0 0 1 62.6714 259.8135)" font-family="'SourceSansPro-Semibold'" font-size="12">2</text>
		<text id="text3925" transform="matrix(1 0 0 1 62.6714 295.1396)" font-family="'SourceSansPro-Semibold'" font-size="12">2</text>
		<text id="text3927" transform="matrix(1 0 0 1 62.6714 330.4668)" font-family="'SourceSansPro-Semibold'" font-size="12">1</text>
		<text id="text3929" transform="matrix(1 0 0 1 62.6714 365.7939)" font-family="'SourceSansPro-Semibold'" font-size="12">1</text>
		<text id="text3931" transform="matrix(1 0 0 1 62.6714 401.1211)" font-family="'SourceSansPro-Semibold'" font-size="12">1</text>
		<text id="text3933" transform="matrix(1 0 0 1 62.6714 436.4482)" font-family="'SourceSansPro-Semibold'" font-size="12">1</text>
		<text id="text3935" transform="matrix(1 0 0 1 62.6714 471.7744)" font-family="'SourceSansPro-Semibold'" font-size="12">1</text>
		<text id="text3937" transform="matrix(1 0 0 1 62.6714 507.1016)" font-family="'SourceSansPro-Semibold'" font-size="12">1</text>
		<text id="text3939" transform="matrix(1 0 0 1 62.6714 542.4287)" font-family="'SourceSansPro-Semibold'" font-size="12">1</text>
		<text transform="matrix(1 0 0 1 1 9.3936)" font-family="'SourceSansPro-Regular'" font-size="12">TOTAL NUMBER OF MENTIONS</text>
	</g>
</g>
</svg>
