<?xml version="1.0" encoding="utf-8"?>
<!-- Generator: Adobe Illustrator 16.0.0, SVG Export Plug-In . SVG Version: 6.00 Build 0)  -->
<!DOCTYPE svg PUBLIC "-//W3C//DTD SVG 1.1//EN" "http://www.w3.org/Graphics/SVG/1.1/DTD/svg11.dtd">
<svg version="1.1" xmlns="http://www.w3.org/2000/svg" xmlns:xlink="http://www.w3.org/1999/xlink" x="0px" y="0px" width="1170px"
	 height="600px" viewBox="0 0 1170 600" enable-background="new 0 0 1170 600" xml:space="preserve">
<g id="Layer_1" display="none">
	<g display="inline">
		<line fill="none" stroke="#009640" x1="1169.5" y1="-100" x2="1169.5" y2="700"/>
		<line fill="none" stroke="#009640" x1="1085.5" y1="-100" x2="1085.5" y2="700"/>
		<line fill="none" stroke="#009640" x1="1070.5" y1="-100" x2="1070.5" y2="700"/>
		<line fill="none" stroke="#009640" x1="986.5" y1="-100" x2="986.5" y2="700"/>
		<line fill="none" stroke="#009640" x1="971.5" y1="-100" x2="971.5" y2="700"/>
		<line fill="none" stroke="#009640" x1="888.5" y1="-100" x2="888.5" y2="700"/>
		<line fill="none" stroke="#009640" x1="873.5" y1="-100" x2="873.5" y2="700"/>
		<line fill="none" stroke="#009640" x1="789.5" y1="-100" x2="789.5" y2="700"/>
		<line fill="none" stroke="#009640" x1="774.5" y1="-100" x2="774.5" y2="700"/>
		<line fill="none" stroke="#009640" x1="690.5" y1="-100" x2="690.5" y2="700"/>
		<line fill="none" stroke="#009640" x1="675.5" y1="-100" x2="675.5" y2="700"/>
		<line fill="none" stroke="#009640" x1="591.5" y1="-100" x2="591.5" y2="700"/>
		<line fill="none" stroke="#009640" x1="576.5" y1="-100" x2="576.5" y2="700"/>
		<line fill="none" stroke="#009640" x1="493.5" y1="-100" x2="493.5" y2="700"/>
		<line fill="none" stroke="#009640" x1="478.5" y1="-100" x2="478.5" y2="700"/>
		<line fill="none" stroke="#009640" x1="394.5" y1="-100" x2="394.5" y2="700"/>
		<line fill="none" stroke="#009640" x1="379.5" y1="-100" x2="379.5" y2="700"/>
		<line fill="none" stroke="#009640" x1="295.5" y1="-100" x2="295.5" y2="700"/>
		<line fill="none" stroke="#009640" x1="280.5" y1="-100" x2="280.5" y2="700"/>
		<line fill="none" stroke="#009640" x1="196.5" y1="-100" x2="196.5" y2="700"/>
		<line fill="none" stroke="#009640" x1="181.5" y1="-100" x2="181.5" y2="700"/>
		<line fill="none" stroke="#009640" x1="98.5" y1="-100" x2="98.5" y2="700"/>
		<line fill="none" stroke="#009640" x1="83.5" y1="-100" x2="83.5" y2="700"/>
		<line fill="none" stroke="#009640" x1="-0.5" y1="-100" x2="-0.5" y2="700"/>
		<line fill="none" stroke="#009640" x1="-100" y1="600.5" x2="1270" y2="600.5"/>
		<line fill="none" stroke="#009640" x1="-100" y1="0.5" x2="1270" y2="0.5"/>
	</g>
</g>
<g id="Layer_2">
	<path opacity="0.75" fill="none" stroke="#F3835D" stroke-width="55.1467" d="M7.667,161.077
		c577.292,0,577.292-25.025,1154.583-25.025"/>
	<path opacity="0.75" fill="none" stroke="#286275" stroke-width="53.6264" d="M7.667,215.083
		c577.292,0,577.292,125.829,1154.583,125.829"/>
	<path opacity="0.75" fill="none" stroke="#F3835D" stroke-width="49.6182" d="M7.667,24.635c577.292,0,577.292,59.4,1154.583,59.4"
		/>
	<path opacity="0.75" fill="none" stroke="#F3835D" stroke-width="47.6832" d="M7.667,285.029
		c577.292,0,577.292-97.92,1154.583-97.92"/>
	<path opacity="0.75" fill="none" stroke="#95A565" stroke-width="37.732" d="M7.667,104.788
		c577.292,0,577.292,364.673,1154.583,364.673"/>
	<path opacity="0.75" fill="none" stroke="#286275" stroke-width="37.0409" d="M7.667,67.663
		c577.292,0,577.292,228.232,1154.583,228.232"/>
	<path opacity="0.75" fill="none" stroke="#286275" stroke-width="36.6263" d="M7.667,326.89
		c577.292,0,577.292,58.833,1154.583,58.833"/>
	<path opacity="0.75" fill="none" stroke="#F3835D" stroke-width="33.0328" d="M7.667,381.12
		c577.292,0,577.292-153.936,1154.583-153.936"/>
	<path opacity="0.75" fill="none" stroke="#286275" stroke-width="21.2848" d="M7.667,408.09
		c577.292,0,577.292,6.387,1154.583,6.387"/>
	<path opacity="0.75" fill="none" stroke="#95A565" stroke-width="9.8131" d="M7.667,246.583
		c577.292,0,577.292,246.485,1154.583,246.485"/>
	<path opacity="0.75" fill="none" stroke="#95A565" stroke-width="9.6749" d="M7.667,349.878
		c577.292,0,577.292,152.866,1154.583,152.866"/>
	<path opacity="0.75" fill="none" stroke="#F3835D" stroke-width="9.122" d="M7.667,468.789
		c577.292,0,577.292-212.166,1154.583-212.166"/>
	<path opacity="0.75" fill="none" stroke="#F3835D" stroke-width="8.5692" d="M7.667,438.303
		c577.292,0,577.292-190.463,1154.583-190.463"/>
	<path opacity="0.75" fill="none" stroke="#286275" stroke-width="7.4635" d="M7.667,446.263
		c577.292,0,577.292-17.513,1154.583-17.513"/>
	<path opacity="0.75" fill="none" stroke="#95A565" stroke-width="4.8374" d="M7.667,421.059
		c577.292,0,577.292,88.89,1154.583,88.89"/>
	<path opacity="0.75" fill="none" stroke="#95A565" stroke-width="4.1464" d="M7.667,452.027
		c577.292,0,577.292,62.382,1154.583,62.382"/>
	<path opacity="0.75" fill="none" stroke="#95A565" stroke-width="4.0082" d="M7.667,508.01
		c577.292,0,577.292,11.547,1154.583,11.547"/>
	<path opacity="0.75" fill="none" stroke="#286275" stroke-width="3.3171" d="M7.667,474.965
		c577.292,0,577.292-40.862,1154.583-40.862"/>
	<path opacity="0.75" fill="none" stroke="#286275" stroke-width="3.1789" d="M7.667,491.797
		c577.292,0,577.292-54.469,1154.583-54.469"/>
	<path opacity="0.75" fill="none" stroke="#F3835D" stroke-width="2.9025" d="M7.667,488.777
		c577.292,0,577.292-226.183,1154.583-226.183"/>
	<path opacity="0.75" fill="none" stroke="#F3835D" stroke-width="1.3821" d="M7.667,504.646
		c577.292,0,577.292-239.925,1154.583-239.925"/>
	<path opacity="0.75" fill="none" stroke="#F3835D" stroke-width="0.997" d="M7.667,520.792
		c577.292,0,577.292-254.904,1154.583-254.904"/>
	<path opacity="0.75" fill="none" stroke="#95A565" stroke-width="0.997" d="M7.667,477.023
		c577.292,0,577.292,39.856,1154.583,39.856"/>
	<path opacity="0.75" fill="none" stroke="#A88C57" stroke-width="0.997" d="M7.667,423.804
		c577.292,0,577.292,109.085,1154.583,109.085"/>
	<path opacity="0.75" fill="none" stroke="#286275" stroke-width="0.997" d="M7.667,505.677
		c577.292,0,577.292-66.428,1154.583-66.428"/>
	<path opacity="0.75" fill="none" stroke="#286275" stroke-width="0.997" d="M7.667,532.407
		c577.292,0,577.292-92.129,1154.583-92.129"/>
	<path opacity="0.75" fill="none" stroke="#F3835D" stroke-width="0.997" d="M7.667,531.859
		c577.292,0,577.292-265.216,1154.583-265.216"/>
	<path opacity="0.75" fill="none" stroke="#A88C57" stroke-width="0.997" d="M7.667,493.854
		c577.292,0,577.292,39.856,1154.583,39.856"/>
	<path opacity="0.75" fill="none" stroke="#A88C57" stroke-width="0.997" d="M7.667,510.205
		c577.292,0,577.292,23.918,1154.583,23.918"/>
	<path opacity="0.75" fill="none" stroke="#286275" stroke-width="0.997" d="M7.667,521.479
		c577.292,0,577.292-81.681,1154.583-81.681"/>
	<path opacity="0.75" fill="none" stroke="#95A565" stroke-width="0.997" d="M7.667,493.511
		c577.292,0,577.292,23.919,1154.583,23.919"/>
	<path opacity="0.75" fill="none" stroke="#A88C57" stroke-width="0.997" d="M7.667,123.659
		c577.292,0,577.292,408.611,1154.583,408.611"/>
	<path opacity="0.75" fill="none" stroke="#A88C57" stroke-width="0.997" d="M7.667,454.223
		c577.292,0,577.292,79.145,1154.583,79.145"/>
	<path opacity="0.75" fill="none" stroke="#F3835D" stroke-width="0.997" d="M7.667,553.305
		c577.292,0,577.292-286.112,1154.583-286.112"/>
	<path opacity="0.75" fill="none" stroke="#A88C57" stroke-width="0.997" d="M7.667,354.751
		c577.292,0,577.292,177.726,1154.583,177.726"/>
	<path opacity="0.75" fill="none" stroke="#95A565" stroke-width="0.997" d="M7.667,532.751
		c577.292,0,577.292-11.136,1154.583-11.136"/>
	<path opacity="0.75" fill="none" stroke="#F3835D" stroke-width="0.997" d="M7.667,563.687
		c577.292,0,577.292-296.289,1154.583-296.289"/>
	<path opacity="0.75" fill="none" stroke="#95A565" stroke-width="0.997" d="M7.667,563.823
		c577.292,0,577.292-41.796,1154.583-41.796"/>
	<path opacity="0.75" fill="none" stroke="#A88C57" stroke-width="0.997" d="M7.667,543.199c577.292,0,577.292-8.802,1154.583-8.802
		"/>
	<path opacity="0.75" fill="none" stroke="#286275" stroke-width="0.997" d="M7.667,542.925
		c577.292,0,577.292-102.303,1154.583-102.303"/>
	<path opacity="0.75" fill="none" stroke="#F3835D" stroke-width="0.997" d="M7.667,542.789
		c577.292,0,577.292-275.803,1154.583-275.803"/>
	<path opacity="0.75" fill="none" stroke="#95A565" stroke-width="0.997" d="M7.667,543.062c577.292,0,577.292-21.31,1154.583-21.31
		"/>
	<path opacity="0.75" fill="none" stroke="#286275" stroke-width="0.997" d="M7.667,573.861
		c577.292,0,577.292-133.103,1154.583-133.103"/>
	<path opacity="0.75" fill="none" stroke="#95A565" stroke-width="0.997" d="M7.667,583.897
		c577.292,0,577.292-61.732,1154.583-61.732"/>
	<path opacity="0.75" fill="none" stroke="#F3835D" stroke-width="0.997" d="M7.667,593.935
		c577.292,0,577.292-326.399,1154.583-326.399"/>
	<path opacity="0.75" fill="none" stroke="#A88C57" stroke-width="0.997" d="M7.667,553.648
		c577.292,0,577.292-19.114,1154.583-19.114"/>
	<path opacity="0.75" fill="none" stroke="#95A565" stroke-width="0.997" d="M7.667,553.511c577.292,0,577.292-31.62,1154.583-31.62
		"/>
	<g>
		<rect x="1162" y="59.4" width="8" height="208.204">
		<title>adaptation1,517</title>
		</rect>
		<text transform="matrix(1.0101 0 0 1 1074.1689 166.7285)" enable-background="new    "><tspan x="0" y="0" font-family="'SourceSansPro-Regular'" font-size="11">Adaptation </tspan><tspan x="53.8" y="0" font-family="'SourceSansPro-Light'" font-size="11">[1517]</tspan></text>
		<rect x="1162" y="450.728" width="8" height="71.506">
		<title>conflict521</title>
		</rect>
		<text transform="matrix(1.0101 0 0 1 1095.5127 489.2871)" enable-background="new    "><tspan x="0" y="0" font-family="'SourceSansPro-Regular'" font-size="11">Conflict </tspan><tspan x="37.938" y="0" font-family="'SourceSansPro-Light'" font-size="11">[521]</tspan></text>
		<rect x="1162" y="277.504" width="8" height="163.324">
		<title>mitigation1,190</title>
		</rect>
		<text transform="matrix(1.0101 0 0 1 1079.0908 361.9717)" enable-background="new    "><tspan x="0" y="0" font-family="'SourceSansPro-Regular'" font-size="11">Mitigation </tspan><tspan x="48.927" y="0" font-family="'SourceSansPro-Light'" font-size="11">[1190]</tspan></text>
		<rect x="1162" y="532.133" width="8" height="2.471">
		<title>scepticism18</title>
		</rect>
		<text transform="matrix(1.0101 0 0 1 1086.0801 536.1748)" enable-background="new    "><tspan x="0" y="0" font-family="'SourceSansPro-Regular'" font-size="11">Scepticism </tspan><tspan x="52.546" y="0" font-family="'SourceSansPro-Light'" font-size="11">[18]</tspan></text>
		<rect y="487.336" width="8" height="6.725">
		<title>climate.nasa.gov49</title>
		</rect>
		<text transform="matrix(1.0101 0 0 1 15.9995 494.5098)" enable-background="new    "><tspan x="0" y="0" font-family="'SourceSansPro-Regular'" font-size="11">climate.nasa.gov </tspan><tspan x="80.684" y="0" font-family="'SourceSansPro-Light'" font-size="11">[49]</tspan></text>
		<rect y="261.354" width="8" height="93.465">
		<title>climatechange.gov.au681</title>
		</rect>
		<text transform="matrix(1.0101 0 0 1 15.9995 311.8984)" enable-background="new    "><tspan x="0" y="0" font-family="'SourceSansPro-Regular'" font-size="11">climatechange.gov.au </tspan><tspan x="104.058" y="0" font-family="'SourceSansPro-Light'" font-size="11">[681]</tspan></text>
		<rect y="464.261" width="8" height="13.175">
		<title>climatehotmap.org96</title>
		</rect>
		<text transform="matrix(1.0101 0 0 1 15.9995 474.6602)" enable-background="new    "><tspan x="0" y="0" font-family="'SourceSansPro-Regular'" font-size="11">climatehotmap.org </tspan><tspan x="91.255" y="0" font-family="'SourceSansPro-Light'" font-size="11">[96]</tspan></text>
		<rect y="531.584" width="8" height="1.236">
		<title>en.wikipedia.org9</title>
		</rect>
		<text transform="matrix(1.0101 0 0 1 15.9995 535.0078)" enable-background="new    "><tspan x="0" y="0" font-family="'SourceSansPro-Regular'" font-size="11">en.wikipedia.org </tspan><tspan x="79.253" y="0" font-family="'SourceSansPro-Light'" font-size="11">[9]</tspan></text>
		<rect y="563.617" width="8" height="0.275">
		<title>environment.nationalgeographic.com2</title>
		</rect>
		<text transform="matrix(1.0101 0 0 1 15.9995 566.5615)" enable-background="new    "><tspan x="0" y="0" font-family="'SourceSansPro-Regular'" font-size="11">environment.nationalgeographic.com </tspan><tspan x="177.471" y="0" font-family="'SourceSansPro-Light'" font-size="11">[2]</tspan></text>
		<rect y="364.72" width="8" height="59.427">
		<title>epa.gov433</title>
		</rect>
		<text transform="matrix(1.0101 0 0 1 15.9995 398.2441)" enable-background="new    "><tspan x="0" y="0" font-family="'SourceSansPro-Regular'" font-size="11">epa.gov </tspan><tspan x="38.796" y="0" font-family="'SourceSansPro-Light'" font-size="11">[433]</tspan></text>
		<rect y="542.719" width="8" height="0.549">
		<title>guardian.co.uk4</title>
		</rect>
		<text transform="matrix(1.0101 0 0 1 15.9995 545.8008)" enable-background="new    "><tspan x="0" y="0" font-family="'SourceSansPro-Regular'" font-size="11">guardian.co.uk </tspan><tspan x="71.542" y="0" font-family="'SourceSansPro-Light'" font-size="11">[4]</tspan></text>
		<rect y="503.961" width="8" height="6.45">
		<title>huffingtonpost.com47</title>
		</rect>
		<text transform="matrix(1.0101 0 0 1 15.9995 510.4102)" enable-background="new    "><tspan x="0" y="0" font-family="'SourceSansPro-Regular'" font-size="11">huffingtonpost.com </tspan><tspan x="93.697" y="0" font-family="'SourceSansPro-Light'" font-size="11">[47]</tspan></text>
		<rect width="8" height="123.796">
		<title>ipcc.ch902</title>
		</rect>
		<text transform="matrix(1.0101 0 0 1 15.9995 65.7104)" enable-background="new    "><tspan x="0" y="0" font-family="'SourceSansPro-Regular'" font-size="11">ipcc.ch </tspan><tspan x="34.803" y="0" font-family="'SourceSansPro-Light'" font-size="11">[902]</tspan></text>
		<rect y="573.792" width="8" height="0.138">
		<title>livescience.com1</title>
		</rect>
		<text transform="matrix(1.0101 0 0 1 15.9995 576.668)" enable-background="new    "><tspan x="0" y="0" font-family="'SourceSansPro-Regular'" font-size="11">livescience.com </tspan><tspan x="75.436" y="0" font-family="'SourceSansPro-Light'" font-size="11">[1]</tspan></text>
		<rect y="520.311" width="8" height="1.373">
		<title>metoffice.gov.uk/climate-change10</title>
		</rect>
		<text transform="matrix(1.0101 0 0 1 15.9995 523.8047)" enable-background="new    "><tspan x="0" y="0" font-family="'SourceSansPro-Regular'" font-size="11">metoffice.gov.uk/climate-change </tspan><tspan x="154.888" y="0" font-family="'SourceSansPro-Light'" font-size="11">[10]</tspan></text>
		<rect y="583.829" width="8" height="0.137">
		<title>newscientist.com1</title>
		</rect>
		<text transform="matrix(1.0101 0 0 1 15.9995 586.7041)" enable-background="new    "><tspan x="0" y="0" font-family="'SourceSansPro-Regular'" font-size="11">newscientist.com </tspan><tspan x="82.983" y="0" font-family="'SourceSansPro-Light'" font-size="11">[1]</tspan></text>
		<rect y="434.047" width="8" height="20.312">
		<title>nrdc.org148</title>
		</rect>
		<text transform="matrix(1.0101 0 0 1 15.9995 448.0156)" enable-background="new    "><tspan x="0" y="0" font-family="'SourceSansPro-Regular'" font-size="11">nrdc.org </tspan><tspan x="41.238" y="0" font-family="'SourceSansPro-Light'" font-size="11">[148]</tspan></text>
		<rect y="593.866" width="8" height="0.138">
		<title>scientificamerican.com1</title>
		</rect>
		<text transform="matrix(1.0101 0 0 1 15.9995 596.7412)" enable-background="new    "><tspan x="0" y="0" font-family="'SourceSansPro-Regular'" font-size="11">scientificamerican.com </tspan><tspan x="109.613" y="0" font-family="'SourceSansPro-Light'" font-size="11">[1]</tspan></text>
		<rect y="553.168" width="8" height="0.549">
		<title>topics.nytimes.com4</title>
		</rect>
		<text transform="matrix(1.0101 0 0 1 15.9995 556.25)" enable-background="new    "><tspan x="0" y="0" font-family="'SourceSansPro-Regular'" font-size="11">topics.nytimes.com </tspan><tspan x="92.673" y="0" font-family="'SourceSansPro-Light'" font-size="11">[4]</tspan></text>
		<rect y="133.697" width="8" height="117.757">
		<title>unep.org858</title>
		</rect>
		<text transform="matrix(1.0101 0 0 1 15.9995 196.3867)" enable-background="new    "><tspan x="0" y="0" font-family="'SourceSansPro-Regular'" font-size="11">unep.org </tspan><tspan x="43.845" y="0" font-family="'SourceSansPro-Light'" font-size="11">[858]</tspan></text>
	</g>
</g>
</svg>
