<?xml version="1.0" encoding="utf-8"?>
<!-- Generator: Adobe Illustrator 15.0.0, SVG Export Plug-In . SVG Version: 6.00 Build 0)  -->
<!DOCTYPE svg PUBLIC "-//W3C//DTD SVG 1.1//EN" "http://www.w3.org/Graphics/SVG/1.1/DTD/svg11.dtd">
<svg version="1.1" xmlns="http://www.w3.org/2000/svg" xmlns:xlink="http://www.w3.org/1999/xlink" x="0px" y="0px" width="847px"
	 height="600px" viewBox="0 0 847 600" enable-background="new 0 0 847 600" xml:space="preserve">
<g id="interactive">
<circle fill="#B0CFCD" cx="537.414" cy="134.246" r="0.453"><title>beijing20.unwomen.org</title></circle>
<circle fill="#B0CFCD" cx="575.59" cy="152.097" r="27.392"><title>cbd.int</title></circle>
<circle fill="#B0CFCD" cx="544.338" cy="105.987" r="14.4"><title>cepal.org</title></circle>
<circle fill="#B0CFCD" cx="489.332" cy="173.729" r="47.373"><title>fao.org</title></circle>
<circle fill="#B0CFCD" cx="553.625" cy="194.169" r="6.186"><title>icao.int</title></circle>
<circle fill="#B0CFCD" cx="575.635" cy="231.774" r="23.477"><title>ifad.org</title></circle>
<circle fill="#B0CFCD" cx="619.406" cy="194.827" r="19.891"><title>ilo.org</title></circle>
<circle fill="#B0CFCD" cx="623.24" cy="141.889" r="7.104"><title>imf.org</title></circle>
<circle fill="#B0CFCD" cx="608.755" cy="122.834" r="2.92"><title>imo.org</title></circle>
<circle fill="#B0CFCD" cx="588.981" cy="94.387" r="17.81"><title>ipcc.ch</title></circle>
<circle fill="#B0CFCD" cx="552.895" cy="61.136" r="17.344"><title>itu.int</title></circle>
<circle fill="#B0CFCD" cx="517.54" cy="94.538" r="0.826"><title>news.upu.int</title></circle>
<circle fill="#B0CFCD" cx="512.968" cy="113.051" r="3.838"><title>newsroom.unfccc.int</title></circle>
<circle fill="#B0CFCD" cx="494.254" cy="94.496" r="8.543"><title>ohchr.org</title></circle>
<circle fill="#B0CFCD" cx="461.811" cy="105.881" r="11.94"><title>sustainabledevelopment.un.org</title></circle>
<circle fill="#B0CFCD" cx="410.852" cy="123.683" r="28.129"><title>thegef.org</title></circle>
<circle fill="#B0CFCD" cx="426.934" cy="164.463" r="1.791"><title>unaids.org</title></circle>
<circle fill="#B0CFCD" cx="434.206" cy="228.709" r="16.56"><title>unccd.int</title></circle>
<circle fill="#B0CFCD" cx="522.511" cy="245.042" r="17.364"><title>unctad.org</title></circle>
<circle fill="#B0CFCD" cx="571.732" cy="358.825" r="89.715"><title>undp.org</title></circle>
<circle fill="#B0CFCD" cx="632.265" cy="248.914" r="21.773"><title>unece.org</title></circle>
<circle fill="#B0CFCD" cx="699.913" cy="203.812" r="45.612"><title>unep.org</title></circle>
<circle fill="#B0CFCD" cx="646.106" cy="161.358" r="9.01"><title>unescap.org</title></circle>
<circle fill="#B0CFCD" cx="667.292" cy="91.553" r="45.836"><title>unesco.org</title></circle>
<circle fill="#B0CFCD" cx="591.969" cy="54.567" r="8.205"><title>unfpa.org</title></circle>
<circle fill="#B0CFCD" cx="573.637" cy="17.265" r="17.265"><title>unhabitat.org</title></circle>
<circle fill="#B0CFCD" cx="524.734" cy="29.27" r="11.264"><title>unhcr.org</title></circle>
<circle fill="#B0CFCD" cx="513.383" cy="70.848" r="7.952"><title>unido.org</title></circle>
<circle fill="#B0CFCD" cx="482.953" cy="44.998" r="18.057"><title>unisdr.org</title></circle>
<circle fill="#B0CFCD" cx="437.408" cy="68.117" r="19.103"><title>unitar.org</title></circle>
<circle fill="#B0CFCD" cx="374.534" cy="61.191" r="30.233"><title>unocha.org</title></circle>
<circle fill="#B0CFCD" cx="351.442" cy="153.331" r="24.346"><title>unu.edu</title></circle>
<circle fill="#B0CFCD" cx="394.18" cy="170.703" r="7.839"><title>unwto.org</title></circle>
<circle fill="#B0CFCD" cx="419.365" cy="191.483" r="10.895"><title>wfp.org</title></circle>
<circle fill="#B0CFCD" cx="376.477" cy="211.373" r="21.474"><title>who.int</title></circle>
<circle fill="#B0CFCD" cx="473.933" cy="258.342" r="19.085"><title>wmo.int</title></circle>
<circle fill="#B0CFCD" cx="287.442" cy="414.034" r="185.965"><title>worldbank.org</title></circle>
</g>
<g id="texts">
	<text transform="matrix(1 0 0 1 557.9192 157.6599)" font-family="'SourceSansPro-Regular'" font-size="12">cbd.int</text>
	<text transform="matrix(1 0 0 1 520.844 111.5525)" font-family="'SourceSansPro-Regular'" font-size="12">cepal.org</text>
	<text transform="matrix(1 0 0 1 471.4026 179.2966)" font-family="'SourceSansPro-Regular'" font-size="12">fao.org</text>
	<text transform="matrix(1 0 0 1 534.803 199.7439)" font-family="'SourceSansPro-Regular'" font-size="12">icao.int</text>
	<text transform="matrix(1 0 0 1 556.1545 237.3445)" font-family="'SourceSansPro-Regular'" font-size="12">ifad.org</text>
	<text transform="matrix(1 0 0 1 603.2971 200.3943)" font-family="'SourceSansPro-Regular'" font-size="12">ilo.org</text>
	<text transform="matrix(1 0 0 1 605.1858 147.4578)" font-family="'SourceSansPro-Regular'" font-size="12">imf.org</text>
	<text transform="matrix(1 0 0 1 571.2073 99.9529)" font-family="'SourceSansPro-Regular'" font-size="12">ipcc.ch</text>
	<text transform="matrix(1 0 0 1 537.844 66.7019)" font-family="'SourceSansPro-Regular'" font-size="12">itu.int</text>
	<text transform="matrix(1 0 0 1 384.9758 129.2498)" font-family="'SourceSansPro-Regular'" font-size="12">thegef.org</text>
	<text transform="matrix(1 0 0 1 410.5764 234.2756)" font-family="'SourceSansPro-Regular'" font-size="12">unccd.int</text>
	<text transform="matrix(1 0 0 1 494.9465 250.6101)" font-family="'SourceSansPro-Regular'" font-size="12">unctad.org</text>
	<text transform="matrix(1 0 0 1 548.6731 364.3953)" font-family="'SourceSansPro-Regular'" font-size="12">undp.org</text>
	<text transform="matrix(1 0 0 1 607.1819 254.4812)" font-family="'SourceSansPro-Regular'" font-size="12">unece.org</text>
	<text transform="matrix(1 0 0 1 677.2102 209.3796)" font-family="'SourceSansPro-Regular'" font-size="12">unep.org</text>
	<text transform="matrix(1 0 0 1 639.4163 97.1189)" font-family="'SourceSansPro-Regular'" font-size="12">unesco.org</text>
	<text transform="matrix(1 0 0 1 538.969 22.8318)" font-family="'SourceSansPro-Regular'" font-size="12">unhabitat.org</text>
	<text transform="matrix(1 0 0 1 500.2522 34.8347)" font-family="'SourceSansPro-Regular'" font-size="12">unhcr.org</text>
	<text transform="matrix(1 0 0 1 457.1545 50.5642)" font-family="'SourceSansPro-Regular'" font-size="12">unisdr.org</text>
	<text transform="matrix(1 0 0 1 412.3513 73.6814)" font-family="'SourceSansPro-Regular'" font-size="12">unitar.org</text>
	<text transform="matrix(1 0 0 1 345.8118 66.7566)" font-family="'SourceSansPro-Regular'" font-size="12">unocha.org</text>
	<text transform="matrix(1 0 0 1 330.5667 158.8992)" font-family="'SourceSansPro-Regular'" font-size="12">unu.edu</text>
	<text transform="matrix(1 0 0 1 400.1204 197.0505)" font-family="'SourceSansPro-Regular'" font-size="12">wfp.org</text>
	<text transform="matrix(1 0 0 1 357.3733 216.9392)" font-family="'SourceSansPro-Regular'" font-size="12">who.int</text>
	<text transform="matrix(1 0 0 1 453.1174 263.908)" font-family="'SourceSansPro-Regular'" font-size="12">wmo.int</text>
	<text transform="matrix(1 0 0 1 250.4338 419.6003)" font-family="'SourceSansPro-Regular'" font-size="12">worldbank.org</text>
</g>
</svg>
