<?xml version="1.0" encoding="utf-8"?>
<!-- Generator: Adobe Illustrator 15.0.0, SVG Export Plug-In . SVG Version: 6.00 Build 0)  -->
<!DOCTYPE svg PUBLIC "-//W3C//DTD SVG 1.1//EN" "http://www.w3.org/Graphics/SVG/1.1/DTD/svg11.dtd">
<svg version="1.1" xmlns="http://www.w3.org/2000/svg" xmlns:xlink="http://www.w3.org/1999/xlink" x="0px" y="0px" width="847px"
	 height="600px" viewBox="0 0 847 600" enable-background="new 0 0 847 600" xml:space="preserve">
<g id="Layer_2">
<circle fill="#286275" cx="499.039" cy="180.379" r="1.055"><title>beijing20.unwomen.org</title></circle>
<circle fill="#286275" cx="535.86" cy="162.156" r="25.131"><title>cbd.int</title></circle>
<circle fill="#286275" cx="493.274" cy="137.609" r="10.836"><title>cepal.org</title></circle>
<circle fill="#286275" cx="436.466" cy="182.467" r="46.649"><title>fao.org</title></circle>
<circle fill="#286275" cx="502.219" cy="201.899" r="5.796"><title>icao.int</title></circle>
<circle fill="#286275" cx="496.684" cy="237.123" r="14.956"><title>ifad.org</title></circle>
<circle fill="#286275" cx="568.623" cy="237.45" r="42.086"><title>ilo.org</title></circle>
<circle fill="#286275" cx="581" cy="147.699" r="7.372"><title>imf.org</title></circle>
<circle fill="#286275" cx="549.143" cy="121.667" r="2.584"><title>imo.org</title></circle>
<circle fill="#286275" cx="520.397" cy="114.739" r="9.744"><title>ipcc.ch</title></circle>
<circle fill="#286275" cx="491.137" cy="91.17" r="12.923"><title>itu.int</title></circle>
<circle fill="#286275" cx="477.155" cy="115.743" r="0.45"><title>news.upu.int</title></circle>
<circle fill="#286275" cx="468.319" cy="129.074" r="0.636"><title>newsroom.unfccc.int</title></circle>
<circle fill="#286275" cx="449.638" cy="106.698" r="13.61"><title>ohchr.org</title></circle>
<circle fill="#286275" cx="411.61" cy="114.948" r="10.407"><title>sustainabledevelopment.un.org</title></circle>
<circle fill="#286275" cx="366" cy="141.437" r="27.441"><title>thegef.org</title></circle>
<circle fill="#286275" cx="372.551" cy="187.011" r="2.525"><title>unaids.org</title></circle>
<circle fill="#286275" cx="414.58" cy="249.713" r="9.166"><title>unccd.int</title></circle>
<circle fill="#286275" cx="452.063" cy="256.371" r="13.977"><title>unctad.org</title></circle>
<circle fill="#286275" cx="528.059" cy="393.814" r="104.552"><title>undp.org</title></circle>
<circle fill="#286275" cx="616.637" cy="291.882" r="15.585"><title>unece.org</title></circle>
<circle fill="#286275" cx="695.057" cy="222.262" r="70.353"><title>unep.org</title></circle>
<circle fill="#286275" cx="587.557" cy="176.282" r="7.049"><title>unescap.org</title></circle>
<circle fill="#286275" cx="644.762" cy="72.617" r="72.618"><title>unesco.org</title></circle>
<circle fill="#286275" cx="548.711" cy="96.224" r="9.183"><title>unfpa.org</title></circle>
<circle fill="#286275" cx="532.016" cy="46.708" r="28.169"><title>unhabitat.org</title></circle>
<circle fill="#286275" cx="467.626" cy="34.94" r="22.384"><title>unhcr.org</title></circle>
<circle fill="#286275" cx="444.162" cy="72.025" r="6.597"><title>unido.org</title></circle>
<circle fill="#286275" cx="414.308" cy="80.268" r="9.475"><title>unisdr.org</title></circle>
<circle fill="#286275" cx="356.807" cy="64.352" r="35.284"><title>unitar.org</title></circle>
<circle fill="#286275" cx="272.401" cy="128.232" r="52.179"><title>unocha.org</title></circle>
<circle fill="#286275" cx="330.962" cy="195.832" r="22.36"><title>unu.edu</title></circle>
<circle fill="#286275" cx="379.079" cy="210.132" r="2.158"><title>unwto.org</title></circle>
<circle fill="#286275" cx="360.197" cy="257.342" r="30.845"><title>wfp.org</title></circle>
<circle fill="#286275" cx="427.282" cy="296.948" r="18.497"><title>who.int</title></circle>
<circle fill="#286275" cx="385.546" cy="306.283" r="9.367"><title>wmo.int</title></circle>
<circle fill="#286275" cx="246.596" cy="434.994" r="165.006"><title>worldbank.org</title></circle>
</g>
<g id="Layer_1">
	<text transform="matrix(1 0 0 1 518.1838 168.114)" font-family="'SourceSansPro-Regular'" font-size="12">cbd.int</text>
	<text transform="matrix(1 0 0 1 469.7795 143.572)" font-family="'SourceSansPro-Regular'" font-size="12">cepal.org</text>
	<text transform="matrix(1 0 0 1 418.5374 188.4309)" font-family="'SourceSansPro-Regular'" font-size="12">fao.org</text>
	<text transform="matrix(1 0 0 1 483.4045 207.8611)" font-family="'SourceSansPro-Regular'" font-size="12">icao.int</text>
	<text transform="matrix(1 0 0 1 477.2004 243.0847)" font-family="'SourceSansPro-Regular'" font-size="12">ifad.org</text>
	<text transform="matrix(1 0 0 1 552.5159 243.4138)" font-family="'SourceSansPro-Regular'" font-size="12">ilo.org</text>
	<text transform="matrix(1 0 0 1 562.9495 153.6584)" font-family="'SourceSansPro-Regular'" font-size="12">imf.org</text>
	<text transform="matrix(1 0 0 1 502.6262 120.698)" font-family="'SourceSansPro-Regular'" font-size="12">ipcc.ch</text>
	<text transform="matrix(1 0 0 1 476.0901 97.1301)" font-family="'SourceSansPro-Regular'" font-size="12">itu.int</text>
	<text transform="matrix(1 0 0 1 425.1897 112.6599)" font-family="'SourceSansPro-Regular'" font-size="12">ohchr.org</text>
	<text transform="matrix(1 0 0 1 340.1267 147.3972)" font-family="'SourceSansPro-Regular'" font-size="12">thegef.org</text>
	<text transform="matrix(1 0 0 1 390.9534 255.6775)" font-family="'SourceSansPro-Regular'" font-size="12">unccd.int</text>
	<text transform="matrix(1 0 0 1 424.5002 262.3333)" font-family="'SourceSansPro-Regular'" font-size="12">unctad.org</text>
	<text transform="matrix(1 0 0 1 505.0022 399.7781)" font-family="'SourceSansPro-Regular'" font-size="12">undp.org</text>
	<text transform="matrix(1 0 0 1 591.551 297.8435)" font-family="'SourceSansPro-Regular'" font-size="12">unece.org</text>
	<text transform="matrix(1 0 0 1 672.3538 228.2249)" font-family="'SourceSansPro-Regular'" font-size="12">unep.org</text>
	<text transform="matrix(1 0 0 1 556.5334 182.2424)" font-family="'SourceSansPro-Regular'" font-size="12">unescap.org</text>
	<text transform="matrix(1 0 0 1 616.8889 78.5774)" font-family="'SourceSansPro-Regular'" font-size="12">unesco.org</text>
	<text transform="matrix(1 0 0 1 524.1604 102.1848)" font-family="'SourceSansPro-Regular'" font-size="12">unfpa.org</text>
	<text transform="matrix(1 0 0 1 497.3479 52.6687)" font-family="'SourceSansPro-Regular'" font-size="12">unhabitat.org</text>
	<text transform="matrix(1 0 0 1 443.1467 40.8997)" font-family="'SourceSansPro-Regular'" font-size="12">unhcr.org</text>
	<text transform="matrix(1 0 0 1 331.7502 70.3132)" font-family="'SourceSansPro-Regular'" font-size="12">unitar.org</text>
	<text transform="matrix(1 0 0 1 243.6775 134.1917)" font-family="'SourceSansPro-Regular'" font-size="12">unocha.org</text>
	<text transform="matrix(1 0 0 1 310.0857 201.7937)" font-family="'SourceSansPro-Regular'" font-size="12">unu.edu</text>
	<text transform="matrix(1 0 0 1 340.9563 263.304)" font-family="'SourceSansPro-Regular'" font-size="12">wfp.org</text>
	<text transform="matrix(1 0 0 1 408.1785 302.906)" font-family="'SourceSansPro-Regular'" font-size="12">who.int</text>
	<text transform="matrix(1 0 0 1 364.7336 312.2458)" font-family="'SourceSansPro-Regular'" font-size="12">wmo.int</text>
	<text transform="matrix(1 0 0 1 209.5872 440.9548)" font-family="'SourceSansPro-Regular'" font-size="12">worldbank.org</text>
</g>
</svg>
