<?xml version="1.0" encoding="utf-8"?>
<!-- Generator: Adobe Illustrator 15.0.0, SVG Export Plug-In . SVG Version: 6.00 Build 0)  -->
<!DOCTYPE svg PUBLIC "-//W3C//DTD SVG 1.1//EN" "http://www.w3.org/Graphics/SVG/1.1/DTD/svg11.dtd">
<svg version="1.1" xmlns="http://www.w3.org/2000/svg" xmlns:xlink="http://www.w3.org/1999/xlink" x="0px" y="0px" width="847px"
	 height="600px" viewBox="0 0 847 600" enable-background="new 0 0 847 600" xml:space="preserve">
<g id="circles">
	<circle fill="#F3835D" cx="528.332" cy="160.451" r="0.272"><title>beijing20.unwomen.org</title></circle>
	<circle fill="#F3835D" cx="566.603" cy="167.96" r="23.365"><title>cbd.int</title></circle>
	<circle fill="#F3835D" cx="513.494" cy="138.139" r="13.192"><title>cepal.org</title></circle>
	<circle fill="#F3835D" cx="483.792" cy="221.405" r="61.89"><title>fao.org</title></circle>
	<circle fill="#F3835D" cx="567.218" cy="213.27" r="8.615"><title>icao.int</title></circle>
	<circle fill="#F3835D" cx="571.32" cy="252.021" r="17.527"><title>ifad.org</title></circle>
	<circle fill="#F3835D" cx="638.219" cy="198.314" r="41.089"><title>ilo.org</title></circle>
	<circle fill="#F3835D" cx="569.214" cy="123.095" r="8.24"><title>imf.org</title></circle>
	<circle fill="#F3835D" cx="542.276" cy="135.347" r="3.989"><title>imo.org</title></circle>
	<circle fill="#F3835D" cx="537.013" cy="100.849" r="17.569"><title>ipcc.ch</title></circle>
	<circle fill="#F3835D" cx="483.002" cy="87.115" r="24.832"><title>itu.int</title></circle>
	<circle fill="#F3835D" cx="487.508" cy="145.721" r="0.545"><title>news.upu.int</title></circle>
	<circle fill="#F3835D" cx="472.479" cy="145.862" r="1.157"><title>newsroom.unfccc.int</title></circle>
	<circle fill="#F3835D" cx="458.941" cy="127.182" r="8.581"><title>ohchr.org</title></circle>
	<circle fill="#F3835D" cx="434.161" cy="149.972" r="11.762"><title>sustainabledevelopment.un.org</title></circle>
	<circle fill="#F3835D" cx="388.757" cy="178.399" r="28.473"><title>thegef.org</title></circle>
	<circle fill="#F3835D" cx="406.901" cy="217.983" r="1.746"><title>unaids.org</title></circle>
	<circle fill="#F3835D" cx="421.733" cy="282.612" r="11.95"><title>unccd.int</title></circle>
	<circle fill="#F3835D" cx="455.616" cy="311.723" r="19.399"><title>unctad.org</title></circle>
	<circle fill="#F3835D" cx="558.553" cy="375.521" r="88.372"><title>undp.org</title></circle>
	<circle fill="#F3835D" cx="618.718" cy="269.939" r="19.816"><title>unece.org</title></circle>
	<circle fill="#F3835D" cx="686.289" cy="273.117" r="34.497"><title>unep.org</title></circle>
	<circle fill="#F3835D" cx="697.257" cy="174.366" r="9.289"><title>unescap.org</title></circle>
	<circle fill="#F3835D" cx="682.62" cy="107.533" r="45.797"><title>unesco.org</title></circle>
	<circle fill="#F3835D" cx="605.02" cy="145.957" r="7.578"><title>unfpa.org</title></circle>
	<circle fill="#F3835D" cx="606.286" cy="107.863" r="17.205"><title>unhabitat.org</title></circle>
	<circle fill="#F3835D" cx="572.944" cy="93.48" r="5.786"><title>unhcr.org</title></circle>
	<circle fill="#F3835D" cx="560.385" cy="69.271" r="8.155"><title>unido.org</title></circle>
	<circle fill="#F3835D" cx="526.295" cy="56.183" r="15.037"><title>unisdr.org</title></circle>
	<circle fill="#F3835D" cx="489.116" cy="34.779" r="14.534"><title>unitar.org</title></circle>
	<circle fill="#F3835D" cx="423.067" cy="38.278" r="38.278"><title>unocha.org</title></circle>
	<circle fill="#F3835D" cx="400.551" cy="112.08" r="25.554"><title>unu.edu</title></circle>
	<circle fill="#F3835D" cx="361.227" cy="137.179" r="7.767"><title>unwto.org</title></circle>
	<circle fill="#F3835D" cx="338.594" cy="160.56" r="11.441"><title>wfp.org</title></circle>
	<circle fill="#F3835D" cx="352.762" cy="224.661" r="16.812"><title>who.int</title></circle>
	<circle fill="#F3835D" cx="394.55" cy="248.787" r="18.11"><title>wmo.int</title></circle>
	<circle fill="#F3835D" cx="283.367" cy="426.014" r="173.986"><title>worldbank.org</title></circle>
</g>
<g id="texts">
	<text transform="matrix(1 0 0 1 548.928 173.2908)" font-family="'SourceSansPro-Regular'" font-size="12">cbd.int</text>
	<text transform="matrix(1 0 0 1 489.9983 143.4724)" font-family="'SourceSansPro-Regular'" font-size="12">cepal.org</text>
	<text transform="matrix(1 0 0 1 465.8635 226.738)" font-family="'SourceSansPro-Regular'" font-size="12">fao.org</text>
	<text transform="matrix(1 0 0 1 548.4026 218.6033)" font-family="'SourceSansPro-Regular'" font-size="12">icao.int</text>
	<text transform="matrix(1 0 0 1 551.8381 257.3552)" font-family="'SourceSansPro-Regular'" font-size="12">ifad.org</text>
	<text transform="matrix(1 0 0 1 622.1125 203.6472)" font-family="'SourceSansPro-Regular'" font-size="12">ilo.org</text>
	<text transform="matrix(1 0 0 1 519.2405 106.1814)" font-family="'SourceSansPro-Regular'" font-size="12">ipcc.ch</text>
	<text transform="matrix(1 0 0 1 467.9534 92.447)" font-family="'SourceSansPro-Regular'" font-size="12">itu.int</text>
	<text transform="matrix(1 0 0 1 434.4915 132.5134)" font-family="'SourceSansPro-Regular'" font-size="12">ohchr.org</text>
	<text transform="matrix(1 0 0 1 362.884 183.7317)" font-family="'SourceSansPro-Regular'" font-size="12">thegef.org</text>
	<text transform="matrix(1 0 0 1 398.0984 287.949)" font-family="'SourceSansPro-Regular'" font-size="12">unccd.int</text>
	<text transform="matrix(1 0 0 1 428.051 317.0623)" font-family="'SourceSansPro-Regular'" font-size="12">unctad.org</text>
	<text transform="matrix(1 0 0 1 535.4954 380.8552)" font-family="'SourceSansPro-Regular'" font-size="12">undp.org</text>
	<text transform="matrix(1 0 0 1 593.634 275.2761)" font-family="'SourceSansPro-Regular'" font-size="12">unece.org</text>
	<text transform="matrix(1 0 0 1 663.5872 278.4509)" font-family="'SourceSansPro-Regular'" font-size="12">unep.org</text>
	<text transform="matrix(1 0 0 1 654.7454 112.866)" font-family="'SourceSansPro-Regular'" font-size="12">unesco.org</text>
	<text transform="matrix(1 0 0 1 500.4944 61.5149)" font-family="'SourceSansPro-Regular'" font-size="12">unisdr.org</text>
	<text transform="matrix(1 0 0 1 464.0588 40.1086)" font-family="'SourceSansPro-Regular'" font-size="12">unitar.org</text>
	<text transform="matrix(1 0 0 1 394.3425 43.6096)" font-family="'SourceSansPro-Regular'" font-size="12">unocha.org</text>
	<text transform="matrix(1 0 0 1 379.675 117.4128)" font-family="'SourceSansPro-Regular'" font-size="12">unu.edu</text>
	<text transform="matrix(1 0 0 1 335.2375 142.5125)" font-family="'SourceSansPro-Regular'" font-size="12">unwto.org</text>
	<text transform="matrix(1 0 0 1 319.3494 165.8928)" font-family="'SourceSansPro-Regular'" font-size="12">wfp.org</text>
	<text transform="matrix(1 0 0 1 333.656 229.9949)" font-family="'SourceSansPro-Regular'" font-size="12">who.int</text>
	<text transform="matrix(1 0 0 1 373.7332 254.1218)" font-family="'SourceSansPro-Regular'" font-size="12">wmo.int</text>
	<text transform="matrix(1 0 0 1 246.3557 431.3513)" font-family="'SourceSansPro-Regular'" font-size="12">worldbank.org</text>
</g>
</svg>
