<?xml version="1.0" encoding="utf-8"?>
<!-- Generator: Adobe Illustrator 15.0.0, SVG Export Plug-In . SVG Version: 6.00 Build 0)  -->
<!DOCTYPE svg PUBLIC "-//W3C//DTD SVG 1.1//EN" "http://www.w3.org/Graphics/SVG/1.1/DTD/svg11.dtd">
<svg version="1.1" xmlns="http://www.w3.org/2000/svg" xmlns:xlink="http://www.w3.org/1999/xlink" x="0px" y="0px" width="847px"
	 height="600px" viewBox="0 0 847 600" enable-background="new 0 0 847 600" xml:space="preserve">
<g id="Layer_2">
<circle fill="#EFC164" cx="587.816" cy="142.467" r="0"><title>beijing20.unwomen.org</title></circle>
<circle fill="#EFC164" cx="646.497" cy="150.173" r="43.868"><title>cbd.int</title></circle>
<circle fill="#EFC164" cx="585.139" cy="112.343" r="12.771"><title>cepal.org</title></circle>
<circle fill="#EFC164" cx="548.179" cy="150.763" r="25.155"><title>fao.org</title></circle>
<circle fill="#EFC164" cx="587.149" cy="171.707" r="3.612"><title>icao.int</title></circle>
<circle fill="#EFC164" cx="597.889" cy="196.111" r="7.663"><title>ifad.org</title></circle>
<circle fill="#EFC164" cx="626.306" cy="220.058" r="13.515"><title>ilo.org</title></circle>
<circle fill="#EFC164" cx="667.817" cy="219.202" r="13.023"><title>imf.org</title></circle>
<circle fill="#EFC164" cx="694.749" cy="192.703" r="5.109"><title>imo.org</title></circle>
<circle fill="#EFC164" cx="715.239" cy="131.612" r="11.98"><title>ipcc.ch</title></circle>
<circle fill="#EFC164" cx="696.173" cy="87.13" r="21.062"><title>itu.int</title></circle>
<circle fill="#EFC164" cx="655.503" cy="91.659" r="0"><title>news.upu.int</title></circle>
<circle fill="#EFC164" cx="640.129" cy="90.957" r="0"><title>newsroom.unfccc.int</title></circle>
<circle fill="#EFC164" cx="615.604" cy="88.27" r="9.209"><title>ohchr.org</title></circle>
<circle fill="#EFC164" cx="583.715" cy="69.459" r="7.224"><title>sustainabledevelopment.un.org</title></circle>
<circle fill="#EFC164" cx="540.764" cy="86.079" r="23.27"><title>thegef.org</title></circle>
<circle fill="#EFC164" cx="517.797" cy="120.255" r="2.554"><title>unaids.org</title></circle>
<circle fill="#EFC164" cx="502.842" cy="174.881" r="10.836"><title>unccd.int</title></circle>
<circle fill="#EFC164" cx="533.675" cy="205.733" r="16.354"><title>unctad.org</title></circle>
<circle fill="#EFC164" cx="577.19" cy="241.926" r="24.895"><title>undp.org</title></circle>
<circle fill="#EFC164" cx="625.188" cy="252.247" r="8.848"><title>unece.org</title></circle>
<circle fill="#EFC164" cx="702.073" cy="313" r="71.651"><title>unep.org</title></circle>
<circle fill="#EFC164" cx="704.003" cy="218.789" r="7.225"><title>unescap.org</title></circle>
<circle fill="#EFC164" cx="737.233" cy="178.395" r="24.365"><title>unesco.org</title></circle>
<circle fill="#EFC164" cx="751.414" cy="131.729" r="8.848"><title>unfpa.org</title></circle>
<circle fill="#EFC164" cx="735.752" cy="104.383" r="6.758"><title>unhabitat.org</title></circle>
<circle fill="#EFC164" cx="726.83" cy="46.827" r="14.221"><title>unhcr.org</title></circle>
<circle fill="#EFC164" cx="673.687" cy="38.957" r="10.216"><title>unido.org</title></circle>
<circle fill="#EFC164" cx="655.671" cy="67.836" r="8.471"><title>unisdr.org</title></circle>
<circle fill="#EFC164" cx="627.537" cy="61.106" r="5.108"><title>unitar.org</title></circle>
<circle fill="#EFC164" cx="603.875" cy="48.703" r="6.256"><title>unocha.org</title></circle>
<circle fill="#EFC164" cx="563.025" cy="25.413" r="25.413"><title>unu.edu</title></circle>
<circle fill="#EFC164" cx="529.806" cy="49.045" r="0"><title>unwto.org</title></circle>
<circle fill="#EFC164" cx="499.821" cy="69.053" r="5.711"><title>wfp.org</title></circle>
<circle fill="#EFC164" cx="490.265" cy="103.257" r="14.448"><title>who.int</title></circle>
<circle fill="#EFC164" cx="500.348" cy="140.248" r="8.471"><title>wmo.int</title></circle>
<circle fill="#EFC164" cx="303.415" cy="356.487" r="243.513"><title>worldbank.org</title></circle>
</g>
<g id="Layer_1">
	<text transform="matrix(1 0 0 1 628.8215 156.3157)" font-family="'SourceSansPro-Regular'" font-size="12">cbd.int</text>
	<text transform="matrix(1 0 0 1 561.6438 118.4866)" font-family="'SourceSansPro-Regular'" font-size="12">cepal.org</text>
	<text transform="matrix(1 0 0 1 530.2463 156.9036)" font-family="'SourceSansPro-Regular'" font-size="12">fao.org</text>
	<text transform="matrix(1 0 0 1 568.3333 177.8489)" font-family="'SourceSansPro-Regular'" font-size="12">icao.int</text>
	<text transform="matrix(1 0 0 1 578.4055 202.2537)" font-family="'SourceSansPro-Regular'" font-size="12">ifad.org</text>
	<text transform="matrix(1 0 0 1 610.1956 226.2009)" font-family="'SourceSansPro-Regular'" font-size="12">ilo.org</text>
	<text transform="matrix(1 0 0 1 649.7629 225.3445)" font-family="'SourceSansPro-Regular'" font-size="12">imf.org</text>
	<text transform="matrix(1 0 0 1 675.1995 198.8469)" font-family="'SourceSansPro-Regular'" font-size="12">imo.org</text>
	<text transform="matrix(1 0 0 1 697.467 137.7542)" font-family="'SourceSansPro-Regular'" font-size="12">ipcc.ch</text>
	<text transform="matrix(1 0 0 1 681.1292 93.2708)" font-family="'SourceSansPro-Regular'" font-size="12">itu.int</text>
	<text transform="matrix(1 0 0 1 591.1526 94.4148)" font-family="'SourceSansPro-Regular'" font-size="12">ohchr.org</text>
	<text transform="matrix(1 0 0 1 514.8928 92.2224)" font-family="'SourceSansPro-Regular'" font-size="12">thegef.org</text>
	<text transform="matrix(1 0 0 1 479.2112 181.0247)" font-family="'SourceSansPro-Regular'" font-size="12">unccd.int</text>
	<text transform="matrix(1 0 0 1 506.1077 211.8796)" font-family="'SourceSansPro-Regular'" font-size="12">unctad.org</text>
	<text transform="matrix(1 0 0 1 554.1321 248.0706)" font-family="'SourceSansPro-Regular'" font-size="12">undp.org</text>
	<text transform="matrix(1 0 0 1 600.1038 258.3884)" font-family="'SourceSansPro-Regular'" font-size="12">unece.org</text>
	<text transform="matrix(1 0 0 1 679.3674 319.1462)" font-family="'SourceSansPro-Regular'" font-size="12">unep.org</text>
	<text transform="matrix(1 0 0 1 709.3577 184.5364)" font-family="'SourceSansPro-Regular'" font-size="12">unesco.org</text>
	<text transform="matrix(1 0 0 1 702.3518 52.9675)" font-family="'SourceSansPro-Regular'" font-size="12">unhcr.org</text>
	<text transform="matrix(1 0 0 1 649.2317 45.0974)" font-family="'SourceSansPro-Regular'" font-size="12">unido.org</text>
	<text transform="matrix(1 0 0 1 542.1467 31.553)" font-family="'SourceSansPro-Regular'" font-size="12">unu.edu</text>
	<text transform="matrix(1 0 0 1 480.5784 75.1951)" font-family="'SourceSansPro-Regular'" font-size="12">wfp.org</text>
	<text transform="matrix(1 0 0 1 471.1565 109.3972)" font-family="'SourceSansPro-Regular'" font-size="12">who.int</text>
	<text transform="matrix(1 0 0 1 479.5305 146.3894)" font-family="'SourceSansPro-Regular'" font-size="12">wmo.int</text>
	<text transform="matrix(1 0 0 1 266.4041 362.6326)" font-family="'SourceSansPro-Regular'" font-size="12">worldbank.org</text>
</g>
</svg>
