<?xml version="1.0" encoding="utf-8"?>
<!-- Generator: Adobe Illustrator 16.0.4, SVG Export Plug-In . SVG Version: 6.00 Build 0)  -->
<!DOCTYPE svg PUBLIC "-//W3C//DTD SVG 1.1//EN" "http://www.w3.org/Graphics/SVG/1.1/DTD/svg11.dtd">
<svg version="1.1" id="Layer_1" xmlns="http://www.w3.org/2000/svg" xmlns:xlink="http://www.w3.org/1999/xlink" x="0px" y="0px"
	 width="1170px" height="672.891px" viewBox="0 0 1170 672.891" enable-background="new 0 0 1170 672.891" xml:space="preserve">
<line fill="none" stroke="#000000" stroke-width="0.25" stroke-miterlimit="10" x1="76.993" y1="97.349" x2="1150.439" y2="97.349"/>
<g>
	
		<rect x="1150.157" y="95.519" fill="#CCCACA" stroke="#000000" stroke-width="0.25" stroke-miterlimit="10" width="0.562" height="3.66"/>
</g>
<line fill="none" stroke="#000000" stroke-width="0.25" stroke-miterlimit="10" x1="76.993" y1="142.076" x2="1150.439" y2="142.076"/>
<line fill="none" stroke="#000000" stroke-width="0.25" stroke-miterlimit="10" x1="76.993" y1="186.803" x2="1150.439" y2="186.803"/>
<line fill="none" stroke="#000000" stroke-width="0.25" stroke-miterlimit="10" x1="76.993" y1="231.529" x2="1150.439" y2="231.529"/>
<line fill="none" stroke="#000000" stroke-width="0.25" stroke-miterlimit="10" x1="76.993" y1="276.257" x2="1150.439" y2="276.257"/>
<line fill="none" stroke="#000000" stroke-width="0.25" stroke-miterlimit="10" x1="76.993" y1="320.98" x2="1150.439" y2="320.98"/>
<line fill="none" stroke="#000000" stroke-width="0.25" stroke-miterlimit="10" x1="76.993" y1="365.709" x2="1150.439" y2="365.709"/>
<line fill="none" stroke="#000000" stroke-width="0.25" stroke-miterlimit="10" x1="76.993" y1="410.436" x2="1150.439" y2="410.436"/>
<g>
	
		<rect x="76.711" y="408.607" fill="#CCCACA" stroke="#000000" stroke-width="0.25" stroke-miterlimit="10" width="0.563" height="3.658"/>
</g>
<g>
	
		<rect x="1150.157" y="408.607" fill="#CCCACA" stroke="#000000" stroke-width="0.25" stroke-miterlimit="10" width="0.562" height="3.658"/>
</g>
<line fill="none" stroke="#000000" stroke-width="0.25" stroke-miterlimit="10" x1="76.993" y1="455.164" x2="1150.439" y2="455.164"/>
<line fill="none" stroke="#000000" stroke-width="0.25" stroke-miterlimit="10" x1="76.993" y1="499.891" x2="1150.439" y2="499.891"/>
<line fill="none" stroke="#000000" stroke-width="0.25" stroke-miterlimit="10" x1="76.993" y1="544.619" x2="1150.439" y2="544.619"/>
<line fill="none" stroke="#000000" stroke-width="0.25" stroke-miterlimit="10" x1="76.993" y1="589.346" x2="1150.439" y2="589.346"/>
<line fill="none" stroke="#000000" stroke-width="0.25" stroke-linecap="round" stroke-miterlimit="10" x1="97.177" y1="78.507" x2="97.141" y2="588.668"/>
<line fill="none" stroke="#000000" stroke-width="0.25" stroke-linecap="round" stroke-miterlimit="10" x1="151.206" y1="78.507" x2="151.171" y2="588.668"/>
<line fill="none" stroke="#000000" stroke-width="0.25" stroke-linecap="round" stroke-miterlimit="10" x1="205.238" y1="78.507" x2="205.595" y2="588.668"/>
<line fill="none" stroke="#000000" stroke-width="0.25" stroke-linecap="round" stroke-miterlimit="10" x1="259.263" y1="78.515" x2="259.263" y2="588.213"/>
<line fill="none" stroke="#000000" stroke-width="0.25" stroke-linecap="round" stroke-miterlimit="10" x1="313.292" y1="78.507" x2="313.293" y2="588.668"/>
<line fill="none" stroke="#000000" stroke-width="0.25" stroke-linecap="round" stroke-miterlimit="10" x1="367.321" y1="78.507" x2="367.321" y2="588.668"/>
<line fill="none" stroke="#000000" stroke-width="0.25" stroke-linecap="round" stroke-miterlimit="10" x1="421.349" y1="78.507" x2="421.349" y2="588.668"/>
<line fill="none" stroke="#000000" stroke-width="0.25" stroke-linecap="round" stroke-miterlimit="10" x1="475.378" y1="78.507" x2="475.378" y2="588.668"/>
<line fill="none" stroke="#000000" stroke-width="0.25" stroke-linecap="round" stroke-miterlimit="10" x1="529.407" y1="78.507" x2="529.407" y2="588.668"/>
<line fill="none" stroke="#000000" stroke-width="0.25" stroke-linecap="round" stroke-miterlimit="10" x1="583.434" y1="78.507" x2="583.434" y2="588.668"/>
<line fill="none" stroke="#000000" stroke-width="0.25" stroke-linecap="round" stroke-miterlimit="10" x1="637.463" y1="78.507" x2="637.463" y2="588.668"/>
<line fill="none" stroke="#000000" stroke-width="0.25" stroke-linecap="round" stroke-miterlimit="10" x1="691.492" y1="78.507" x2="691.492" y2="588.668"/>
<line fill="none" stroke="#000000" stroke-width="0.25" stroke-linecap="round" stroke-miterlimit="10" x1="745.521" y1="78.507" x2="745.521" y2="588.668"/>
<line fill="none" stroke="#000000" stroke-width="0.25" stroke-linecap="round" stroke-miterlimit="10" x1="799.551" y1="78.507" x2="799.551" y2="588.668"/>
<line fill="none" stroke="#000000" stroke-width="0.25" stroke-linecap="round" stroke-miterlimit="10" x1="853.581" y1="78.507" x2="853.581" y2="588.668"/>
<line fill="none" stroke="#000000" stroke-width="0.25" stroke-linecap="round" stroke-miterlimit="10" x1="907.608" y1="78.507" x2="907.608" y2="588.668"/>
<line fill="none" stroke="#000000" stroke-width="0.25" stroke-linecap="round" stroke-miterlimit="10" x1="961.638" y1="78.507" x2="961.638" y2="588.668"/>
<line fill="none" stroke="#000000" stroke-width="0.25" stroke-linecap="round" stroke-miterlimit="10" x1="1015.667" y1="78.507" x2="1015.667" y2="588.668"/>
<line fill="none" stroke="#000000" stroke-width="0.25" stroke-linecap="round" stroke-miterlimit="10" x1="1069.695" y1="78.507" x2="1069.695" y2="588.668"/>
<line fill="none" stroke="#000000" stroke-width="0.25" stroke-linecap="round" stroke-miterlimit="10" x1="1123.725" y1="78.507" x2="1123.725" y2="588.668"/>
<g id="pallozzi">
	<g>
		<path fill="#D2BDBB" d="M379.677,97.799c0,6.589-5.342,11.931-11.931,11.931c-6.591,0-11.933-5.341-11.933-11.931
			c0-6.59,5.342-11.933,11.933-11.933C374.335,85.867,379.677,91.209,379.677,97.799"/>
		<path fill="#CCC7C6" d="M487.629,97.799c0,6.528-5.292,11.821-11.82,11.821c-6.529,0-11.821-5.292-11.821-11.821
			s5.292-11.821,11.821-11.821C482.335,85.978,487.629,91.27,487.629,97.799"/>
		<path fill="#D0BFBE" d="M379.456,231.98c0,6.468-5.243,11.709-11.709,11.709c-6.468,0-11.71-5.244-11.71-11.709
			c0-6.466,5.243-11.71,11.71-11.71C374.212,220.27,379.456,225.514,379.456,231.98"/>
		<path fill="#D0C0BE" d="M1135.324,97.349c0,6.404-5.192,11.598-11.598,11.598c-6.407,0-11.602-5.193-11.602-11.598
			c0-6.406,5.194-11.601,11.602-11.601C1130.132,85.749,1135.324,90.943,1135.324,97.349"/>
		<path fill="#CAC9C9" d="M486.844,142.075c0,6.345-5.142,11.488-11.488,11.488c-6.344,0-11.488-5.144-11.488-11.488
			c0-6.344,5.145-11.487,11.488-11.487C481.702,130.589,486.844,135.731,486.844,142.075"/>
		<path fill="#CFC1C0" d="M1135.104,231.529c0,6.284-5.095,11.377-11.377,11.377s-11.377-5.094-11.377-11.377
			c0-6.284,5.095-11.377,11.377-11.377S1135.104,225.245,1135.104,231.529"/>
		<path fill="#AEBCBE" d="M378.562,142.075c0,6.222-5.044,11.266-11.267,11.266c-6.221,0-11.266-5.043-11.266-11.266
			c0-6.222,5.044-11.265,11.266-11.265S378.562,135.853,378.562,142.075"/>
		<path fill="#8CABAF" d="M486.962,231.98c0,6.161-4.996,11.155-11.155,11.155c-6.16,0-11.156-4.995-11.156-11.155
			s4.996-11.155,11.156-11.155C481.967,220.826,486.962,225.82,486.962,231.98"/>
		<path fill="#CEC2C2" d="M486.851,276.708c0,6.1-4.945,11.044-11.043,11.044c-6.1,0-11.045-4.944-11.045-11.044
			c0-6.099,4.945-11.044,11.045-11.044C481.907,265.663,486.851,270.607,486.851,276.708"/>
		<path fill="#C2C6C6" d="M486.739,366.158c0,6.041-4.895,10.934-10.931,10.934c-6.04,0-10.933-4.893-10.933-10.934
			c0-6.037,4.893-10.934,10.933-10.934C481.845,355.225,486.739,360.121,486.739,366.158"/>
		<path fill="#ACBBBD" d="M648.721,97.799c0,5.977-4.846,10.821-10.822,10.821c-5.975,0-10.821-4.844-10.821-10.821
			c0-5.978,4.847-10.822,10.821-10.822C643.875,86.978,648.721,91.821,648.721,97.799"/>
		<path fill="#C1C6C6" d="M486.068,320.98c0,5.918-4.796,10.713-10.712,10.713c-5.915,0-10.71-4.795-10.71-10.713
			c0-5.914,4.795-10.709,10.71-10.709C481.274,310.271,486.068,315.066,486.068,320.98"/>
		<path fill="#D2BCBA" d="M648.049,142.075c0,5.854-4.746,10.601-10.601,10.601s-10.599-4.747-10.599-10.601
			c0-5.854,4.744-10.599,10.599-10.599C643.303,131.477,648.049,136.22,648.049,142.075"/>
		<path fill="#CAC9C9" d="M323.754,97.349c0,5.792-4.694,10.487-10.489,10.487c-5.794,0-10.49-4.695-10.49-10.487
			c0-5.793,4.696-10.491,10.49-10.491C319.059,86.858,323.754,91.556,323.754,97.349"/>
		<path fill="#ACBBBD" d="M377.672,320.98c0,5.734-4.646,10.379-10.377,10.379c-5.731,0-10.376-4.645-10.376-10.379
			c0-5.73,4.645-10.377,10.376-10.377C373.027,310.604,377.672,315.25,377.672,320.98"/>
		<path fill="#A1B5B8" d="M161.889,97.799c0,5.67-4.597,10.267-10.266,10.267c-5.672,0-10.268-4.597-10.268-10.267
			c0-5.671,4.597-10.267,10.268-10.267C157.292,87.531,161.889,92.128,161.889,97.799"/>
		<path fill="#A5B7BA" d="M377.902,276.708c0,5.608-4.547,10.155-10.156,10.155c-5.608,0-10.156-4.547-10.156-10.155
			c0-5.607,4.548-10.156,10.156-10.156C373.355,266.551,377.902,271.099,377.902,276.708"/>
		<path fill="#CFC1C0" d="M323.759,231.98c0,5.547-4.496,10.045-10.044,10.045c-5.546,0-10.044-4.498-10.044-10.045
			c0-5.548,4.498-10.045,10.044-10.045C319.263,221.935,323.759,226.432,323.759,231.98"/>
		<path fill="#C0C5C5" d="M647.833,231.98c0,5.486-4.448,9.934-9.935,9.934c-5.483,0-9.933-4.448-9.933-9.934
			c0-5.487,4.449-9.934,9.933-9.934C643.385,222.046,647.833,226.493,647.833,231.98"/>
		<path fill="#C1C5C6" d="M485.181,589.344c0,5.426-4.399,9.826-9.825,9.826c-5.425,0-9.822-4.398-9.822-9.826
			c0-5.424,4.397-9.822,9.822-9.822C480.782,579.523,485.181,583.922,485.181,589.344"/>
		<path fill="#BCC3C4" d="M377.119,589.344c0,5.426-4.399,9.826-9.824,9.826c-5.424,0-9.823-4.398-9.823-9.826
			c0-5.424,4.399-9.822,9.823-9.822C372.72,579.523,377.119,583.922,377.119,589.344"/>
		<path fill="#DCAAA7" d="M268.945,142.075c0,5.364-4.348,9.712-9.711,9.712s-9.711-4.349-9.711-9.712s4.348-9.711,9.711-9.711
			C264.598,132.364,268.945,136.712,268.945,142.075"/>
		<path fill="#CBC8C7" d="M1133.327,276.257c0,5.302-4.297,9.601-9.601,9.601s-9.601-4.298-9.601-9.601s4.297-9.602,9.601-9.602
			S1133.327,270.955,1133.327,276.257"/>
		<path fill="#BFC4C5" d="M484.848,410.436c0,5.242-4.25,9.49-9.491,9.49c-5.241,0-9.49-4.248-9.49-9.49
			c0-5.24,4.25-9.488,9.49-9.488S484.848,405.195,484.848,410.436"/>
		<path fill="#ADBBBD" d="M377.124,410.887c0,5.18-4.198,9.381-9.378,9.381c-5.18,0-9.379-4.201-9.379-9.381
			c0-5.182,4.2-9.377,9.379-9.377C372.926,401.51,377.124,405.707,377.124,410.887"/>
		<path fill="#558C93" d="M1133.444,142.526c0,5.118-4.151,9.267-9.27,9.267c-5.117,0-9.267-4.149-9.267-9.267
			c0-5.119,4.151-9.269,9.267-9.269C1129.295,133.257,1133.444,137.407,1133.444,142.526"/>
		<path fill="#49858C" d="M376.903,366.158c0,5.059-4.101,9.158-9.157,9.158c-5.058,0-9.157-4.1-9.157-9.158
			c0-5.055,4.1-9.154,9.157-9.154C372.802,357.004,376.903,361.104,376.903,366.158"/>
		<path fill="#CBC8C8" d="M322.76,142.526c0,4.997-4.05,9.046-9.046,9.046c-4.995,0-9.046-4.049-9.046-9.046
			c0-4.996,4.051-9.048,9.046-9.048C318.71,133.479,322.76,137.53,322.76,142.526"/>
		<path fill="#A8B9BB" d="M376.23,455.164c0,4.936-4.001,8.936-8.936,8.936c-4.934,0-8.935-4-8.935-8.936
			c0-4.934,4.001-8.936,8.935-8.936C372.229,446.229,376.23,450.23,376.23,455.164"/>
		<path fill="#82A6AA" d="M1132.551,365.709c0,4.873-3.954,8.824-8.826,8.824c-4.873,0-8.823-3.951-8.823-8.824
			c0-4.871,3.95-8.824,8.823-8.824C1128.599,356.885,1132.551,360.838,1132.551,365.709"/>
		<path fill="#9AB2B5" d="M1132.551,320.98c0,4.875-3.954,8.826-8.826,8.826c-4.873,0-8.823-3.951-8.823-8.826
			c0-4.871,3.95-8.822,8.823-8.822C1128.599,312.158,1132.551,316.109,1132.551,320.98"/>
		<path fill="#D7B3B1" d="M592.132,231.529c0,4.812-3.902,8.712-8.713,8.712c-4.812,0-8.714-3.899-8.714-8.712
			s3.902-8.712,8.714-8.712C588.229,222.817,592.132,226.717,592.132,231.529"/>
		<path fill="#A7B8BB" d="M916.204,97.349c0,4.75-3.851,8.601-8.603,8.601c-4.75,0-8.601-3.851-8.601-8.601
			c0-4.752,3.851-8.604,8.601-8.604C912.354,88.747,916.204,92.597,916.204,97.349"/>
		<path fill="#D0C0BE" d="M159.774,365.709c0,4.752-3.851,8.604-8.603,8.604c-4.75,0-8.601-3.852-8.601-8.604
			s3.851-8.604,8.601-8.604C155.923,357.107,159.774,360.959,159.774,365.709"/>
		<path fill="#8AAAAE" d="M160.114,231.98c0,4.69-3.801,8.491-8.491,8.491c-4.691,0-8.493-3.801-8.493-8.491
			s3.802-8.491,8.493-8.491C156.313,223.489,160.114,227.291,160.114,231.98"/>
		<path fill="#8BABAF" d="M484.188,455.613c0,4.629-3.752,8.381-8.381,8.381c-4.629,0-8.381-3.752-8.381-8.381
			s3.751-8.379,8.381-8.379C480.436,447.234,484.188,450.984,484.188,455.613"/>
		<path fill="#D0C0BF" d="M322.095,366.158c0,4.629-3.752,8.383-8.38,8.383c-4.627,0-8.38-3.754-8.38-8.383
			c0-4.625,3.752-8.379,8.38-8.379C318.343,357.779,322.095,361.531,322.095,366.158"/>
		<path fill="#CACACA" d="M1024.383,97.799c0,4.567-3.701,8.27-8.269,8.27s-8.27-3.703-8.27-8.27s3.702-8.27,8.27-8.27
			S1024.383,93.231,1024.383,97.799"/>
		<path fill="#E19F9C" d="M700.198,366.158c0,4.57-3.7,8.273-8.269,8.273c-4.567,0-8.27-3.703-8.27-8.273
			c0-4.566,3.702-8.268,8.27-8.268C696.498,357.891,700.198,361.592,700.198,366.158"/>
		<path fill="#CAC9C9" d="M646.167,366.158c0,4.57-3.702,8.273-8.269,8.273c-4.568,0-8.269-3.703-8.269-8.273
			c0-4.566,3.7-8.268,8.269-8.268C642.465,357.891,646.167,361.592,646.167,366.158"/>
		<path fill="#DDA9A6" d="M267.952,366.158c0,4.57-3.701,8.273-8.269,8.273s-8.269-3.703-8.269-8.273
			c0-4.566,3.702-8.268,8.269-8.268S267.952,361.592,267.952,366.158"/>
		<path fill="#97B1B4" d="M159.781,142.526c0,4.504-3.652,8.158-8.157,8.158c-4.506,0-8.159-3.654-8.159-8.158
			c0-4.505,3.653-8.158,8.159-8.158C156.129,134.368,159.781,138.021,159.781,142.526"/>
		<path fill="#CBC9C8" d="M1131.773,410.436c0,4.443-3.604,8.049-8.047,8.049c-4.443,0-8.049-3.605-8.049-8.049
			s3.605-8.045,8.049-8.045C1128.169,402.391,1131.773,405.992,1131.773,410.436"/>
		<path fill="#C2C6C6" d="M1131.662,589.344c0,4.385-3.555,7.938-7.936,7.938c-4.386,0-7.938-3.553-7.938-7.938
			c0-4.383,3.552-7.936,7.938-7.936C1128.107,581.408,1131.662,584.961,1131.662,589.344"/>
		<path fill="#CAC9C9" d="M645.274,320.98c0,4.322-3.503,7.826-7.826,7.826c-4.321,0-7.825-3.504-7.825-7.826
			c0-4.32,3.504-7.822,7.825-7.822C641.771,313.158,645.274,316.66,645.274,320.98"/>
		<path fill="#CDC5C4" d="M483.183,186.803c0,4.321-3.506,7.824-7.826,7.824c-4.322,0-7.825-3.502-7.825-7.824
			c0-4.322,3.503-7.826,7.825-7.826S483.183,182.482,483.183,186.803"/>
		<path fill="#CACACA" d="M915.316,231.529c0,4.26-3.452,7.714-7.716,7.714c-4.258,0-7.713-3.452-7.713-7.714
			c0-4.261,3.453-7.714,7.713-7.714C911.864,223.815,915.316,227.27,915.316,231.529"/>
		<path fill="#CDC4C4" d="M158.886,320.98c0,4.262-3.454,7.717-7.715,7.717c-4.26,0-7.714-3.453-7.714-7.717
			c0-4.26,3.454-7.711,7.714-7.711C155.432,313.27,158.886,316.721,158.886,320.98"/>
		<path fill="#BBC2C3" d="M1131.779,455.613c0,4.199-3.404,7.604-7.604,7.604c-4.198,0-7.603-3.402-7.603-7.604
			c0-4.197,3.403-7.602,7.603-7.602C1128.376,448.012,1131.779,451.414,1131.779,455.613"/>
		<path fill="#94AFB3" d="M591.359,97.799c0,4.138-3.353,7.492-7.49,7.492c-4.139,0-7.492-3.354-7.492-7.492
			s3.353-7.492,7.492-7.492C588.006,90.307,591.359,93.66,591.359,97.799"/>
		<path fill="#CDC5C5" d="M159.003,276.708c0,4.075-3.305,7.381-7.38,7.381c-4.077,0-7.383-3.306-7.383-7.381
			c0-4.076,3.307-7.381,7.383-7.381C155.699,269.327,159.003,272.631,159.003,276.708"/>
		<path fill="#CAC9C9" d="M483.078,500.342c0,4.012-3.257,7.266-7.27,7.266c-4.018,0-7.271-3.254-7.271-7.266
			c0-4.016,3.254-7.271,7.271-7.271C479.821,493.07,483.078,496.326,483.078,500.342"/>
		<path fill="#D4B9B7" d="M1130.884,499.891c0,3.953-3.203,7.16-7.157,7.16c-3.955,0-7.158-3.207-7.158-7.16
			c0-3.955,3.204-7.16,7.158-7.16S1130.884,495.936,1130.884,499.891"/>
		<path fill="#C5C7C8" d="M914.761,142.075c0,3.953-3.205,7.16-7.159,7.16s-7.157-3.207-7.157-7.16c0-3.953,3.205-7.158,7.157-7.158
			C911.558,134.917,914.761,138.122,914.761,142.075"/>
		<path fill="#CEC3C2" d="M752.669,142.075c0,3.953-3.205,7.16-7.157,7.16c-3.956,0-7.159-3.207-7.159-7.16
			c0-3.953,3.204-7.158,7.159-7.158C749.464,134.917,752.669,138.122,752.669,142.075"/>
		<path fill="#D3BAB8" d="M158.332,410.436c0,3.955-3.207,7.16-7.16,7.16s-7.159-3.205-7.159-7.16c0-3.953,3.206-7.158,7.159-7.158
			C155.125,403.277,158.332,406.482,158.332,410.436"/>
		<path fill="#79A1A6" d="M752.557,97.349c0,3.891-3.156,7.047-7.046,7.047c-3.893,0-7.05-3.156-7.05-7.047
			c0-3.893,3.157-7.049,7.05-7.049C749.4,90.3,752.557,93.456,752.557,97.349"/>
		<path fill="#B4BFC1" d="M644.497,276.257c0,3.892-3.157,7.049-7.049,7.049s-7.047-3.157-7.047-7.049
			c0-3.895,3.155-7.049,7.047-7.049S644.497,272.363,644.497,276.257"/>
		<path fill="#D6B6B4" d="M806.478,97.349c0,3.831-3.104,6.936-6.936,6.936c-3.832,0-6.937-3.105-6.937-6.936
			c0-3.833,3.104-6.938,6.937-6.938C803.373,90.412,806.478,93.517,806.478,97.349"/>
		<path fill="#D5B8B5" d="M752.448,365.709c0,3.83-3.107,6.936-6.937,6.936c-3.832,0-6.938-3.105-6.938-6.936
			s3.105-6.938,6.938-6.938C749.341,358.771,752.448,361.879,752.448,365.709"/>
		<path fill="#9CB3B6" d="M374.231,186.803c0,3.831-3.104,6.936-6.937,6.936c-3.832,0-6.936-3.105-6.936-6.936
			c0-3.832,3.104-6.938,6.936-6.938C371.127,179.866,374.231,182.971,374.231,186.803"/>
		<path fill="#90ADB1" d="M266.171,231.529c0,3.832-3.106,6.938-6.938,6.938c-3.831,0-6.938-3.105-6.938-6.938
			c0-3.831,3.107-6.938,6.938-6.938C263.065,224.593,266.171,227.699,266.171,231.529"/>
		<path fill="#CBC8C7" d="M1022.49,142.075c0,3.771-3.057,6.827-6.824,6.827c-3.771,0-6.829-3.055-6.829-6.827
			c0-3.77,3.059-6.826,6.829-6.826C1019.434,135.249,1022.49,138.306,1022.49,142.075"/>
		<path fill="#CDC4C4" d="M968.462,97.349c0,3.769-3.059,6.824-6.828,6.824s-6.825-3.056-6.825-6.824
			c0-3.771,3.056-6.827,6.825-6.827S968.462,93.579,968.462,97.349"/>
		<path fill="#A1B6B8" d="M374.121,499.891c0,3.77-3.055,6.826-6.826,6.826c-3.769,0-6.825-3.057-6.825-6.826
			s3.055-6.824,6.825-6.824C371.065,493.066,374.121,496.121,374.121,499.891"/>
		<path fill="#B3BFC0" d="M320.092,320.98c0,3.771-3.057,6.828-6.827,6.828c-3.77,0-6.825-3.059-6.825-6.828
			c0-3.768,3.055-6.824,6.825-6.824C317.035,314.156,320.092,317.213,320.092,320.98"/>
		<path fill="#DAAEAB" d="M914.77,589.797c0,3.705-3.007,6.713-6.718,6.713c-3.709,0-6.714-3.008-6.714-6.713
			c0-3.711,3.005-6.717,6.714-6.717C911.763,583.08,914.77,586.088,914.77,589.797"/>
		<path fill="#BCC3C4" d="M698.645,142.526c0,3.708-3.006,6.714-6.714,6.714c-3.709,0-6.715-3.006-6.715-6.714
			c0-3.708,3.006-6.716,6.715-6.716C695.639,135.811,698.645,138.818,698.645,142.526"/>
		<path fill="#CDC5C4" d="M158.336,589.797c0,3.705-3.004,6.713-6.712,6.713c-3.709,0-6.715-3.008-6.715-6.713
			c0-3.711,3.006-6.717,6.715-6.717C155.332,583.08,158.336,586.088,158.336,589.797"/>
		<path fill="#CACACA" d="M590.473,142.526c0,3.646-2.958,6.603-6.603,6.603c-3.647,0-6.604-2.957-6.604-6.603
			c0-3.648,2.957-6.604,6.604-6.604C587.515,135.922,590.473,138.878,590.473,142.526"/>
		<path fill="#9EB4B7" d="M320.208,276.708c0,3.587-2.907,6.493-6.494,6.493c-3.585,0-6.492-2.908-6.492-6.493
			c0-3.586,2.907-6.493,6.492-6.493C317.302,270.214,320.208,273.122,320.208,276.708"/>
		<path fill="#CFC1C0" d="M698.312,321.432c0,3.525-2.858,6.383-6.382,6.383c-3.526,0-6.384-2.857-6.384-6.383
			c0-3.523,2.857-6.381,6.384-6.381C695.454,315.051,698.312,317.908,698.312,321.432"/>
		<path fill="#CBC8C8" d="M482.188,545.068c0,3.525-2.856,6.383-6.38,6.383c-3.526,0-6.383-2.857-6.383-6.383
			c0-3.523,2.857-6.381,6.383-6.381C479.332,538.688,482.188,541.545,482.188,545.068"/>
		<path fill="#EB8A85" d="M1075.966,365.709c0,3.461-2.809,6.27-6.269,6.27c-3.465,0-6.273-2.809-6.273-6.27
			c0-3.463,2.809-6.271,6.273-6.271C1073.157,359.438,1075.966,362.246,1075.966,365.709"/>
		<path fill="#719CA2" d="M697.752,231.529c0,3.463-2.81,6.271-6.271,6.271c-3.463,0-6.271-2.808-6.271-6.271
			c0-3.462,2.809-6.27,6.271-6.27C694.942,225.259,697.752,228.067,697.752,231.529"/>
		<path fill="#A5B8BA" d="M643.721,410.436c0,3.465-2.809,6.271-6.272,6.271c-3.462,0-6.27-2.807-6.27-6.271
			c0-3.463,2.808-6.271,6.27-6.271C640.912,404.164,643.721,406.973,643.721,410.436"/>
		<path fill="#CBC8C7" d="M319.535,410.436c0,3.465-2.807,6.271-6.27,6.271c-3.464,0-6.271-2.807-6.271-6.271
			c0-3.463,2.808-6.271,6.271-6.271C316.728,404.164,319.535,406.973,319.535,410.436"/>
		<path fill="#CCC7C7" d="M265.505,320.98c0,3.465-2.809,6.273-6.271,6.273c-3.464,0-6.271-2.809-6.271-6.273
			c0-3.461,2.808-6.27,6.271-6.27C262.697,314.711,265.505,317.52,265.505,320.98"/>
		<path fill="#CBC8C8" d="M157.443,455.164c0,3.463-2.808,6.271-6.271,6.271s-6.271-2.809-6.271-6.271s2.808-6.27,6.271-6.27
			C154.635,448.893,157.443,451.701,157.443,455.164"/>
		<path fill="#779FA5" d="M1021.825,231.529c0,3.403-2.758,6.161-6.159,6.161c-3.404,0-6.163-2.757-6.163-6.161
			c0-3.402,2.757-6.16,6.163-6.16C1019.067,225.371,1021.825,228.127,1021.825,231.529"/>
		<path fill="#3C7B84" d="M697.64,97.349c0,3.401-2.757,6.159-6.161,6.159c-3.4,0-6.16-2.757-6.16-6.159
			c0-3.402,2.76-6.162,6.16-6.162C694.883,91.188,697.64,93.947,697.64,97.349"/>
		<path fill="#8EACB0" d="M643.608,589.344c0,3.402-2.757,6.162-6.16,6.162c-3.401,0-6.162-2.758-6.162-6.162
			c0-3.402,2.761-6.158,6.162-6.158C640.852,583.186,643.608,585.943,643.608,589.344"/>
		<path fill="#7EA3A8" d="M859.621,97.349c0,3.34-2.709,6.049-6.05,6.049s-6.049-2.708-6.049-6.049c0-3.343,2.708-6.051,6.049-6.051
			S859.621,94.006,859.621,97.349"/>
		<path fill="#D1BFBD" d="M751.561,276.257c0,3.34-2.709,6.049-6.049,6.049c-3.343,0-6.05-2.709-6.05-6.049s2.707-6.049,6.05-6.049
			C748.852,270.208,751.561,272.917,751.561,276.257"/>
		<path fill="#6E9BA1" d="M751.561,231.529c0,3.341-2.709,6.049-6.049,6.049c-3.343,0-6.05-2.708-6.05-6.049
			c0-3.34,2.707-6.05,6.05-6.05C748.852,225.481,751.561,228.189,751.561,231.529"/>
		<path fill="#A0B5B8" d="M643.498,455.164c0,3.342-2.71,6.049-6.05,6.049s-6.05-2.707-6.05-6.049s2.71-6.049,6.05-6.049
			S643.498,451.822,643.498,455.164"/>
		<path fill="#2C6F79" d="M265.171,97.349c0,3.279-2.659,5.938-5.938,5.938c-3.281,0-5.938-2.658-5.938-5.938
			c0-3.281,2.658-5.939,5.938-5.939C262.514,91.41,265.171,94.068,265.171,97.349"/>
		<path fill="#85A8AC" d="M103.079,97.349c0,3.279-2.659,5.938-5.937,5.938c-3.28,0-5.938-2.658-5.938-5.938
			c0-3.281,2.658-5.939,5.938-5.939C100.42,91.41,103.079,94.068,103.079,97.349"/>
		<path fill="#D0BFBE" d="M643.727,187.252c0,3.218-2.608,5.827-5.83,5.827c-3.216,0-5.826-2.608-5.826-5.827
			c0-3.217,2.609-5.828,5.826-5.828C641.118,181.425,643.727,184.035,643.727,187.252"/>
		<path fill="#91AEB1" d="M1129.892,187.252c0,3.156-2.56,5.716-5.716,5.716c-3.157,0-5.715-2.56-5.715-5.716
			c0-3.156,2.558-5.717,5.715-5.717C1127.332,181.536,1129.892,184.097,1129.892,187.252"/>
		<path fill="#CBC8C7" d="M751.676,321.432c0,3.156-2.559,5.719-5.714,5.719c-3.156,0-5.718-2.562-5.718-5.719
			c0-3.158,2.562-5.715,5.718-5.715C749.117,315.717,751.676,318.275,751.676,321.432"/>
		<path fill="#9BB3B6" d="M319.431,589.797c0,3.154-2.558,5.715-5.716,5.715c-3.157,0-5.715-2.561-5.715-5.715
			c0-3.158,2.559-5.717,5.715-5.717S319.431,586.641,319.431,589.797"/>
		<path fill="#CACACA" d="M103.308,231.98c0,3.157-2.559,5.716-5.717,5.716c-3.156,0-5.715-2.558-5.715-5.716
			c0-3.157,2.559-5.717,5.715-5.717C100.75,226.263,103.308,228.822,103.308,231.98"/>
		<path fill="#D7B3B1" d="M1021.72,455.613c0,3.096-2.509,5.605-5.604,5.605s-5.604-2.51-5.604-5.605
			c0-3.094,2.509-5.605,5.604-5.605C1019.212,450.008,1021.72,452.52,1021.72,455.613"/>
		<path fill="#C0C5C5" d="M265.289,276.708c0,3.097-2.51,5.604-5.605,5.604c-3.096,0-5.605-2.508-5.605-5.604
			s2.509-5.605,5.605-5.605C262.779,271.102,265.289,273.611,265.289,276.708"/>
		<path fill="#D0BFBE" d="M697.423,589.797c0,3.031-2.46,5.492-5.492,5.492c-3.034,0-5.495-2.461-5.495-5.492
			c0-3.035,2.461-5.498,5.495-5.498C694.963,584.301,697.423,586.762,697.423,589.797"/>
		<path fill="#D6B5B3" d="M589.364,455.613c0,3.035-2.463,5.496-5.496,5.496c-3.035,0-5.495-2.461-5.495-5.496
			s2.461-5.492,5.495-5.492C586.903,450.121,589.364,452.578,589.364,455.613"/>
		<path fill="#A1B6B8" d="M1021.048,365.709c0,2.975-2.412,5.383-5.382,5.383c-2.977,0-5.385-2.41-5.385-5.383
			s2.409-5.383,5.385-5.383C1018.637,360.326,1021.048,362.736,1021.048,365.709"/>
		<path fill="#BFC4C5" d="M1021.048,320.98c0,2.975-2.412,5.387-5.382,5.387c-2.977,0-5.385-2.414-5.385-5.387
			c0-2.971,2.409-5.383,5.385-5.383C1018.637,315.598,1021.048,318.01,1021.048,320.98"/>
		<path fill="#D9B0AE" d="M967.017,320.98c0,2.975-2.412,5.387-5.384,5.387c-2.973,0-5.383-2.414-5.383-5.387
			c0-2.971,2.41-5.383,5.383-5.383S967.017,318.01,967.017,320.98"/>
		<path fill="#C0C5C5" d="M967.017,231.529c0,2.974-2.412,5.383-5.384,5.383c-2.973,0-5.383-2.41-5.383-5.383
			s2.41-5.383,5.383-5.383C964.605,226.147,967.017,228.557,967.017,231.529"/>
		<path fill="#CDC5C5" d="M912.986,410.436c0,2.975-2.412,5.385-5.385,5.385c-2.971,0-5.383-2.412-5.383-5.385
			c0-2.971,2.413-5.381,5.383-5.381C910.577,405.055,912.986,407.465,912.986,410.436"/>
		<path fill="#9EB4B7" d="M912.986,276.257c0,2.973-2.412,5.382-5.385,5.382c-2.971,0-5.383-2.41-5.383-5.382
			c0-2.973,2.413-5.385,5.383-5.385C910.577,270.875,912.986,273.285,912.986,276.257"/>
		<path fill="#D4B9B7" d="M858.954,320.98c0,2.975-2.408,5.387-5.383,5.387c-2.972,0-5.382-2.414-5.382-5.387
			c0-2.971,2.411-5.383,5.382-5.383C856.546,315.598,858.954,318.01,858.954,320.98"/>
		<path fill="#BCC3C4" d="M858.954,142.075c0,2.973-2.408,5.384-5.383,5.384c-2.972,0-5.382-2.411-5.382-5.384
			c0-2.972,2.411-5.383,5.382-5.383C856.546,136.692,858.954,139.103,858.954,142.075"/>
		<path fill="#CFC1C0" d="M804.924,231.529c0,2.974-2.408,5.383-5.382,5.383s-5.384-2.41-5.384-5.383s2.411-5.383,5.384-5.383
			C802.516,226.147,804.924,228.557,804.924,231.529"/>
		<path fill="#CBC8C8" d="M534.772,97.349c0,2.973-2.413,5.382-5.383,5.382c-2.975,0-5.384-2.409-5.384-5.382
			c0-2.975,2.411-5.384,5.384-5.384C532.361,91.965,534.772,94.375,534.772,97.349"/>
		<path fill="#D4B8B6" d="M426.708,142.075c0,2.973-2.41,5.384-5.382,5.384c-2.974,0-5.384-2.411-5.384-5.384
			c0-2.972,2.41-5.383,5.384-5.383C424.3,136.692,426.708,139.103,426.708,142.075"/>
		<path fill="#F17C76" d="M912.877,544.617c0,2.912-2.363,5.275-5.275,5.275c-2.909,0-5.27-2.363-5.27-5.275
			c0-2.91,2.36-5.271,5.27-5.271C910.514,539.346,912.877,541.707,912.877,544.617"/>
		<path fill="#DCA9A6" d="M912.877,186.803c0,2.912-2.363,5.272-5.275,5.272c-2.909,0-5.27-2.36-5.27-5.272
			c0-2.913,2.36-5.273,5.27-5.273C910.514,181.531,912.877,183.891,912.877,186.803"/>
		<path fill="#BCC3C4" d="M696.752,276.257c0,2.911-2.36,5.271-5.273,5.271c-2.911,0-5.272-2.36-5.272-5.271
			c0-2.912,2.361-5.271,5.272-5.271C694.392,270.986,696.752,273.345,696.752,276.257"/>
		<path fill="#759FA4" d="M372.568,544.617c0,2.912-2.36,5.275-5.273,5.275c-2.911,0-5.272-2.363-5.272-5.275
			c0-2.91,2.361-5.271,5.272-5.271C370.208,539.346,372.568,541.707,372.568,544.617"/>
		<path fill="#C1C5C6" d="M1020.827,276.257c0,2.85-2.315,5.16-5.161,5.16c-2.853,0-5.165-2.311-5.165-5.16
			c0-2.851,2.312-5.162,5.165-5.162C1018.514,271.095,1020.827,273.408,1020.827,276.257"/>
		<path fill="#E7938E" d="M966.793,455.164c0,2.85-2.309,5.162-5.16,5.162c-2.848,0-5.161-2.312-5.161-5.162
			c0-2.852,2.313-5.162,5.161-5.162C964.484,450.002,966.793,452.312,966.793,455.164"/>
		<path fill="#62949A" d="M912.765,365.709c0,2.852-2.312,5.16-5.163,5.16c-2.848,0-5.16-2.309-5.16-5.16
			c0-2.85,2.312-5.16,5.16-5.16C910.453,360.549,912.765,362.859,912.765,365.709"/>
		<path fill="#DDA9A6" d="M858.733,589.344c0,2.852-2.311,5.164-5.162,5.164s-5.162-2.312-5.162-5.164
			c0-2.85,2.311-5.158,5.162-5.158S858.733,586.494,858.733,589.344"/>
		<path fill="#D0C0BF" d="M750.673,410.436c0,2.85-2.312,5.164-5.162,5.164c-2.85,0-5.162-2.314-5.162-5.164s2.312-5.16,5.162-5.16
			C748.361,405.275,750.673,407.586,750.673,410.436"/>
		<path fill="#FF5A52" d="M210.364,455.164c0,2.85-2.311,5.162-5.161,5.162c-2.851,0-5.162-2.312-5.162-5.162
			c0-2.852,2.312-5.162,5.162-5.162C208.053,450.002,210.364,452.312,210.364,455.164"/>
		<path fill="#E0A3A0" d="M102.303,589.344c0,2.852-2.312,5.164-5.161,5.164c-2.851,0-5.162-2.312-5.162-5.164
			c0-2.85,2.311-5.158,5.162-5.158C99.991,584.186,102.303,586.494,102.303,589.344"/>
		<path fill="#CDC4C4" d="M696.53,410.436c0,2.791-2.262,5.051-5.05,5.051c-2.79,0-5.05-2.262-5.05-5.051s2.261-5.051,5.05-5.051
			C694.269,405.385,696.53,407.646,696.53,410.436"/>
		<path fill="#85A7AC" d="M588.468,365.709c0,2.789-2.261,5.049-5.049,5.049c-2.791,0-5.05-2.262-5.05-5.049
			c0-2.789,2.26-5.049,5.05-5.049C586.207,360.66,588.468,362.92,588.468,365.709"/>
		<path fill="#D1BEBD" d="M534.438,231.529c0,2.789-2.259,5.051-5.049,5.051c-2.791,0-5.05-2.262-5.05-5.051
			c0-2.79,2.261-5.05,5.05-5.05S534.438,228.74,534.438,231.529"/>
		<path fill="#90ADB1" d="M426.377,97.349c0,2.789-2.262,5.05-5.049,5.05c-2.791,0-5.052-2.261-5.052-5.05
			c0-2.79,2.261-5.052,5.052-5.052C424.115,92.297,426.377,94.559,426.377,97.349"/>
		<path fill="#CDC4C3" d="M318.315,186.803c0,2.788-2.26,5.049-5.05,5.049c-2.789,0-5.051-2.261-5.051-5.049
			c0-2.79,2.262-5.051,5.051-5.051C316.053,181.752,318.315,184.013,318.315,186.803"/>
		<path fill="#CBC7C7" d="M264.284,455.164c0,2.791-2.262,5.051-5.05,5.051c-2.791,0-5.05-2.262-5.05-5.051s2.261-5.051,5.05-5.051
			C262.022,450.111,264.284,452.375,264.284,455.164"/>
		<path fill="#D3BBB9" d="M210.253,142.075c0,2.79-2.262,5.05-5.05,5.05c-2.79,0-5.05-2.26-5.05-5.05c0-2.79,2.261-5.05,5.05-5.05
			C207.991,137.024,210.253,139.286,210.253,142.075"/>
		<path fill="#CCC6C6" d="M156.222,186.803c0,2.788-2.26,5.049-5.05,5.049c-2.789,0-5.05-2.261-5.05-5.049
			c0-2.79,2.263-5.051,5.05-5.051C153.962,181.752,156.222,184.013,156.222,186.803"/>
		<path fill="#63959B" d="M912.993,321.432c0,2.73-2.212,4.941-4.941,4.941c-2.728,0-4.939-2.211-4.939-4.941
			c0-2.727,2.212-4.939,4.939-4.939C910.781,316.492,912.993,318.705,912.993,321.432"/>
		<path fill="#719DA2" d="M858.962,231.98c0,2.727-2.212,4.939-4.939,4.939c-2.729,0-4.939-2.212-4.939-4.939
			s2.211-4.939,4.939-4.939C856.75,227.04,858.962,229.252,858.962,231.98"/>
		<path fill="#6B999F" d="M1074.974,97.799c0,2.666-2.161,4.828-4.829,4.828c-2.665,0-4.827-2.161-4.827-4.828
			c0-2.667,2.162-4.829,4.827-4.829C1072.812,92.97,1074.974,95.132,1074.974,97.799"/>
		<path fill="#D0C0BF" d="M858.85,276.708c0,2.667-2.16,4.828-4.827,4.828s-4.829-2.161-4.829-4.828s2.162-4.827,4.829-4.827
			S858.85,274.041,858.85,276.708"/>
		<path fill="#90ADB1" d="M102.42,142.526c0,2.666-2.162,4.829-4.829,4.829c-2.666,0-4.828-2.162-4.828-4.829
			c0-2.668,2.161-4.829,4.828-4.829C100.258,137.698,102.42,139.858,102.42,142.526"/>
		<path fill="#CAC9C9" d="M1074.862,142.526c0,2.604-2.111,4.716-4.718,4.716c-2.604,0-4.717-2.112-4.717-4.716
			c0-2.606,2.113-4.718,4.717-4.718C1072.751,137.808,1074.862,139.92,1074.862,142.526"/>
		<path fill="#CBC8C8" d="M1020.831,410.887c0,2.604-2.11,4.717-4.716,4.717c-2.604,0-4.717-2.113-4.717-4.717
			c0-2.605,2.113-4.719,4.717-4.719C1018.721,406.168,1020.831,408.281,1020.831,410.887"/>
		<path fill="#94AFB3" d="M966.801,142.526c0,2.604-2.112,4.716-4.717,4.716c-2.604,0-4.716-2.112-4.716-4.716
			c0-2.606,2.112-4.718,4.716-4.718C964.688,137.808,966.801,139.92,966.801,142.526"/>
		<path fill="#81A5AA" d="M210.371,97.799c0,2.605-2.114,4.717-4.718,4.717c-2.605,0-4.716-2.112-4.716-4.717
			s2.111-4.717,4.716-4.717C208.257,93.081,210.371,95.194,210.371,97.799"/>
		<path fill="#D0BFBE" d="M102.308,276.708c0,2.604-2.111,4.718-4.717,4.718c-2.605,0-4.716-2.111-4.716-4.718
			c0-2.604,2.111-4.716,4.716-4.716C100.197,271.99,102.308,274.103,102.308,276.708"/>
		<path fill="#719CA2" d="M588.475,321.432c0,2.545-2.062,4.605-4.606,4.605c-2.545,0-4.607-2.061-4.607-4.605
			s2.062-4.607,4.607-4.607C586.412,316.824,588.475,318.889,588.475,321.432"/>
		<path fill="#D3BBB9" d="M1074.191,320.98c0,2.482-2.013,4.498-4.494,4.498c-2.482,0-4.495-2.016-4.495-4.498
			c0-2.48,2.013-4.494,4.495-4.494C1072.179,316.486,1074.191,318.5,1074.191,320.98"/>
		<path fill="#B6C0C1" d="M695.974,455.164c0,2.484-2.012,4.494-4.495,4.494c-2.482,0-4.495-2.01-4.495-4.494
			c0-2.482,2.013-4.494,4.495-4.494C693.962,450.67,695.974,452.682,695.974,455.164"/>
		<path fill="#87A8AD" d="M641.943,499.891c0,2.482-2.012,4.496-4.495,4.496c-2.481,0-4.495-2.014-4.495-4.496
			s2.014-4.496,4.495-4.496C639.932,495.395,641.943,497.408,641.943,499.891"/>
		<path fill="#78A0A5" d="M587.913,276.257c0,2.482-2.012,4.495-4.494,4.495c-2.484,0-4.496-2.013-4.496-4.495
			c0-2.483,2.012-4.495,4.496-4.495C585.901,271.762,587.913,273.775,587.913,276.257"/>
		<path fill="#DFA5A2" d="M533.882,276.257c0,2.482-2.012,4.495-4.494,4.495c-2.483,0-4.496-2.013-4.496-4.495
			c0-2.483,2.013-4.495,4.496-4.495C531.87,271.762,533.882,273.775,533.882,276.257"/>
		<path fill="#A6B8BA" d="M425.82,231.529c0,2.483-2.013,4.495-4.494,4.495c-2.483,0-4.496-2.012-4.496-4.495
			c0-2.482,2.013-4.496,4.496-4.496C423.808,227.035,425.82,229.048,425.82,231.529"/>
		<path fill="#D5B7B5" d="M209.698,365.709c0,2.482-2.013,4.496-4.495,4.496c-2.484,0-4.496-2.014-4.496-4.496
			c0-2.484,2.012-4.494,4.496-4.494C207.685,361.215,209.698,363.225,209.698,365.709"/>
		<path fill="#80A5A9" d="M911.987,455.164c0,2.42-1.964,4.385-4.387,4.385c-2.417,0-4.383-1.963-4.383-4.385
			s1.964-4.385,4.383-4.385C910.023,450.779,911.987,452.742,911.987,455.164"/>
		<path fill="#D1BDBC" d="M857.956,410.436c0,2.422-1.961,4.387-4.386,4.387c-2.421,0-4.384-1.965-4.384-4.387
			s1.962-4.385,4.384-4.385C855.995,406.051,857.956,408.014,857.956,410.436"/>
		<path fill="#B3BEC0" d="M749.895,455.164c0,2.42-1.962,4.385-4.384,4.385c-2.421,0-4.385-1.963-4.385-4.385
			s1.963-4.385,4.385-4.385S749.895,452.742,749.895,455.164"/>
		<path fill="#7EA4A9" d="M263.618,410.436c0,2.422-1.962,4.387-4.384,4.387c-2.421,0-4.386-1.965-4.386-4.387
			s1.963-4.385,4.386-4.385C261.654,406.051,263.618,408.014,263.618,410.436"/>
		<path fill="#D6B5B2" d="M209.586,320.98c0,2.424-1.963,4.387-4.384,4.387c-2.421,0-4.385-1.963-4.385-4.387
			c0-2.418,1.964-4.383,4.385-4.383C207.625,316.598,209.586,318.562,209.586,320.98"/>
		<path fill="#98B1B4" d="M155.558,499.891c0,2.422-1.963,4.385-4.386,4.385c-2.421,0-4.383-1.961-4.383-4.385
			c0-2.42,1.962-4.385,4.383-4.385C153.594,495.506,155.558,497.471,155.558,499.891"/>
		<path fill="#87A9AD" d="M857.846,365.709c0,2.359-1.913,4.275-4.274,4.275c-2.359,0-4.273-1.916-4.273-4.275
			c0-2.361,1.914-4.273,4.273-4.273C855.932,361.436,857.846,363.35,857.846,365.709"/>
		<path fill="#E39C98" d="M857.846,186.803c0,2.358-1.913,4.273-4.274,4.273c-2.359,0-4.273-1.915-4.273-4.273
			c0-2.361,1.914-4.274,4.273-4.274C855.932,182.529,857.846,184.442,857.846,186.803"/>
		<path fill="#D1BEBD" d="M695.755,186.803c0,2.358-1.915,4.273-4.276,4.273c-2.36,0-4.272-1.915-4.272-4.273
			c0-2.361,1.912-4.274,4.272-4.274C693.84,182.529,695.755,184.442,695.755,186.803"/>
		<path fill="#D5B7B5" d="M587.691,499.891c0,2.359-1.913,4.271-4.271,4.271c-2.361,0-4.274-1.912-4.274-4.271
			s1.914-4.271,4.274-4.271C585.778,495.619,587.691,497.531,587.691,499.891"/>
		<path fill="#9CB3B6" d="M587.691,410.436c0,2.361-1.913,4.273-4.271,4.273c-2.361,0-4.274-1.912-4.274-4.273
			c0-2.359,1.914-4.273,4.274-4.273C585.778,406.162,587.691,408.076,587.691,410.436"/>
		<path fill="#CEC2C1" d="M425.599,365.709c0,2.359-1.913,4.275-4.271,4.275c-2.362,0-4.276-1.916-4.276-4.275
			c0-2.361,1.914-4.273,4.276-4.273C423.687,361.436,425.599,363.35,425.599,365.709"/>
		<path fill="#97B1B4" d="M317.537,499.891c0,2.359-1.912,4.271-4.271,4.271c-2.36,0-4.272-1.912-4.272-4.271
			s1.912-4.271,4.272-4.271C315.625,495.619,317.537,497.531,317.537,499.891"/>
		<path fill="#3F7E86" d="M317.537,455.164c0,2.361-1.912,4.273-4.271,4.273c-2.36,0-4.272-1.912-4.272-4.273
			s1.912-4.273,4.272-4.273C315.625,450.891,317.537,452.803,317.537,455.164"/>
		<path fill="#7CA2A7" d="M1019.828,589.344c0,2.301-1.863,4.164-4.161,4.164c-2.299,0-4.165-1.863-4.165-4.164
			c0-2.297,1.866-4.16,4.165-4.16C1017.962,585.184,1019.828,587.047,1019.828,589.344"/>
		<path fill="#B9C1C2" d="M641.611,544.617c0,2.299-1.862,4.164-4.163,4.164c-2.298,0-4.16-1.865-4.16-4.164
			c0-2.297,1.862-4.16,4.16-4.16C639.749,540.455,641.611,542.32,641.611,544.617"/>
		<path fill="#7FA4A9" d="M587.581,589.344c0,2.301-1.864,4.164-4.162,4.164c-2.301,0-4.164-1.863-4.164-4.164
			c0-2.297,1.863-4.16,4.164-4.16C585.717,585.184,587.581,587.047,587.581,589.344"/>
		<path fill="#CDC4C3" d="M263.396,499.891c0,2.301-1.864,4.162-4.162,4.162s-4.164-1.861-4.164-4.162
			c0-2.299,1.865-4.162,4.164-4.162S263.396,497.592,263.396,499.891"/>
		<path fill="#518991" d="M1128.229,545.068c0,2.238-1.814,4.053-4.053,4.053c-2.236,0-4.051-1.814-4.051-4.053
			s1.813-4.051,4.051-4.051S1128.229,542.832,1128.229,545.068"/>
		<path fill="#D6B4B2" d="M1074.195,410.887c0,2.236-1.814,4.053-4.052,4.053c-2.236,0-4.051-1.816-4.051-4.053
			c0-2.238,1.814-4.051,4.051-4.051C1072.381,406.836,1074.195,408.648,1074.195,410.887"/>
		<path fill="#DDA8A5" d="M1020.164,545.068c0,2.238-1.812,4.053-4.05,4.053c-2.237,0-4.051-1.814-4.051-4.053
			s1.812-4.051,4.051-4.051C1018.353,541.018,1020.164,542.832,1020.164,545.068"/>
		<path fill="#DAAEAC" d="M804.042,455.613c0,2.238-1.813,4.051-4.05,4.051c-2.238,0-4.053-1.812-4.053-4.051
			c0-2.236,1.812-4.051,4.053-4.051C802.228,451.562,804.042,453.377,804.042,455.613"/>
		<path fill="#DEA6A3" d="M587.92,545.068c0,2.238-1.814,4.053-4.051,4.053c-2.239,0-4.053-1.814-4.053-4.053
			s1.814-4.051,4.053-4.051C586.105,541.018,587.92,542.832,587.92,545.068"/>
		<path fill="#D7B4B2" d="M263.735,545.068c0,2.238-1.813,4.053-4.052,4.053c-2.237,0-4.051-1.814-4.051-4.053
			s1.813-4.051,4.051-4.051C261.922,541.018,263.735,542.832,263.735,545.068"/>
		<path fill="#90ADB1" d="M101.643,321.432c0,2.238-1.813,4.053-4.052,4.053c-2.236,0-4.051-1.814-4.051-4.053
			c0-2.236,1.814-4.051,4.051-4.051C99.83,317.381,101.643,319.195,101.643,321.432"/>
		<path fill="#5F9299" d="M749.9,589.797c0,2.174-1.764,3.941-3.939,3.941s-3.942-1.768-3.942-3.941
			c0-2.178,1.767-3.943,3.942-3.943C748.135,585.857,749.9,587.619,749.9,589.797"/>
		<path fill="#DAAEAB" d="M749.9,545.068c0,2.176-1.764,3.939-3.939,3.939s-3.942-1.764-3.942-3.939s1.767-3.939,3.942-3.939
			C748.135,541.129,749.9,542.893,749.9,545.068"/>
		<path fill="#D9B0AE" d="M425.715,455.613c0,2.178-1.762,3.939-3.94,3.939c-2.176,0-3.94-1.762-3.94-3.939s1.765-3.939,3.94-3.939
			C423.954,451.674,425.715,453.436,425.715,455.613"/>
		<path fill="#CCC7C6" d="M425.715,321.432c0,2.176-1.762,3.941-3.94,3.941c-2.176,0-3.94-1.766-3.94-3.941s1.765-3.941,3.94-3.941
			C423.954,317.49,425.715,319.256,425.715,321.432"/>
		<path fill="#DFA5A2" d="M101.532,500.342c0,2.176-1.763,3.938-3.941,3.938c-2.176,0-3.94-1.762-3.94-3.938
			c0-2.178,1.764-3.943,3.94-3.943C99.769,496.398,101.532,498.164,101.532,500.342"/>
		<path fill="#6B999F" d="M101.532,366.158c0,2.178-1.763,3.941-3.941,3.941c-2.176,0-3.94-1.764-3.94-3.941
			c0-2.174,1.764-3.939,3.94-3.939C99.769,362.219,101.532,363.984,101.532,366.158"/>
		<path fill="#CCC7C6" d="M1019.943,500.342c0,2.113-1.711,3.828-3.828,3.828c-2.116,0-3.828-1.715-3.828-3.828
			c0-2.117,1.712-3.83,3.828-3.83C1018.232,496.512,1019.943,498.227,1019.943,500.342"/>
		<path fill="#BEC4C4" d="M803.819,321.432c0,2.115-1.716,3.828-3.827,3.828c-2.116,0-3.83-1.713-3.83-3.828s1.714-3.828,3.83-3.828
			C802.104,317.604,803.819,319.316,803.819,321.432"/>
		<path fill="#5E9299" d="M209.483,231.98c0,2.115-1.713,3.829-3.83,3.829c-2.114,0-3.829-1.714-3.829-3.829
			c0-2.114,1.715-3.829,3.829-3.829C207.769,228.15,209.483,229.865,209.483,231.98"/>
		<path fill="#BFC5C5" d="M1019.833,187.252c0,2.054-1.666,3.718-3.719,3.718c-2.052,0-3.718-1.665-3.718-3.718
			c0-2.054,1.665-3.719,3.718-3.719C1018.168,183.533,1019.833,185.198,1019.833,187.252"/>
		<path fill="#CACACA" d="M749.679,500.342c0,2.053-1.664,3.715-3.718,3.715s-3.718-1.662-3.718-3.715
			c0-2.055,1.664-3.721,3.718-3.721C748.015,496.623,749.679,498.287,749.679,500.342"/>
		<path fill="#BAC2C3" d="M695.647,500.342c0,2.053-1.666,3.715-3.718,3.715c-2.054,0-3.72-1.662-3.72-3.715
			c0-2.055,1.664-3.721,3.72-3.721C693.983,496.623,695.647,498.287,695.647,500.342"/>
		<path fill="#D0C0BF" d="M425.494,589.797c0,2.051-1.663,3.719-3.718,3.719c-2.052,0-3.718-1.668-3.718-3.719
			c0-2.055,1.665-3.721,3.718-3.721C423.831,586.076,425.494,587.742,425.494,589.797"/>
		<path fill="#367880" d="M263.402,589.797c0,2.051-1.666,3.719-3.719,3.719c-2.054,0-3.718-1.668-3.718-3.719
			c0-2.055,1.665-3.721,3.718-3.721C261.738,586.076,263.402,587.742,263.402,589.797"/>
		<path fill="#E8918C" d="M101.31,545.068c0,2.053-1.665,3.719-3.719,3.719c-2.052,0-3.718-1.666-3.718-3.719
			c0-2.055,1.665-3.719,3.718-3.719C99.646,541.35,101.31,543.014,101.31,545.068"/>
		<path fill="#34767F" d="M1073.752,231.98c0,1.993-1.615,3.607-3.607,3.607c-1.99,0-3.606-1.615-3.606-3.607
			c0-1.992,1.616-3.607,3.606-3.607C1072.137,228.374,1073.752,229.989,1073.752,231.98"/>
		<path fill="#CCC6C6" d="M803.6,589.797c0,1.99-1.617,3.605-3.607,3.605c-1.992,0-3.608-1.615-3.608-3.605
			c0-1.994,1.615-3.609,3.608-3.609C801.983,586.188,803.6,587.805,803.6,589.797"/>
		<path fill="#D1BEBC" d="M533.447,589.797c0,1.99-1.618,3.605-3.608,3.605c-1.994,0-3.607-1.615-3.607-3.605
			c0-1.994,1.614-3.609,3.607-3.609C531.829,586.188,533.447,587.805,533.447,589.797"/>
		<path fill="#7BA2A7" d="M263.292,187.252c0,1.994-1.616,3.608-3.608,3.608c-1.993,0-3.608-1.616-3.608-3.608
			c0-1.992,1.615-3.607,3.608-3.607C261.676,183.646,263.292,185.26,263.292,187.252"/>
		<path fill="#C0C5C5" d="M1073.192,589.344c0,1.934-1.564,3.498-3.495,3.498c-1.932,0-3.498-1.566-3.498-3.498
			c0-1.928,1.566-3.496,3.498-3.496C1071.628,585.848,1073.192,587.414,1073.192,589.344"/>
		<path fill="#83A6AB" d="M1073.192,276.257c0,1.931-1.564,3.496-3.495,3.496c-1.932,0-3.498-1.565-3.498-3.496
			c0-1.933,1.566-3.497,3.498-3.497C1071.628,272.76,1073.192,274.325,1073.192,276.257"/>
		<path fill="#85A7AC" d="M965.13,589.344c0,1.934-1.565,3.498-3.496,3.498c-1.93,0-3.495-1.566-3.495-3.498
			c0-1.928,1.565-3.496,3.495-3.496C963.564,585.848,965.13,587.414,965.13,589.344"/>
		<path fill="#D2BCBB" d="M965.13,186.803c0,1.929-1.565,3.496-3.496,3.496c-1.93,0-3.495-1.566-3.495-3.496
			c0-1.933,1.565-3.497,3.495-3.497C963.564,183.306,965.13,184.871,965.13,186.803"/>
		<path fill="#CBC8C8" d="M803.039,410.436c0,1.934-1.568,3.498-3.497,3.498c-1.933,0-3.495-1.566-3.495-3.498
			c0-1.93,1.563-3.494,3.495-3.494C801.472,406.939,803.039,408.506,803.039,410.436"/>
		<path fill="#64959B" d="M803.039,365.709c0,1.932-1.568,3.496-3.497,3.496c-1.933,0-3.495-1.566-3.495-3.496
			s1.563-3.496,3.495-3.496C801.472,362.213,803.039,363.779,803.039,365.709"/>
		<path fill="#508991" d="M532.885,142.075c0,1.931-1.565,3.497-3.496,3.497c-1.933,0-3.496-1.565-3.496-3.497
			s1.564-3.495,3.496-3.495C531.32,138.58,532.885,140.144,532.885,142.075"/>
		<path fill="#BDC3C4" d="M1073.081,455.164c0,1.869-1.516,3.387-3.386,3.387c-1.869,0-3.388-1.518-3.388-3.387
			c0-1.867,1.519-3.385,3.388-3.385C1071.567,451.779,1073.081,453.295,1073.081,455.164"/>
		<path fill="#79A1A6" d="M965.02,410.436c0,1.871-1.518,3.387-3.387,3.387c-1.868,0-3.385-1.516-3.385-3.387
			c0-1.869,1.517-3.385,3.385-3.385C963.502,407.051,965.02,408.566,965.02,410.436"/>
		<path fill="#4B868E" d="M965.02,276.257c0,1.869-1.518,3.385-3.387,3.385c-1.868,0-3.385-1.516-3.385-3.385
			c0-1.871,1.517-3.385,3.385-3.385C963.502,272.873,965.02,274.386,965.02,276.257"/>
		<path fill="#749EA3" d="M802.925,276.257c0,1.869-1.515,3.385-3.384,3.385c-1.87,0-3.387-1.516-3.387-3.385
			c0-1.871,1.517-3.385,3.387-3.385S802.925,274.386,802.925,276.257"/>
		<path fill="#2F737C" d="M802.925,142.075c0,1.87-1.515,3.385-3.384,3.385c-1.87,0-3.387-1.515-3.387-3.385
			c0-1.869,1.517-3.385,3.387-3.385S802.925,140.206,802.925,142.075"/>
		<path fill="#87A8AD" d="M532.772,320.98c0,1.871-1.515,3.387-3.384,3.387c-1.87,0-3.386-1.516-3.386-3.387
			c0-1.867,1.516-3.383,3.386-3.383C531.257,317.598,532.772,319.113,532.772,320.98"/>
		<path fill="#7DA3A8" d="M424.712,276.257c0,1.869-1.518,3.385-3.384,3.385c-1.872,0-3.388-1.516-3.388-3.385
			c0-1.871,1.516-3.385,3.388-3.385C423.194,272.873,424.712,274.386,424.712,276.257"/>
		<path fill="#6C9AA0" d="M100.527,410.436c0,1.871-1.515,3.387-3.385,3.387c-1.872,0-3.386-1.516-3.386-3.387
			c0-1.869,1.515-3.385,3.386-3.385C99.012,407.051,100.527,408.566,100.527,410.436"/>
		<path fill="#CDC5C4" d="M100.527,186.803c0,1.868-1.515,3.384-3.385,3.384c-1.872,0-3.386-1.517-3.386-3.384
			c0-1.87,1.515-3.387,3.386-3.387C99.012,183.416,100.527,184.933,100.527,186.803"/>
		<path fill="#548C93" d="M856.845,455.164c0,1.809-1.464,3.273-3.273,3.273c-1.806,0-3.273-1.465-3.273-3.273
			s1.468-3.273,3.273-3.273C855.381,451.889,856.845,453.355,856.845,455.164"/>
		<path fill="#5B9097" d="M748.787,186.803c0,1.809-1.469,3.273-3.275,3.273c-1.81,0-3.274-1.465-3.274-3.273
			s1.465-3.275,3.274-3.275C747.318,183.528,748.787,184.995,748.787,186.803"/>
		<path fill="#ABBBBD" d="M694.754,544.617c0,1.807-1.467,3.275-3.275,3.275c-1.807,0-3.272-1.469-3.272-3.275
			c0-1.805,1.466-3.271,3.272-3.271C693.288,541.346,694.754,542.811,694.754,544.617"/>
		<path fill="#226771" d="M964.797,365.709c0,1.746-1.417,3.164-3.164,3.164c-1.745,0-3.163-1.418-3.163-3.164
			s1.418-3.164,3.163-3.164C963.38,362.545,964.797,363.963,964.797,365.709"/>
		<path fill="#387981" d="M910.766,499.891c0,1.746-1.417,3.164-3.164,3.164c-1.746,0-3.162-1.418-3.162-3.164
			c0-1.748,1.416-3.164,3.162-3.164C909.349,496.727,910.766,498.143,910.766,499.891"/>
		<path fill="#A4B7BA" d="M532.551,410.436c0,1.748-1.417,3.166-3.163,3.166c-1.749,0-3.164-1.418-3.164-3.166
			s1.416-3.162,3.164-3.162C531.135,407.273,532.551,408.688,532.551,410.436"/>
		<path fill="#49858C" d="M532.551,365.709c0,1.746-1.417,3.164-3.163,3.164c-1.749,0-3.164-1.418-3.164-3.164
			s1.416-3.164,3.164-3.164C531.135,362.545,532.551,363.963,532.551,365.709"/>
		<path fill="#34767F" d="M154.336,544.617c0,1.748-1.417,3.166-3.165,3.166c-1.747,0-3.164-1.418-3.164-3.166
			c0-1.746,1.417-3.164,3.164-3.164C152.919,541.453,154.336,542.871,154.336,544.617"/>
		<path fill="#CCC7C6" d="M803.042,500.342c0,1.684-1.366,3.051-3.05,3.051c-1.686,0-3.052-1.367-3.052-3.051
			c0-1.686,1.366-3.053,3.052-3.053C801.676,497.291,803.042,498.656,803.042,500.342"/>
		<path fill="#CDC5C4" d="M424.827,500.342c0,1.684-1.365,3.051-3.052,3.051c-1.686,0-3.052-1.367-3.052-3.051
			c0-1.686,1.366-3.053,3.052-3.053C423.462,497.291,424.827,498.656,424.827,500.342"/>
		<path fill="#3A7A83" d="M100.645,455.613c0,1.688-1.367,3.053-3.054,3.053c-1.685,0-3.052-1.365-3.052-3.053
			c0-1.686,1.367-3.053,3.052-3.053C99.277,452.561,100.645,453.928,100.645,455.613"/>
		<path fill="#A6B8BA" d="M1073.087,500.342c0,1.623-1.317,2.939-2.942,2.939c-1.621,0-2.942-1.316-2.942-2.939
			c0-1.627,1.321-2.943,2.942-2.943C1071.77,497.398,1073.087,498.715,1073.087,500.342"/>
		<path fill="#CAC9C9" d="M965.025,545.068c0,1.625-1.316,2.939-2.941,2.939c-1.623,0-2.94-1.314-2.94-2.939s1.317-2.939,2.94-2.939
			C963.709,542.129,965.025,543.443,965.025,545.068"/>
		<path fill="#5A9097" d="M856.963,500.342c0,1.623-1.317,2.939-2.94,2.939c-1.624,0-2.94-1.316-2.94-2.939
			c0-1.627,1.316-2.943,2.94-2.943C855.647,497.398,856.963,498.715,856.963,500.342"/>
		<path fill="#CBC8C8" d="M532.78,187.252c0,1.625-1.318,2.941-2.941,2.941c-1.625,0-2.94-1.316-2.94-2.941
			c0-1.624,1.316-2.941,2.94-2.941C531.461,184.311,532.78,185.628,532.78,187.252"/>
		<path fill="#4A858D" d="M424.718,410.887c0,1.623-1.316,2.941-2.942,2.941c-1.624,0-2.941-1.318-2.941-2.941
			c0-1.625,1.318-2.941,2.941-2.941C423.402,407.945,424.718,409.262,424.718,410.887"/>
		<path fill="#20666F" d="M316.657,545.068c0,1.625-1.317,2.939-2.942,2.939c-1.623,0-2.942-1.314-2.942-2.939
			s1.318-2.939,2.942-2.939C315.339,542.129,316.657,543.443,316.657,545.068"/>
		<path fill="#CBC9C8" d="M208.595,500.342c0,1.623-1.316,2.939-2.941,2.939c-1.624,0-2.941-1.316-2.941-2.939
			c0-1.627,1.316-2.943,2.941-2.943C207.279,497.398,208.595,498.715,208.595,500.342"/>
		<path fill="#34767F" d="M208.595,276.708c0,1.624-1.316,2.941-2.941,2.941c-1.624,0-2.941-1.317-2.941-2.941
			s1.316-2.941,2.941-2.941C207.279,273.765,208.595,275.083,208.595,276.708"/>
		<path fill="#508991" d="M964.916,500.342c0,1.562-1.271,2.83-2.834,2.83c-1.562,0-2.828-1.268-2.828-2.83
			c0-1.564,1.266-2.832,2.828-2.832C963.646,497.51,964.916,498.779,964.916,500.342"/>
		<path fill="#1D636D" d="M586.698,187.252c0,1.563-1.267,2.831-2.83,2.831c-1.564,0-2.831-1.266-2.831-2.831
			c0-1.563,1.267-2.83,2.831-2.83C585.432,184.422,586.698,185.689,586.698,187.252"/>
		<path fill="#D0BFBE" d="M532.667,545.068c0,1.562-1.268,2.83-2.83,2.83c-1.563,0-2.832-1.268-2.832-2.83
			c0-1.564,1.268-2.832,2.832-2.832C531.4,542.236,532.667,543.504,532.667,545.068"/>
		<path fill="#A9B9BC" d="M532.667,500.342c0,1.562-1.268,2.83-2.83,2.83c-1.563,0-2.832-1.268-2.832-2.83
			c0-1.564,1.268-2.832,2.832-2.832C531.4,497.51,532.667,498.779,532.667,500.342"/>
		<path fill="#47838B" d="M532.667,455.613c0,1.564-1.268,2.832-2.83,2.832c-1.563,0-2.832-1.268-2.832-2.832
			c0-1.562,1.268-2.83,2.832-2.83C531.4,452.783,532.667,454.051,532.667,455.613"/>
		<path fill="#357780" d="M208.483,589.797c0,1.562-1.267,2.828-2.832,2.828c-1.562,0-2.83-1.266-2.83-2.828
			c0-1.564,1.266-2.834,2.83-2.834C207.217,586.965,208.483,588.234,208.483,589.797"/>
		<path fill="#8CABAF" d="M1072.863,545.068c0,1.502-1.217,2.721-2.719,2.721c-1.499,0-2.721-1.219-2.721-2.721
			c0-1.504,1.222-2.719,2.721-2.719C1071.646,542.35,1072.863,543.564,1072.863,545.068"/>
		<path fill="#5B9097" d="M208.373,187.252c0,1.503-1.218,2.72-2.721,2.72c-1.501,0-2.719-1.217-2.719-2.72
			c0-1.501,1.217-2.719,2.719-2.719C207.156,184.534,208.373,185.751,208.373,187.252"/>
		<path fill="#5C9198" d="M423.935,544.617c0,1.441-1.169,2.609-2.607,2.609c-1.441,0-2.61-1.168-2.61-2.609
			c0-1.438,1.169-2.605,2.61-2.605C422.766,542.01,423.935,543.178,423.935,544.617"/>
		<path fill="#0F565F" d="M1072.194,186.803c0,1.377-1.118,2.497-2.498,2.497c-1.382,0-2.499-1.119-2.499-2.497
			c0-1.38,1.117-2.499,2.499-2.499C1071.076,184.305,1072.194,185.424,1072.194,186.803"/>
		<path fill="#115862" d="M856.07,544.617c0,1.381-1.118,2.498-2.499,2.498c-1.38,0-2.496-1.117-2.496-2.498
			c0-1.377,1.116-2.494,2.496-2.494S856.07,543.24,856.07,544.617"/>
		<path fill="#266A74" d="M802.039,544.617c0,1.381-1.118,2.498-2.498,2.498c-1.381,0-2.498-1.117-2.498-2.498
			c0-1.377,1.117-2.494,2.498-2.494C800.921,542.123,802.039,543.24,802.039,544.617"/>
		<path fill="#105761" d="M802.039,186.803c0,1.377-1.118,2.497-2.498,2.497c-1.381,0-2.498-1.119-2.498-2.497
			c0-1.38,1.117-2.499,2.498-2.499C800.921,184.305,802.039,185.424,802.039,186.803"/>
		<path fill="#064B54" d="M207.7,410.436c0,1.381-1.118,2.498-2.496,2.498c-1.379,0-2.498-1.117-2.498-2.498
			c0-1.377,1.119-2.496,2.498-2.496C206.582,407.939,207.7,409.059,207.7,410.436"/>
		<path fill="#00434C" d="M423.711,186.803c0,1.317-1.066,2.385-2.385,2.385c-1.318,0-2.387-1.067-2.387-2.385
			c0-1.319,1.067-2.387,2.387-2.387C422.645,184.416,423.711,185.484,423.711,186.803"/>
		<path fill="#094E58" d="M207.588,544.617c0,1.32-1.068,2.389-2.385,2.389c-1.318,0-2.387-1.07-2.387-2.389
			c0-1.316,1.069-2.383,2.387-2.383C206.52,542.232,207.588,543.301,207.588,544.617"/>
	</g>
</g>
<g>
	<g>
		<text transform="matrix(1 0 0 1 85.5757 670.8906)" font-family="'SourceSansPro-Regular'" font-size="11">-0.844</text>
	</g>
</g>
<g>
	<g>
		<text transform="matrix(1 0 0 1 169.0435 670.8906)" font-family="'SourceSansPro-Regular'" font-size="11">1.892</text>
	</g>
</g>
<g>
	<g>
		<text transform="matrix(1 0 0 1 260.7383 632.6523)" font-family="'SourceSansPro-Regular'" font-size="12">PARAGRAPHS NUMBER</text>
	</g>
</g>
<rect x="98.296" y="643.617" fill="#00434C" width="1.878" height="10.477"/>
<rect x="99.547" y="643.617" fill="#02464F" width="1.251" height="10.477"/>
<rect x="100.174" y="643.617" fill="#054952" width="1.251" height="10.477"/>
<rect x="100.799" y="643.617" fill="#074C55" width="1.252" height="10.477"/>
<rect x="101.424" y="643.617" fill="#0A4F58" width="1.252" height="10.477"/>
<rect x="102.05" y="643.617" fill="#0C525B" width="1.251" height="10.477"/>
<rect x="102.677" y="643.617" fill="#0F555E" width="1.251" height="10.477"/>
<rect x="103.301" y="643.617" fill="#115861" width="1.252" height="10.477"/>
<rect x="103.927" y="643.617" fill="#145B65" width="1.252" height="10.477"/>
<rect x="104.554" y="643.617" fill="#175E68" width="1.252" height="10.477"/>
<rect x="105.18" y="643.617" fill="#1B616B" width="1.251" height="10.477"/>
<rect x="105.805" y="643.617" fill="#1F646E" width="1.252" height="10.477"/>
<rect x="106.429" y="643.617" fill="#236871" width="1.252" height="10.477"/>
<rect x="107.057" y="643.617" fill="#266B74" width="1.251" height="10.477"/>
<rect x="107.682" y="643.617" fill="#2A6E77" width="1.252" height="10.477"/>
<rect x="108.306" y="643.617" fill="#2E717B" width="1.252" height="10.477"/>
<rect x="108.934" y="643.617" fill="#32757E" width="1.251" height="10.477"/>
<rect x="109.559" y="643.617" fill="#377881" width="1.252" height="10.477"/>
<rect x="110.183" y="643.617" fill="#3C7C84" width="1.252" height="10.477"/>
<rect x="110.811" y="643.617" fill="#417F87" width="1.252" height="10.477"/>
<rect x="111.436" y="643.617" fill="#46828A" width="1.252" height="10.477"/>
<rect x="112.062" y="643.617" fill="#4B868D" width="1.25" height="10.477"/>
<rect x="112.687" y="643.617" fill="#508991" width="1.252" height="10.477"/>
<rect x="113.312" y="643.617" fill="#558C94" width="1.252" height="10.477"/>
<rect x="113.939" y="643.617" fill="#5A9097" width="1.251" height="10.477"/>
<rect x="114.564" y="643.617" fill="#61939A" width="1.252" height="10.477"/>
<rect x="115.19" y="643.617" fill="#67979D" width="1.252" height="10.477"/>
<rect x="115.816" y="643.617" fill="#6D9AA0" width="1.252" height="10.477"/>
<rect x="116.441" y="643.617" fill="#749EA3" width="1.252" height="10.477"/>
<rect x="117.068" y="643.617" fill="#7AA1A7" width="1.251" height="10.477"/>
<rect x="117.693" y="643.617" fill="#81A5AA" width="1.252" height="10.477"/>
<rect x="118.318" y="643.617" fill="#87A9AD" width="1.252" height="10.477"/>
<rect x="118.944" y="643.617" fill="#8EACB0" width="1.251" height="10.477"/>
<rect x="119.571" y="643.617" fill="#95B0B3" width="1.251" height="10.477"/>
<rect x="120.195" y="643.617" fill="#9DB4B7" width="1.252" height="10.477"/>
<rect x="120.821" y="643.617" fill="#A5B7BA" width="1.251" height="10.477"/>
<rect x="121.448" y="643.617" fill="#ACBBBD" width="1.252" height="10.477"/>
<rect x="122.072" y="643.617" fill="#B4BFC0" width="1.252" height="10.477"/>
<rect x="122.699" y="643.617" fill="#BCC3C4" width="1.252" height="10.477"/>
<rect x="123.323" y="643.617" fill="#C3C6C7" width="1.252" height="10.477"/>
<rect x="123.951" y="643.617" fill="#CACACA" width="1.251" height="10.477"/>
<rect x="124.576" y="643.617" fill="#CAC9C9" width="1.252" height="10.477"/>
<rect x="125.2" y="643.617" fill="#CBC8C8" width="1.252" height="10.477"/>
<rect x="125.828" y="643.617" fill="#CBC7C7" width="1.252" height="10.477"/>
<rect x="126.453" y="643.617" fill="#CCC7C6" width="1.252" height="10.477"/>
<rect x="127.079" y="643.617" fill="#CCC6C5" width="1.25" height="10.477"/>
<rect x="127.705" y="643.617" fill="#CDC5C4" width="1.252" height="10.477"/>
<rect x="128.33" y="643.617" fill="#CEC4C3" width="1.252" height="10.477"/>
<rect x="128.956" y="643.617" fill="#CEC3C2" width="1.25" height="10.477"/>
<rect x="129.581" y="643.617" fill="#CFC2C1" width="1.252" height="10.477"/>
<rect x="130.207" y="643.617" fill="#CFC1C0" width="1.252" height="10.477"/>
<rect x="130.833" y="643.617" fill="#D0C0BF" width="1.251" height="10.477"/>
<rect x="131.458" y="643.617" fill="#D0BFBE" width="1.252" height="10.477"/>
<rect x="132.084" y="643.617" fill="#D1BEBC" width="1.252" height="10.477"/>
<rect x="132.71" y="643.617" fill="#D1BDBB" width="1.252" height="10.477"/>
<rect x="133.335" y="643.617" fill="#D2BCBA" width="1.252" height="10.477"/>
<rect x="133.962" y="643.617" fill="#D3BBB9" width="1.251" height="10.477"/>
<rect x="134.587" y="643.617" fill="#D3BAB8" width="1.252" height="10.477"/>
<rect x="135.212" y="643.617" fill="#D4B9B7" width="1.252" height="10.477"/>
<rect x="135.838" y="643.617" fill="#D4B8B6" width="1.251" height="10.477"/>
<rect x="136.465" y="643.617" fill="#D5B7B5" width="1.252" height="10.477"/>
<rect x="137.089" y="643.617" fill="#D6B6B4" width="1.252" height="10.477"/>
<rect x="137.715" y="643.617" fill="#D6B5B2" width="1.252" height="10.477"/>
<rect x="138.342" y="643.617" fill="#D7B4B1" width="1.252" height="10.477"/>
<rect x="138.968" y="643.617" fill="#D7B2B0" width="1.251" height="10.477"/>
<rect x="139.593" y="643.617" fill="#D8B1AF" width="1.252" height="10.477"/>
<rect x="140.218" y="643.617" fill="#D9B0AE" width="1.252" height="10.477"/>
<rect x="140.845" y="643.617" fill="#D9AFAC" width="1.251" height="10.477"/>
<rect x="141.47" y="643.617" fill="#DAAEAB" width="1.252" height="10.477"/>
<rect x="142.095" y="643.617" fill="#DAADAA" width="1.252" height="10.477"/>
<rect x="142.722" y="643.617" fill="#DBACA9" width="1.251" height="10.477"/>
<rect x="143.347" y="643.617" fill="#DCABA8" width="1.252" height="10.477"/>
<rect x="143.972" y="643.617" fill="#DCA9A7" width="1.251" height="10.477"/>
<rect x="144.599" y="643.617" fill="#DDA8A5" width="1.251" height="10.477"/>
<rect x="145.224" y="643.617" fill="#DEA7A4" width="1.252" height="10.477"/>
<rect x="145.849" y="643.617" fill="#DEA6A3" width="1.251" height="10.477"/>
<rect x="146.475" y="643.617" fill="#DFA5A2" width="1.252" height="10.477"/>
<rect x="147.101" y="643.617" fill="#DFA4A0" width="1.252" height="10.477"/>
<rect x="147.728" y="643.617" fill="#E0A29F" width="1.251" height="10.477"/>
<rect x="148.352" y="643.617" fill="#E0A19E" width="1.252" height="10.477"/>
<rect x="148.979" y="643.617" fill="#E1A09C" width="1.252" height="10.477"/>
<rect x="149.604" y="643.617" fill="#E29F9B" width="1.251" height="10.477"/>
<rect x="150.229" y="643.617" fill="#E29D9A" width="1.252" height="10.477"/>
<rect x="150.855" y="643.617" fill="#E39C98" width="1.252" height="10.477"/>
<rect x="151.481" y="643.617" fill="#E39B97" width="1.252" height="10.477"/>
<rect x="152.106" y="643.617" fill="#E49A96" width="1.252" height="10.477"/>
<rect x="152.732" y="643.617" fill="#E49994" width="1.251" height="10.477"/>
<rect x="153.359" y="643.617" fill="#E59793" width="1.252" height="10.477"/>
<rect x="153.983" y="643.617" fill="#E69692" width="1.252" height="10.477"/>
<rect x="154.609" y="643.617" fill="#E69590" width="1.251" height="10.477"/>
<rect x="155.236" y="643.617" fill="#E7948F" width="1.252" height="10.477"/>
<rect x="155.86" y="643.617" fill="#E7928E" width="1.252" height="10.477"/>
<rect x="156.487" y="643.617" fill="#E8918C" width="1.252" height="10.477"/>
<rect x="157.112" y="643.617" fill="#E8908B" width="1.252" height="10.477"/>
<rect x="157.739" y="643.617" fill="#E98F89" width="1.251" height="10.477"/>
<rect x="158.364" y="643.617" fill="#EA8D88" width="1.252" height="10.477"/>
<rect x="158.989" y="643.617" fill="#EA8C86" width="1.252" height="10.477"/>
<rect x="159.616" y="643.617" fill="#EB8A85" width="1.251" height="10.477"/>
<rect x="160.241" y="643.617" fill="#EB8983" width="1.252" height="10.477"/>
<rect x="160.866" y="643.617" fill="#EC8782" width="1.252" height="10.477"/>
<rect x="161.493" y="643.617" fill="#ED8680" width="1.252" height="10.477"/>
<rect x="162.118" y="643.617" fill="#ED847F" width="1.252" height="10.477"/>
<rect x="162.745" y="643.617" fill="#EE837D" width="1.251" height="10.477"/>
<rect x="163.369" y="643.617" fill="#EE817C" width="1.252" height="10.477"/>
<rect x="163.995" y="643.617" fill="#EF807A" width="1.252" height="10.477"/>
<rect x="164.622" y="643.617" fill="#F07E79" width="1.251" height="10.477"/>
<rect x="165.246" y="643.617" fill="#F07D77" width="1.252" height="10.477"/>
<rect x="165.873" y="643.617" fill="#F17C76" width="1.252" height="10.477"/>
<rect x="166.499" y="643.617" fill="#F27A74" width="1.251" height="10.477"/>
<rect x="167.124" y="643.617" fill="#F27973" width="1.252" height="10.477"/>
<rect x="167.75" y="643.617" fill="#F37771" width="1.252" height="10.477"/>
<rect x="168.375" y="643.617" fill="#F37670" width="1.252" height="10.477"/>
<rect x="169" y="643.617" fill="#F4746E" width="1.252" height="10.477"/>
<rect x="169.626" y="643.617" fill="#F5736D" width="1.251" height="10.477"/>
<rect x="170.253" y="643.617" fill="#F5716B" width="1.252" height="10.477"/>
<rect x="170.877" y="643.617" fill="#F67069" width="1.252" height="10.477"/>
<rect x="171.503" y="643.617" fill="#F66E68" width="1.251" height="10.477"/>
<rect x="172.13" y="643.617" fill="#F76D66" width="1.252" height="10.477"/>
<rect x="172.754" y="643.617" fill="#F86B64" width="1.252" height="10.477"/>
<rect x="173.381" y="643.617" fill="#F86A63" width="1.252" height="10.477"/>
<rect x="174.006" y="643.617" fill="#F96861" width="1.252" height="10.477"/>
<rect x="174.633" y="643.617" fill="#FA6760" width="1.251" height="10.477"/>
<rect x="175.258" y="643.617" fill="#FA655E" width="1.252" height="10.477"/>
<rect x="175.883" y="643.617" fill="#FB645C" width="1.252" height="10.477"/>
<rect x="176.51" y="643.617" fill="#FB625B" width="1.251" height="10.477"/>
<rect x="177.135" y="643.617" fill="#FC6159" width="1.252" height="10.477"/>
<rect x="177.76" y="643.617" fill="#FD5F57" width="1.252" height="10.477"/>
<rect x="178.387" y="643.617" fill="#FD5E56" width="1.251" height="10.477"/>
<rect x="179.012" y="643.617" fill="#FE5C54" width="1.252" height="10.477"/>
<rect x="179.637" y="643.617" fill="#FF5A52" width="0.626" height="10.477"/>
<rect x="98.617" y="643.938" fill="none" width="81.968" height="10.479"/>
<line fill="none" stroke="#7F7E7E" stroke-width="0.4877" stroke-linejoin="bevel" stroke-miterlimit="10" x1="124.271" y1="654.094" x2="124.271" y2="657.404"/>
<line fill="none" stroke="#7F7E7E" stroke-width="0.4877" stroke-linejoin="bevel" stroke-miterlimit="10" x1="98.616" y1="654.094" x2="98.616" y2="657.404"/>
<line fill="none" stroke="#7F7E7E" stroke-width="0.4877" stroke-linejoin="bevel" stroke-miterlimit="10" x1="180.584" y1="654.094" x2="180.584" y2="657.404"/>
<circle fill="#CCCACA" cx="290.894" cy="649.596" r="7.293"/>
<circle fill="#CCCACA" cx="320.458" cy="649.595" r="9.247"/>
<circle fill="#CCCACA" cx="266.848" cy="649.597" r="3.731"/>
<g>
	<text transform="matrix(1 0 0 1 13.7651 87.7456)"><tspan x="0" y="0" font-family="'SourceSansPro-Regular'" font-size="11">Adaptation </tspan><tspan x="-4.048" y="13.2" font-family="'SourceSansPro-Regular'" font-size="11">funding and </tspan><tspan x="24.684" y="26.4" font-family="'SourceSansPro-Regular'" font-size="11">equity</tspan></text>
</g>
<g>
	<text transform="matrix(0.7071 -0.7071 0.7071 0.7071 96.064 66.4448)" font-family="'SourceSansPro-Regular'" font-size="11">Argentina</text>
</g>
<g>
	<text transform="matrix(0.7071 -0.7071 0.7071 0.7071 151.915 66.4448)" font-family="'SourceSansPro-Regular'" font-size="11">Australia</text>
</g>
<g>
	<text transform="matrix(0.7071 -0.7071 0.7071 0.7071 209.5469 66.4453)" font-family="'SourceSansPro-Regular'" font-size="11">Bolivia</text>
</g>
<g>
	<text transform="matrix(0.7071 -0.7071 0.7071 0.7071 265.9312 66.4448)" font-family="'SourceSansPro-Regular'" font-size="11">Brazil</text>
</g>
<g>
	<text transform="matrix(0.7071 -0.7071 0.7071 0.7071 316.9907 66.4453)" font-family="'SourceSansPro-Regular'" font-size="11">Canada</text>
</g>
<g>
	<text transform="matrix(0.7071 -0.7071 0.7071 0.7071 374.4673 66.4453)" font-family="'SourceSansPro-Regular'" font-size="11">China</text>
</g>
<g>
	<text transform="matrix(0.7071 -0.7071 0.7071 0.7071 422.5283 66.4443)" font-family="'SourceSansPro-Regular'" font-size="11">Colombia</text>
</g>
<g>
	<text transform="matrix(0.7071 -0.7071 0.7071 0.7071 481.0239 66.4448)" font-family="'SourceSansPro-Regular'" font-size="11">Europe</text>
</g>
<g>
	<text transform="matrix(0.7071 -0.7071 0.7071 0.7071 532.2666 66.4448)" font-family="'SourceSansPro-Regular'" font-size="11">Germany</text>
</g>
<g>
	<text transform="matrix(0.7071 -0.7071 0.7071 0.7071 593.2539 66.4448)" font-family="'SourceSansPro-Regular'" font-size="11">India</text>
</g>
<g>
	<text transform="matrix(0.7071 -0.7071 0.7071 0.7071 645.8428 66.4448)" font-family="'SourceSansPro-Regular'" font-size="11">Japan</text>
</g>
<g>
	<text transform="matrix(0.7071 -0.7071 0.7071 0.7071 689.1553 66.4443)" font-family="'SourceSansPro-Regular'" font-size="11">New Zealand</text>
</g>
<g>
	<text transform="matrix(0.7071 -0.7071 0.7071 0.7071 752.1514 66.4448)" font-family="'SourceSansPro-Regular'" font-size="11">Norway</text>
</g>
<g>
	<text transform="matrix(0.7071 -0.7071 0.7071 0.7071 800.9248 66.4453)" font-family="'SourceSansPro-Regular'" font-size="11">Philippines</text>
</g>
<g>
	<text transform="matrix(0.7071 -0.7071 0.7071 0.7071 842.4443 66.4448)" font-family="'SourceSansPro-Regular'" font-size="11">Russian Federation</text>
</g>
<g>
	<text transform="matrix(0.7071 -0.7071 0.7071 0.7071 907.4336 66.4443)" font-family="'SourceSansPro-Regular'" font-size="11">Saudi Arabia</text>
</g>
<g>
	<text transform="matrix(0.7071 -0.7071 0.7071 0.7071 962.6309 66.4448)" font-family="'SourceSansPro-Regular'" font-size="11">South Africa</text>
</g>
<g>
	<text transform="matrix(0.7071 -0.7071 0.7071 0.7071 1017.4746 66.4443)" font-family="'SourceSansPro-Regular'" font-size="11">Switzerland</text>
</g>
<g>
	<text transform="matrix(0.7071 -0.7071 0.7071 0.7071 1080.3262 66.4448)" font-family="'SourceSansPro-Regular'" font-size="11">Tuvalu</text>
</g>
<g>
	<text transform="matrix(0.7071 -0.7071 0.7071 0.7071 1123.7246 66.4448)" font-family="'SourceSansPro-Regular'" font-size="11">United States</text>
</g>
<g>
	<text transform="matrix(1 0 0 1 38.9106 137.6978)"><tspan x="0" y="0" font-family="'SourceSansPro-Regular'" font-size="11">CDM +</tspan><tspan x="-36.849" y="13.2" font-family="'SourceSansPro-Regular'" font-size="11">carbon offsets</tspan></text>
</g>
<g>
	<text transform="matrix(1 0 0 1 18.4731 183.7524)"><tspan x="0" y="0" font-family="'SourceSansPro-Regular'" font-size="11">Compliace</tspan><tspan x="-10.219" y="13.2" font-family="'SourceSansPro-Regular'" font-size="11">enforcement</tspan></text>
</g>
<g>
	<text transform="matrix(1 0 0 1 28.0981 220.8071)"><tspan x="0" y="0" font-family="'SourceSansPro-Regular'" font-size="11">Energy +</tspan><tspan x="-12.199" y="13.2" font-family="'SourceSansPro-Regular'" font-size="11">technology</tspan><tspan x="3.124" y="26.4" font-family="'SourceSansPro-Regular'" font-size="11">transfer</tspan></text>
</g>
<g>
	<text transform="matrix(1 0 0 1 22.334 265.8618)"><tspan x="0" y="0" font-family="'SourceSansPro-Regular'" font-size="11">GHGs and</tspan><tspan x="3.982" y="13.2" font-family="'SourceSansPro-Regular'" font-size="11">emission</tspan><tspan x="0.484" y="26.4" font-family="'SourceSansPro-Regular'" font-size="11">measures</tspan></text>
</g>
<g>
	<text transform="matrix(1 0 0 1 40.4067 317.916)"><tspan x="0" y="0" font-family="'SourceSansPro-Regular'" font-size="11">Kyoto</tspan><tspan x="-12.253" y="13.201" font-family="'SourceSansPro-Regular'" font-size="11">protocol</tspan></text>
</g>
<g>
	<text transform="matrix(1 0 0 1 6.2085 361.9707)"><tspan x="0" y="0" font-family="'SourceSansPro-Regular'" font-size="11">Land use and</tspan><tspan x="29.909" y="13.201" font-family="'SourceSansPro-Regular'" font-size="11">forests</tspan></text>
</g>
<g>
	<text transform="matrix(1 0 0 1 14.6455 406.0254)"><tspan x="0" y="0" font-family="'SourceSansPro-Regular'" font-size="11">Models and</tspan><tspan x="31.283" y="13.201" font-family="'SourceSansPro-Regular'" font-size="11">IPCC</tspan></text>
</g>
<g>
	<text transform="matrix(1 0 0 1 35.2588 450.0801)"><tspan x="0" y="0" font-family="'SourceSansPro-Regular'" font-size="11">REED +</tspan><tspan x="-18.667" y="13.201" font-family="'SourceSansPro-Regular'" font-size="11">post-Kyoto</tspan></text>
</g>
<g>
	<text transform="matrix(1 0 0 1 19.5845 489.1348)"><tspan x="0" y="0" font-family="'SourceSansPro-Regular'" font-size="11">Social and</tspan><tspan x="-13.926" y="13.201" font-family="'SourceSansPro-Regular'" font-size="11">enviromental</tspan><tspan x="11.011" y="26.4" font-family="'SourceSansPro-Regular'" font-size="11">impacts</tspan></text>
</g>
<g>
	<text transform="matrix(1 0 0 1 21.9824 540.1895)"><tspan x="0" y="0" font-family="'SourceSansPro-Regular'" font-size="11">Transport</tspan><tspan x="16.939" y="13.201" font-family="'SourceSansPro-Regular'" font-size="11">sector</tspan></text>
</g>
<g>
	<text transform="matrix(1 0 0 1 1.314 578.2441)"><tspan x="0" y="0" font-family="'SourceSansPro-Regular'" font-size="11">Vulnerability +</tspan><tspan x="14.959" y="13.201" font-family="'SourceSansPro-Regular'" font-size="11">adaptation</tspan><tspan x="37.135" y="26.4" font-family="'SourceSansPro-Regular'" font-size="11">action</tspan></text>
</g>
<text transform="matrix(1 0 0 1 97.4297 630.2656)" font-family="'SourceSansPro-Regular'" font-size="12">DEVATION RATE</text>
</svg>
