<?xml version="1.0" encoding="utf-8"?>
<!-- Generator: Adobe Illustrator 16.0.4, SVG Export Plug-In . SVG Version: 6.00 Build 0)  -->
<!DOCTYPE svg PUBLIC "-//W3C//DTD SVG 1.1//EN" "http://www.w3.org/Graphics/SVG/1.1/DTD/svg11.dtd">
<svg version="1.1" xmlns="http://www.w3.org/2000/svg" xmlns:xlink="http://www.w3.org/1999/xlink" x="0px" y="0px" width="1170px"
	 height="514.395px" viewBox="0 0 1170 514.395" enable-background="new 0 0 1170 514.395" xml:space="preserve">
<g id="Layer_1">
	<g id="griglia" display="none">
		<g display="inline">
			<line fill="none" stroke="#0A9748" x1="1169.5" y1="-100" x2="1169.5" y2="700"/>
			<line fill="none" stroke="#0A9748" x1="1085.5" y1="-100" x2="1085.5" y2="700"/>
			<line fill="none" stroke="#0A9748" x1="1070.5" y1="-100" x2="1070.5" y2="700"/>
			<line fill="none" stroke="#0A9748" x1="986.5" y1="-100" x2="986.5" y2="700"/>
			<line fill="none" stroke="#0A9748" x1="971.5" y1="-100" x2="971.5" y2="700"/>
			<line fill="none" stroke="#0A9748" x1="888.5" y1="-100" x2="888.5" y2="700"/>
			<line fill="none" stroke="#0A9748" x1="873.5" y1="-100" x2="873.5" y2="700"/>
			<line fill="none" stroke="#0A9748" x1="789.5" y1="-100" x2="789.5" y2="700"/>
			<line fill="none" stroke="#0A9748" x1="774.5" y1="-100" x2="774.5" y2="700"/>
			<line fill="none" stroke="#0A9748" x1="690.5" y1="-100" x2="690.5" y2="700"/>
			<line fill="none" stroke="#0A9748" x1="675.5" y1="-100" x2="675.5" y2="700"/>
			<line fill="none" stroke="#0A9748" x1="591.5" y1="-100" x2="591.5" y2="700"/>
			<line fill="none" stroke="#0A9748" x1="576.5" y1="-100" x2="576.5" y2="700"/>
			<line fill="none" stroke="#0A9748" x1="493.5" y1="-100" x2="493.5" y2="700"/>
			<line fill="none" stroke="#0A9748" x1="478.5" y1="-100" x2="478.5" y2="700"/>
			<line fill="none" stroke="#0A9748" x1="394.5" y1="-100" x2="394.5" y2="700"/>
			<line fill="none" stroke="#0A9748" x1="379.5" y1="-100" x2="379.5" y2="700"/>
			<line fill="none" stroke="#0A9748" x1="295.5" y1="-100" x2="295.5" y2="700"/>
			<line fill="none" stroke="#0A9748" x1="280.5" y1="-100" x2="280.5" y2="700"/>
			<line fill="none" stroke="#0A9748" x1="196.5" y1="-100" x2="196.5" y2="700"/>
			<line fill="none" stroke="#0A9748" x1="181.5" y1="-100" x2="181.5" y2="700"/>
			<line fill="none" stroke="#0A9748" x1="98.5" y1="-100" x2="98.5" y2="700"/>
			<line fill="none" stroke="#0A9748" x1="83.5" y1="-100" x2="83.5" y2="700"/>
			<line fill="none" stroke="#0A9748" x1="-0.5" y1="-100" x2="-0.5" y2="700"/>
			<line fill="none" stroke="#0A9748" x1="-100" y1="600.5" x2="1270" y2="600.5"/>
			<line fill="none" stroke="#0A9748" x1="-100" y1="0.5" x2="1270" y2="0.5"/>
		</g>
	</g>
	<g id="Layer_10">
	</g>
	<g id="spazi_dedicati">
	</g>
	<g id="legenda">
	</g>
	<path fill="none" stroke="#CCCACA" stroke-width="0.5" stroke-miterlimit="10" d="M154.489,325.305"/>
	<path fill="none" stroke="#CCCACA" stroke-miterlimit="10" d="M116.384,456.367c31.453,0,5.201-134.873,44.903-134.873"/>
	<path fill="none" stroke="#CCCACA" stroke-miterlimit="10" d="M116.384,78.65c39.453,0,5.2,80.951,44.902,80.951"/>
	<path fill="none" stroke="#CCCACA" stroke-miterlimit="10" d="M1007.335,185.746c42.956,0,4.81-80.922,43.375-80.922"/>
	<g id="interaction_box">
	</g>
	<rect x="363.392" y="0.906" fill="#7F7F7F" width="53.815" height="8.867"/>
	<g>
		<g>
			<line fill="none" stroke="#CCCACA" stroke-miterlimit="10" x1="416.809" y1="16.844" x2="363.892" y2="16.844"/>
			<g>
				<rect x="416.309" y="13.594" fill="#CCCACA" width="1" height="6.5"/>
			</g>
			<g>
				<rect x="363.392" y="13.594" fill="#CCCACA" width="1" height="6.5"/>
			</g>
		</g>
	</g>
	<line fill="none" stroke="#CCCACA" stroke-miterlimit="10" x1="413.976" y1="104.783" x2="459.388" y2="104.783"/>
	<line fill="none" stroke="#CCCACA" stroke-miterlimit="10" x1="413.976" y1="239.812" x2="459.388" y2="239.812"/>
	<rect x="38.759" y="74.585" fill="#FF5A52" width="77.625" height="8.13"/>
	<rect x="38.759" y="101.567" fill="#FF5A52" width="77.625" height="8.13"/>
	<rect x="55.634" y="128.549" fill="#FF5A52" width="60.75" height="8.13"/>
	<rect x="55.634" y="155.53" fill="#FF5A52" width="60.75" height="8.13"/>
	<rect x="65.759" y="182.513" fill="#FF5A52" width="50.625" height="8.129"/>
	<rect x="79.259" y="209.493" fill="#FF5A52" width="37.125" height="8.127"/>
	<rect x="79.259" y="236.473" fill="#FF5A52" width="37.125" height="8.128"/>
	<rect x="82.634" y="263.451" fill="#FF5A52" width="33.75" height="8.127"/>
	<rect x="86.009" y="290.43" fill="#FF5A52" width="30.375" height="8.127"/>
	<rect x="86.009" y="317.41" fill="#FF5A52" width="30.375" height="8.127"/>
	<rect x="86.009" y="344.389" fill="#FF5A52" width="30.375" height="8.127"/>
	<rect x="86.009" y="371.367" fill="#FF5A52" width="30.375" height="8.127"/>
	<rect x="89.384" y="398.346" fill="#FF5A52" width="27" height="8.127"/>
	<rect x="89.384" y="425.326" fill="#FF5A52" width="27" height="8.127"/>
	<rect x="89.384" y="452.305" fill="#FF5A52" width="27" height="8.127"/>
	<rect x="92.759" y="479.283" fill="#FF5A52" width="23.625" height="8.131"/>
	<rect x="92.759" y="506.264" fill="#FF5A52" width="23.625" height="8.131"/>
	<rect x="161.287" y="74.584" fill="#286275" width="30.375" height="8.13"/>
	<rect x="161.287" y="101.567" fill="#286275" width="30.375" height="8.13"/>
	<rect x="161.287" y="128.552" fill="#286275" width="27" height="8.129"/>
	<rect x="161.287" y="155.537" fill="#286275" width="23.625" height="8.13"/>
	<rect x="161.287" y="182.521" fill="#286275" width="20.25" height="8.13"/>
	<rect x="161.287" y="209.505" fill="#286275" width="20.25" height="8.127"/>
	<rect x="161.287" y="236.486" fill="#286275" width="20.25" height="8.127"/>
	<rect x="161.287" y="263.469" fill="#286275" width="13.5" height="8.127"/>
	<rect x="161.287" y="290.449" fill="#286275" width="13.5" height="8.127"/>
	<rect x="161.287" y="317.432" fill="#286275" width="10.125" height="8.127"/>
	<rect x="161.287" y="344.414" fill="#286275" width="10.125" height="8.127"/>
	<rect x="161.287" y="371.395" fill="#286275" width="10.125" height="8.127"/>
	<rect x="161.287" y="398.377" fill="#286275" width="10.125" height="8.127"/>
	<rect x="161.287" y="425.357" fill="#286275" width="10.125" height="8.129"/>
	<rect x="161.287" y="452.303" fill="#286275" width="10.125" height="8.127"/>
	<rect x="312.725" y="74.033" fill="#FF5A52" width="101.25" height="8.13"/>
	<rect x="322.85" y="100.986" fill="#FF5A52" width="91.125" height="8.129"/>
	<rect x="383.6" y="127.939" fill="#FF5A52" width="30.375" height="8.13"/>
	<rect x="383.6" y="154.892" fill="#FF5A52" width="30.375" height="8.13"/>
	<rect x="383.6" y="181.845" fill="#FF5A52" width="30.375" height="8.13"/>
	<rect x="383.6" y="208.797" fill="#FF5A52" width="30.375" height="8.127"/>
	<rect x="386.975" y="235.748" fill="#FF5A52" width="27" height="8.127"/>
	<rect x="390.35" y="262.697" fill="#FF5A52" width="23.625" height="8.127"/>
	<rect x="459.388" y="73.729" fill="#286275" width="30.375" height="8.131"/>
	<rect x="459.388" y="100.718" fill="#286275" width="30.375" height="8.13"/>
	<rect x="459.388" y="127.708" fill="#286275" width="27" height="8.13"/>
	<rect x="459.388" y="154.696" fill="#286275" width="27" height="8.13"/>
	<rect x="459.388" y="181.687" fill="#286275" width="23.625" height="8.129"/>
	<rect x="459.388" y="208.674" fill="#286275" width="20.25" height="8.127"/>
	<rect x="459.388" y="235.66" fill="#286275" width="16.875" height="8.127"/>
	<rect x="459.388" y="262.646" fill="#286275" width="13.5" height="8.127"/>
	<rect x="459.388" y="289.633" fill="#286275" width="13.5" height="8.127"/>
	<rect x="459.388" y="316.619" fill="#286275" width="13.5" height="8.127"/>
	<rect x="459.388" y="343.605" fill="#286275" width="13.5" height="8.127"/>
	<rect x="459.388" y="370.592" fill="#286275" width="13.5" height="8.127"/>
	<rect x="459.388" y="397.576" fill="#286275" width="10.125" height="8.127"/>
	<rect x="459.388" y="424.562" fill="#286275" width="10.125" height="8.127"/>
	<rect x="459.388" y="451.549" fill="#286275" width="10.125" height="8.127"/>
	<rect x="635.449" y="73.557" fill="#FF5A52" width="77.625" height="8.131"/>
	<rect x="652.324" y="100.497" fill="#FF5A52" width="60.75" height="8.129"/>
	<rect x="679.324" y="127.435" fill="#FF5A52" width="33.75" height="8.131"/>
	<rect x="682.699" y="154.374" fill="#FF5A52" width="30.375" height="8.131"/>
	<rect x="682.699" y="181.313" fill="#FF5A52" width="30.375" height="8.129"/>
	<rect x="682.699" y="208.25" fill="#FF5A52" width="30.375" height="8.127"/>
	<rect x="686.074" y="235.187" fill="#FF5A52" width="27" height="8.127"/>
	<rect x="689.449" y="262.123" fill="#FF5A52" width="23.625" height="8.127"/>
	<rect x="689.449" y="289.059" fill="#FF5A52" width="23.625" height="8.127"/>
	<rect x="758.595" y="73.394" fill="#286275" width="16.875" height="8.129"/>
	<rect x="758.595" y="100.36" fill="#286275" width="16.875" height="8.129"/>
	<rect x="758.595" y="127.324" fill="#286275" width="13.5" height="8.131"/>
	<rect x="758.595" y="154.292" fill="#286275" width="10.125" height="8.129"/>
	<rect x="758.595" y="181.256" fill="#286275" width="10.125" height="8.131"/>
	<rect x="758.595" y="208.223" fill="#286275" width="10.125" height="8.127"/>
	<rect x="758.595" y="235.187" fill="#286275" width="10.125" height="8.127"/>
	<rect x="879.085" y="73.783" fill="#FF5A52" width="128.25" height="8.13"/>
	<rect x="960.085" y="100.758" fill="#FF5A52" width="47.25" height="8.13"/>
	<rect x="966.835" y="127.733" fill="#FF5A52" width="40.5" height="8.13"/>
	<rect x="970.21" y="154.707" fill="#FF5A52" width="37.125" height="8.131"/>
	<rect x="980.335" y="181.681" fill="#FF5A52" width="27" height="8.13"/>
	<rect x="983.71" y="208.655" fill="#FF5A52" width="23.625" height="8.127"/>
	<rect x="1050.708" y="73.782" fill="#286275" width="37.125" height="8.131"/>
	<rect x="1050.708" y="100.748" fill="#286275" width="27" height="8.13"/>
	<rect x="1050.708" y="127.712" fill="#286275" width="27" height="8.129"/>
	<rect x="1050.708" y="154.676" fill="#286275" width="20.25" height="8.13"/>
	<rect x="1050.708" y="181.64" fill="#286275" width="16.875" height="8.131"/>
	<rect x="1050.708" y="208.605" fill="#286275" width="10.125" height="8.127"/>
	<rect x="1050.708" y="235.566" fill="#286275" width="10.125" height="8.127"/>
	<rect x="1050.708" y="262.527" fill="#286275" width="10.125" height="8.127"/>
	<g id="climate">
	</g>
	<g id="titolo" display="none">
		<g display="inline">
			<text transform="matrix(1.166 0 0 1 2473.3984 -799.8906)" fill="#3F3F40" font-family="'CrimsonText-Roman'" font-size="21">Climatique / Rechauffement</text>
		</g>
		<g display="inline">
			<text transform="matrix(1.166 0 0 1 2473.3984 -829.0176)" fill="#3F3F40" font-family="'CrimsonText-Roman'" font-size="60">Climate Talk</text>
		</g>
		<g display="inline">
			<text transform="matrix(1.166 0 0 1 2473.3984 -2.0498)" fill="#3F3F40" font-family="'CrimsonText-Roman'" font-size="21">Climatique / Rechauffement</text>
		</g>
		<g display="inline">
			<text transform="matrix(1.166 0 0 1 2473.3984 -31.1768)" fill="#3F3F40" font-family="'CrimsonText-Roman'" font-size="60">Climate Talk</text>
		</g>
		<g display="inline">
			<text transform="matrix(1.166 0 0 1 2473.3984 751.6133)" fill="#3F3F40" font-family="'CrimsonText-Roman'" font-size="21">Climatique / Rechauffement</text>
		</g>
		<g display="inline">
			<text transform="matrix(1.166 0 0 1 2473.3984 722.4863)" fill="#3F3F40" font-family="'CrimsonText-Roman'" font-size="60">Climate Talk</text>
		</g>
		<g display="inline">
			<text transform="matrix(1.166 0 0 1 2473.3984 1503.6133)" fill="#3F3F40" font-family="'CrimsonText-Roman'" font-size="21">Climatique / Rechauffement</text>
		</g>
		<g display="inline">
			<text transform="matrix(1.166 0 0 1 2473.3984 1474.4863)" fill="#3F3F40" font-family="'CrimsonText-Roman'" font-size="60">Climate Talk</text>
		</g>
	</g>
</g>
<g id="Layer_2">
	<g>
		<g>
			<text transform="matrix(1.0292 0 0 1 625.4492 8.5303)" fill="#323132" font-family="'SourceSansPro-Regular'" font-size="11">Words category</text>
		</g>
	</g>
	<g>
		<text transform="matrix(1.0292 0 0 1 429.4375 7.7129)" fill="#323132" font-family="'SourceSansPro-Regular'" font-size="11">Word frequency</text>
	</g>
	<g>
		<g>
			<text transform="matrix(1 0 0 1 559.7188 9.1768)" font-family="'SourceSansPro-Semibold'" font-size="13">WEATHER</text>
		</g>
	</g>
	<text transform="matrix(1 0 0 1 161.0469 70.7183)" font-family="'SourceSansPro-Regular'" font-size="11">Pollution</text>
	<text transform="matrix(1 0 0 1 161.0469 97.7573)" font-family="'SourceSansPro-Regular'" font-size="11">Hivers</text>
	<text transform="matrix(1 0 0 1 161.0469 124.7964)" font-family="'SourceSansPro-Regular'" font-size="11">Hiver</text>
	<text transform="matrix(1 0 0 1 161.0469 151.8354)" font-family="'SourceSansPro-Regular'" font-size="11">Planete</text>
	<text transform="matrix(1 0 0 1 161.0469 178.8745)" font-family="'SourceSansPro-Regular'" font-size="11">Gaz</text>
	<text transform="matrix(1 0 0 1 161.0469 205.9136)" font-family="'SourceSansPro-Regular'" font-size="11">Ecologie</text>
	<text transform="matrix(1 0 0 1 161.0469 232.9526)" font-family="'SourceSansPro-Regular'" font-size="11">Nature</text>
	<text transform="matrix(1 0 0 1 161.0469 259.9917)" font-family="'SourceSansPro-Regular'" font-size="11">Kyoto</text>
	<text transform="matrix(1 0 0 1 161.0469 287.0308)" font-family="'SourceSansPro-Regular'" font-size="11">Schiste</text>
	<text transform="matrix(1 0 0 1 161.0469 314.0703)" font-family="'SourceSansPro-Regular'" font-size="11">Refroidissement</text>
	<text transform="matrix(1 0 0 1 161.0469 341.1094)" font-family="'SourceSansPro-Regular'" font-size="11">Polluent</text>
	<text transform="matrix(1 0 0 1 161.0469 368.1484)" font-family="'SourceSansPro-Regular'" font-size="11">Evaporation</text>
	<text transform="matrix(1 0 0 1 161.0469 395.1875)" font-family="'SourceSansPro-Regular'" font-size="11">Monsanto</text>
	<text transform="matrix(1 0 0 1 161.0469 422.2266)" font-family="'SourceSansPro-Regular'" font-size="11">Poles</text>
	<text transform="matrix(1 0 0 1 161.0469 449.2656)" font-family="'SourceSansPro-Regular'" font-size="11">Generations</text>
	<g>
		<text transform="matrix(1 0 0 1 362.8042 69.9126)" font-family="'SourceSansPro-Regular'" font-size="11">Population</text>
	</g>
	<g>
		<text transform="matrix(1 0 0 1 389.5894 96.9595)" font-family="'SourceSansPro-Regular'" font-size="11">Terre</text>
	</g>
	<g>
		<text transform="matrix(1 0 0 1 367.5894 124.0063)" font-family="'SourceSansPro-Regular'" font-size="11">Americain</text>
	</g>
	<g>
		<text transform="matrix(1 0 0 1 356.1714 151.0522)" font-family="'SourceSansPro-Regular'" font-size="11">Occidentaux</text>
	</g>
	<g>
		<text transform="matrix(1 0 0 1 358.8003 178.0991)" font-family="'SourceSansPro-Regular'" font-size="11">Occidentale</text>
	</g>
	<g>
		<text transform="matrix(1 0 0 1 379.7661 205.146)" font-family="'SourceSansPro-Regular'" font-size="11">Chinois</text>
	</g>
	<g>
		<text transform="matrix(1 0 0 1 380.9102 232.1919)" font-family="'SourceSansPro-Regular'" font-size="11">Europe</text>
	</g>
	<g>
		<text transform="matrix(1 0 0 1 372.3086 259.2388)" font-family="'SourceSansPro-Regular'" font-size="11">Politique</text>
	</g>
	<g>
		<text transform="matrix(1 0 0 1 458.8643 69.9126)" font-family="'SourceSansPro-Regular'" font-size="11">Global</text>
	</g>
	<g>
		<text transform="matrix(1 0 0 1 458.8643 96.9556)" font-family="'SourceSansPro-Regular'" font-size="11">Terre</text>
	</g>
	<g>
		<text transform="matrix(1 0 0 1 458.8643 123.9976)" font-family="'SourceSansPro-Regular'" font-size="11">Pays</text>
	</g>
	<g>
		<text transform="matrix(1 0 0 1 458.8643 151.0405)" font-family="'SourceSansPro-Regular'" font-size="11">Monde</text>
	</g>
	<g>
		<text transform="matrix(1 0 0 1 458.8643 205.1265)" font-family="'SourceSansPro-Regular'" font-size="11">Usa</text>
	</g>
	<g>
		<text transform="matrix(1 0 0 1 458.8643 178.0845)" font-family="'SourceSansPro-Regular'" font-size="11">Impots</text>
	</g>
	<g>
		<text transform="matrix(1 0 0 1 458.8643 232.1694)" font-family="'SourceSansPro-Regular'" font-size="11">Europe</text>
	</g>
	<g>
		<text transform="matrix(1 0 0 1 458.8643 259.2124)" font-family="'SourceSansPro-Regular'" font-size="11">Mondial</text>
	</g>
	<g>
		<text transform="matrix(1 0 0 1 458.8643 286.2554)" font-family="'SourceSansPro-Regular'" font-size="11">Obama</text>
	</g>
	<g>
		<text transform="matrix(1 0 0 1 458.8643 313.2969)" font-family="'SourceSansPro-Regular'" font-size="11">Internationales</text>
	</g>
	<g>
		<text transform="matrix(1 0 0 1 458.8643 340.3398)" font-family="'SourceSansPro-Regular'" font-size="11">Dubai</text>
	</g>
	<g>
		<text transform="matrix(1 0 0 1 458.8643 367.3828)" font-family="'SourceSansPro-Regular'" font-size="11">Montreal</text>
	</g>
	<g>
		<text transform="matrix(1 0 0 1 458.8643 394.4277)" font-family="'SourceSansPro-Regular'" font-size="11">Ouest</text>
	</g>
	<g>
		<text transform="matrix(1 0 0 1 458.8643 421.4688)" font-family="'SourceSansPro-Regular'" font-size="11">France</text>
	</g>
	<g>
		<text transform="matrix(1 0 0 1 458.8643 448.5117)" font-family="'SourceSansPro-Regular'" font-size="11">Pacifique</text>
	</g>
	<text transform="matrix(1 0 0 1 758.0762 69.3384)" font-family="'SourceSansPro-Regular'" font-size="11">Regions</text>
	<text transform="matrix(1 0 0 1 758.0762 96.3833)" font-family="'SourceSansPro-Regular'" font-size="11">Gens</text>
	<text transform="matrix(1 0 0 1 758.0762 123.4302)" font-family="'SourceSansPro-Regular'" font-size="11">Hommes</text>
	<text transform="matrix(1 0 0 1 758.0762 150.4771)" font-family="'SourceSansPro-Regular'" font-size="11">Maladies</text>
	<text transform="matrix(1 0 0 1 758.0762 177.5239)" font-family="'SourceSansPro-Regular'" font-size="11">Enfants</text>
	<text transform="matrix(1 0 0 1 758.0762 204.5688)" font-family="'SourceSansPro-Regular'" font-size="11">Mere</text>
	<text transform="matrix(1 0 0 1 758.0762 231.6157)" font-family="'SourceSansPro-Regular'" font-size="11">Sante</text>
	<text transform="matrix(1 0 0 1 676.3018 69.3384)" font-family="'SourceSansPro-Regular'" font-size="11">Homme</text>
	<text transform="matrix(1 0 0 1 671.0439 96.3716)" font-family="'SourceSansPro-Regular'" font-size="11">Humaine</text>
	<text transform="matrix(1 0 0 1 669.46 123.4028)" font-family="'SourceSansPro-Regular'" font-size="11">Personne</text>
	<text transform="matrix(1 0 0 1 676.4336 151.8354)" enable-background="new    "><tspan x="0" y="0" font-family="'SourceSansPro-Regular'" font-size="11">Su</tspan><tspan x="11.803" y="0" font-family="'MyriadPro-Regular'" font-size="11">ﬃ</tspan><tspan x="20.768" y="0" font-family="'SourceSansPro-Regular'" font-size="11">rait</tspan></text>
	<text transform="matrix(1 0 0 1 658.6689 177.5513)" font-family="'SourceSansPro-Regular'" font-size="11">Compensee</text>
	<text transform="matrix(1 0 0 1 648.7803 204.5845)" font-family="'SourceSansPro-Regular'" font-size="11">Epouvantable</text>
	<text transform="matrix(1 0 0 1 677.5557 231.6157)" font-family="'SourceSansPro-Regular'" font-size="11">Menace</text>
	<text transform="matrix(1 0 0 1 690.2607 258.6489)" font-family="'SourceSansPro-Regular'" font-size="11">Crise</text>
	<text transform="matrix(1 0 0 1 674.7285 285.6802)" font-family="'SourceSansPro-Regular'" font-size="11">Urgence</text>
	<text transform="matrix(1 0 0 1 964.7285 69.7437)" font-family="'SourceSansPro-Regular'" font-size="11">Mondiale</text>
	<text transform="matrix(1 0 0 1 984.6055 96.7896)" font-family="'SourceSansPro-Regular'" font-size="11">Solei</text>
	<text transform="matrix(1 0 0 1 994.8779 123.8354)" font-family="'SourceSansPro-Regular'" font-size="11">Air</text>
	<text transform="matrix(1 0 0 1 950.4941 150.8823)" font-family="'SourceSansPro-Regular'" font-size="11">Catastrophe</text>
	<text transform="matrix(1 0 0 1 983.3838 177.9282)" font-family="'SourceSansPro-Regular'" font-size="11">Froid</text>
	<text transform="matrix(1 0 0 1 989.9941 204.9741)" font-family="'SourceSansPro-Regular'" font-size="11">Eau</text>
	<text transform="matrix(1 0 0 1 1050.708 70.439)" font-family="'SourceSansPro-Regular'" font-size="11">Chaud</text>
	<text transform="matrix(1 0 0 1 1050.708 97.3843)" font-family="'SourceSansPro-Regular'" font-size="11">Froid</text>
	<text transform="matrix(1 0 0 1 1050.708 124.3296)" font-family="'SourceSansPro-Regular'" font-size="11">Neige</text>
	<text transform="matrix(1 0 0 1 1050.708 151.2739)" font-family="'SourceSansPro-Regular'" font-size="11">Temps</text>
	<text transform="matrix(1 0 0 1 1050.708 178.2192)" font-family="'SourceSansPro-Regular'" font-size="11">Temperature</text>
	<text transform="matrix(1 0 0 1 1050.708 205.1636)" font-family="'SourceSansPro-Regular'" font-size="11">Vague</text>
	<text transform="matrix(1 0 0 1 1050.708 232.1089)" font-family="'SourceSansPro-Regular'" font-size="11">Secheresse</text>
	<text transform="matrix(1 0 0 1 1050.708 259.0542)" font-family="'SourceSansPro-Regular'" font-size="11">Pluie</text>
	<text transform="matrix(1 0 0 1 114.623 50.4956)" font-family="'SourceSansPro-Semibold'" font-size="13">CLIMATE</text>
	<text transform="matrix(1 0 0 1 355.4912 50.4956)" font-family="'SourceSansPro-Semibold'" font-size="13">(INTER)NATIONAL/POLITICAL</text>
	<text transform="matrix(1 0 0 1 682.1191 50.4956)" font-family="'SourceSansPro-Semibold'" font-size="13">PERSONAL/LOCAL</text>
	<text transform="matrix(1 0 0 1 1002.3223 50.4956)" font-family="'SourceSansPro-Semibold'" font-size="13">WEATHER</text>
	<text transform="matrix(1 0 0 1 81.0195 70.7183)" font-family="'SourceSansPro-Regular'" font-size="11">Planete</text>
	<text transform="matrix(1 0 0 1 57.2153 97.7573)" font-family="'SourceSansPro-Regular'" font-size="11">Changement</text>
	<text transform="matrix(1 0 0 1 96.4741 124.7964)" font-family="'SourceSansPro-Regular'" font-size="11">Giec</text>
	<text transform="matrix(1 0 0 1 56.9302 151.8354)" font-family="'SourceSansPro-Regular'" font-size="11">Scientifiques</text>
	<text transform="matrix(1 0 0 1 67.8418 178.8745)" font-family="'SourceSansPro-Regular'" font-size="11">Nucleaires</text>
	<text transform="matrix(1 0 0 1 86.1782 232.187)" font-family="'SourceSansPro-Regular'" font-size="11">Climat</text>
	<text transform="matrix(1 0 0 1 77.7197 204.5688)" font-family="'SourceSansPro-Regular'" font-size="11">Arctique</text>
	<text transform="matrix(1 0 0 1 84.1875 259.2261)" font-family="'SourceSansPro-Regular'" font-size="11">Solaire</text>
	<text transform="matrix(1 0 0 1 87.0254 286.2651)" font-family="'SourceSansPro-Regular'" font-size="11">Ozone</text>
	<text transform="matrix(1 0 0 1 85.9473 313.3047)" font-family="'SourceSansPro-Regular'" font-size="11">Usines</text>
	<text transform="matrix(1 0 0 1 70.4043 340.3438)" font-family="'SourceSansPro-Regular'" font-size="11">Economie</text>
	<text transform="matrix(1 0 0 1 86.0796 367.3828)" font-family="'SourceSansPro-Regular'" font-size="11">Reduit</text>
	<text transform="matrix(1 0 0 1 89.1812 394.4219)" font-family="'SourceSansPro-Regular'" font-size="11">Bidon</text>
	<text transform="matrix(1 0 0 1 80.8984 421.4609)" font-family="'SourceSansPro-Regular'" font-size="11">Science</text>
	<text transform="matrix(1 0 0 1 41.1016 448.5)" font-family="'SourceSansPro-Regular'" font-size="11">Refroidissement</text>
	<text transform="matrix(1 0 0 1 79.5786 475.5391)" font-family="'SourceSansPro-Regular'" font-size="11">Solaires</text>
	<text transform="matrix(1 0 0 1 61.374 502.5781)" font-family="'SourceSansPro-Regular'" font-size="11">Climatiques</text>
	<rect x="50.5" y="-0.5" fill="#FF5A52" width="11" height="11"/>
	<rect x="196.5" y="-0.5" fill="#286275" width="11" height="11"/>
	<g>
		<text transform="matrix(1.0292 0 0 1 67.2305 7.7129)" fill="#323132" font-family="'SourceSansPro-Regular'" font-size="11">Words appearing in 2013</text>
	</g>
	<g>
		<text transform="matrix(1.0292 0 0 1 213.2305 7.7129)" fill="#323132" font-family="'SourceSansPro-Regular'" font-size="11">Words appearing in 2014</text>
	</g>
</g>
<g id="Layer_3" display="none">
	<g display="inline">
		<line fill="none" stroke="#009640" x1="1169.5" y1="-100" x2="1169.5" y2="700"/>
		<line fill="none" stroke="#009640" x1="1085.5" y1="-100" x2="1085.5" y2="700"/>
		<line fill="none" stroke="#009640" x1="1070.5" y1="-100" x2="1070.5" y2="700"/>
		<line fill="none" stroke="#009640" x1="986.5" y1="-100" x2="986.5" y2="700"/>
		<line fill="none" stroke="#009640" x1="971.5" y1="-100" x2="971.5" y2="700"/>
		<line fill="none" stroke="#009640" x1="888.5" y1="-100" x2="888.5" y2="700"/>
		<line fill="none" stroke="#009640" x1="873.5" y1="-100" x2="873.5" y2="700"/>
		<line fill="none" stroke="#009640" x1="789.5" y1="-100" x2="789.5" y2="700"/>
		<line fill="none" stroke="#009640" x1="774.5" y1="-100" x2="774.5" y2="700"/>
		<line fill="none" stroke="#009640" x1="690.5" y1="-100" x2="690.5" y2="700"/>
		<line fill="none" stroke="#009640" x1="675.5" y1="-100" x2="675.5" y2="700"/>
		<line fill="none" stroke="#009640" x1="591.5" y1="-100" x2="591.5" y2="700"/>
		<line fill="none" stroke="#009640" x1="576.5" y1="-100" x2="576.5" y2="700"/>
		<line fill="none" stroke="#009640" x1="493.5" y1="-100" x2="493.5" y2="700"/>
		<line fill="none" stroke="#009640" x1="478.5" y1="-100" x2="478.5" y2="700"/>
		<line fill="none" stroke="#009640" x1="394.5" y1="-100" x2="394.5" y2="700"/>
		<line fill="none" stroke="#009640" x1="379.5" y1="-100" x2="379.5" y2="700"/>
		<line fill="none" stroke="#009640" x1="295.5" y1="-100" x2="295.5" y2="700"/>
		<line fill="none" stroke="#009640" x1="280.5" y1="-100" x2="280.5" y2="700"/>
		<line fill="none" stroke="#009640" x1="196.5" y1="-100" x2="196.5" y2="700"/>
		<line fill="none" stroke="#009640" x1="181.5" y1="-100" x2="181.5" y2="700"/>
		<line fill="none" stroke="#009640" x1="98.5" y1="-100" x2="98.5" y2="700"/>
		<line fill="none" stroke="#009640" x1="83.5" y1="-100" x2="83.5" y2="700"/>
		<line fill="none" stroke="#009640" x1="-0.5" y1="-100" x2="-0.5" y2="700"/>
		<line fill="none" stroke="#009640" x1="-100" y1="600.5" x2="1270" y2="600.5"/>
		<line fill="none" stroke="#009640" x1="-100" y1="0.5" x2="1270" y2="0.5"/>
	</g>
</g>
</svg>
