<?xml version="1.0" encoding="utf-8"?>
<!-- Generator: Adobe Illustrator 16.0.0, SVG Export Plug-In . SVG Version: 6.00 Build 0)  -->
<!DOCTYPE svg PUBLIC "-//W3C//DTD SVG 1.1//EN" "http://www.w3.org/Graphics/SVG/1.1/DTD/svg11.dtd">
<svg version="1.1" xmlns="http://www.w3.org/2000/svg" xmlns:xlink="http://www.w3.org/1999/xlink" x="0px" y="0px" width="1170px"
	 height="600px" viewBox="0 0 1170 600" enable-background="new 0 0 1170 600" xml:space="preserve">
<g id="other">
	<rect x="651.618" y="335.673" fill="#FF5A52" stroke="#FFFFFF" stroke-width="1.1644" width="183.981" height="264.327"/>
	<text transform="matrix(1 0 0 1 694.1074 464.4131)" enable-background="new    "><tspan x="0" y="0" font-family="'SourceSansPro-Regular'" font-size="11">Climate change index</tspan><tspan x="42.663" y="13.2" font-family="'SourceSansPro-Regular'" font-size="11">9.2</tspan></text>
	<rect x="651.618" y="218.064" fill="#FF5A52" stroke="#FFFFFF" stroke-width="1.1644" width="183.981" height="117.608"/>
	<text transform="matrix(1 0 0 1 732.7412 273.8916)" enable-background="new    "><tspan x="0" y="0" font-family="'SourceSansPro-Regular'" font-size="11">DICE</tspan><tspan x="4.032" y="13.2" font-family="'SourceSansPro-Regular'" font-size="11">4.1</tspan></text>
	<rect x="835.6" y="218.064" fill="#FF5A52" stroke="#FFFFFF" stroke-width="1.1644" width="229.395" height="381.936"/>
	<text transform="matrix(1 0 0 1 869.499 405.832)" enable-background="new    "><tspan x="0" y="0" font-family="'SourceSansPro-Regular'" font-size="11">Environmental sustainability index</tspan><tspan x="70.388" y="13.2" font-family="'SourceSansPro-Regular'" font-size="11">16.6</tspan></text>
	<rect x="723.813" y="78.333" fill="#FF5A52" stroke="#FFFFFF" stroke-width="1.1644" width="72.194" height="139.731"/>
	<rect x="920.604" y="78.333" fill="#FF5A52" stroke="#FFFFFF" stroke-width="1.1644" width="144.391" height="139.731"/>
	<text transform="matrix(1 0 0 1 944.916 144.4692)" enable-background="new    "><tspan x="0" y="0" font-family="'SourceSansPro-Regular'" font-size="11">Global Hunger Index</tspan><tspan x="40.117" y="13.2" font-family="'SourceSansPro-Regular'" font-size="11">3.8</tspan></text>
	<rect x="651.618" y="78.333" fill="#FF5A52" stroke="#FFFFFF" stroke-width="1.1644" width="72.195" height="139.731"/>
	<rect x="796.008" y="78.333" fill="#FF5A52" stroke="#FFFFFF" stroke-width="1.1644" width="124.596" height="139.731"/>
	<text transform="matrix(1 0 0 1 819.9395 144.0522)" enable-background="new    "><tspan x="0" y="0" font-family="'SourceSansPro-Regular'" font-size="11">World RIsk Index</tspan><tspan x="31.41" y="13.2" font-family="'SourceSansPro-Regular'" font-size="11">3.3</tspan></text>
	<rect x="102.005" y="417.184" fill="#95A565" stroke="#FFFFFF" stroke-width="1.1644" width="225.901" height="182.816"/>
	<text transform="matrix(1 0 0 1 134.6489 505.6162)" enable-background="new    "><tspan x="0" y="0" font-family="'SourceSansPro-Regular'" font-size="11">Climate change performance index</tspan><tspan x="73.578" y="13.2" font-family="'SourceSansPro-Regular'" font-size="11">7.8</tspan></text>
	<rect x="458.322" y="251.833" fill="#95A565" stroke="#FFFFFF" stroke-width="1.1644" width="181.654" height="348.167"/>
	<rect x="102.005" y="300.74" fill="#95A565" stroke="#FFFFFF" stroke-width="1.1644" width="225.901" height="116.444"/>
	<text transform="matrix(1 0 0 1 147.6538 355.9854)" enable-background="new    "><tspan x="0" y="0" font-family="'SourceSansPro-Regular'" font-size="11">Climate vulnerability monitor</tspan><tspan x="65.009" y="13.2" font-family="'SourceSansPro-Regular'" font-size="11">5</tspan></text>
	<rect x="102.005" y="251.833" fill="#95A565" stroke="#FFFFFF" stroke-width="1.1644" width="225.901" height="48.907"/>
	<text transform="matrix(1 0 0 1 159.8828 273.3096)" enable-background="new    "><tspan x="0" y="0" font-family="'SourceSansPro-Regular'" font-size="11">Global Adaptation Index</tspan><tspan x="48.911" y="13.2" font-family="'SourceSansPro-Regular'" font-size="11">2.1</tspan></text>
	<rect x="327.906" y="251.833" fill="#95A565" stroke="#FFFFFF" stroke-width="1.1644" width="130.416" height="348.167"/>
	<text transform="matrix(1 0 0 1 334.1533 420.9775)" enable-background="new    "><tspan x="0" y="0" font-family="'SourceSansPro-Regular'" font-size="11">Global Climate Risk Index</tspan><tspan x="51.666" y="13.2" font-family="'SourceSansPro-Regular'" font-size="11">8.6</tspan></text>
	<rect x="102.005" y="41.07" fill="#286275" stroke="#FFFFFF" stroke-width="1.1644" width="537.971" height="199.119"/>
	<text transform="matrix(1 0 0 1 306.7334 137.6528)" enable-background="new    "><tspan x="0" y="0" font-family="'SourceSansPro-Regular'" font-size="11">Human Development Index</tspan><tspan x="53.3" y="13.2" font-family="'SourceSansPro-Regular'" font-size="11">20.9</tspan></text>
	<text transform="matrix(1 0 0 1 469.6436 420.9775)" enable-background="new    "><tspan x="0" y="0" font-family="'SourceSansPro-Regular'" font-size="11">Climate change vulnerability index</tspan><tspan x="74.155" y="13.2" font-family="'SourceSansPro-Regular'" font-size="11">12</tspan></text>
	<text transform="matrix(1 0 0 1 743.0947 137.5254)" enable-background="new    "><tspan x="0" y="0" font-family="'SourceSansPro-Regular'" font-size="11">Gender</tspan><tspan x="-16.646" y="13.5" font-family="'SourceSansPro-Regular'" font-size="10">inequality index</tspan><tspan x="9.982" y="27" font-family="'SourceSansPro-Regular'" font-size="11">1.9</tspan></text>
	<text transform="matrix(1 0 0 1 670.7568 137.833)" enable-background="new    "><tspan x="0" y="0" font-family="'SourceSansPro-Regular'" font-size="11">Human</tspan><tspan x="-14.618" y="13.2" font-family="'SourceSansPro-Regular'" font-size="11">Poverty Index</tspan><tspan x="10.126" y="26.4" font-family="'SourceSansPro-Regular'" font-size="11">1.9</tspan></text>
	<rect x="102" y="1" fill="#286275" width="15" height="16"/>
	<rect x="330" y="1" fill="#FF5A52" width="15" height="16"/>
	<text transform="matrix(1 0 0 1 123.938 10.6665)" font-family="'SourceSansPro-Regular'" font-size="11">HDI</text>
	<rect x="196" y="1" fill="#95A565" width="15" height="16"/>
	<text transform="matrix(1 0 0 1 217.4937 10.6665)" font-family="'SourceSansPro-Regular'" font-size="11">Vulnerability</text>
	<text transform="matrix(1 0 0 1 351.7139 11)" font-family="'SourceSansPro-Regular'" font-size="11">Other</text>
</g>
<g id="interactive">
	<rect x="992.798" y="41.07" fill="#FF5A52" stroke="#FFFFFF" stroke-width="1.1644" width="72.196" height="37.263"/>
	<rect x="793.68" y="41.07" fill="#FF5A52" stroke="#FFFFFF" stroke-width="1.1644" width="27.946" height="37.263"/>
	<rect x="765.733" y="41.07" fill="#FF5A52" stroke="#FFFFFF" stroke-width="1.1644" width="27.946" height="37.263"/>
	<rect x="864.711" y="41.07" fill="#FF5A52" stroke="#FFFFFF" stroke-width="1.1644" width="57.056" height="37.263"/>
	<rect x="669.085" y="41.07" fill="#FF5A52" stroke="#FFFFFF" stroke-width="1.1644" width="12.809" height="37.263"/>
	<rect x="651.618" y="41.07" fill="#FF5A52" stroke="#FFFFFF" stroke-width="1.1644" width="5.822" height="37.263"/>
	<rect x="737.787" y="41.07" fill="#FF5A52" stroke="#FFFFFF" stroke-width="1.1644" width="27.946" height="37.263"/>
	<rect x="709.84" y="41.07" fill="#FF5A52" stroke="#FFFFFF" stroke-width="1.1644" width="27.947" height="37.263"/>
	<rect x="657.44" y="41.07" fill="#FF5A52" stroke="#FFFFFF" stroke-width="1.1644" width="11.645" height="37.263"/>
	<rect x="921.767" y="41.07" fill="#FF5A52" stroke="#FFFFFF" stroke-width="1.1644" width="71.031" height="37.263"/>
	<rect x="681.894" y="41.07" fill="#FF5A52" stroke="#FFFFFF" stroke-width="1.1644" width="27.946" height="37.263"/>
	<rect x="821.626" y="41.07" fill="#FF5A52" stroke="#FFFFFF" stroke-width="1.1644" width="43.085" height="37.263"/>
</g>
</svg>
