<?xml version="1.0" encoding="utf-8"?>
<!-- Generator: Adobe Illustrator 16.0.4, SVG Export Plug-In . SVG Version: 6.00 Build 0)  -->
<!DOCTYPE svg PUBLIC "-//W3C//DTD SVG 1.1//EN" "http://www.w3.org/Graphics/SVG/1.1/DTD/svg11.dtd">
<svg version="1.1" xmlns="http://www.w3.org/2000/svg" xmlns:xlink="http://www.w3.org/1999/xlink" x="0px" y="0px" width="1170px"
	 height="624.212px" viewBox="0 0 1170 624.212" enable-background="new 0 0 1170 624.212" xml:space="preserve">
<g id="layer1">
	<polyline fill="none" stroke="#CCCACA" stroke-width="0.5" stroke-linejoin="round" stroke-miterlimit="10" points="103.5,508.212 
		103.5,462.546 182.5,462.546 182.5,454.212 	"/>
	<polyline fill="none" stroke="#CCCACA" stroke-width="0.5" stroke-linejoin="round" stroke-miterlimit="10" points="215.5,508.212 
		215.5,463.212 477.5,463.212 477.5,454.212 	"/>
	<polyline fill="none" stroke="#CCCACA" stroke-width="0.5" stroke-linejoin="round" stroke-miterlimit="10" points="327.5,508.212 
		327.5,467.712 557.5,467.712 557.5,454.212 	"/>
	<polyline fill="none" stroke="#CCCACA" stroke-width="0.5" stroke-linejoin="round" stroke-miterlimit="10" points="456.5,508.212 
		456.5,471.546 716.5,471.546 716.5,454.212 	"/>
	<polyline fill="none" stroke="#CCCACA" stroke-width="0.5" stroke-linejoin="round" stroke-miterlimit="10" points="574.5,508.212 
		574.5,476.212 824.5,476.212 824.5,454.212 	"/>
	<polyline fill="none" stroke="#CCCACA" stroke-width="0.5" stroke-linejoin="round" stroke-miterlimit="10" points="686.5,508.212 
		686.5,481.212 877.5,481.212 877.5,454.212 	"/>
	<polyline fill="none" stroke="#CCCACA" stroke-width="0.5" stroke-linejoin="round" stroke-miterlimit="10" points="789.5,508.212 
		789.5,486.546 931.5,486.546 931.5,454.212 	"/>
	<polyline fill="none" stroke="#CCCACA" stroke-width="0.5" stroke-linejoin="round" stroke-miterlimit="10" points="893.5,508.212 
		893.5,491.212 1035.5,491.212 1035.5,454.212 	"/>
	<polyline fill="none" stroke="#CCCACA" stroke-width="0.5" stroke-linejoin="round" stroke-miterlimit="10" points="
		1022.5,508.212 1022.5,495.879 1092.5,495.879 1092.5,454.212 	"/>
	
		<line fill="none" stroke="#CCCACA" stroke-width="0.5" stroke-linejoin="round" stroke-miterlimit="10" x1="1142.5" y1="508.212" x2="1142.5" y2="454.212"/>
	<rect x="700.586" y="356.476" fill="#668E94" width="40.885" height="0.406"/>
	<rect x="700.586" y="355.661" fill="#286275" width="40.885" height="1.222"/>
	<rect x="1069.609" y="252.33" fill="#668E94" width="40.885" height="104.553"/>
	<rect x="1069.609" y="243.379" fill="#B0CFCD" width="40.885" height="8.951"/>
	<rect x="1069.609" y="240.531" fill="#286275" width="40.885" height="2.848"/>
	<rect x="1069.609" y="232.803" fill="#FF5A52" width="40.885" height="7.728"/>
	<rect x="1069.609" y="213.275" fill="#F3835D" width="40.885" height="19.528"/>
	<rect x="1069.609" y="79.837" fill="#EFC164" width="40.885" height="133.438"/>
	<rect x="1016.787" y="294.231" fill="#668E94" width="40.885" height="62.651"/>
	<rect x="1016.787" y="272.67" fill="#B0CFCD" width="40.885" height="21.561"/>
	<rect x="1016.787" y="227.921" fill="#FF5A52" width="40.885" height="44.75"/>
	<rect x="1016.787" y="143.301" fill="#EFC164" width="40.885" height="84.62"/>
	<rect x="964.324" y="338.984" fill="#668E94" width="40.884" height="17.898"/>
	<rect x="964.324" y="338.576" fill="#B0CFCD" width="40.884" height="0.408"/>
	<rect x="964.324" y="331.253" fill="#FF5A52" width="40.884" height="7.322"/>
	<rect x="964.324" y="329.217" fill="#F3835D" width="40.884" height="2.036"/>
	<rect x="964.324" y="304.808" fill="#EFC164" width="40.884" height="24.409"/>
	<rect x="911.528" y="347.526" fill="#668E94" width="40.883" height="9.356"/>
	<rect x="911.528" y="346.71" fill="#B0CFCD" width="40.883" height="0.815"/>
	<rect x="911.528" y="339.39" fill="#286275" width="40.883" height="7.32"/>
	<rect x="911.528" y="326.371" fill="#FF5A52" width="40.883" height="13.02"/>
	<rect x="911.528" y="315.387" fill="#F3835D" width="40.883" height="10.983"/>
	<rect x="911.528" y="278.365" fill="#EFC164" width="40.883" height="37.022"/>
	<rect x="858.705" y="337.763" fill="#668E94" width="40.885" height="19.119"/>
	<rect x="858.705" y="336.542" fill="#B0CFCD" width="40.885" height="1.221"/>
	<rect x="858.705" y="332.878" fill="#286275" width="40.885" height="3.664"/>
	<rect x="858.705" y="327.184" fill="#FF5A52" width="40.885" height="5.694"/>
	<rect x="858.705" y="309.691" fill="#EFC164" width="40.885" height="17.493"/>
	<rect x="806.015" y="355.256" fill="#668E94" width="40.887" height="1.626"/>
	<rect x="806.015" y="347.526" fill="#FF5A52" width="40.887" height="7.73"/>
	<rect x="806.015" y="344.677" fill="#F3835D" width="40.887" height="2.849"/>
	<rect x="806.015" y="334.913" fill="#EFC164" width="40.887" height="9.765"/>
	<rect x="753.311" y="354.848" fill="#668E94" width="40.886" height="2.034"/>
	<rect x="753.311" y="349.966" fill="#FF5A52" width="40.886" height="4.882"/>
	<rect x="753.311" y="348.747" fill="#EFC164" width="40.886" height="1.22"/>
	<rect x="647.254" y="356.476" fill="#668E94" width="40.883" height="0.406"/>
	<rect x="647.254" y="356.068" fill="#B0CFCD" width="40.883" height="0.408"/>
	<rect x="647.254" y="356.068" fill="#286275" width="40.883" height="0.408"/>
	<rect x="647.254" y="356.068" fill="#F3835D" width="40.883" height="0.408"/>
	<rect x="647.254" y="353.627" fill="#EFC164" width="40.883" height="2.44"/>
	<rect x="594.568" y="356.476" fill="#668E94" width="40.885" height="0.406"/>
	<rect x="594.568" y="356.068" fill="#286275" width="40.885" height="0.408"/>
	<rect x="594.568" y="355.661" fill="#FF5A52" width="40.885" height="0.407"/>
	<rect x="594.568" y="355.661" fill="#F3835D" width="40.885" height="0.407"/>
	<rect x="594.568" y="354.848" fill="#EFC164" width="40.885" height="1.22"/>
	<rect x="1122.402" y="324.337" fill="#668E94" width="40.887" height="32.545"/>
	<rect x="1122.402" y="312.539" fill="#B0CFCD" width="40.887" height="11.799"/>
	<rect x="1122.402" y="311.316" fill="#286275" width="40.887" height="1.223"/>
	<rect x="1122.402" y="304.808" fill="#FF5A52" width="40.887" height="6.508"/>
	<rect x="1122.402" y="284.061" fill="#F3835D" width="40.887" height="20.748"/>
	<rect x="1122.402" y="210.426" fill="#EFC164" width="40.887" height="73.634"/>
	<rect x="1122.402" y="205.544" fill="#B0B6C3" width="40.887" height="4.882"/>
	<rect x="1122.402" y="205.544" fill="#CCCACA" width="40.887" height="4.882"/>
	
		<line fill="none" stroke="#000000" stroke-width="0.2152" stroke-linejoin="round" stroke-miterlimit="10" x1="56.299" y1="357.455" x2="1167.105" y2="357.693"/>
	
		<line fill="none" stroke="#000000" stroke-width="0.25" stroke-linejoin="round" stroke-miterlimit="10" x1="51" y1="67.607" x2="1167" y2="67.607"/>
	
		<line fill="none" stroke="#000000" stroke-width="0.25" stroke-linejoin="round" stroke-miterlimit="10" x1="51" y1="125.158" x2="1167" y2="125.158"/>
	
		<line fill="none" stroke="#000000" stroke-width="0.25" stroke-linejoin="round" stroke-miterlimit="10" x1="51" y1="184.146" x2="1167" y2="184.146"/>
	
		<line fill="none" stroke="#000000" stroke-width="0.25" stroke-linejoin="round" stroke-miterlimit="10" x1="51" y1="240.531" x2="1167" y2="240.531"/>
	
		<line fill="none" stroke="#000000" stroke-width="0.25" stroke-linejoin="round" stroke-miterlimit="10" x1="51" y1="299.919" x2="1167" y2="299.919"/>
	
		<line fill="none" stroke="#000000" stroke-width="0.8576" stroke-linejoin="round" stroke-miterlimit="10" x1="51.429" y1="357.255" x2="51.429" y2="67.387"/>
	
		<line fill="none" stroke="#000000" stroke-width="0.8576" stroke-linejoin="round" stroke-miterlimit="10" x1="51.429" y1="357.255" x2="1163.746" y2="357.255"/>
	
		<rect x="51.5" y="414.712" fill="none" stroke="#000000" stroke-linejoin="round" stroke-miterlimit="10" width="106" height="27"/>
	
		<rect x="157.5" y="414.712" fill="none" stroke="#000000" stroke-linejoin="round" stroke-miterlimit="10" width="53" height="27"/>
	
		<rect x="210.5" y="414.712" fill="none" stroke="#000000" stroke-linejoin="round" stroke-miterlimit="10" width="53" height="27"/>
	
		<rect x="263.5" y="414.712" fill="none" stroke="#000000" stroke-linejoin="round" stroke-miterlimit="10" width="54" height="27"/>
	
		<rect x="317.5" y="414.712" fill="none" stroke="#000000" stroke-linejoin="round" stroke-miterlimit="10" width="54" height="27"/>
	
		<rect x="371.5" y="414.712" fill="none" stroke="#000000" stroke-linejoin="round" stroke-miterlimit="10" width="53" height="27"/>
	
		<rect x="424.5" y="414.712" fill="none" stroke="#000000" stroke-linejoin="round" stroke-miterlimit="10" width="106" height="27"/>
	
		<rect x="530.5" y="414.712" fill="none" stroke="#000000" stroke-linejoin="round" stroke-miterlimit="10" width="53" height="27"/>
	
		<rect x="583.5" y="414.712" fill="none" stroke="#000000" stroke-linejoin="round" stroke-miterlimit="10" width="53" height="27"/>
	
		<rect x="636.5" y="414.712" fill="none" stroke="#000000" stroke-linejoin="round" stroke-miterlimit="10" width="53" height="27"/>
	
		<rect x="689.5" y="414.712" fill="none" stroke="#000000" stroke-linejoin="round" stroke-miterlimit="10" width="54" height="27"/>
	
		<rect x="743.5" y="414.712" fill="none" stroke="#000000" stroke-linejoin="round" stroke-miterlimit="10" width="53" height="27"/>
	
		<rect x="796.5" y="414.712" fill="none" stroke="#000000" stroke-linejoin="round" stroke-miterlimit="10" width="53" height="27"/>
	
		<rect x="849.5" y="414.712" fill="none" stroke="#000000" stroke-linejoin="round" stroke-miterlimit="10" width="54" height="27"/>
	
		<rect x="903.5" y="414.712" fill="none" stroke="#000000" stroke-linejoin="round" stroke-miterlimit="10" width="53" height="27"/>
	
		<rect x="956.5" y="414.712" fill="none" stroke="#000000" stroke-linejoin="round" stroke-miterlimit="10" width="53" height="27"/>
	
		<rect x="1009.5" y="414.712" fill="none" stroke="#000000" stroke-linejoin="round" stroke-miterlimit="10" width="53" height="27"/>
	
		<rect x="1062.5" y="414.712" fill="none" stroke="#000000" stroke-linejoin="round" stroke-miterlimit="10" width="53" height="27"/>
	
		<rect x="1115.5" y="414.712" fill="none" stroke="#000000" stroke-linejoin="round" stroke-miterlimit="10" width="53" height="27"/>
	<rect x="51" y="21.212" fill="#EFC164" width="11" height="11"/>
	<rect x="182" y="21.212" fill="#F3835D" width="11" height="11"/>
	<rect x="351" y="21.212" fill="#FF5A52" width="11" height="11"/>
	<rect x="541" y="21.212" fill="#286275" width="11" height="11"/>
	<rect x="613" y="21.212" fill="#B0CFCD" width="11" height="11"/>
	<rect x="761" y="21.212" fill="#668E94" width="11" height="11"/>
	<rect x="882" y="21.212" fill="#CCCACA" width="11" height="11"/>
</g>
<g id="labels">
	<rect x="48.125" y="519.119" fill="none" width="110.751" height="131.242"/>
	<text transform="matrix(1 0 0 1 48.1245 526.2388)"><tspan x="0" y="0" fill="#1A181C" font-family="'SourceSansPro-Regular'" font-size="10">Recognition of AR2</tspan><tspan x="0" y="12" fill="#1A181C" font-family="'SourceSansPro-Regular'" font-size="10">findings on discenible </tspan><tspan x="0" y="24" fill="#1A181C" font-family="'SourceSansPro-Regular'" font-size="10">human influence over </tspan><tspan x="0" y="36" fill="#1A181C" font-family="'SourceSansPro-Regular'" font-size="10">climate system. </tspan><tspan x="0" y="48" fill="#1A181C" font-family="'SourceSansPro-Regular'" font-size="10">Controversies on </tspan><tspan x="0" y="60" fill="#1A181C" font-family="'SourceSansPro-Regular'" font-size="10">evidence for attribution </tspan><tspan x="0" y="72" fill="#1A181C" font-family="'SourceSansPro-Regular'" font-size="10">will follow</tspan></text>
	<rect x="166.917" y="519.119" fill="none" width="103.128" height="131.242"/>
	<text transform="matrix(1 0 0 1 166.9175 526.2378)"><tspan x="0" y="0" fill="#1A181C" font-family="'SourceSansPro-Regular'" font-size="10">US Congress rejected </tspan><tspan x="0" y="12" fill="#1A181C" font-family="'SourceSansPro-Regular'" font-size="10">KP. </tspan><tspan x="0" y="36" fill="#1A181C" font-family="'SourceSansPro-Regular'" font-size="10">AR3 published</tspan></text>
	<rect x="276.406" y="519.119" fill="none" width="108.649" height="131.242"/>
	<text transform="matrix(1 0 0 1 276.4058 526.2388)"><tspan x="0" y="0" fill="#1A181C" font-family="'SourceSansPro-Regular'" font-size="10">Johannesburg World </tspan><tspan x="0" y="12" fill="#1A181C" font-family="'SourceSansPro-Regular'" font-size="10">Summit on Sustainable </tspan><tspan x="0" y="24" fill="#1A181C" font-family="'SourceSansPro-Regular'" font-size="10">development</tspan></text>
	<rect x="393.394" y="519.119" fill="none" width="103.128" height="131.242"/>
	<text transform="matrix(1 0 0 1 393.394 526.2378)" fill="#1A181C" font-family="'SourceSansPro-Regular'" font-size="10">Katrina hurricane</text>
	<rect x="501.383" y="519.119" fill="none" width="99.953" height="131.242"/>
	<text transform="matrix(1 0 0 1 501.3828 526.2378)"><tspan x="0" y="0" fill="#1A181C" font-family="'SourceSansPro-Regular'" font-size="10">Firm agreement on </tspan><tspan x="0" y="12" fill="#1A181C" font-family="'SourceSansPro-Regular'" font-size="10">evidence of the </tspan><tspan x="0" y="24" fill="#1A181C" font-family="'SourceSansPro-Regular'" font-size="10">reality and the </tspan><tspan x="0" y="36" fill="#1A181C" font-family="'SourceSansPro-Regular'" font-size="10">origine of climate </tspan><tspan x="0" y="48" fill="#1A181C" font-family="'SourceSansPro-Regular'" font-size="10">change will emerge </tspan><tspan x="0" y="60" fill="#1A181C" font-family="'SourceSansPro-Regular'" font-size="10">in the AR4. </tspan><tspan x="0" y="84" fill="#1A181C" font-family="'SourceSansPro-Regular'" font-size="10">IPCC received Peace </tspan><tspan x="0" y="96" fill="#1A181C" font-family="'SourceSansPro-Regular'" font-size="10">Nobel Prize. </tspan></text>
	<rect x="613.871" y="519.119" fill="none" width="103.127" height="131.242"/>
	<text transform="matrix(1 0 0 1 613.8711 526.2378)" fill="#1A181C" font-family="'SourceSansPro-Regular'" font-size="10">Subprimes crises</text>
	<rect x="726.359" y="519.119" fill="none" width="106.641" height="131.242"/>
	<text transform="matrix(1 0 0 1 726.3594 526.2388)"><tspan x="0" y="0" fill="#1A181C" font-family="'SourceSansPro-Regular'" font-size="10">Perry et al (2009) </tspan><tspan x="0" y="12" fill="#1A181C" font-family="'SourceSansPro-Regular'" font-size="10">claim UNFCCC&apos;s </tspan><tspan x="0" y="24" fill="#1A181C" font-family="'SourceSansPro-Regular'" font-size="10">estimations fall short </tspan><tspan x="0" y="36" fill="#1A181C" font-family="'SourceSansPro-Regular'" font-size="10">on costs of adapta</tspan><tspan x="85.866" y="36" fill="#1A181C" font-family="'SourceSansPro-Regular'" font-size="10">-</tspan><tspan x="0" y="48" fill="#1A181C" font-family="'SourceSansPro-Regular'" font-size="10">tion. </tspan><tspan x="0" y="72" fill="#1A181C" font-family="'SourceSansPro-Regular'" font-size="10">Climategate,</tspan><tspan x="0" y="84" fill="#1A181C" font-family="'SourceSansPro-Regular'" font-size="10">growing distrust</tspan><tspan x="0" y="96" fill="#1A181C" font-family="'SourceSansPro-Regular'" font-size="10">in climate science</tspan></text>
	<rect x="842.666" y="519.119" fill="none" width="102.834" height="131.242"/>
	<text transform="matrix(1 0 0 1 842.666 526.2388)"><tspan x="0" y="0" fill="#1A181C" font-family="'SourceSansPro-Regular'" font-size="10">Philippines typhoon. </tspan><tspan x="0" y="24" fill="#1A181C" font-family="'SourceSansPro-Regular'" font-size="10">Scientists warn </tspan><tspan x="0" y="36" fill="#1A181C" font-family="'SourceSansPro-Regular'" font-size="10">actions are insuff</tspan><tspan x="82.946" y="36" fill="#1A181C" font-family="'SourceSansPro-Regular'" font-size="10">-</tspan><tspan x="0" y="48" fill="#1A181C" font-family="'SourceSansPro-Regular'" font-size="10">cient to meet the 2C </tspan><tspan x="0" y="60" fill="#1A181C" font-family="'SourceSansPro-Regular'" font-size="10">goal </tspan></text>
	<g>
		<rect x="961.336" y="519.119" fill="none" width="96.816" height="131.242"/>
		<text transform="matrix(1 0 0 1 961.3359 526.2378)"><tspan x="0" y="0" fill="#1A181C" font-family="'SourceSansPro-Regular'" font-size="10">Hurricane Sandy hit </tspan><tspan x="0" y="12" fill="#1A181C" font-family="'SourceSansPro-Regular'" font-size="10">NY in October. </tspan><tspan x="0" y="24" fill="#1A181C" font-family="'SourceSansPro-Regular'" font-size="10">Typhoon Bopha hit </tspan><tspan x="0" y="36" fill="#1A181C" font-family="'SourceSansPro-Regular'" font-size="10">Philippines</tspan></text>
	</g>
	<rect x="1063.824" y="519.119" fill="none" width="103.127" height="131.242"/>
	<text transform="matrix(1 0 0 1 1063.8232 526.2378)"><tspan x="0" y="0" fill="#1A181C" font-family="'SourceSansPro-Regular'" font-size="10">Typhoon Haiyan hits </tspan><tspan x="0" y="12" fill="#1A181C" font-family="'SourceSansPro-Regular'" font-size="10">the Philippines again</tspan></text>
	<g>
		<text transform="matrix(1.0292 0 0 1 67.2305 29.7124)" fill="#323132" font-family="'SourceSansPro-Regular'" font-size="11">Sub-Saharan Africa </text>
	</g>
	<g>
		<text transform="matrix(1.0292 0 0 1 198.2305 29.7124)" fill="#323132" font-family="'SourceSansPro-Regular'" font-size="11">Middle East and North Africa </text>
	</g>
	<g>
		<text transform="matrix(1.0292 0 0 1 367.2305 29.7124)" fill="#323132" font-family="'SourceSansPro-Regular'" font-size="11">Latin America and the Caribbean </text>
	</g>
	<g>
		<text transform="matrix(1.0292 0 0 1 557.2305 29.7124)" fill="#323132" font-family="'SourceSansPro-Regular'" font-size="11">Global</text>
	</g>
	<g>
		<text transform="matrix(1.0292 0 0 1 629.2305 29.7124)" fill="#323132" font-family="'SourceSansPro-Regular'" font-size="11">Europe and Central Asia </text>
	</g>
	<g>
		<text transform="matrix(1.0292 0 0 1 777.2305 29.7124)" fill="#323132" font-family="'SourceSansPro-Regular'" font-size="11">Asia and Pacific </text>
	</g>
	<g>
		<text transform="matrix(1.0292 0 0 1 898.2305 29.7124)" fill="#323132" font-family="'SourceSansPro-Regular'" font-size="11">Unknown</text>
	</g>
	<g>
		<text transform="matrix(1.0292 0 0 1 165.7041 377.8823)"><tspan x="0" y="0" fill="#323132" font-family="'SourceSansPro-Semibold'" font-size="11">COP 02</tspan><tspan x="-0.341" y="13.2" fill="#323132" font-family="'SourceSansPro-Regular'" font-size="11">Geneva</tspan></text>
	</g>
	<g>
		<text transform="matrix(1.0292 0 0 1 219.1431 377.8823)"><tspan x="0" y="0" fill="#323132" font-family="'SourceSansPro-Semibold'" font-size="11">COP 03</tspan><tspan x="3.294" y="13.2" fill="#323132" font-family="'SourceSansPro-Regular'" font-size="11">Kyoto</tspan></text>
	</g>
	<g>
		<text transform="matrix(1.0292 0 0 1 272.5825 377.8823)"><tspan x="0" y="0" fill="#323132" font-family="'SourceSansPro-Semibold'" font-size="11">COP 04</tspan><tspan x="-0.347" y="13.2" fill="#323132" font-family="'SourceSansPro-Regular'" font-size="11">Buenos</tspan><tspan x="5.582" y="26.4" fill="#323132" font-family="'SourceSansPro-Regular'" font-size="11">Aires</tspan></text>
	</g>
	<g>
		<text transform="matrix(1.0292 0 0 1 326.0229 377.8823)"><tspan x="0" y="0" fill="#323132" font-family="'SourceSansPro-Semibold'" font-size="11">COP 05</tspan><tspan x="4.603" y="13.2" fill="#323132" font-family="'SourceSansPro-Regular'" font-size="11">Bonn</tspan></text>
	</g>
	<g>
		<text transform="matrix(1.0292 0 0 1 429.7437 377.8823)"><tspan x="0" y="0" fill="#323132" font-family="'SourceSansPro-Semibold'" font-size="11">COP 06b</tspan><tspan x="7.672" y="13.2" fill="#323132" font-family="'SourceSansPro-Regular'" font-size="11">Bonn</tspan></text>
	</g>
	<g>
		<text transform="matrix(1.0292 0 0 1 646.6602 377.8823)"><tspan x="0" y="0" fill="#323132" font-family="'SourceSansPro-Semibold'" font-size="11">COP 10</tspan><tspan x="-1.424" y="13.2" fill="#323132" font-family="'SourceSansPro-Regular'" font-size="11">Buenos </tspan><tspan x="5.583" y="26.4" fill="#323132" font-family="'SourceSansPro-Regular'" font-size="11">Aires</tspan></text>
	</g>
	<g>
		<text transform="matrix(1.0292 0 0 1 539.7822 377.8823)"><tspan x="0" y="0" fill="#323132" font-family="'SourceSansPro-Semibold'" font-size="11">COP 08</tspan><tspan x="5.489" y="13.2" fill="#323132" font-family="'SourceSansPro-Regular'" font-size="11">New </tspan><tspan x="5.01" y="26.4" fill="#323132" font-family="'SourceSansPro-Regular'" font-size="11">Delhi</tspan></text>
	</g>
	<g>
		<text transform="matrix(1.0292 0 0 1 379.4624 377.8823)"><tspan x="0" y="0" fill="#323132" font-family="'SourceSansPro-Semibold'" font-size="11">COP 06</tspan><tspan x="-7.673" y="13.2" fill="#323132" font-family="'SourceSansPro-Regular'" font-size="11">The Hague</tspan></text>
	</g>
	<g>
		<text transform="matrix(1.0292 0 0 1 593.2217 377.8823)"><tspan x="0" y="0" fill="#323132" font-family="'SourceSansPro-Semibold'" font-size="11">COP 09</tspan><tspan x="4.291" y="13.2" fill="#323132" font-family="'SourceSansPro-Regular'" font-size="11">Milan</tspan></text>
	</g>
	<g>
		<text transform="matrix(1.0292 0 0 1 700.1016 377.8823)"><tspan x="0" y="0" fill="#323132" font-family="'SourceSansPro-Semibold'" font-size="11">COP 11</tspan><tspan x="-3.735" y="13.2" fill="#323132" font-family="'SourceSansPro-Regular'" font-size="11">Montreal</tspan></text>
	</g>
	<g>
		<text transform="matrix(1.0292 0 0 1 753.54 377.8823)"><tspan x="0" y="0" fill="#323132" font-family="'SourceSansPro-Semibold'" font-size="11">COP 12</tspan><tspan x="-0.087" y="13.2" fill="#323132" font-family="'SourceSansPro-Regular'" font-size="11">Nairobi</tspan></text>
	</g>
	<g>
		<text transform="matrix(1.0292 0 0 1 806.9795 377.8823)"><tspan x="0" y="0" fill="#323132" font-family="'SourceSansPro-Semibold'" font-size="11">COP 13</tspan><tspan x="8.03" y="13.2" fill="#323132" font-family="'SourceSansPro-Regular'" font-size="11">Bali</tspan></text>
	</g>
	<g>
		<text transform="matrix(1.0292 0 0 1 860.4209 377.8823)"><tspan x="0" y="0" fill="#323132" font-family="'SourceSansPro-Semibold'" font-size="11">COP 14</tspan><tspan x="-0.417" y="13.2" fill="#323132" font-family="'SourceSansPro-Regular'" font-size="11">Poznan</tspan></text>
	</g>
	<g>
		<text transform="matrix(1.0292 0 0 1 913.8594 377.8823)"><tspan x="0" y="0" fill="#323132" font-family="'SourceSansPro-Semibold'" font-size="11">COP 15</tspan><tspan x="-12.193" y="13.2" fill="#323132" font-family="'SourceSansPro-Regular'" font-size="11">Copenhagen</tspan></text>
	</g>
	<g>
		<text transform="matrix(1.0292 0 0 1 967.2998 377.8823)"><tspan x="0" y="0" fill="#323132" font-family="'SourceSansPro-Semibold'" font-size="11">COP 16</tspan><tspan x="-0.572" y="13.2" fill="#323132" font-family="'SourceSansPro-Regular'" font-size="11">Cancun</tspan></text>
	</g>
	<g>
		<text transform="matrix(1.0292 0 0 1 1020.7393 377.8823)"><tspan x="0" y="0" fill="#323132" font-family="'SourceSansPro-Semibold'" font-size="11">COP 17</tspan><tspan x="-0.258" y="13.2" fill="#323132" font-family="'SourceSansPro-Regular'" font-size="11">Durban</tspan></text>
	</g>
	<g>
		<text transform="matrix(1.0292 0 0 1 1074.1787 377.8823)"><tspan x="0" y="0" fill="#323132" font-family="'SourceSansPro-Semibold'" font-size="11">COP 18</tspan><tspan x="4.664" y="13.2" fill="#323132" font-family="'SourceSansPro-Regular'" font-size="11">Doha</tspan></text>
	</g>
	<g>
		<text transform="matrix(1.0292 0 0 1 1127.6172 377.8823)"><tspan x="0" y="0" fill="#323132" font-family="'SourceSansPro-Semibold'" font-size="11">COP 19</tspan><tspan x="-1.215" y="13.2" fill="#323132" font-family="'SourceSansPro-Regular'" font-size="11">Warsaw</tspan></text>
	</g>
	<g>
		<text transform="matrix(1.0292 0 0 1 60.6807 377.8823)"><tspan x="0" y="0" fill="#323132" font-family="'SourceSansPro-Semibold'" font-size="11">INC 11</tspan><tspan x="-6.413" y="13.2" fill="#323132" font-family="'SourceSansPro-Regular'" font-size="11">New York</tspan></text>
	</g>
	<g>
		<text transform="matrix(1.0292 0 0 1 115.1328 377.8823)"><tspan x="0" y="0" fill="#323132" font-family="'SourceSansPro-Semibold'" font-size="11">COP 1</tspan><tspan x="0.479" y="13.2" fill="#323132" font-family="'SourceSansPro-Regular'" font-size="11">Berlin</tspan></text>
	</g>
	<g>
		<text transform="matrix(1.0292 0 0 1 486.3428 377.8823)"><tspan x="0" y="0" fill="#323132" font-family="'SourceSansPro-Semibold'" font-size="11">COP 07</tspan><tspan x="-7.398" y="13.2" fill="#323132" font-family="'SourceSansPro-Regular'" font-size="11">Marrakech</tspan></text>
	</g>
	<g>
		<text transform="matrix(1 0 0 1 39.8569 358.0229)" font-family="'SourceSansPro-Regular'" font-size="12">0</text>
	</g>
	<g>
		<text transform="matrix(1 0 0 1 27.9292 299.9199)" font-family="'SourceSansPro-Regular'" font-size="12">100</text>
	</g>
	<g>
		<text transform="matrix(1 0 0 1 27.9292 242.1523)" font-family="'SourceSansPro-Regular'" font-size="12">200</text>
	</g>
	<g>
		<text transform="matrix(1 0 0 1 27.9292 184.3828)" font-family="'SourceSansPro-Regular'" font-size="12">300</text>
	</g>
	<g>
		<text transform="matrix(1 0 0 1 27.9292 125.1572)" font-family="'SourceSansPro-Regular'" font-size="12">400</text>
	</g>
	<g>
		<text transform="matrix(1 0 0 1 27.9292 67.3877)" font-family="'SourceSansPro-Regular'" font-size="12">500</text>
	</g>
	<g>
		<text transform="matrix(0 -1 1 0 10.4312 238.0908)"><tspan x="0" y="0" font-family="'SourceSansPro-Bold'" font-size="11">MILLIONS $</tspan><tspan x="-0.407" y="10.307" font-family="'SourceSansPro-Bold'" font-size="11">DISBURSED</tspan></text>
	</g>
	<text transform="matrix(0 -1 1 0 10.4312 574.4067)" font-family="'SourceSansPro-Bold'" font-size="11">EVENTS</text>
	<text transform="matrix(1 0 0 1 51.4297 8.5205)" font-family="'SourceSansPro-Semibold'" font-size="11">GEOGRAPHICAL  AREAS RECEIVING FUNDING</text>
	<g>
		
			<text transform="matrix(1.0292 0 0 1 169.5581 432.4634)" fill="#323132" font-family="'SourceSansPro-Bold'" font-size="11.0146" letter-spacing="0.972">1996</text>
	</g>
	<g>
		
			<text transform="matrix(1.0292 0 0 1 223.1196 432.4634)" fill="#323132" font-family="'SourceSansPro-Bold'" font-size="11.0146" letter-spacing="0.972">1997</text>
	</g>
	<g>
		
			<text transform="matrix(1.0292 0 0 1 276.6812 432.4634)" fill="#323132" font-family="'SourceSansPro-Bold'" font-size="11.0146" letter-spacing="0.972">1998</text>
	</g>
	<g>
		
			<text transform="matrix(1.0292 0 0 1 330.2432 432.4634)" fill="#323132" font-family="'SourceSansPro-Bold'" font-size="11.0146" letter-spacing="0.972">1999</text>
	</g>
	<g>
		
			<text transform="matrix(1.0292 0 0 1 383.8052 432.4634)" fill="#323132" font-family="'SourceSansPro-Bold'" font-size="11.0146" letter-spacing="0.972">2000</text>
	</g>
	<g>
		
			<text transform="matrix(1.0292 0 0 1 431.4556 432.4634)" fill="#323132" font-family="'SourceSansPro-Bold'" font-size="11.0146" letter-spacing="0.972">2001</text>
	</g>
	<g>
		
			<text transform="matrix(1.0292 0 0 1 543.4712 432.4634)" fill="#323132" font-family="'SourceSansPro-Bold'" font-size="11.0146" letter-spacing="0.972">2002</text>
	</g>
	<g>
		
			<text transform="matrix(1.0292 0 0 1 596.0137 432.4634)" fill="#323132" font-family="'SourceSansPro-Bold'" font-size="11.0146" letter-spacing="0.972">2003</text>
	</g>
	<g>
		
			<text transform="matrix(1.0292 0 0 1 649.5742 432.4634)" fill="#323132" font-family="'SourceSansPro-Bold'" font-size="11.0146" letter-spacing="0.972">2004</text>
	</g>
	<g>
		
			<text transform="matrix(1.0292 0 0 1 702.3818 432.4634)" fill="#323132" font-family="'SourceSansPro-Bold'" font-size="11.0146" letter-spacing="0.972">2005</text>
	</g>
	<g>
		
			<text transform="matrix(1.0292 0 0 1 756.4424 432.2085)" fill="#323132" font-family="'SourceSansPro-Bold'" font-size="11.0146" letter-spacing="0.972">2006</text>
	</g>
	<g>
		
			<text transform="matrix(1.0292 0 0 1 810.5332 432.4634)" fill="#323132" font-family="'SourceSansPro-Bold'" font-size="11.0146" letter-spacing="0.972">2007</text>
	</g>
	<g>
		
			<text transform="matrix(1.0292 0 0 1 863.9736 432.4634)" fill="#323132" font-family="'SourceSansPro-Bold'" font-size="11.0146" letter-spacing="0.972">2008</text>
	</g>
	<g>
		
			<text transform="matrix(1.0292 0 0 1 917.4141 432.4634)" fill="#323132" font-family="'SourceSansPro-Bold'" font-size="11.0146" letter-spacing="0.972">2009</text>
	</g>
	<g>
		
			<text transform="matrix(1.0292 0 0 1 970.8535 432.4634)" fill="#323132" font-family="'SourceSansPro-Bold'" font-size="11.0146" letter-spacing="0.972">2010</text>
	</g>
	<g>
		
			<text transform="matrix(1.0292 0 0 1 1023.5576 432.4634)" fill="#323132" font-family="'SourceSansPro-Bold'" font-size="11.0146" letter-spacing="0.972">2011</text>
	</g>
	<g>
		
			<text transform="matrix(1.0292 0 0 1 1075.7793 432.4634)" fill="#323132" font-family="'SourceSansPro-Bold'" font-size="11.0146" letter-spacing="0.972">2012</text>
	</g>
	<g>
		
			<text transform="matrix(1.0292 0 0 1 1129.2539 432.4634)" fill="#323132" font-family="'SourceSansPro-Bold'" font-size="11.0146" letter-spacing="0.972">2013</text>
	</g>
	<g>
		
			<text transform="matrix(1.0292 0 0 1 58.8442 432.4634)" fill="#323132" font-family="'SourceSansPro-Bold'" font-size="11.0146" letter-spacing="0.972">1995</text>
	</g>
	<g>
		<text transform="matrix(-4.371139e-08 -1 1 -4.371139e-08 10.4307 392.2358)" font-family="'SourceSansPro-Bold'" font-size="11">COP</text>
	</g>
</g>
</svg>
