<?xml version="1.0" encoding="utf-8"?>
<!-- Generator: Adobe Illustrator 15.0.0, SVG Export Plug-In . SVG Version: 6.00 Build 0)  -->
<!DOCTYPE svg PUBLIC "-//W3C//DTD SVG 1.1//EN" "http://www.w3.org/Graphics/SVG/1.1/DTD/svg11.dtd">
<svg version="1.1" xmlns="http://www.w3.org/2000/svg" xmlns:xlink="http://www.w3.org/1999/xlink" x="0px" y="0px" width="1170px"
	 height="624.938px" viewBox="0 0 1170 624.938" enable-background="new 0 0 1170 624.938" xml:space="preserve">
<g id="flows">
	<path opacity="0.75" fill="none" stroke="#F05C55" stroke-width="25.9091" enable-background="new    " d="M10,367.645
		c575,0,575,100.385,1150,100.385"/>
	<path opacity="0.75" fill="none" stroke="#F05C55" stroke-width="7.5374" enable-background="new    " d="M10,350.92
		c575,0,575,93.688,1150,93.688"/>
	<path opacity="0.75" fill="none" stroke="#F1825D" stroke-width="4.9225" enable-background="new    " d="M10,247.865
		c575,0,575-167.309,1150-167.309"/>
	<path opacity="0.75" fill="none" stroke="#F1825D" stroke-width="4.7299" enable-background="new    " d="M10,252.693
		c575,0,575-160.612,1150-160.612"/>
	<path opacity="0.75" fill="none" stroke="#EDBF64" stroke-width="4.207" enable-background="new    " d="M10,402.742
		c575,0,575,214.154,1150,214.154"/>
	<path opacity="0.75" fill="none" stroke="#F05C55" stroke-width="3.7249" enable-background="new    " d="M10,345.284
		c575,0,575,87,1150,87"/>
	<path opacity="0.75" fill="none" stroke="#01434C" stroke-width="3.6993" enable-background="new    " d="M10,314.403
		c575,0,575,6.69,1150,6.69"/>
	<path opacity="0.75" fill="none" stroke="#01434C" stroke-width="2.6904" enable-background="new    " d="M10,311.208
		c575,0,575,0,1150,0"/>
	<path opacity="0.75" fill="none" stroke="#F05C55" stroke-width="2.5103" enable-background="new    " d="M10,342.17
		c575,0,575,80.312,1150,80.312"/>
	<path opacity="0.75" fill="none" stroke="#EDBF64" stroke-width="2.3083" enable-background="new    " d="M10,399.489
		c575,0,575,207.462,1150,207.462"/>
	<path opacity="0.75" fill="none" stroke="#F1825D" stroke-width="2.1981" enable-background="new    " d="M10,244.306
		c575,0,575-174,1150-174"/>
	<path opacity="0.75" fill="none" stroke="#F05C55" stroke-width="1.5256" enable-background="new    " d="M10,339.078
		c575,0,575,66.929,1150,66.929"/>
	<path opacity="0.75" fill="none" stroke="#EDBF64" stroke-width="1.238" enable-background="new    " d="M10,397.719
		c575,0,575,200.77,1150,200.77"/>
	<path opacity="0.75" fill="none" stroke="#F1825D" stroke-width="1.2297" enable-background="new    " d="M10,242.592
		c575,0,575-180.69,1150-180.69"/>
	<path opacity="0.75" fill="none" stroke="#296275" stroke-width="1.2186" enable-background="new    " d="M10,284.272
		c575,0,575-100.386,1150-100.386"/>
	<path opacity="0.75" fill="none" stroke="#AFCDCC" stroke-width="1.137" enable-background="new    " d="M10,301.991
		c575,0,575-6.688,1150-6.688"/>
	<path opacity="0.75" fill="none" stroke="#F05C55" stroke-width="1.0699" enable-background="new    " d="M10,340.382
		c575,0,575,73.61,1150,73.61"/>
	<path opacity="0.75" fill="none" stroke="#296275" enable-background="new    " d="M10,285.294c575,0,575-93.691,1150-93.691"/>
	<path opacity="0.75" fill="none" stroke="#F1825D" enable-background="new    " d="M10,240.806c575,0,575-200.771,1150-200.771"/>
	<path opacity="0.75" fill="none" stroke="#EDBF64" enable-background="new    " d="M10,396.142c575,0,575,187.384,1150,187.384"/>
	<path opacity="0.75" fill="none" stroke="#EDBF64" enable-background="new    " d="M10,396.781c575,0,575,194.077,1150,194.077"/>
	<path opacity="0.75" fill="none" stroke="#AFCDCC" enable-background="new    " d="M10,301.114c575,0,575-13.386,1150-13.386"/>
	<path opacity="0.75" fill="none" stroke="#01434C" enable-background="new    " d="M10,309.561c575,0,575-6.691,1150-6.691"/>
	<path opacity="0.75" fill="none" stroke="#EDBF64" enable-background="new    " d="M10,395.479c575,0,575,174,1150,174"/>
	<path opacity="0.75" fill="none" stroke="#F05C55" enable-background="new    " d="M10,338.031c575,0,575,60.23,1150,60.23"/>
	<path opacity="0.75" fill="none" stroke="#AFCDCC" enable-background="new    " d="M10,300.524c575,0,575-20.077,1150-20.077"/>
	<path opacity="0.75" fill="none" stroke="#F1825D" enable-background="new    " d="M10,241.727c575,0,575-187.386,1150-187.386"/>
	<path opacity="0.75" fill="none" stroke="#EDBF64" enable-background="new    " d="M10,394.781c575,0,575,147.23,1150,147.23"/>
	<path opacity="0.75" fill="none" stroke="#CCCACA" enable-background="new    " d="M10,323.178c575,0,575,13.386,1150,13.386"/>
	<path opacity="0.75" fill="none" stroke="#F05C55" enable-background="new    " d="M10,337.398c575,0,575,33.461,1150,33.461"/>
	<path opacity="0.75" fill="none" stroke="#296275" enable-background="new    " d="M10,283.394c575,0,575-113.771,1150-113.771"/>
	<path opacity="0.75" fill="none" stroke="#296275" enable-background="new    " d="M10,282.723c575,0,575-133.847,1150-133.847"/>
	<path opacity="0.75" fill="none" stroke="#F05C55" enable-background="new    " d="M10,336.993c575,0,575,20.077,1150,20.077"/>
	<path opacity="0.75" fill="none" stroke="#CCCACA" enable-background="new    " d="M10,233.444c575,0,575-207.461,1150-207.461"/>
	<path opacity="0.75" fill="none" stroke="#F1825D" enable-background="new    " d="M10,241.322c575,0,575-194.073,1150-194.073"/>
	<path opacity="0.75" fill="none" stroke="#EDBF64" enable-background="new    " d="M10,394.284c575,0,575,127.154,1150,127.154"/>
	<path opacity="0.75" fill="none" stroke="#296275" enable-background="new    " d="M10,285.851c575,0,575-87,1150-87"/>
	<path opacity="0.75" fill="none" stroke="#296275" enable-background="new    " d="M10,283.041c575,0,575-127.153,1150-127.153"/>
	<path opacity="0.75" fill="none" stroke="#296275" enable-background="new    " d="M10,282.365c575,0,575-147.229,1150-147.229"/>
	<path opacity="0.75" fill="none" stroke="#CCCACA" enable-background="new    " d="M10,261.883c575,0,575-160.615,1150-160.615"/>
	<path opacity="0.75" fill="none" stroke="#F1825D" enable-background="new    " d="M10,240.373c575,0,575-207.461,1150-207.461"/>
	<path opacity="0.75" fill="none" stroke="#CCCACA" enable-background="new    " d="M10,293.142c575,0,575-46.847,1150-46.847"/>
	<path opacity="0.75" fill="none" stroke="#CCCACA" enable-background="new    " d="M10,233.218c575,0,575-214.152,1150-214.152"/>
	<path opacity="0.75" fill="none" stroke="#CCCACA" enable-background="new    " d="M10,293.263c575,0,575-40.152,1150-40.152"/>
	<path opacity="0.75" fill="none" stroke="#CCCACA" enable-background="new    " d="M10,293.022c575,0,575-53.539,1150-53.539"/>
	<path opacity="0.75" fill="none" stroke="#F05C55" enable-background="new    " d="M10,337.687c575,0,575,46.846,1150,46.846"/>
	<path opacity="0.75" fill="none" stroke="#296275" enable-background="new    " d="M10,283.617c575,0,575-107.077,1150-107.077"/>
	<path opacity="0.75" fill="none" stroke="#CCCACA" enable-background="new    " d="M10,293.361c575,0,575-33.461,1150-33.461"/>
	<path opacity="0.75" fill="none" stroke="#EDBF64" enable-background="new    " d="M10,395.058c575,0,575,153.923,1150,153.923"/>
	<path opacity="0.75" fill="none" stroke="#CCCACA" enable-background="new    " d="M10,292.928c575,0,575-60.229,1150-60.229"/>
	<path opacity="0.75" fill="none" stroke="#AFCDCC" enable-background="new    " d="M10,300.133c575,0,575-33.461,1150-33.461"/>
	<path opacity="0.75" fill="none" stroke="#AFCDCC" enable-background="new    " d="M10,300.209c575,0,575-26.771,1150-26.771"/>
	<path opacity="0.75" fill="none" stroke="#CCCACA" enable-background="new    " d="M10,292.756c575,0,575-80.312,1150-80.312"/>
	<path opacity="0.75" fill="none" stroke="#CCCACA" enable-background="new    " d="M10,387.355c575,0,575,113.77,1150,113.77"/>
	<path opacity="0.75" fill="none" stroke="#CCCACA" enable-background="new    " d="M10,292.824c575,0,575-73.615,1150-73.615"/>
	<path opacity="0.75" fill="none" stroke="#EDBF64" enable-background="new    " d="M10,394.47c575,0,575,133.846,1150,133.846"/>
	<path opacity="0.75" fill="none" stroke="#CCCACA" enable-background="new    " d="M10,275.486c575,0,575-153.924,1150-153.924"/>
	<path opacity="0.75" fill="none" stroke="#EDBF64" enable-background="new    " d="M10,395.119c575,0,575,160.615,1150,160.615"/>
	<path opacity="0.75" fill="none" stroke="#F05C55" enable-background="new    " d="M10,337.609c575,0,575,40.153,1150,40.153"/>
	<path opacity="0.75" fill="none" stroke="#CCCACA" enable-background="new    " d="M10,330.109c575,0,575,20.076,1150,20.076"/>
	<path opacity="0.75" fill="none" stroke="#EDBF64" enable-background="new    " d="M10,394.525c575,0,575,140.538,1150,140.538"/>
	<path opacity="0.75" fill="none" stroke="#CCCACA" enable-background="new    " d="M10,322.966c575,0,575,6.688,1150,6.688"/>
	<path opacity="0.75" fill="none" stroke="#EDBF64" enable-background="new    " d="M10,395.785c575,0,575,180.692,1150,180.692"/>
	<path opacity="0.75" fill="none" stroke="#F05C55" enable-background="new    " d="M10,337.191c575,0,575,26.771,1150,26.771"/>
	<path opacity="0.75" fill="none" stroke="#296275" enable-background="new    " d="M10,282.525c575,0,575-140.539,1150-140.539"/>
	<path opacity="0.75" fill="none" stroke="#EDBF64" enable-background="new    " d="M10,394.119c575,0,575,120.466,1150,120.466"/>
	<path opacity="0.75" fill="none" stroke="#CCCACA" enable-background="new    " d="M10,268.726c575,0,575-160.614,1150-160.614"/>
	<path opacity="0.75" fill="none" stroke="#CCCACA" enable-background="new    " d="M10,292.701c575,0,575-87,1150-87"/>
	<path opacity="0.75" fill="none" stroke="#CCCACA" enable-background="new    " d="M10,292.872c575,0,575-66.923,1150-66.923"/>
	<path opacity="0.75" fill="none" stroke="#EDBF64" enable-background="new    " d="M10,395.167c575,0,575,167.311,1150,167.311"/>
	<path opacity="0.75" fill="none" stroke="#296275" enable-background="new    " d="M10,283.197c575,0,575-120.461,1150-120.461"/>
	<path opacity="0.75" fill="none" stroke="#CCCACA" enable-background="new    " d="M10,330.069c575,0,575,13.385,1150,13.385"/>
	<path opacity="0.75" fill="none" stroke="#CCCACA" enable-background="new    " d="M10,387.403c575,0,575,120.461,1150,120.461"/>
	<path opacity="0.75" fill="none" stroke="#CCCACA" enable-background="new    " d="M10,387.308c575,0,575,107.075,1150,107.075"/>
	<path opacity="0.75" fill="none" stroke="#CCCACA" enable-background="new    " d="M10,268.753c575,0,575-153.924,1150-153.924"/>
	<path opacity="0.75" fill="none" stroke="#CCCACA" enable-background="new    " d="M10,275.525c575,0,575-147.229,1150-147.229"/>
	<path opacity="0.75" fill="none" stroke="#F05C55" enable-background="new    " d="M10,337.74c575,0,575,53.537,1150,53.537"/>
	<path opacity="0.75" fill="none" stroke="#CCCACA" enable-background="new    " d="M10,387.287c575,0,575,100.392,1150,100.392"/>
</g>
<g id="interactive">
	<rect x="1160" y="575.983" width="10" height="1">
	<title>Agricultural alternative development (4)</title>
	</rect>
	<rect x="1160" y="561.973" width="10" height="1">
	<title>Agricultural co-operatives (3)</title>
	</rect>
	<rect x="1160" y="605.797" width="10" height="2.311">
	<title>Agricultural development (207)</title>
	</rect>
	<rect x="1160" y="555.24" width="10" height="1">
	<title>Agricultural education/training (5)</title>
	</rect>
	<rect x="1160" y="597.865" width="10" height="1.237">
	<title>Agricultural extension (111)</title>
	</rect>
	<rect x="1160" y="548.479" width="10" height="1">
	<title>Agricultural financial services (7)</title>
	</rect>
	<rect x="1160" y="534.561" width="10" height="1">
	<title>Agricultural inputs (4)</title>
	</rect>
	<rect x="1160" y="590.359" width="10" height="1">
	<title>Agricultural land resources (57)</title>
	</rect>
	<rect x="1160" y="583.023" width="10" height="1">
	<title>Agricultural policy and admin. mgmt (59)</title>
	</rect>
	<rect x="1160" y="568.979" width="10" height="1">
	<title>Agricultural research (52)</title>
	</rect>
	<rect x="1160" y="527.813" width="10" height="1">
	<title>Agricultural services (6)</title>
	</rect>
	<rect x="1160" y="614.798" width="10" height="4.206">
	<title>Agricultural water resources (377)</title>
	</rect>
	<rect x="1160" y="127.793" width="10" height="1">
	<title>Agro-industries (2)</title>
	</rect>
	<rect x="1160" y="46.746" width="10" height="1">
	<title>Basic drinking water supply (27)</title>
	</rect>
	<rect x="1160" y="53.841" width="10" height="1">
	<title>Basic drinking water supply and basic sanitation (45)</title>
	</rect>
	<rect x="1160" y="507.365" width="10" height="1">
	<title>Basic health infrastructure (2)</title>
	</rect>
	<rect x="1160" y="500.618" width="10" height="1">
	<title>Basic nutrition (7)</title>
	</rect>
	<rect x="1160" y="440.846" width="10" height="7.535">
	<title>Bio-diversity (675)</title>
	</rect>
	<rect x="1160" y="198.35" width="10" height="1">
	<title>Biomass (26)</title>
	</rect>
	<rect x="1160" y="421.226" width="10" height="2.511">
	<title>Biosphere protection (225)</title>
	</rect>
	<rect x="1160" y="259.399" width="10" height="1">
	<title>Decentralisation and support to subnational govt. (7)</title>
	</rect>
	<rect x="1160" y="252.609" width="10" height="1">
	<title>Democratic participation and civil society (10)</title>
	</rect>
	<rect x="1160" y="319.241" width="10" height="3.698">
	<title>Disaster prevention and preparedness (331)</title>
	</rect>
	<rect x="1160" y="493.881" width="10" height="1">
	<title>Education policy and admin. management (2)</title>
	</rect>
	<rect x="1160" y="176.041" width="10" height="1">
	<title>Electrical transmission/distribution (8)</title>
	</rect>
	<rect x="1160" y="162.236" width="10" height="1">
	<title>Energy education/training (3)</title>
	</rect>
	<rect x="1160" y="169.123" width="10" height="1">
	<title>Energy policy and admin. management (32)</title>
	</rect>
	<rect x="1160" y="397.766" width="10" height="1">
	<title>Environmental education/training (52)</title>
	</rect>
	<rect x="1160" y="455.073" width="10" height="25.909">
	<title>Environmental policy and admin. mgmt (2,320)</title>
	</rect>
	<rect x="1160" y="390.781" width="10" height="1">
	<title>Environmental policy and admin. Mgmt (1)</title>
	</rect>
	<rect x="1160" y="413.461" width="10" height="1.066">
	<title>Environmental research (96)</title>
	</rect>
	<rect x="1160" y="349.683" width="10" height="1">
	<title>Fishery research (5)</title>
	</rect>
	<rect x="1160" y="342.95" width="10" height="1">
	<title>Fishing policy and admin. management (2)</title>
	</rect>
	<rect x="1160" y="430.429" width="10" height="3.725">
	<title>Flood prevention/control (334)</title>
	</rect>
	<rect x="1160" y="336.06" width="10" height="1">
	<title>Food aid/Food security programmes (34)</title>
	</rect>
	<rect x="1160" y="541.512" width="10" height="1">
	<title>Food crop production (42)</title>
	</rect>
	<rect x="1160" y="287.229" width="10" height="1">
	<title>Forestry development (56)</title>
	</rect>
	<rect x="1160" y="272.939" width="10" height="1">
	<title>Forestry education/training (7)</title>
	</rect>
	<rect x="1160" y="294.735" width="10" height="1.141">
	<title>Forestry policy and admin. management (102)</title>
	</rect>
	<rect x="1160" y="266.171" width="10" height="1">
	<title>Forestry research (7)</title>
	</rect>
	<rect x="1160" y="279.947" width="10" height="1">
	<title>Fuelwood/charcoal (49)</title>
	</rect>
	<rect x="1160" y="329.158" width="10" height="1">
	<title>General budget support-related aid (4)</title>
	</rect>
	<rect x="1160" y="155.388" width="10" height="1">
	<title>Geothermal energy (25)</title>
	</rect>
	<rect x="1160" y="487.18" width="10" height="1">
	<title>Health policy and admin. management (0)</title>
	</rect>
	<rect x="1160" y="245.796" width="10" height="1">
	<title>Human rights (12)</title>
	</rect>
	<rect x="1160" y="191.1" width="10" height="1">
	<title>Hydro-electric power plants (74)</title>
	</rect>
	<rect x="1160" y="514.086" width="10" height="1">
	<title>Industrial crops/export crops (3)</title>
	</rect>
	<rect x="1160" y="520.944" width="10" height="1">
	<title>Livestock (26)</title>
	</rect>
	<rect x="1160" y="302.365" width="10" height="1">
	<title>Material relief assistance and services (54)</title>
	</rect>
	<rect x="1160" y="405.24" width="10" height="1.525">
	<title>Multisector aid (137)</title>
	</rect>
	<rect x="1160" y="384.031" width="10" height="1">
	<title>Multisector aid for basic soc. serv. (9)</title>
	</rect>
	<rect x="1160" y="377.262" width="10" height="1">
	<title>Multisector education/training (5)</title>
	</rect>
	<rect x="1160" y="238.983" width="10" height="1">
	<title>Participation in international peacekeeping operations (10)</title>
	</rect>
	<rect x="1160" y="114.328" width="10" height="1">
	<title>Personnel dvpt: pop. and repro health (2)</title>
	</rect>
	<rect x="1160" y="141.486" width="10" height="1">
	<title>Power generat./non-renewable sources (3)</title>
	</rect>
	<rect x="1160" y="183.278" width="10" height="1.222">
	<title>Power generation/renewable sources (109)</title>
	</rect>
	<rect x="1160" y="232.195" width="10" height="1">
	<title>Public sector policy and adm. management (7)</title>
	</rect>
	<rect x="1160" y="309.864" width="10" height="2.689">
	<title>Reconstruction relief and rehabilitation (241)</title>
	</rect>
	<rect x="1160" y="107.611" width="10" height="1">
	<title>Reproductive health care (3)</title>
	</rect>
	<rect x="1160" y="363.461" width="10" height="1">
	<title>Research/scientific institutions (4)</title>
	</rect>
	<rect x="1160" y="32.412" width="10" height="1">
	<title>River basins development (12)</title>
	</rect>
	<rect x="1160" y="100.768" width="10" height="1">
	<title>Road transport (24)</title>
	</rect>
	<rect x="1160" y="370.359" width="10" height="1">
	<title>Rural development (33)</title>
	</rect>
	<rect x="1160" y="61.284" width="10" height="1.229">
	<title>Sanitation - large systems (110)</title>
	</rect>
	<rect x="1160" y="225.449" width="10" height="1">
	<title>Security system management and reform (3)</title>
	</rect>
	<rect x="1160" y="121.063" width="10" height="1">
	<title>Small and medium-sized enterprises (SME) development (5)</title>
	</rect>
	<rect x="1160" y="218.708" width="10" height="1">
	<title>Social mitigation of HIV/AIDS (6)</title>
	</rect>
	<rect x="1160" y="211.946" width="10" height="1">
	<title>Social/welfare services (7)</title>
	</rect>
	<rect x="1160" y="148.375" width="10" height="1">
	<title>Solar energy (32)</title>
	</rect>
	<rect x="1160" y="25.483" width="10" height="1">
	<title>Trade policy and admin. management (30)</title>
	</rect>
	<rect x="1160" y="18.564" width="10" height="1">
	<title>Transport policy and admin. management (10)</title>
	</rect>
	<rect x="1160" y="356.573" width="10" height="1">
	<title>Urban development and management (31)</title>
	</rect>
	<rect x="1160" y="69.206" width="10" height="2.194">
	<title>Water resources policy/admin. mgmt (197)</title>
	</rect>
	<rect x="1160" y="39.536" width="10" height="1">
	<title>Water resources protection (65)</title>
	</rect>
	<rect x="1160" y="89.712" width="10" height="4.729">
	<title>Water supply - large systems (423)</title>
	</rect>
	<rect x="1160" y="78.097" width="10" height="4.923">
	<title>Water supply and sanit. - large systems (441)</title>
	</rect>
	<rect x="1160" y="134.634" width="10" height="1">
	<title>Wind power (25)</title>
	</rect>
	<rect x="1160" y="205.202" width="10" height="1">
	<title>Women&apos;s equality organisations and institutions (3)</title>
	</rect>
	<rect x="0" y="394.108" width="10" height="10.743">
	<title>AGRICULTURE (962)</title>
	</rect>
	<rect x="0" y="322.653" width="10" height="1">
	<title>COMMODITY AID AND GENERAL PROGRAMME ASSISTANCE (38)</title>
	</rect>
	<rect x="0" y="386.851" width="10" height="1">
	<title>EDUCATION (11)</title>
	</rect>
	<rect x="0" y="282.227" width="10" height="3.771">
	<title>ENERGY GENERATION AND SUPPLY (337)</title>
	</rect>
	<rect x="0" y="329.597" width="10" height="1">
	<title>FISHING (7)</title>
	</rect>
	<rect x="0" y="300.094" width="10" height="2.472">
	<title>FORESTRY (221)</title>
	</rect>
	<rect x="0" y="292.203" width="10" height="1.684">
	<title>GOVERNMENT AND CIVIL SOCIETY (64)</title>
	</rect>
	<rect x="0" y="309.256" width="10" height="6.995">
	<title>HUMANITARIAN AID (626)</title>
	</rect>
	<rect x="0" y="274.995" width="10" height="1">
	<title>INDUSTRY (7)</title>
	</rect>
	<rect x="0" y="336.823" width="10" height="43.773">
	<title>MULTISECTOR/CROSS-CUTTING (3,919)</title>
	</rect>
	<rect x="0" y="268.236" width="10" height="1">
	<title>POPULATION POLICIES/PROGRAMMES AND REPRODUCTIVE HEALTH (5)</title>
	</rect>
	<rect x="0" y="232.886" width="10" height="1">
	<title>TRADE POLICY AND REGULATIONS AND TRADE-RELATED ADJUSTMENT (41)</title>
	</rect>
	<rect x="0" y="261.383" width="10" height="1">
	<title>TRANSPORT AND STORAGE (24)</title>
	</rect>
	<rect x="0" y="240.306" width="10" height="14.752">
	<title>WATER AND SANITATION (1,321)</title>
	</rect>
</g>
<g id="texts">
	<text transform="matrix(1 0 0 1 1040.6018 611.802)" font-family="'SourceSansPro-Regular'" font-size="10">Agricultural development</text>
	<text transform="matrix(1 0 0 1 1055.7717 602.3372)" font-family="'SourceSansPro-Regular'" font-size="10">Agricultural extension</text>
	<text transform="matrix(1 0 0 1 1030.1917 620.7512)" font-family="'SourceSansPro-Regular'" font-size="10">Agricultural water resources</text>
	<text transform="matrix(1 0 0 1 1094.0959 448.4641)" font-family="'SourceSansPro-Regular'" font-size="10">Bio-diversity</text>
	<text transform="matrix(1 0 0 1 1058.8811 427.3293)" font-family="'SourceSansPro-Regular'" font-size="10">Biosphere protection</text>
	<text transform="matrix(1 0 0 1 988.1643 324.9456)" font-family="'SourceSansPro-Regular'" font-size="10">Disaster prevention and preparedness</text>
	<text transform="matrix(1 0 0 1 981.4124 471.8782)" font-family="'SourceSansPro-Regular'" font-size="10">Environmental policy and admin. mgmt</text>
	<text transform="matrix(1 0 0 1 1047.4319 417.8469)" font-family="'SourceSansPro-Regular'" font-size="10">Environmental research</text>
	<text transform="matrix(1 0 0 1 1042.2307 437.1399)" font-family="'SourceSansPro-Regular'" font-size="10">Flood prevention/control</text>
	<text transform="matrix(1 0 0 1 1083.0862 408.8577)" font-family="'SourceSansPro-Regular'" font-size="10">Multisector aid</text>
	<text transform="matrix(1 0 0 1 982.9436 315.0579)" font-family="'SourceSansPro-Regular'" font-size="10">Reconstruction relief and rehabilitation</text>
	<text transform="matrix(1 0 0 1 993.3928 74.1545)" font-family="'SourceSansPro-Regular'" font-size="10">Water resources policy/admin. mgmt</text>
	<text transform="matrix(1 0 0 1 1028.6624 95.926)" font-family="'SourceSansPro-Regular'" font-size="10">Water supply - large systems</text>
	<text transform="matrix(1 0 0 1 985.2327 84.4065)" font-family="'SourceSansPro-Regular'" font-size="10">Water supply and sanit. - large systems</text>
	<text transform="matrix(1 0 0 1 15.9998 403.3293)" font-family="'SourceSansPro-Regular'" font-size="10">AGRICULTURE</text>
	<text transform="matrix(1 0 0 1 15.9998 287.9592)" font-family="'SourceSansPro-Regular'" font-size="10">ENERGY GENERATION AND SUPPLY</text>
	<text transform="matrix(1 0 0 1 15.9998 305.178)" font-family="'SourceSansPro-Regular'" font-size="10">FORESTRY</text>
	<text transform="matrix(1 0 0 1 15.9998 316.6038)" font-family="'SourceSansPro-Regular'" font-size="10">HUMANITARIAN AID</text>
	<text transform="matrix(1 0 0 1 15.9998 362.5618)" font-family="'SourceSansPro-Regular'" font-size="10">MULTISECTOR/CROSS-CUTTING</text>
	<text transform="matrix(1 0 0 1 15.9998 251.5295)" font-family="'SourceSansPro-Regular'" font-size="10">WATER AND SANITATION</text>
	<g>
		<text transform="matrix(1 0 0 1 2.441406e-04 223.6067)" font-family="'SourceSansPro-Semibold'" font-size="12">SECTORS</text>
	</g>
	<g>
		<text transform="matrix(1 0 0 1 1136.4241 9.0042)" font-family="'SourceSansPro-Semibold'" font-size="12">AREAS</text>
	</g>
</g>
</svg>
