<?xml version="1.0" encoding="utf-8"?>
<!-- Generator: Adobe Illustrator 15.0.0, SVG Export Plug-In . SVG Version: 6.00 Build 0)  -->
<!DOCTYPE svg PUBLIC "-//W3C//DTD SVG 1.1//EN" "http://www.w3.org/Graphics/SVG/1.1/DTD/svg11.dtd">
<svg version="1.1" xmlns="http://www.w3.org/2000/svg" xmlns:xlink="http://www.w3.org/1999/xlink" x="0px" y="0px" width="1170px"
	 height="627.383px" viewBox="0 0 1170 627.383" enable-background="new 0 0 1170 627.383" xml:space="preserve">
<g id="flows">
	<path opacity="0.75" fill="none" stroke="#F05C55" stroke-width="48.6083" enable-background="new    " d="M10,149.184
		c575,0,575,4.786,1150,4.786"/>
	<path opacity="0.75" fill="none" stroke="#F05C55" stroke-width="45.3426" enable-background="new    " d="M10,102.209
		c575,0,575-60,1150-60"/>
	<path opacity="0.75" fill="none" stroke="#F1825D" stroke-width="23.4915" enable-background="new    " d="M10,282.176
		c575,0,575-205.551,1150-205.551"/>
	<path opacity="0.75" fill="none" stroke="#F05C55" stroke-width="22.8444" enable-background="new    " d="M10,184.91
		c575,0,575,16.517,1150,16.517"/>
	<path opacity="0.75" fill="none" stroke="#F1825D" stroke-width="20.0177" enable-background="new    " d="M10,308.506
		c575,0,575-60.424,1150-60.424"/>
	<path opacity="0.75" fill="none" stroke="#01434C" stroke-width="17.4029" enable-background="new    " d="M10,404.492
		c575,0,575-296.289,1150-296.289"/>
	<path opacity="0.75" fill="none" stroke="#F05C55" stroke-width="12.5438" enable-background="new    " d="M10,204.06
		c575,0,575,80.03,1150,80.03"/>
	<path opacity="0.75" fill="none" stroke="#EDBF64" stroke-width="11.13" enable-background="new    " d="M10,346.958
		c575,0,575-253.021,1150-253.021"/>
	<path opacity="0.75" fill="none" stroke="#F05C55" stroke-width="8.2452" enable-background="new    " d="M10,220.07
		c575,0,575,123.914,1150,123.914"/>
	<path opacity="0.75" fill="none" stroke="#F05C55" stroke-width="7.3063" enable-background="new    " d="M10,232.823
		c575,0,575,159.411,1150,159.411"/>
	<path opacity="0.75" fill="none" stroke="#EDBF64" stroke-width="6.6813" enable-background="new    " d="M10,362.899
		c575,0,575-67.501,1150-67.501"/>
	<path opacity="0.75" fill="none" stroke="#296275" stroke-width="5.7817" enable-background="new    " d="M10,443.754
		c575,0,575-117.434,1150-117.434"/>
	<path opacity="0.75" fill="none" stroke="#F05C55" stroke-width="5.6137" enable-background="new    " d="M10,213.139
		c575,0,575,102.469,1150,102.469"/>
	<path opacity="0.75" fill="none" stroke="#F05C55" stroke-width="5.358" enable-background="new    " d="M10,249.475
		c575,0,575,220.711,1150,220.711"/>
	<path opacity="0.75" fill="none" stroke="#F05C55" stroke-width="4.9786" enable-background="new    " d="M10,226.68
		c575,0,575,140.396,1150,140.396"/>
	<path opacity="0.75" fill="none" stroke="#EDBF64" stroke-width="4.9629" enable-background="new    " d="M10,379.328
		c575,0,575,37.768,1150,37.768"/>
	<path opacity="0.75" fill="none" stroke="#F05C55" stroke-width="4.3873" enable-background="new    " d="M10,242.722
		c575,0,575,191.414,1150,191.414"/>
	<path opacity="0.75" fill="none" stroke="#F1825D" stroke-width="4.3513" enable-background="new    " d="M10,296.323
		c575,0,575-81.3,1150-81.3"/>
	<path opacity="0.75" fill="none" stroke="#EDBF64" stroke-width="4.0522" enable-background="new    " d="M10,374.307
		c575,0,575-0.197,1150-0.197"/>
	<path opacity="0.75" fill="none" stroke="#F05C55" stroke-width="4.0522" enable-background="new    " d="M10,238.503
		c575,0,575,174.085,1150,174.085"/>
	<path opacity="0.75" fill="none" stroke="#EDBF64" stroke-width="3.5292" enable-background="new    " d="M10,354.361
		c575,0,575-135.396,1150-135.396"/>
	<path opacity="0.75" fill="none" stroke="#EDBF64" stroke-width="3.4932" enable-background="new    " d="M10,370.535
		c575,0,575-18.879,1150-18.879"/>
	<path opacity="0.75" fill="none" stroke="#296275" stroke-width="3.4738" enable-background="new    " d="M10,439.127
		c575,0,575-175.668,1150-175.668"/>
	<path opacity="0.75" fill="none" stroke="#EDBF64" stroke-width="3.4328" enable-background="new    " d="M10,357.843
		c575,0,575-98.036,1150-98.036"/>
	<path opacity="0.75" fill="none" stroke="#F05C55" stroke-width="3.3686" enable-background="new    " d="M10,255.538
		c575,0,575,244.265,1150,244.265"/>
	<path opacity="0.75" fill="none" stroke="#B0CFCD" stroke-width="3.2227" enable-background="new    " d="M10,463.393
		c575,0,575-239.381,1150-239.381"/>
	<path opacity="0.75" fill="none" stroke="#EDBF64" stroke-width="2.5474" enable-background="new    " d="M10,367.514
		c575,0,575-46.161,1150-46.161"/>
	<path opacity="0.75" fill="none" stroke="#F1825D" stroke-width="2.5322" enable-background="new    " d="M10,329.6
		c575,0,575,124.886,1150,124.886"/>
	<path opacity="0.75" fill="none" stroke="#F1825D" stroke-width="2.5179" enable-background="new    " d="M10,324.936
		c575,0,575,45.889,1150,45.889"/>
	<path opacity="0.75" fill="none" stroke="#B0CFCD" stroke-width="2.277" enable-background="new    " d="M10,466.143
		c575,0,575-199.81,1150-199.81"/>
	<path opacity="0.75" fill="none" stroke="#01434C" stroke-width="1.9026" enable-background="new    " d="M10,420.925
		c575,0,575-0.397,1150-0.397"/>
	<path opacity="0.75" fill="none" stroke="#F05C55" stroke-width="1.8809" enable-background="new    " d="M10,245.856
		c575,0,575,206.423,1150,206.423"/>
	<path opacity="0.75" fill="none" stroke="#01434C" stroke-width="1.8408" enable-background="new    " d="M10,415.015
		c575,0,575-115.354,1150-115.354"/>
	<path opacity="0.75" fill="none" stroke="#F1825D" stroke-width="1.8034" enable-background="new    " d="M10,322.774
		c575,0,575,26.234,1150,26.234"/>
	<path opacity="0.75" fill="none" stroke="#F05C55" stroke-width="1.6991" enable-background="new    " d="M10,253.005
		c575,0,575,230.856,1150,230.856"/>
	<path opacity="0.75" fill="none" stroke="#F1825D" stroke-width="1.6958" enable-background="new    " d="M10,319.361
		c575,0,575-28.149,1150-28.149"/>
	<path opacity="0.75" fill="none" stroke="#F1825D" stroke-width="1.6635" enable-background="new    " d="M10,321.042
		c575,0,575-1.794,1150-1.794"/>
	<path opacity="0.75" fill="none" stroke="#01434C" stroke-width="1.6501" enable-background="new    " d="M10,419.149
		c575,0,575-20.604,1150-20.604"/>
	<path opacity="0.75" fill="none" stroke="#01434C" stroke-width="1.5827" enable-background="new    " d="M10,417.531
		c575,0,575-40.604,1150-40.604"/>
	<path opacity="0.75" fill="none" stroke="#296275" stroke-width="1.574" enable-background="new    " d="M10,448.436
		c575,0,575-8.345,1150-8.345"/>
	<path opacity="0.75" fill="none" stroke="#B0CFCD" stroke-width="1.4987" enable-background="new    " d="M10,461.027
		c575,0,575-343.055,1150-343.055"/>
	<path opacity="0.75" fill="none" stroke="#EDBF64" stroke-width="1.4863" enable-background="new    " d="M10,383.744
		c575,0,575,72.751,1150,72.751"/>
	<path opacity="0.75" fill="none" stroke="#F05C55" stroke-width="1.4563" enable-background="new    " d="M10,197.06
		c575,0,575,40.285,1150,40.285"/>
	<path opacity="0.75" fill="none" stroke="#A88C57" stroke-width="1.3298" enable-background="new    " d="M10,482.205
		c575,0,575,4.84,1150,4.84"/>
	<path opacity="0.75" fill="none" stroke="#F1825D" stroke-width="1.3155" enable-background="new    " d="M10,326.853
		c575,0,575,69.694,1150,69.694"/>
	<path opacity="0.75" fill="none" stroke="#296275" stroke-width="1.2744" enable-background="new    " d="M10,435.663
		c575,0,575-256.329,1150-256.329"/>
	<path opacity="0.75" fill="none" stroke="#B0CFCD" stroke-width="1.2347" enable-background="new    " d="M10,467.899
		c575,0,575-166.699,1150-166.699"/>
	<path opacity="0.75" fill="none" stroke="#EDBF64" stroke-width="1.1918" enable-background="new    " d="M10,382.404
		c575,0,575,55.347,1150,55.347"/>
	<path opacity="0.75" fill="none" stroke="#296275" stroke-width="1.0898" enable-background="new    " d="M10,436.845
		c575,0,575-214.989,1150-214.989"/>
	<path opacity="0.75" fill="none" stroke="#F05C55" stroke-width="1.0773" enable-background="new    " d="M10,257.761
		c575,0,575,254.264,1150,254.264"/>
	<path opacity="0.75" fill="none" stroke="#01434C" enable-background="new    " d="M10,422.356c575,0,575,16.469,1150,16.469"/>
	<path opacity="0.75" fill="none" stroke="#296275" enable-background="new    " d="M10,449.702c575,0,575,63.797,1150,63.797"/>
	<path opacity="0.75" fill="none" stroke="#F1825D" enable-background="new    " d="M10,327.922c575,0,575,108.817,1150,108.817"/>
	<path opacity="0.75" fill="none" stroke="#F05C55" enable-background="new    " d="M10,258.707c575,0,575,266.278,1150,266.278"/>
	<path opacity="0.75" fill="none" stroke="#8D5C64" enable-background="new    " d="M10,493.872c575,0,575-267.843,1150-267.843"/>
	<path opacity="0.75" fill="none" stroke="#01434C" enable-background="new    " d="M10,416.338c575,0,575-93.312,1150-93.312"/>
	<path opacity="0.75" fill="none" stroke="#01434C" enable-background="new    " d="M10,423.354c575,0,575,62.498,1150,62.498"/>
	<path opacity="0.75" fill="none" stroke="#296275" enable-background="new    " d="M10,447.007c575,0,575-93.241,1150-93.241"/>
	<path opacity="0.75" fill="none" stroke="#B0CFCD" enable-background="new    " d="M10,470.152c575,0,575,44.114,1150,44.114"/>
	<path opacity="0.75" fill="none" stroke="#F59996" enable-background="new    " d="M10,517.35c575,0,575-398.225,1150-398.225"/>
	<path opacity="0.75" fill="none" stroke="#01434C" enable-background="new    " d="M10,413.607c575,0,575-192.587,1150-192.587"/>
	<path opacity="0.75" fill="none" stroke="#EDBF64" enable-background="new    " d="M10,384.79c575,0,575,100.393,1150,100.393"/>
	<path opacity="0.75" fill="none" stroke="#8D5C64" enable-background="new    " d="M10,494.543c575,0,575-116.238,1150-116.238"/>
	<path opacity="0.75" fill="none" stroke="#F05C55" enable-background="new    " d="M10,259.377c575,0,575,277.562,1150,277.562"/>
	<path opacity="0.75" fill="none" stroke="#EDBF64" enable-background="new    " d="M10,376.589c575,0,575,20.872,1150,20.872"/>
	<path opacity="0.75" fill="none" stroke="#F59996" enable-background="new    " d="M10,517.899c575,0,575-215.354,1150-215.354"/>
	<path opacity="0.75" fill="none" stroke="#94A465" enable-background="new    " d="M10,506.801c575,0,575,19.525,1150,19.525"/>
	<path opacity="0.75" fill="none" stroke="#8D5C64" enable-background="new    " d="M10,495.046c575,0,575-94.856,1150-94.856"/>
	<path opacity="0.75" fill="none" stroke="#A88C57" enable-background="new    " d="M10,483.12c575,0,575,42.718,1150,42.718"/>
	<path opacity="0.75" fill="none" stroke="#B0CFCD" enable-background="new    " d="M10,468.899c575,0,575-114.541,1150-114.541"/>
	<path opacity="0.75" fill="none" stroke="#F7B49D" enable-background="new    " d="M10,528.374c575,0,575-40.454,1150-40.454"/>
	<path opacity="0.75" fill="none" stroke="#94A465" enable-background="new    " d="M10,506.051c575,0,575-176.444,1150-176.444"/>
	<path opacity="0.75" fill="none" stroke="#01434C" enable-background="new    " d="M10,424.149c575,0,575,113.344,1150,113.344"/>
	<path opacity="0.75" fill="none" stroke="#94A465" enable-background="new    " d="M10,505.711c575,0,575-203.587,1150-203.587"/>
	<path opacity="0.75" fill="none" stroke="#296275" enable-background="new    " d="M10,434.865c575,0,575-317.802,1150-317.802"/>
	<path opacity="0.75" fill="none" stroke="#A88C57" enable-background="new    " d="M10,481.357c575,0,575-59.646,1150-59.646"/>
	<path opacity="0.75" fill="none" stroke="#B0CFCD" enable-background="new    " d="M10,469.343c575,0,575-69.713,1150-69.713"/>
	<path opacity="0.75" fill="none" stroke="#EDBF64" enable-background="new    " d="M10,385.222c575,0,575,127.489,1150,127.489"/>
	<path opacity="0.75" fill="none" stroke="#F05C55" enable-background="new    " d="M10,259.773c575,0,575,288.13,1150,288.13"/>
	<path opacity="0.75" fill="none" stroke="#01434C" enable-background="new    " d="M10,424.579c575,0,575,144.386,1150,144.386"/>
	<path opacity="0.75" fill="none" stroke="#BA9CA1" enable-background="new    " d="M10,559.419c575,0,575-439.868,1150-439.868"/>
	<path opacity="0.75" fill="none" stroke="#F1825D" enable-background="new    " d="M10,294.034c575,0,575-115.647,1150-115.647"/>
	<path opacity="0.75" fill="none" stroke="#F4D9A0" enable-background="new    " d="M10,538.854c575,0,575-97.625,1150-97.625"/>
	<path opacity="0.75" fill="none" stroke="#C9B899" enable-background="new    " d="M10,549.109c575,0,575-281.398,1150-281.398"/>
	<path opacity="0.75" fill="none" stroke="#B0CFCD" enable-background="new    " d="M10,469.619c575,0,575-28.639,1150-28.639"/>
	<path opacity="0.75" fill="none" stroke="#01434C" enable-background="new    " d="M10,413.997c575,0,575-152.374,1150-152.374"/>
	<path opacity="0.75" fill="none" stroke="#F1825D" enable-background="new    " d="M10,331c575,0,575,153.806,1150,153.806"/>
	<path opacity="0.75" fill="none" stroke="#94A465" enable-background="new    " d="M10,505.455c575,0,575-278.931,1150-278.931"/>
	<path opacity="0.75" fill="none" stroke="#94A465" enable-background="new    " d="M10,506.446c575,0,575-49.03,1150-49.03"/>
	<path opacity="0.75" fill="none" stroke="#A88C57" enable-background="new    " d="M10,481.118c575,0,575-81.254,1150-81.254"/>
	<path opacity="0.75" fill="none" stroke="#01434C" enable-background="new    " d="M10,423.826c575,0,575,89.117,1150,89.117"/>
	<path opacity="0.75" fill="none" stroke="#F1825D" enable-background="new    " d="M10,331.253c575,0,575,216.864,1150,216.864"/>
	<path opacity="0.75" fill="none" stroke="#F05C55" enable-background="new    " d="M10,259.988c575,0,575,298.421,1150,298.421"/>
	<path opacity="0.75" fill="none" stroke="#B0CFCD" enable-background="new    " d="M10,468.593c575,0,575-139.304,1150-139.304"/>
	<path opacity="0.75" fill="none" stroke="#A88C57" enable-background="new    " d="M10,480.752c575,0,575-178.864,1150-178.864"/>
	<path opacity="0.75" fill="none" stroke="#F05C55" enable-background="new    " d="M10,260.255c575,0,575,318.909,1150,318.909"/>
	<path opacity="0.75" fill="none" stroke="#A88C57" enable-background="new    " d="M10,480.961c575,0,575-102.993,1150-102.993"/>
	<path opacity="0.75" fill="none" stroke="#B0CFCD" enable-background="new    " d="M10,469.788c575,0,575,16.524,1150,16.524"/>
	<path opacity="0.75" fill="none" stroke="#94A465" enable-background="new    " d="M10,506.292c575,0,575-105.796,1150-105.796"/>
	<path opacity="0.75" fill="none" stroke="#A88C57" enable-background="new    " d="M10,480.615c575,0,575-213.077,1150-213.077"/>
	<path opacity="0.75" fill="none" stroke="#EDBF64" enable-background="new    " d="M10,385.63c575,0,575,172.925,1150,172.925"/>
	<path opacity="0.75" fill="none" stroke="#01434C" enable-background="new    " d="M10,413.254c575,0,575-234.619,1150-234.619"/>
	<path opacity="0.75" fill="none" stroke="#F05C55" enable-background="new    " d="M10,260.126c575,0,575,308.651,1150,308.651"/>
	<path opacity="0.75" fill="none" stroke="#296275" enable-background="new    " d="M10,447.54c575,0,575-48.115,1150-48.115"/>
	<path opacity="0.75" fill="none" stroke="#296275" enable-background="new    " d="M10,447.426c575,0,575-69.651,1150-69.651"/>
	<path opacity="0.75" fill="none" stroke="#01434C" enable-background="new    " d="M10,424.372c575,0,575,123.899,1150,123.899"/>
	<path opacity="0.75" fill="none" stroke="#EDBF64" enable-background="new    " d="M10,385.493c575,0,575,151.776,1150,151.776"/>
	<path opacity="0.75" fill="none" stroke="#296275" enable-background="new    " d="M10,450.223c575,0,575,87.488,1150,87.488"/>
	<path opacity="0.75" fill="none" stroke="#F7B49D" enable-background="new    " d="M10,528.621c575,0,575-1.992,1150-1.992"/>
	<path opacity="0.75" fill="none" stroke="#F05C55" enable-background="new    " d="M10,260.371c575,0,575,328.958,1150,328.958"/>
	<path opacity="0.75" fill="none" stroke="#C9B899" enable-background="new    " d="M10,549.264c575,0,575-127.36,1150-127.36"/>
	<path opacity="0.75" fill="none" stroke="#A88C57" enable-background="new    " d="M10,483.396c575,0,575,75.286,1150,75.286"/>
	<path opacity="0.75" fill="none" stroke="#EDBF64" enable-background="new    " d="M10,352.56c575,0,575-174.021,1150-174.021"/>
	<path opacity="0.75" fill="none" stroke="#F4D9A0" enable-background="new    " d="M10,538.708c575,0,575-208.882,1150-208.882"/>
	<path opacity="0.75" fill="none" stroke="#01434C" enable-background="new    " d="M10,423.945c575,0,575,101.619,1150,101.619"/>
	<path opacity="0.75" fill="none" stroke="#EDBF64" enable-background="new    " d="M10,385.404c575,0,575,140.091,1150,140.091"/>
	<path opacity="0.75" fill="none" stroke="#01434C" enable-background="new    " d="M10,422.933c575,0,575,50.025,1150,50.025"/>
	<path opacity="0.75" fill="none" stroke="#A88C57" enable-background="new    " d="M10,480.857c575,0,575-151.458,1150-151.458"/>
	<path opacity="0.75" fill="none" stroke="#B0CFCD" enable-background="new    " d="M10,469.161c575,0,575-91.299,1150-91.299"/>
	<path opacity="0.75" fill="none" stroke="#F1825D" enable-background="new    " d="M10,331.125c575,0,575,194.302,1150,194.302"/>
	<path opacity="0.75" fill="none" stroke="#01434C" enable-background="new    " d="M10,422.867c575,0,575,34.4,1150,34.4"/>
	<path opacity="0.75" fill="none" stroke="#A88C57" enable-background="new    " d="M10,480.515c575,0,575-361.763,1150-361.763"/>
	<path opacity="0.75" fill="none" stroke="#296275" enable-background="new    " d="M10,447.623c575,0,575-26.117,1150-26.117"/>
	<path opacity="0.75" fill="none" stroke="#EDBF64" enable-background="new    " d="M10,385.765c575,0,575,203.632,1150,203.632"/>
	<path opacity="0.75" fill="none" stroke="#EDBF64" enable-background="new    " d="M10,385.717c575,0,575,193.542,1150,193.542"/>
	<path opacity="0.75" fill="none" stroke="#94A465" enable-background="new    " d="M10,505.341c575,0,575-386.536,1150-386.536"/>
	<path opacity="0.75" fill="none" stroke="#F1825D" enable-background="new    " d="M10,331.358c575,0,575,268.104,1150,268.104"/>
	<path opacity="0.75" fill="none" stroke="#F1825D" enable-background="new    " d="M10,330.886c575,0,575,141.999,1150,141.999"/>
	<path opacity="0.75" fill="none" stroke="#8D5C64" enable-background="new    " d="M10,495.302c575,0,575-54.199,1150-54.199"/>
	<path opacity="0.75" fill="none" stroke="#B0CFCD" enable-background="new    " d="M10,470.471c575,0,575,139.033,1150,139.033"/>
	<path opacity="0.75" fill="none" stroke="#01434C" enable-background="new    " d="M10,424.439c575,0,575,134.192,1150,134.192"/>
	<path opacity="0.75" fill="none" stroke="#A88C57" enable-background="new    " d="M10,481.526c575,0,575-24.214,1150-24.214"/>
	<path opacity="0.75" fill="none" stroke="#B0CFCD" enable-background="new    " d="M10,469.504c575,0,575-47.961,1150-47.961"/>
	<path opacity="0.75" fill="none" stroke="#8D5C64" enable-background="new    " d="M10,493.455c575,0,575-313.462,1150-313.462"/>
	<path opacity="0.75" fill="none" stroke="#EDBF64" enable-background="new    " d="M10,385.556c575,0,575,162.652,1150,162.652"/>
	<path opacity="0.75" fill="none" stroke="#F4D9A0" enable-background="new    " d="M10,538.975c575,0,575-65.972,1150-65.972"/>
	<path opacity="0.75" fill="none" stroke="#EDBF64" enable-background="new    " d="M10,384.497c575,0,575,88.418,1150,88.418"/>
	<path opacity="0.75" fill="none" stroke="#F1825D" enable-background="new    " d="M10,331.165c575,0,575,206.046,1150,206.046"/>
	<path opacity="0.75" fill="none" stroke="#F7B49D" enable-background="new    " d="M10,528.168c575,0,575-149.592,1150-149.592"/>
	<path opacity="0.75" fill="none" stroke="#A88C57" enable-background="new    " d="M10,482.876c575,0,575,31.695,1150,31.695"/>
	<path opacity="0.75" fill="none" stroke="#C9B899" enable-background="new    " d="M10,548.995c575,0,575-429.566,1150-429.566"/>
	<path opacity="0.75" fill="none" stroke="#94A465" enable-background="new    " d="M10,506.543c575,0,575-18.827,1150-18.827"/>
	<path opacity="0.75" fill="none" stroke="#F05C55" enable-background="new    " d="M10,260.42c575,0,575,339.016,1150,339.016"/>
	<path opacity="0.75" fill="none" stroke="#F1825D" enable-background="new    " d="M10,331.387c575,0,575,288.144,1150,288.144"/>
	<path opacity="0.75" fill="none" stroke="#296275" enable-background="new    " d="M10,449.228c575,0,575,37.018,1150,37.018"/>
	<path opacity="0.75" fill="none" stroke="#A88C57" enable-background="new    " d="M10,483.44c575,0,575,126.082,1150,126.082"/>
	<path opacity="0.75" fill="none" stroke="#F7B49D" enable-background="new    " d="M10,528.156c575,0,575-198.37,1150-198.37"/>
	<path opacity="0.75" fill="none" stroke="#F05C55" enable-background="new    " d="M10,260.427c575,0,575,349.06,1150,349.06"/>
	<path opacity="0.75" fill="none" stroke="#B0CFCD" enable-background="new    " d="M10,470.456c575,0,575,118.969,1150,118.969"/>
	<path opacity="0.75" fill="none" stroke="#A88C57" enable-background="new    " d="M10,480.548c575,0,575-300.569,1150-300.569"/>
	<path opacity="0.75" fill="none" stroke="#C9B899" enable-background="new    " d="M10,549.222c575,0,575-246.422,1150-246.422"/>
	<path opacity="0.75" fill="none" stroke="#B0CFCD" enable-background="new    " d="M10,461.779c575,0,575-281.807,1150-281.807"/>
	<path opacity="0.75" fill="none" stroke="#296275" enable-background="new    " d="M10,450.276c575,0,575,129.008,1150,129.008"/>
	<path opacity="0.75" fill="none" stroke="#F1825D" enable-background="new    " d="M10,331.335c575,0,575,227.153,1150,227.153"/>
	<path opacity="0.75" fill="none" stroke="#F4D9A0" enable-background="new    " d="M10,538.986c575,0,575-1.221,1150-1.221"/>
	<path opacity="0.75" fill="none" stroke="#A88C57" enable-background="new    " d="M10,481.514c575,0,575-40.428,1150-40.428"/>
	<path opacity="0.75" fill="none" stroke="#A88C57" enable-background="new    " d="M10,483.435c575,0,575,105.993,1150,105.993"/>
	<path opacity="0.75" fill="none" stroke="#F4D9A0" enable-background="new    " d="M10,538.964c575,0,575-81.458,1150-81.458"/>
	<path opacity="0.75" fill="none" stroke="#BA9CA1" enable-background="new    " d="M10,559.536c575,0,575-21.77,1150-21.77"/>
	<path opacity="0.75" fill="none" stroke="#F7B49D" enable-background="new    " d="M10,528.175c575,0,575-70.67,1150-70.67"/>
	<path opacity="0.75" fill="none" stroke="#F7B49D" enable-background="new    " d="M10,528.669c575,0,575,9.095,1150,9.095"/>
	<path opacity="0.75" fill="none" stroke="#F1825D" enable-background="new    " d="M10,327.51c575,0,575,87.104,1150,87.104"/>
</g>
<g id="interactive">
	<rect x="1160" y="388.583" width="10" height="11.979">
	<title>Australia
 (260)</title>
	</rect>
	<rect x="1160" y="547.548" width="10" height="1">
	<title>Austria
 (12)</title>
	</rect>
	<rect x="1160" y="558.024" width="10" height="1">
	<title>Belgium
 (8)</title>
	</rect>
	<rect x="1160" y="312.802" width="10" height="17.06">
	<title>Canada
 (370)</title>
	</rect>
	<rect x="1160" y="598.958" width="10" height="1">
	<title>Czech Republic
 (1)</title>
	</rect>
	<rect x="1160" y="467.507" width="10" height="5.506">
	<title>Denmark
 (119)</title>
	</rect>
	<rect x="1160" y="190.004" width="10" height="36.613">
	<title>EU Institutions
 (793)</title>
	</rect>
	<rect x="1160" y="511.485" width="10" height="3.096">
	<title>Finland
 (67)</title>
	</rect>
	<rect x="1160" y="236.617" width="10" height="31.199">
	<title>France
 (676)</title>
	</rect>
	<rect x="1160" y="277.819" width="10" height="24.982">
	<title>Germany
 (541)</title>
	</rect>
	<rect x="1160" y="578.689" width="10" height="1">
	<title>Greece
 (4)</title>
	</rect>
	<rect x="1160" y="609.005" width="10" height="1">
	<title>Iceland
 (1)</title>
	</rect>
	<rect x="1160" y="524.58" width="10" height="2.098">
	<title>Ireland
 (45)</title>
	</rect>
	<rect x="1160" y="536.677" width="10" height="1.092">
	<title>Italy
 (24)</title>
	</rect>
	<rect x="1160" y="19.537" width="10" height="100.13">
	<title>Japan
 (2,169)</title>
	</rect>
	<rect x="1160" y="451.338" width="10" height="6.169">
	<title>Korea
 (134)</title>
	</rect>
	<rect x="1160" y="588.857" width="10" height="1">
	<title>Luxembourg
 (3)</title>
	</rect>
	<rect x="1160" y="339.861" width="10" height="14.728">
	<title>Netherlands
 (319)</title>
	</rect>
	<rect x="1160" y="568.405" width="10" height="1">
	<title>New Zealand
 (8)</title>
	</rect>
	<rect x="1160" y="410.561" width="10" height="11.382">
	<title>Norway
 (247)</title>
	</rect>
	<rect x="1160" y="619.031" width="10" height="1">
	<title>Portugal
 (0)</title>
	</rect>
	<rect x="1160" y="483.013" width="10" height="5.104">
	<title>Spain
 (111)</title>
	</rect>
	<rect x="1160" y="364.587" width="10" height="13.995">
	<title>Sweden
 (303)</title>
	</rect>
	<rect x="1160" y="431.942" width="10" height="9.396">
	<title>Switzerland
 (204)</title>
	</rect>
	<rect x="1160" y="129.667" width="10" height="50.337">
	<title>United Kingdom
 (1,091)</title>
	</rect>
	<rect x="1160" y="498.118" width="10" height="3.366">
	<title>United States
 (73)</title>
	</rect>
	<rect x="0" y="341.392" width="10" height="44.398">
	<title>AGRICULTURE
 (962)</title>
	</rect>
	<rect x="0" y="505.317" width="10" height="1.735">
	<title>COMMODITY AID AND GENERAL PROGRAMME ASSISTANCE
 (38)</title>
	</rect>
	<rect x="0" y="527.913" width="10" height="1">
	<title>EDUCATION
 (11)</title>
	</rect>
	<rect x="0" y="434.707" width="10" height="15.569">
	<title>ENERGY GENERATION AND SUPPLY
 (337)</title>
	</rect>
	<rect x="0" y="548.645" width="10" height="1">
	<title>FISHING
 (7)</title>
	</rect>
	<rect x="0" y="460.277" width="10" height="10.207">
	<title>FORESTRY
 (221)</title>
	</rect>
	<rect x="0" y="480.484" width="10" height="2.958">
	<title>GOVERNMENT AND CIVIL SOCIETY
 (64)</title>
	</rect>
	<rect x="0" y="395.791" width="10" height="28.916">
	<title>HUMANITARIAN AID 
 (626)</title>
	</rect>
	<rect x="0" y="538.329" width="10" height="1">
	<title>INDUSTRY
 (7)</title>
	</rect>
	<rect x="0" y="79.537" width="10" height="180.894">
	<title>MULTISECTOR/CROSS-CUTTING
 (3,919)</title>
	</rect>
	<rect x="0" y="558.92" width="10" height="1">
	<title>POPULATION POLICIES/PROGRAMMES AND REPRODUCTIVE HEALTH
 (5)</title>
	</rect>
	<rect x="0" y="493.442" width="10" height="1.875">
	<title>TRADE POLICY AND REGULATIONS AND TRADE-RELATED ADJUSTMENT
 (41)</title>
	</rect>
	<rect x="0" y="517.053" width="10" height="1.101">
	<title>TRANSPORT AND STORAGE
 (24)</title>
	</rect>
	<rect x="0" y="270.43" width="10" height="60.962">
	<title>WATER AND SANITATION
 (1,321)</title>
	</rect>
</g>
<g id="texts">
	<text transform="matrix(1 0 0 1 1111.2034 398.4221)" font-family="'ArialMT'" font-size="11">Australia</text>
	<text transform="matrix(1 0 0 1 1119.7639 551.8987)" font-family="'ArialMT'" font-size="11">Austria</text>
	<text transform="matrix(1 0 0 1 1114.259 562.3743)" font-family="'ArialMT'" font-size="11">Belgium</text>
	<text transform="matrix(1 0 0 1 1115.467 325.1819)" font-family="'ArialMT'" font-size="11">Canada</text>
	<text transform="matrix(1 0 0 1 1076.9622 603.3069)" font-family="'ArialMT'" font-size="11">Czech Republic</text>
	<text transform="matrix(1 0 0 1 1109.3772 474.1096)" font-family="'ArialMT'" font-size="11">Denmark</text>
	<text transform="matrix(1 0 0 1 1083.0803 212.1609)" font-family="'ArialMT'" font-size="11">EU Institutions</text>
	<text transform="matrix(1 0 0 1 1117.9221 516.8831)" font-family="'ArialMT'" font-size="11">Finland</text>
	<text transform="matrix(1 0 0 1 1119.7639 256.0681)" font-family="'ArialMT'" font-size="11">France</text>
	<text transform="matrix(1 0 0 1 1108.7639 294.1609)" font-family="'ArialMT'" font-size="11">Germany</text>
	<text transform="matrix(1 0 0 1 1117.928 583.0383)" font-family="'ArialMT'" font-size="11">Greece</text>
	<text transform="matrix(1 0 0 1 1118.5295 613.3547)" font-family="'ArialMT'" font-size="11">Iceland</text>
	<text transform="matrix(1 0 0 1 1120.3655 529.4788)" font-family="'ArialMT'" font-size="11">Ireland</text>
	<text transform="matrix(1 0 0 1 1133.8264 541.0735)" font-family="'ArialMT'" font-size="11">Italy</text>
	<text transform="matrix(1 0 0 1 1124.0295 73.4509)" font-family="'ArialMT'" font-size="11">Japan</text>
	<text transform="matrix(1 0 0 1 1124.6467 458.2727)" font-family="'ArialMT'" font-size="11">Korea</text>
	<text transform="matrix(1 0 0 1 1092.8499 593.2073)" font-family="'ArialMT'" font-size="11">Luxembourg</text>
	<text transform="matrix(1 0 0 1 1094.6868 351.0745)" font-family="'ArialMT'" font-size="11">Netherlands</text>
	<text transform="matrix(1 0 0 1 1089.1868 572.7561)" font-family="'ArialMT'" font-size="11">New Zealand</text>
	<text transform="matrix(1 0 0 1 1116.7131 420.1018)" font-family="'ArialMT'" font-size="11">Norway</text>
	<text transform="matrix(1 0 0 1 1113.0295 623.3801)" font-family="'ArialMT'" font-size="11">Portugal</text>
	<text transform="matrix(1 0 0 1 1125.8655 489.4153)" font-family="'ArialMT'" font-size="11">Spain</text>
	<text transform="matrix(1 0 0 1 1114.2483 375.4348)" font-family="'ArialMT'" font-size="11">Sweden</text>
	<text transform="matrix(1 0 0 1 1097.1409 440.4905)" font-family="'ArialMT'" font-size="11">Switzerland</text>
	<text transform="matrix(1 0 0 1 1075.7327 158.6853)" font-family="'ArialMT'" font-size="11">United Kingdom</text>
	<text transform="matrix(1 0 0 1 1087.9622 503.6516)" font-family="'ArialMT'" font-size="11">United States</text>
	<text transform="matrix(1 0 0 1 15.9998 367.4407)" font-family="'ArialMT'" font-size="11">AGRICULTURE</text>
	<text transform="matrix(1 0 0 1 15.9998 510.0354)" font-family="'ArialMT'" font-size="11">COMMODITY AID AND GENERAL PROGRAMME ASSISTANCE</text>
	<text transform="matrix(1 0 0 1 15.9998 532.262)" font-family="'ArialMT'" font-size="11">EDUCATION</text>
	<text transform="matrix(1 0 0 1 15.9998 446.342)" font-family="'ArialMT'" font-size="11">ENERGY GENERATION AND SUPPLY</text>
	<text transform="matrix(1 0 0 1 15.9998 552.9954)" font-family="'ArialMT'" font-size="11">FISHING</text>
	<text transform="matrix(1 0 0 1 15.9998 469.2317)" font-family="'ArialMT'" font-size="11">FORESTRY</text>
	<text transform="matrix(1 0 0 1 15.9998 485.8137)" font-family="'ArialMT'" font-size="11">GOVERNMENT AND CIVIL SOCIETY</text>
	<text transform="matrix(1 0 0 1 15.9998 414.0979)" font-family="'ArialMT'" font-size="11">HUMANITARIAN AID</text>
	<text transform="matrix(1 0 0 1 15.9998 542.679)" font-family="'ArialMT'" font-size="11">INDUSTRY</text>
	<text transform="matrix(1 0 0 1 15.9998 173.8337)" font-family="'ArialMT'" font-size="11">MULTISECTOR/CROSS-CUTTING</text>
	<text transform="matrix(1 0 0 1 15.9998 563.2698)" font-family="'ArialMT'" font-size="11">POPULATION POLICIES/PROGRAMMES AND REPRODUCTIVE HEALTH</text>
	<text transform="matrix(1 0 0 1 15.9998 498.2307)" font-family="'ArialMT'" font-size="11">TRADE POLICY AND REGULATIONS AND TRADE-RELATED ADJUSTMENT</text>
	<text transform="matrix(1 0 0 1 15.9998 521.4534)" font-family="'ArialMT'" font-size="11">TRANSPORT AND STORAGE</text>
	<text transform="matrix(1 0 0 1 15.9998 304.7625)" font-family="'ArialMT'" font-size="11">WATER AND SANITATION</text>
	<g>
		<text transform="matrix(1 0 0 1 2.441406e-04 69.53)" font-family="'SourceSansPro-Semibold'" font-size="12">SECTORS</text>
	</g>
	<g>
		<text transform="matrix(1 0 0 1 1109.1487 9.53)" font-family="'SourceSansPro-Semibold'" font-size="12">COUNTRIES</text>
	</g>
</g>
</svg>
