<?xml version="1.0" encoding="utf-8"?>
<!-- Generator: Adobe Illustrator 15.0.0, SVG Export Plug-In . SVG Version: 6.00 Build 0)  -->
<!DOCTYPE svg PUBLIC "-//W3C//DTD SVG 1.1//EN" "http://www.w3.org/Graphics/SVG/1.1/DTD/svg11.dtd">
<svg version="1.1" xmlns="http://www.w3.org/2000/svg" xmlns:xlink="http://www.w3.org/1999/xlink" x="0px" y="0px" width="1170px"
	 height="630px" viewBox="0 -10 1170 630" enable-background="new 0 -10 1170 630" xml:space="preserve">
<g id="flows">
	<path opacity="0.75" fill="none" stroke="#F05C55" stroke-width="186.5529" d="M10,145.277c575,0,575-40,1150-40"/>
	<path opacity="0.75" fill="none" stroke="#01434C" stroke-width="108.2469" d="M10,428.801c575,0,575-166.123,1150-166.123"/>
	<path opacity="0.75" fill="none" stroke="#F05C55" stroke-width="61.6655" d="M10,269.387c575,0,575,88.248,1150,88.248"/>
	<path opacity="0.75" fill="none" stroke="#F05C55" stroke-width="60.2622" d="M10,330.352c575,0,575,98.247,1150,98.247"/>
	<path opacity="0.75" fill="none" stroke="#01434C" stroke-width="19.5157" d="M10,492.681c575,0,575-14.193,1150-14.193"/>
	<path opacity="0.75" fill="none" stroke="#EDBF64" stroke-width="15.2479" d="M10,521.273c575,0,575-15.404,1150-15.404"/>
	<path opacity="0.75" fill="none" stroke="#EDBF64" stroke-width="4.6484" d="M10,531.222c575,0,575-5.404,1150-5.404"/>
	<path opacity="0.75" fill="none" stroke="#F05C55" stroke-width="3.3984" d="M10,362.182c575,0,575,177.659,1150,177.659"/>
	<path opacity="0.75" fill="none" stroke="#CCCACA" stroke-width="2.8884" d="M10,559.303c575,0,575-6.318,1150-6.318"/>
	<path opacity="0.75" fill="none" stroke="#BA9CA1" stroke-width="2.64" d="M10,544.865c575,0,575,20.883,1150,20.883"/>
	<path opacity="0.75" fill="none" stroke="#BA9CA1" stroke-width="1.6728" d="M10,547.022c575,0,575,30.883,1150,30.883"/>
	<path opacity="0.75" fill="none" stroke="#F7B49D" stroke-width="1.2552" d="M10,571.374c575,0,575,17.994,1150,17.994"/>
	<path opacity="0.75" fill="none" stroke="#01434C" stroke-width="1.2103" d="M10,503.045c575,0,575,97.558,1150,97.558"/>
	<path opacity="0.75" fill="none" stroke="#F05C55" d="M10,364.279c575,0,575,247.325,1150,247.325"/>
</g>
<g id="interactive">
	<rect x="0" y="513.649" width="10" height="19.896">
	<title>EU Institutions (75)</title>
	</rect>
	<rect x="0" y="374.677" width="10" height="128.974">
	<title>France (488)</title>
	</rect>
	<rect x="0" y="557.858" width="10" height="2.889">
	<title>Ireland (11)</title>
	</rect>
	<rect x="0" y="52.001" width="10" height="312.676">
	<title>Japan (1,183)</title>
	</rect>
	<rect x="0" y="543.547" width="10" height="4.312">
	<title>Spain (16)</title>
	</rect>
	<rect x="0" y="570.375" width="10" height="2">
	<title>Switzerland (5)</title>
	</rect>
	<rect x="1160" y="398.468" width="10" height="60.263">
	<title>AGRICULTURE (228)</title>
	</rect>
	<rect x="1160" y="551.54" width="10" height="2.89">
	<title>COMMODITY AID AND GENERAL PROGRAMME ASSISTANCE (11)</title>
	</rect>
	<rect x="1160" y="576.904" width="10" height="2">
	<title>EDUCATION (6)</title>
	</rect>
	<rect x="1160" y="468.73" width="10" height="19.516">
	<title>ENERGY GENERATION AND SUPPLY (74)</title>
	</rect>
	<rect x="1160" y="599.6" width="10" height="2">
	<title>FISHING (5)</title>
	</rect>
	<rect x="1160" y="498.245" width="10" height="15.248">
	<title>FORESTRY (58)</title>
	</rect>
	<rect x="1160" y="564.428" width="10" height="2.641">
	<title>GOVERNMENT AND CIVIL SOCIETY (10)</title>
	</rect>
	<rect x="1160" y="326.802" width="10" height="61.665">
	<title>HUMANITARIAN AID  (233)</title>
	</rect>
	<rect x="1160" y="588.368" width="10" height="2">
	<title>INDUSTRY (5)</title>
	</rect>
	<rect x="1160" y="12.001" width="10" height="186.554">
	<title>MULTISECTOR/CROSS-CUTTING (706)</title>
	</rect>
	<rect x="1160" y="610.604" width="10" height="2">
	<title>POPULATION POLICIES/PROGRAMMES AND REPRODUCTIVE HEALTH (3)</title>
	</rect>
	<rect x="1160" y="523.493" width="10" height="4.648">
	<title>TRADE POLICY AND REGULATIONS AND TRADE-RELATED ADJUSTMENT (18)</title>
	</rect>
	<rect x="1160" y="538.142" width="10" height="3.397">
	<title>TRANSPORT AND STORAGE (13)</title>
	</rect>
	<rect x="1160" y="208.554" width="10" height="108.248">
	<title>WATER AND SANITATION (410)</title>
	</rect>
</g>
<g id="texts">
	<text transform="matrix(1 0 0 1 15.9998 527.446)" font-family="'SourceSansPro-Regular'" font-size="11">EU Institutions</text>
	<text transform="matrix(1 0 0 1 15.9998 443.0115)" font-family="'SourceSansPro-Regular'" font-size="11">France</text>
	<text transform="matrix(1 0 0 1 15.9998 563.1511)" font-family="'SourceSansPro-Regular'" font-size="11">Ireland</text>
	<text transform="matrix(1 0 0 1 15.9998 212.1887)" font-family="'SourceSansPro-Regular'" font-size="11">Japan</text>
	<text transform="matrix(1 0 0 1 15.9998 549.5515)" font-family="'SourceSansPro-Regular'" font-size="11">Spain</text>
	<text transform="matrix(1 0 0 1 15.9998 575.2244)" font-family="'SourceSansPro-Regular'" font-size="11">Switzerland</text>
	<text transform="matrix(1 0 0 1 1089.6292 432.448)" font-family="'SourceSansPro-Regular'" font-size="11">AGRICULTURE</text>
	<text transform="matrix(1 0 0 1 889.4417 556.8328)" font-family="'SourceSansPro-Regular'" font-size="11">COMMODITY AID AND GENERAL PROGRAMME ASSISTANCE</text>
	<text transform="matrix(1 0 0 1 1099.3088 581.7537)" font-family="'SourceSansPro-Regular'" font-size="11">EDUCATION</text>
	<text transform="matrix(1 0 0 1 994.4143 482.3367)" font-family="'SourceSansPro-Regular'" font-size="11">ENERGY GENERATION AND SUPPLY</text>
	<text transform="matrix(1 0 0 1 1115.8303 604.45)" font-family="'SourceSansPro-Regular'" font-size="11">FISHING</text>
	<text transform="matrix(1 0 0 1 1106.1506 509.7175)" font-family="'SourceSansPro-Regular'" font-size="11">FORESTRY</text>
	<text transform="matrix(1 0 0 1 999.4963 569.5964)" font-family="'SourceSansPro-Regular'" font-size="11">GOVERNMENT AND CIVIL SOCIETY</text>
	<text transform="matrix(1 0 0 1 1064.0549 361.4832)" font-family="'SourceSansPro-Regular'" font-size="11">HUMANITARIAN AID</text>
	<text transform="matrix(1 0 0 1 1107.2073 593.2175)" font-family="'SourceSansPro-Regular'" font-size="11">INDUSTRY</text>
	<text transform="matrix(1 0 0 1 1008.3616 109.1292)" font-family="'SourceSansPro-Regular'" font-size="11">MULTISECTOR/CROSS-CUTTING</text>
	<text transform="matrix(1 0 0 1 842.2639 615.4529)" font-family="'SourceSansPro-Regular'" font-size="11">POPULATION POLICIES/PROGRAMMES AND REPRODUCTIVE HEALTH</text>
	<text transform="matrix(1 0 0 1 832.178 529.6667)" font-family="'SourceSansPro-Regular'" font-size="11">TRADE POLICY AND REGULATIONS AND TRADE-RELATED ADJUSTMENT</text>
	<text transform="matrix(1 0 0 1 1029.5022 543.6902)" font-family="'SourceSansPro-Regular'" font-size="11">TRANSPORT AND STORAGE</text>
	<text transform="matrix(1 0 0 1 1041.3401 266.5286)" font-family="'SourceSansPro-Regular'" font-size="11">WATER AND SANITATION</text>
	<text transform="matrix(1 0 0 1 2.441406e-04 41.9944)" font-family="'SourceSansPro-Semibold'" font-size="12">TOP COUNTRIES</text>
	<text transform="matrix(1 0 0 1 1121.7249 1.9949)" font-family="'SourceSansPro-Semibold'" font-size="12">SECTORS</text>
</g>
</svg>
