<?xml version="1.0" encoding="utf-8"?>
<!-- Generator: Adobe Illustrator 15.0.0, SVG Export Plug-In . SVG Version: 6.00 Build 0)  -->
<!DOCTYPE svg PUBLIC "-//W3C//DTD SVG 1.1//EN" "http://www.w3.org/Graphics/SVG/1.1/DTD/svg11.dtd">
<svg version="1.1" xmlns="http://www.w3.org/2000/svg" xmlns:xlink="http://www.w3.org/1999/xlink" x="0px" y="0px" width="1170px"
	 height="621px" viewBox="0 0 1170 621" enable-background="new 0 0 1170 621" xml:space="preserve">
<g id="flows">
	<path opacity="0.75" fill="none" stroke="#F4D9A0" stroke-width="1.0588" d="M10,227.215c575,0,575-207.163,1150-207.163"/>
	<path opacity="0.75" fill="none" stroke="#CCCACA" d="M10,278.086c575,0,575-78.111,1150-78.111"/>
	<path opacity="0.75" fill="none" stroke="#CCCACA" d="M10,285.508c575,0,575-50.941,1150-50.941"/>
	<path opacity="0.75" fill="none" stroke="#CCCACA" d="M10,285.163c575,0,575-64.526,1150-64.526"/>
	<path opacity="0.75" fill="none" stroke="#CCCACA" d="M10,285.334c575,0,575-57.734,1150-57.734"/>
	<g opacity="0.75">
		<path fill="none" stroke="#296275" d="M10,352.183c575,0,575,91.694,1150,91.694"/>
		<path fill="none" stroke="#296275" d="M10,351.693c575,0,575,84.901,1150,84.901"/>
		<path fill="none" stroke="#296275" d="M10,352.8c575,0,575,105.279,1150,105.279"/>
		<path fill="none" stroke="#296275" d="M10,352.518c575,0,575,98.487,1150,98.487"/>
	</g>
	<path opacity="0.75" fill="none" stroke="#CCCACA" d="M10,285.675c575,0,575-44.149,1150-44.149"/>
	<path opacity="0.75" fill="none" stroke="#CCCACA" d="M10,285.804c575,0,575-37.357,1150-37.357"/>
	<path opacity="0.75" fill="none" stroke="#CCCACA" d="M10,277.919c575,0,575-84.902,1150-84.902"/>
	<g opacity="0.75">
		<path fill="none" stroke="#F7B49D" stroke-width="1.5504" d="M10,361.361c575,0,575,125.655,1150,125.655"/>
		<path fill="none" stroke="#F7B49D" d="M10,360.324c575,0,575,118.864,1150,118.864"/>
		<path fill="none" stroke="#F7B49D" d="M10,359.983c575,0,575,112.07,1150,112.07"/>
		<path fill="none" stroke="#F7B49D" d="M10,359.855c575,0,575,105.278,1150,105.278"/>
	</g>
	<g opacity="0.75">
		<path fill="none" stroke="#EDBF64" stroke-width="1.1558" d="M10,344.098c575,0,575,84.902,1150,84.902"/>
		<path fill="none" stroke="#EDBF64" d="M10,343.177c575,0,575,78.111,1150,78.111"/>
		<path fill="none" stroke="#EDBF64" d="M10,342.596c575,0,575,71.318,1150,71.318"/>
		<path fill="none" stroke="#EDBF64" d="M10,342.137c575,0,575,64.525,1150,64.525"/>
		<path fill="none" stroke="#EDBF64" d="M10,341.66c575,0,575,50.94,1150,50.94"/>
		<path fill="none" stroke="#EDBF64" d="M10,341.876c575,0,575,57.732,1150,57.732"/>
	</g>
	<g opacity="0.75">
		<path fill="none" stroke="#A78B57" stroke-width="1.444" d="M10,371.365c575,0,575,146.032,1150,146.032"/>
		<path fill="none" stroke="#A78B57" stroke-width="1.1343" d="M10,370.076c575,0,575,139.239,1150,139.239"/>
		<path fill="none" stroke="#A78B57" d="M10,369.249c575,0,575,132.448,1150,132.448"/>
		<path fill="none" stroke="#A78B57" d="M10,368.959c575,0,575,125.656,1150,125.656"/>
	</g>
	<g opacity="0.75">
		<path fill="none" stroke="#01434C" stroke-width="8.2051" d="M10,242.067c575,0,575-166.408,1150-166.408"/>
		<path fill="none" stroke="#01434C" stroke-width="1.4793" d="M10,237.225c575,0,575-173.201,1150-173.201"/>
		<path fill="none" stroke="#01434C" d="M10,235.276c575,0,575-186.785,1150-186.785"/>
		<path fill="none" stroke="#01434C" d="M10,236.128c575,0,575-179.994,1150-179.994"/>
		<path fill="none" stroke="#01434C" d="M10,234.641c575,0,575-200.37,1150-200.37"/>
		<path fill="none" stroke="#01434C" d="M10,234.736c575,0,575-193.577,1150-193.577"/>
		<path fill="none" stroke="#01434C" d="M10,234.563c575,0,575-207.162,1150-207.162"/>
	</g>
	<path opacity="0.75" fill="none" stroke="#CCCACA" d="M10,285.89c575,0,575-30.564,1150-30.564"/>
	<path opacity="0.75" fill="none" stroke="#CCCACA" d="M10,278.216c575,0,575-71.318,1150-71.318"/>
	<path opacity="0.75" fill="none" stroke="#CCCACA" d="M10,412.337c575,0,575,207.163,1150,207.163"/>
	<g opacity="0.75">
		<path fill="none" stroke="#94A465" d="M10,270.571c575,0,575-84.902,1150-84.902"/>
		<path fill="none" stroke="#94A465" d="M10,269.463c575,0,575-125.656,1150-125.656"/>
		<path fill="none" stroke="#94A465" d="M10,269.724c575,0,575-118.864,1150-118.864"/>
		<path fill="none" stroke="#94A465" d="M10,269.993c575,0,575-98.487,1150-98.487"/>
		<path fill="none" stroke="#94A465" d="M10,269.864c575,0,575-112.07,1150-112.07"/>
		<path fill="none" stroke="#94A465" d="M10,269.927c575,0,575-105.279,1150-105.279"/>
		<path fill="none" stroke="#94A465" d="M10,270.054c575,0,575-91.695,1150-91.695"/>
	</g>
	<g opacity="0.75">
		<path fill="none" stroke="#F05C55" stroke-width="14.1406" d="M10,327.622c575,0,575,50.941,1150,50.941"/>
		<path fill="none" stroke="#F05C55" stroke-width="7.3682" d="M10,316.867c575,0,575,44.149,1150,44.149"/>
		<path fill="none" stroke="#F05C55" stroke-width="5.2297" d="M10,310.57c575,0,575,37.354,1150,37.354"/>
		<path fill="none" stroke="#F05C55" stroke-width="4.6742" d="M10,301.05c575,0,575,23.771,1150,23.771"/>
		<path fill="none" stroke="#F05C55" stroke-width="4.5678" d="M10,305.671c575,0,575,30.562,1150,30.562"/>
		<path fill="none" stroke="#F05C55" stroke-width="2.4352" d="M10,297.496c575,0,575,16.978,1150,16.978"/>
		<path fill="none" stroke="#F05C55" stroke-width="2.2048" d="M10,295.176c575,0,575,10.188,1150,10.188"/>
		<path fill="none" stroke="#F05C55" d="M10,293.823c575,0,575,3.396,1150,3.396"/>
		<path fill="none" stroke="#F05C55" d="M10,293.352c575,0,575-3.396,1150-3.396"/>
		<path fill="none" stroke="#F05C55" d="M10,292.835c575,0,575-30.565,1150-30.565"/>
		<path fill="none" stroke="#F05C55" d="M10,293.096c575,0,575-10.188,1150-10.188"/>
		<path fill="none" stroke="#F05C55" d="M10,292.993c575,0,575-23.772,1150-23.772"/>
		<path fill="none" stroke="#F05C55" d="M10,293.044c575,0,575-16.98,1150-16.98"/>
	</g>
	<path opacity="0.75" fill="none" stroke="#CCCACA" d="M10,285.047c575,0,575-71.318,1150-71.318"/>
	<g opacity="0.75">
		<path fill="none" stroke="#AFCDCC" d="M10,253.773c575,0,575-159.617,1150-159.617"/>
		<path fill="none" stroke="#AFCDCC" d="M10,254.869c575,0,575-139.24,1150-139.24"/>
		<path fill="none" stroke="#AFCDCC" d="M10,253.213c575,0,575-166.409,1150-166.409"/>
		<path fill="none" stroke="#AFCDCC" d="M10,254.335c575,0,575-152.825,1150-152.825"/>
		<path fill="none" stroke="#AFCDCC" d="M10,255.442c575,0,575-125.655,1150-125.655"/>
		<path fill="none" stroke="#AFCDCC" d="M10,255.155c575,0,575-132.447,1150-132.447"/>
		<path fill="none" stroke="#AFCDCC" d="M10,254.601c575,0,575-146.032,1150-146.032"/>
	</g>
	<g opacity="0.75">
		<path fill="none" stroke="#F59996" stroke-width="1.1289" d="M10,404.96c575,0,575,207.162,1150,207.162"/>
		<path fill="none" stroke="#F59996" d="M10,404.091c575,0,575,200.37,1150,200.37"/>
		<path fill="none" stroke="#F59996" d="M10,403.662c575,0,575,179.993,1150,179.993"/>
		<path fill="none" stroke="#F59996" d="M10,403.738c575,0,575,186.786,1150,186.786"/>
		<path fill="none" stroke="#F59996" d="M10,403.585c575,0,575,173.201,1150,173.201"/>
		<path fill="none" stroke="#F59996" d="M10,403.772c575,0,575,193.577,1150,193.577"/>
	</g>
	<g opacity="0.75">
		<path fill="none" stroke="#F1825D" stroke-width="10.6717" d="M10,391.44c575,0,575,173.2,1150,173.2"/>
		<path fill="none" stroke="#F1825D" d="M10,386.089c575,0,575,166.408,1150,166.408"/>
	</g>
	<path opacity="0.75" fill="none" stroke="#CCCACA" d="M10,262.501c575,0,575-125.656,1150-125.656"/>
	<g opacity="0.75">
		<path fill="none" stroke="#8D5C64" d="M10,379.128c575,0,575,166.409,1150,166.409"/>
		<path fill="none" stroke="#8D5C64" d="M10,378.902c575,0,575,146.032,1150,146.032"/>
		<path fill="none" stroke="#8D5C64" d="M10,378.955c575,0,575,159.616,1150,159.616"/>
		<path fill="none" stroke="#8D5C64" d="M10,378.928c575,0,575,152.825,1150,152.825"/>
	</g>
</g>
<g id="interactive">
	<rect x="0" y="269.306" width="10" height="1.762">
	<title>Australia (88)</title>
	</rect>
	<rect x="0" y="252.962" width="10" height="2.731">
	<title>Canada (136)</title>
	</rect>
	<rect x="0" y="341.484" width="10" height="3.192">
	<title>EU Institutions (159)</title>
	</rect>
	<rect x="0" y="411.839" width="10" height="1">
	<title>Finland (2)</title>
	</rect>
	<rect x="0" y="234.536" width="10" height="11.634">
	<title>France (581)</title>
	</rect>
	<rect x="0" y="351.469" width="10" height="1.545">
	<title>Germany (77)</title>
	</rect>
	<rect x="0" y="277.548" width="10" height="1">
	<title>Ireland (19)</title>
	</rect>
	<rect x="0" y="262.001" width="10" height="1">
	<title>Italy (1)</title>
	</rect>
	<rect x="0" y="292.706" width="10" height="41.986">
	<title>Japan (2,096)</title>
	</rect>
	<rect x="0" y="226.684" width="10" height="1.06">
	<title>Korea (53)</title>
	</rect>
	<rect x="0" y="368.927" width="10" height="3.158">
	<title>Netherlands (158)</title>
	</rect>
	<rect x="0" y="403.568" width="10" height="1.957">
	<title>Norway (98)</title>
	</rect>
	<rect x="0" y="284.97" width="10" height="1">
	<title>Spain (44)</title>
	</rect>
	<rect x="0" y="378.579" width="10" height="1">
	<title>Sweden (20)</title>
	</rect>
	<rect x="0" y="359.807" width="10" height="2.328">
	<title>Switzerland (116)</title>
	</rect>
	<rect x="0" y="386.074" width="10" height="10.701">
	<title>United Kingdom (534)</title>
	</rect>
	<rect x="1160" y="619" width="10" height="1">
	<title>Agricultural alternative development (2)</title>
	</rect>
	<rect x="1160" y="596.849" width="10" height="1">
	<title>Agricultural co-operatives (2)</title>
	</rect>
	<rect x="1160" y="516.674" width="10" height="1.444">
	<title>Agricultural development (72)</title>
	</rect>
	<rect x="1160" y="177.86" width="10" height="1">
	<title>Agricultural education/training (2)</title>
	</rect>
	<rect x="1160" y="611.557" width="10" height="1.129">
	<title>Agricultural extension (56)</title>
	</rect>
	<rect x="1160" y="450.507" width="10" height="1">
	<title>Agricultural financial services (7)</title>
	</rect>
	<rect x="1160" y="122.208" width="10" height="1">
	<title>Agricultural inputs (4)</title>
	</rect>
	<rect x="1160" y="420.788" width="10" height="1">
	<title>Agricultural land resources (34)</title>
	</rect>
	<rect x="1160" y="603.962" width="10" height="1">
	<title>Agricultural policy and admin. mgmt (30)</title>
	</rect>
	<rect x="1160" y="457.581" width="10" height="1">
	<title>Agricultural research (21)</title>
	</rect>
	<rect x="1160" y="590.022" width="10" height="1">
	<title>Agricultural services (2)</title>
	</rect>
	<rect x="1160" y="333.951" width="10" height="4.566">
	<title>Agricultural water resources (228)</title>
	</rect>
	<rect x="1160" y="108.071" width="10" height="1">
	<title>Agro-industries (2)</title>
	</rect>
	<rect x="1160" y="296.719" width="10" height="1">
	<title>Basic drinking water supply (25)</title>
	</rect>
	<rect x="1160" y="545.038" width="10" height="1">
	<title>Basic drinking water supply and basic sanitation (15)</title>
	</rect>
	<rect x="1160" y="254.824" width="10" height="1">
	<title>Basic health infrastructure (2)</title>
	</rect>
	<rect x="1160" y="247.947" width="10" height="1">
	<title>Basic nutrition (6)</title>
	</rect>
	<rect x="1160" y="559.304" width="10" height="10.672">
	<title>Bio-diversity (533)</title>
	</rect>
	<rect x="1160" y="129.288" width="10" height="1">
	<title>Biomass (25)</title>
	</rect>
	<rect x="1160" y="486.242" width="10" height="1.551">
	<title>Biosphere protection (77)</title>
	</rect>
	<rect x="1160" y="583.153" width="10" height="1">
	<title>Decentralisation and support to subnational govt. (6)</title>
	</rect>
	<rect x="1160" y="241.025" width="10" height="1">
	<title>Democratic participation and civil society (7)</title>
	</rect>
	<rect x="1160" y="313.257" width="10" height="2.436">
	<title>Disaster prevention and preparedness (122)</title>
	</rect>
	<rect x="1160" y="206.398" width="10" height="1">
	<title>Education policy and admin. management (2)</title>
	</rect>
	<rect x="1160" y="471.553" width="10" height="1">
	<title>Electrical transmission/distribution (8)</title>
	</rect>
	<rect x="1160" y="538.07" width="10" height="1">
	<title>Energy education/training (2)</title>
	</rect>
	<rect x="1160" y="413.416" width="10" height="1">
	<title>Energy policy and admin. management (24)</title>
	</rect>
	<rect x="1160" y="501.196" width="10" height="1">
	<title>Environmental education/training (26)</title>
	</rect>
	<rect x="1160" y="371.493" width="10" height="14.141">
	<title>Environmental policy and admin. mgmt (706)</title>
	</rect>
	<rect x="1160" y="185.169" width="10" height="1">
	<title>Environmental research (50)</title>
	</rect>
	<rect x="1160" y="40.658" width="10" height="1">
	<title>Fishery research (5)</title>
	</rect>
	<rect x="1160" y="576.286" width="10" height="1">
	<title>Fishing policy and admin. management (2)</title>
	</rect>
	<rect x="1160" y="345.309" width="10" height="5.23">
	<title>Flood prevention/control (261)</title>
	</rect>
	<rect x="1160" y="199.475" width="10" height="1">
	<title>Food aid/Food security programmes (11)</title>
	</rect>
	<rect x="1160" y="55.634" width="10" height="1">
	<title>Food crop production (36)</title>
	</rect>
	<rect x="1160" y="443.38" width="10" height="1">
	<title>Forestry development (27)</title>
	</rect>
	<rect x="1160" y="282.409" width="10" height="1">
	<title>Forestry education/training (3)</title>
	</rect>
	<rect x="1160" y="428.424" width="10" height="1.155">
	<title>Forestry policy and admin. management (58)</title>
	</rect>
	<rect x="1160" y="171.006" width="10" height="1">
	<title>Forestry research (4)</title>
	</rect>
	<rect x="1160" y="47.99" width="10" height="1">
	<title>Fuelwood/charcoal (49)</title>
	</rect>
	<rect x="1160" y="399.11" width="10" height="1">
	<title>General budget support-related aid (4)</title>
	</rect>
	<rect x="1160" y="115.128" width="10" height="1">
	<title>Geothermal energy (25)</title>
	</rect>
	<rect x="1160" y="531.252" width="10" height="1">
	<title>Health policy and admin. management (0)</title>
	</rect>
	<rect x="1160" y="234.067" width="10" height="1">
	<title>Human rights (10)</title>
	</rect>
	<rect x="1160" y="63.285" width="10" height="1.479">
	<title>Hydro-electric power plants (74)</title>
	</rect>
	<rect x="1160" y="494.113" width="10" height="1">
	<title>Industrial crops/export crops (3)</title>
	</rect>
	<rect x="1160" y="406.164" width="10" height="1">
	<title>Livestock (22)</title>
	</rect>
	<rect x="1160" y="289.456" width="10" height="1">
	<title>Material relief assistance and services (22)</title>
	</rect>
	<rect x="1160" y="508.749" width="10" height="1.134">
	<title>Multisector aid (57)</title>
	</rect>
	<rect x="1160" y="227.1" width="10" height="1">
	<title>Multisector aid for basic soc. serv. (7)</title>
	</rect>
	<rect x="1160" y="136.344" width="10" height="1">
	<title>Multisector education/training (1)</title>
	</rect>
	<rect x="1160" y="220.136" width="10" height="1">
	<title>Participation in international peacekeeping operations (10)</title>
	</rect>
	<rect x="1160" y="275.562" width="10" height="1">
	<title>Personnel dvpt: pop. and repro health (2)</title>
	</rect>
	<rect x="1160" y="164.147" width="10" height="1">
	<title>Power generat./non-renewable sources (2)</title>
	</rect>
	<rect x="1160" y="478.687" width="10" height="1">
	<title>Power generation/renewable sources (26)</title>
	</rect>
	<rect x="1160" y="524.434" width="10" height="1">
	<title>Public sector policy and adm. management (2)</title>
	</rect>
	<rect x="1160" y="322.484" width="10" height="4.674">
	<title>Reconstruction relief and rehabilitation (233)</title>
	</rect>
	<rect x="1160" y="268.72" width="10" height="1">
	<title>Reproductive health care (3)</title>
	</rect>
	<rect x="1160" y="551.999" width="10" height="1">
	<title>Research/scientific institutions (2)</title>
	</rect>
	<rect x="1160" y="33.771" width="10" height="1">
	<title>River basins development (5)</title>
	</rect>
	<rect x="1160" y="261.769" width="10" height="1">
	<title>Road transport (13)</title>
	</rect>
	<rect x="1160" y="436.095" width="10" height="1">
	<title>Rural development (22)</title>
	</rect>
	<rect x="1160" y="304.261" width="10" height="2.205">
	<title>Sanitation - large systems (110)</title>
	</rect>
	<rect x="1160" y="26.902" width="10" height="1">
	<title>Security system management and reform (3)</title>
	</rect>
	<rect x="1160" y="464.634" width="10" height="1">
	<title>Small and medium-sized enterprises (SME) development (5)</title>
	</rect>
	<rect x="1160" y="192.515" width="10" height="1">
	<title>Social mitigation of HIV/AIDS (6)</title>
	</rect>
	<rect x="1160" y="157.294" width="10" height="1">
	<title>Social/welfare services (4)</title>
	</rect>
	<rect x="1160" y="101.01" width="10" height="1">
	<title>Solar energy (25)</title>
	</rect>
	<rect x="1160" y="392.101" width="10" height="1">
	<title>Trade policy and admin. management (18)</title>
	</rect>
	<rect x="1160" y="150.361" width="10" height="1">
	<title>Transport policy and admin. management (10)</title>
	</rect>
	<rect x="1160" y="143.307" width="10" height="1">
	<title>Urban development and management (16)</title>
	</rect>
	<rect x="1160" y="19.522" width="10" height="1.06">
	<title>Water resources policy/admin. mgmt (53)</title>
	</rect>
	<rect x="1160" y="93.657" width="10" height="1">
	<title>Water resources protection (31)</title>
	</rect>
	<rect x="1160" y="357.333" width="10" height="7.368">
	<title>Water supply - large systems (368)</title>
	</rect>
	<rect x="1160" y="71.555" width="10" height="8.205">
	<title>Water supply and sanit. - large systems (410)</title>
	</rect>
	<rect x="1160" y="86.303" width="10" height="1">
	<title>Wind power (25)</title>
	</rect>
	<rect x="1160" y="213.228" width="10" height="1">
	<title>Women&apos;s equality organisations and institutions (2)</title>
	</rect>
</g>
<g id="texts">
	<text transform="matrix(1 0 0 1 1028.1917 340.0857)" font-family="'SourceSansPro-Regular'" font-size="10">Agricultural water resources</text>
	<text transform="matrix(1 0 0 1 1094.0959 568.4929)" font-family="'SourceSansPro-Regular'" font-size="10">Bio-diversity</text>
	<text transform="matrix(1 0 0 1 986.1643 318.3259)" font-family="'SourceSansPro-Regular'" font-size="10">Disaster prevention and preparedness</text>
	<text transform="matrix(1 0 0 1 979.4124 382.4148)" font-family="'SourceSansPro-Regular'" font-size="10">Environmental policy and admin. mgmt</text>
	<text transform="matrix(1 0 0 1 1035.9866 351.7751)" font-family="'SourceSansPro-Regular'" font-size="10">Flood prevention/control</text>
	<text transform="matrix(1 0 0 1 980.9436 328.6716)" font-family="'SourceSansPro-Regular'" font-size="10">Reconstruction relief and rehabilitation</text>
	<text transform="matrix(1 0 0 1 1037.7209 309.2131)" font-family="'SourceSansPro-Regular'" font-size="10">Sanitation - large systems</text>
	<text transform="matrix(1 0 0 1 1026.6624 364.8679)" font-family="'SourceSansPro-Regular'" font-size="10">Water supply - large systems</text>
	<text transform="matrix(1 0 0 1 983.2327 79.5081)" font-family="'SourceSansPro-Regular'" font-size="10">Water supply and sanit. - large systems</text>
	<text transform="matrix(1 0 0 1 15.9998 274.0364)" font-family="'SourceSansPro-Regular'" font-size="10">Australia</text>
	<text transform="matrix(1 0 0 1 15.9998 258.178)" font-family="'SourceSansPro-Regular'" font-size="10">Canada</text>
	<text transform="matrix(1 0 0 1 15.9998 346.9324)" font-family="'SourceSansPro-Regular'" font-size="10">EU Institutions</text>
	<text transform="matrix(1 0 0 1 15.9998 244.2034)" font-family="'SourceSansPro-Regular'" font-size="10">France</text>
	<text transform="matrix(1 0 0 1 15.9998 356.0945)" font-family="'SourceSansPro-Regular'" font-size="10">Germany</text>
	<text transform="matrix(1 0 0 1 15.9998 317.5486)" font-family="'SourceSansPro-Regular'" font-size="10">Japan</text>
	<text transform="matrix(1 0 0 1 15.9998 231.0647)" font-family="'SourceSansPro-Regular'" font-size="10">Korea</text>
	<text transform="matrix(1 0 0 1 15.9998 374.3582)" font-family="'SourceSansPro-Regular'" font-size="10">Netherlands</text>
	<text transform="matrix(1 0 0 1 15.9998 408.3972)" font-family="'SourceSansPro-Regular'" font-size="10">Norway</text>
	<text transform="matrix(1 0 0 1 15.9998 382.9324)" font-family="'SourceSansPro-Regular'" font-size="10">Sweden</text>
	<text transform="matrix(1 0 0 1 15.9998 364.824)" font-family="'SourceSansPro-Regular'" font-size="10">Switzerland</text>
	<text transform="matrix(1 0 0 1 15.9998 395.2761)" font-family="'SourceSansPro-Regular'" font-size="10">United Kingdom</text>
	<text transform="matrix(1 0 0 1 -2.441406e-04 216.678)" font-family="'SourceSansPro-Semibold'" font-size="12">TOP COUNTRIES</text>
	<text transform="matrix(1 0 0 1 1136.4241 9.5154)" font-family="'SourceSansPro-Semibold'" font-size="12">AREAS</text>
</g>
</svg>
