<?xml version="1.0" encoding="utf-8"?>
<!-- Generator: Adobe Illustrator 15.0.0, SVG Export Plug-In . SVG Version: 6.00 Build 0)  -->
<!DOCTYPE svg PUBLIC "-//W3C//DTD SVG 1.1//EN" "http://www.w3.org/Graphics/SVG/1.1/DTD/svg11.dtd">
<svg version="1.1" xmlns="http://www.w3.org/2000/svg" xmlns:xlink="http://www.w3.org/1999/xlink" x="0px" y="0px" width="1170px"
	 height="620px" viewBox="0 0 1170 620" enable-background="new 0 0 1170 620" xml:space="preserve">
<g id="flows">
	<path opacity="0.75" fill="none" stroke="#F05C55" stroke-width="83.1933" d="M10,478.98c575,0,575-70,1150-70"/>
	<path opacity="0.75" fill="none" stroke="#F1825D" stroke-width="62.7844" d="M10,395.992c575,0,575-60,1150-60"/>
	<path opacity="0.75" fill="none" stroke="#EDBF64" stroke-width="55.2339" d="M10,326.982c575,0,575-50,1150-50"/>
	<path opacity="0.75" fill="none" stroke="#00434C" stroke-width="48.2727" d="M10,70.477c575,0,575,70,1150,70"/>
	<path opacity="0.75" fill="none" stroke="#296275" stroke-width="13.6856" d="M10,259.092c575,0,575-30,1150-30"/>
	<path opacity="0.75" fill="none" stroke="#C9B899" stroke-width="13.4311" d="M10,282.65c575,0,575-40,1150-40"/>
	<path opacity="0.75" fill="none" stroke="#8D5C64" stroke-width="10.7253" d="M10,217.247c575,0,575-10,1150-10"/>
	<path opacity="0.75" fill="none" stroke="#94A465" stroke-width="9.6399" d="M10,237.429c575,0,575-20,1150-20"/>
	<path opacity="0.75" fill="none" stroke="#F7B49D" stroke-width="9.1214" d="M10,197.323c575,0,575,0,1150,0"/>
	<path opacity="0.75" fill="none" stroke="#A78B57" stroke-width="8.4956" d="M10,605.753c575,0,575-100,1150-100"/>
	<path opacity="0.75" fill="none" stroke="#CCCACA" stroke-width="7.3065" d="M10,162.457c575,0,575,20,1150,20"/>
	<path opacity="0.75" fill="none" stroke="#AFCDCC" stroke-width="6.6525" d="M10,179.437c575,0,575,10,1150,10"/>
	<path opacity="0.75" fill="none" stroke="#F59996" stroke-width="6.6419" d="M10,588.184c575,0,575-90,1150-90"/>
	<path opacity="0.75" fill="none" stroke="#EFC164" stroke-width="6.2294" d="M10,33.226c575,0,575,80,1150,80"/>
	<path opacity="0.75" fill="none" stroke="#CCCACA" stroke-width="2.2768" d="M10,147.665c575,0,575,30,1150,30"/>
	<path opacity="0.75" fill="none" stroke="#CCCACA" stroke-width="1.9622" d="M10,542.199c575,0,575-79.999,1150-79.999"/>
	<path opacity="0.75" fill="none" stroke="#CCCACA" stroke-width="1.2881" d="M10,563.894c575,0,575-80,1150-80"/>
	<path opacity="0.75" fill="none" stroke="#CCCACA" d="M10,125.555c575,0,575,50,1150,50"/>
	<path opacity="0.75" fill="none" stroke="#CCCACA" d="M10,530.898c575,0,575-70,1150-70"/>
	<path opacity="0.75" fill="none" stroke="#CCCACA" d="M10,136.283c575,0,575,40,1150,40"/>
	<path opacity="0.75" fill="none" stroke="#CCCACA" d="M10,114.903c575,0,575,60,1150,60"/>
	<path opacity="0.75" fill="none" stroke="#CCCACA" d="M10,574.7c575,0,575-80,1150-80"/>
	<path opacity="0.75" fill="none" stroke="#CCCACA" d="M10,104.674c575,0,575,70,1150,70"/>
	<path opacity="0.75" fill="none" stroke="#CCCACA" d="M10,20.069c575,0,575,90,1150,90"/>
	<path opacity="0.75" fill="none" stroke="#CCCACA" d="M10,553.216c575,0,575-80,1150-80"/>
	<path opacity="0.75" fill="none" stroke="#CCCACA" d="M10,10.014c575,0,575,100,1150,100"/>
</g>
<g id="texts">
	<text transform="matrix(1 0 0 1 15.9998 241.2791)" font-family="'SourceSansPro-Regular'" font-size="11">Australia</text>
	<text transform="matrix(1 0 0 1 15.9998 140.1345)" font-family="'SourceSansPro-Regular'" font-size="11">Austria</text>
	<text transform="matrix(1 0 0 1 15.9998 578.5505)" font-family="'SourceSansPro-Regular'" font-size="11">Belgium</text>
	<text transform="matrix(1 0 0 1 15.9998 183.2859)" font-family="'SourceSansPro-Regular'" font-size="11">Canada</text>
	<text transform="matrix(1 0 0 1 15.9998 23.9187)" font-family="'SourceSansPro-Regular'" font-size="11">Czech Republic</text>
	<text transform="matrix(1 0 0 1 15.9998 286.4998)" font-family="'SourceSansPro-Regular'" font-size="11">Denmark</text>
	<text transform="matrix(1 0 0 1 15.9998 330.8337)" font-family="'SourceSansPro-Regular'" font-size="11">EU Institutions</text>
	<text transform="matrix(1 0 0 1 15.9998 151.5154)" font-family="'SourceSansPro-Regular'" font-size="11">Finland</text>
	<text transform="matrix(1 0 0 1 15.9998 74.3259)" font-family="'SourceSansPro-Regular'" font-size="11">France</text>
	<text transform="matrix(1 0 0 1 15.9998 262.9431)" font-family="'SourceSansPro-Regular'" font-size="11">Germany</text>
	<text transform="matrix(1 0 0 1 15.9998 118.7527)" font-family="'SourceSansPro-Regular'" font-size="11">Greece</text>
	<text transform="matrix(1 0 0 1 15.9998 557.0652)" font-family="'SourceSansPro-Regular'" font-size="11">Iceland</text>
	<text transform="matrix(1 0 0 1 15.9998 567.7439)" font-family="'SourceSansPro-Regular'" font-size="11">Ireland</text>
	<text transform="matrix(1 0 0 1 15.9998 129.406)" font-family="'SourceSansPro-Regular'" font-size="11">Italy</text>
	<text transform="matrix(1 0 0 1 15.9998 482.8318)" font-family="'SourceSansPro-Regular'" font-size="11">Japan</text>
	<text transform="matrix(1 0 0 1 15.9998 37.0759)" font-family="'SourceSansPro-Regular'" font-size="11">Korea</text>
	<text transform="matrix(1 0 0 1 15.9998 108.5251)" font-family="'SourceSansPro-Regular'" font-size="11">Luxembourg</text>
	<text transform="matrix(1 0 0 1 15.9998 609.6023)" font-family="'SourceSansPro-Regular'" font-size="11">Netherlands</text>
	<text transform="matrix(1 0 0 1 15.9998 534.7478)" font-family="'SourceSansPro-Regular'" font-size="11">New Zealand</text>
	<text transform="matrix(1 0 0 1 15.9998 592.033)" font-family="'SourceSansPro-Regular'" font-size="11">Norway</text>
	<text transform="matrix(1 0 0 1 15.9998 13.863)" font-family="'SourceSansPro-Regular'" font-size="11">Portugal</text>
	<text transform="matrix(1 0 0 1 15.9998 546.0505)" font-family="'SourceSansPro-Regular'" font-size="11">Spain</text>
	<text transform="matrix(1 0 0 1 15.9998 221.0974)" font-family="'SourceSansPro-Regular'" font-size="11">Sweden</text>
	<text transform="matrix(1 0 0 1 15.9998 201.1736)" font-family="'SourceSansPro-Regular'" font-size="11">Switzerland</text>
	<text transform="matrix(1 0 0 1 15.9998 399.8416)" font-family="'SourceSansPro-Regular'" font-size="11">United Kingdom</text>
	<text transform="matrix(1 0 0 1 15.9998 166.3064)" font-family="'SourceSansPro-Regular'" font-size="11">United States</text>
	<text transform="matrix(1 0 0 1 1087.6292 506.1189)" font-family="'SourceSansPro-Regular'" font-size="11">AGRICULTURE</text>
	<text transform="matrix(1 0 0 1 887.4417 487.7439)" font-family="'SourceSansPro-Regular'" font-size="11">COMMODITY AID AND GENERAL PROGRAMME ASSISTANCE</text>
	<text transform="matrix(1 0 0 1 1104.1506 477.0652)" font-family="'SourceSansPro-Regular'" font-size="11">FORESTRY</text>
	<text transform="matrix(1 0 0 1 1062.0549 465.7283)" font-family="'SourceSansPro-Regular'" font-size="11">HUMANITARIAN AID</text>
	<text transform="matrix(1 0 0 1 1006.3616 316.4451)" font-family="'SourceSansPro-Regular'" font-size="11">MULTISECTOR/CROSS-CUTTING</text>
	<text transform="matrix(1 0 0 1 1039.3401 141.156)" font-family="'SourceSansPro-Regular'" font-size="11">WATER AND SANITATION</text>
	<text transform="matrix(1 0 0 1 2.441406e-04 -0.991)" font-family="'SourceSansPro-Semibold'" font-size="12">COUNTRIES</text>
	<text transform="matrix(1 0 0 1 1097.5217 99.9939)" font-family="'SourceSansPro-Semibold'" font-size="12">TOP SECTORS</text>
</g>
<g id="interactive">
	<rect x="0" y="232.609" width="10" height="9.64">
	<title>Australia (82)</title>
	</rect>
	<rect x="0" y="135.283" width="10" height="2">
	<title>Austria (4)</title>
	</rect>
	<rect x="0" y="573.7" width="10" height="2">
	<title>Belgium (3)</title>
	</rect>
	<rect x="0" y="176.11" width="10" height="6.652">
	<title>Canada (56)</title>
	</rect>
	<rect x="0" y="19.068" width="10" height="2">
	<title>Czech Republic (1)</title>
	</rect>
	<rect x="0" y="275.935" width="10" height="13.431">
	<title>Denmark (114)</title>
	</rect>
	<rect x="0" y="299.366" width="10" height="55.234">
	<title>EU Institutions (469)</title>
	</rect>
	<rect x="0" y="146.527" width="10" height="2.277">
	<title>Finland (19)</title>
	</rect>
	<rect x="0" y="46.34" width="10" height="48.272">
	<title>France (410)</title>
	</rect>
	<rect x="0" y="252.249" width="10" height="13.687">
	<title>Germany (116)</title>
	</rect>
	<rect x="0" y="113.903" width="10" height="2">
	<title>Greece (3)</title>
	</rect>
	<rect x="0" y="552.216" width="10" height="2">
	<title>Iceland (1)</title>
	</rect>
	<rect x="0" y="562.893" width="10" height="2">
	<title>Ireland (11)</title>
	</rect>
	<rect x="0" y="124.555" width="10" height="2">
	<title>Italy (8)</title>
	</rect>
	<rect x="0" y="437.385" width="10" height="83.191">
	<title>Japan (706)</title>
	</rect>
	<rect x="0" y="30.111" width="10" height="6.229">
	<title>Korea (53)</title>
	</rect>
	<rect x="0" y="103.675" width="10" height="2">
	<title>Luxembourg (1)</title>
	</rect>
	<rect x="0" y="601.505" width="10" height="8.495">
	<title>Netherlands (72)</title>
	</rect>
	<rect x="0" y="529.898" width="10" height="2">
	<title>New Zealand (5)</title>
	</rect>
	<rect x="0" y="584.862" width="10" height="6.643">
	<title>Norway (56)</title>
	</rect>
	<rect x="0" y="9.015" width="10" height="2">
	<title>Portugal (0)</title>
	</rect>
	<rect x="0" y="541.2" width="10" height="2">
	<title>Spain (17)</title>
	</rect>
	<rect x="0" y="211.884" width="10" height="10.727">
	<title>Sweden (91)</title>
	</rect>
	<rect x="0" y="192.763" width="10" height="9.12">
	<title>Switzerland (77)</title>
	</rect>
	<rect x="0" y="364.6" width="10" height="62.785">
	<title>United Kingdom (533)</title>
	</rect>
	<rect x="0" y="158.804" width="10" height="7.306">
	<title>United States (62)</title>
	</rect>
	<rect x="1160" y="494.537" width="10" height="15.463">
	<title>AGRICULTURE (131)</title>
	</rect>
	<rect x="1160" y="482.893" width="10" height="2">
	<title>COMMODITY AID AND GENERAL PROGRAMME ASSISTANCE (11)</title>
	</rect>
	<rect x="1160" y="472.216" width="10" height="2">
	<title>FORESTRY (1)</title>
	</rect>
	<rect x="1160" y="460.577" width="10" height="2.604">
	<title>HUMANITARIAN AID  (22)</title>
	</rect>
	<rect x="1160" y="174.613" width="10" height="275.964">
	<title>MULTISECTOR/CROSS-CUTTING (2,342)</title>
	</rect>
	<rect x="1160" y="110" width="10" height="54.613">
	<title>WATER AND SANITATION (463)</title>
	</rect>
</g>
</svg>
