<?xml version="1.0" encoding="utf-8"?>
<!-- Generator: Adobe Illustrator 15.0.0, SVG Export Plug-In . SVG Version: 6.00 Build 0)  -->
<!DOCTYPE svg PUBLIC "-//W3C//DTD SVG 1.1//EN" "http://www.w3.org/Graphics/SVG/1.1/DTD/svg11.dtd">
<svg version="1.1" xmlns="http://www.w3.org/2000/svg" xmlns:xlink="http://www.w3.org/1999/xlink" x="0px" y="0px" width="1170px"
	 height="625px" viewBox="0 0 1170 625" enable-background="new 0 0 1170 625" xml:space="preserve">
<g id="flows">
	<path opacity="0.75" fill="none" stroke="#F05C55" stroke-width="83.1933" d="M10,369.697c575,0,575-20,1150-20"/>
	<path opacity="0.75" fill="none" stroke="#F1825D" stroke-width="62.7844" d="M10,522.033c575,0,575-50,1150-50"/>
	<path opacity="0.75" fill="none" stroke="#EDBF64" stroke-width="55.2339" d="M10,290.48c575,0,575-10,1150-10"/>
	<path opacity="0.75" fill="none" stroke="#01434C" stroke-width="48.2727" d="M10,43.132c575,0,575,70,1150,70"/>
	<path opacity="0.75" fill="none" stroke="#296275" stroke-width="13.6856" d="M10,222.59c575,0,575,10,1150,10"/>
	<path opacity="0.75" fill="none" stroke="#C9B899" stroke-width="13.4311" d="M10,246.147c575,0,575,0,1150,0"/>
	<path opacity="0.75" fill="none" stroke="#8D5C64" stroke-width="10.7253" d="M10,180.744c575,0,575,30,1150,30"/>
	<path opacity="0.75" fill="none" stroke="#94A465" stroke-width="9.6399" d="M10,200.927c575,0,575,20,1150,20"/>
	<path opacity="0.75" fill="none" stroke="#F7B49D" stroke-width="9.1214" d="M10,476.08c575,0,575-49.999,1150-49.999"/>
	<path opacity="0.75" fill="none" stroke="#A78B57" stroke-width="8.4956" d="M10,614.752c575,0,575-70,1150-70"/>
	<path opacity="0.75" fill="none" stroke="#CCCACA" stroke-width="7.3065" d="M10,161.727c575,0,575,40,1150,40"/>
	<path opacity="0.75" fill="none" stroke="#AFCDCC" stroke-width="6.6525" d="M10,458.193c575,0,575-40,1150-40"/>
	<path opacity="0.75" fill="none" stroke="#F59996" stroke-width="6.6419" d="M10,586.857c575,0,575-60,1150-60"/>
	<path opacity="0.75" fill="none" stroke="#F4D9A0" stroke-width="6.2294" d="M10,80.383c575,0,575,70,1150,70"/>
	<path opacity="0.75" fill="none" stroke="#CCCACA" stroke-width="2.2768" d="M10,146.936c575,0,575,50,1150,50"/>
	<path opacity="0.75" fill="none" stroke="#CCCACA" stroke-width="1.9622" d="M10,432.917c575,0,575-30,1150-30"/>
	<path opacity="0.75" fill="none" stroke="#CCCACA" stroke-width="1.2881" d="M10,114.332c575,0,575,70,1150,70"/>
	<path opacity="0.75" fill="none" stroke="#CCCACA" d="M10,444.383c575,0,575-30,1150-30"/>
	<path opacity="0.75" fill="none" stroke="#CCCACA" d="M10,421.614c575,0,575-20,1150-20"/>
	<path opacity="0.75" fill="none" stroke="#CCCACA" d="M10,135.554c575,0,575,60,1150,60"/>
	<path opacity="0.75" fill="none" stroke="#CCCACA" d="M10,125.143c575,0,575,70,1150,70"/>
	<path opacity="0.75" fill="none" stroke="#CCCACA" d="M10,600.342c575,0,575-60,1150-60"/>
	<path opacity="0.75" fill="none" stroke="#CCCACA" d="M10,93.558c575,0,575,70,1150,70"/>
	<path opacity="0.75" fill="none" stroke="#CCCACA" d="M10,573.494c575,0,575-60,1150-60"/>
	<path opacity="0.75" fill="none" stroke="#CCCACA" d="M10,103.654c575,0,575,70,1150,70"/>
	<path opacity="0.75" fill="none" stroke="#CCCACA" d="M10,563.439c575,0,575-50,1150-50"/>
	<text transform="matrix(1 0 0 1 -2.441406e-04 8.989)" font-family="'SourceSansPro-Semibold'" font-size="12">COUNTRIES</text>
	<text transform="matrix(1 0 0 1 1112.2209 78.989)" font-family="'SourceSansPro-Semibold'" font-size="12">TOP AREAS</text>
</g>
<g id="interactive">
	<rect x="0" y="196.106" width="10" height="9.64">
	<title>Australia
 (82)</title>
	</rect>
	<rect x="0" y="135.055" width="10" height="1">
	<title>Austria
 (4)</title>
	</rect>
	<rect x="0" y="599.842" width="10" height="1">
	<title>Belgium
 (3)</title>
	</rect>
	<rect x="0" y="454.867" width="10" height="6.652">
	<title>Canada
 (56)</title>
	</rect>
	<rect x="0" y="572.994" width="10" height="1">
	<title>Czech Republic
 (1)</title>
	</rect>
	<rect x="0" y="239.432" width="10" height="13.431">
	<title>Denmark
 (114)</title>
	</rect>
	<rect x="0" y="262.863" width="10" height="55.237">
	<title>EU Institutions
 (469)</title>
	</rect>
	<rect x="0" y="145.799" width="10" height="2.275">
	<title>Finland
 (19)</title>
	</rect>
	<rect x="0" y="18.995" width="10" height="48.272">
	<title>France
 (410)</title>
	</rect>
	<rect x="0" y="215.746" width="10" height="13.687">
	<title>Germany
 (116)</title>
	</rect>
	<rect x="0" y="124.644" width="10" height="1">
	<title>Greece
 (3)</title>
	</rect>
	<rect x="0" y="103.155" width="10" height="1">
	<title>Iceland
 (1)</title>
	</rect>
	<rect x="0" y="113.688" width="10" height="1.288">
	<title>Ireland
 (11)</title>
	</rect>
	<rect x="0" y="443.882" width="10" height="1">
	<title>Italy
 (8)</title>
	</rect>
	<rect x="0" y="328.101" width="10" height="83.193">
	<title>Japan
 (706)</title>
	</rect>
	<rect x="0" y="77.267" width="10" height="6.229">
	<title>Korea
 (53)</title>
	</rect>
	<rect x="0" y="93.058" width="10" height="1">
	<title>Luxembourg
 (1)</title>
	</rect>
	<rect x="0" y="610.504" width="10" height="8.495">
	<title>Netherlands
 (72)</title>
	</rect>
	<rect x="0" y="421.115" width="10" height="1">
	<title>New Zealand
 (5)</title>
	</rect>
	<rect x="0" y="583.536" width="10" height="6.643">
	<title>Norway
 (56)</title>
	</rect>
	<rect x="0" y="562.94" width="10" height="1">
	<title>Portugal
 (0)</title>
	</rect>
	<rect x="0" y="431.936" width="10" height="1.962">
	<title>Spain
 (17)</title>
	</rect>
	<rect x="0" y="175.382" width="10" height="10.726">
	<title>Sweden
 (91)</title>
	</rect>
	<rect x="0" y="471.52" width="10" height="9.121">
	<title>Switzerland
 (77)</title>
	</rect>
	<rect x="0" y="490.641" width="10" height="62.785">
	<title>United Kingdom
 (533)</title>
	</rect>
	<rect x="0" y="158.074" width="10" height="7.308">
	<title>United States
 (62)</title>
	</rect>
	<rect x="1160" y="540.178" width="10" height="8.82">
	<title>Agricultural development
 (75)</title>
	</rect>
	<rect x="1160" y="523.536" width="10" height="6.643">
	<title>Agricultural extension
 (56)</title>
	</rect>
	<rect x="1160" y="512.981" width="10" height="1">
	<title>Basic drinking water supply
 (1)</title>
	</rect>
	<rect x="1160" y="440.641" width="10" height="62.785">
	<title>Bio-diversity
 (533)</title>
	</rect>
	<rect x="1160" y="413.897" width="10" height="16.743">
	<title>Biosphere protection
 (142)</title>
	</rect>
	<rect x="1160" y="401.295" width="10" height="2.604">
	<title>Disaster prevention and preparedness
 (22)</title>
	</rect>
	<rect x="1160" y="194.976" width="10" height="196.318">
	<title>Environmental policy and admin. mgmt
 (1,666)</title>
	</rect>
	<rect x="1160" y="183.688" width="10" height="1.288">
	<title>Food aid/Food security programmes
 (11)</title>
	</rect>
	<rect x="1160" y="173.155" width="10" height="1">
	<title>Forestry education/training
 (1)</title>
	</rect>
	<rect x="1160" y="163.058" width="10" height="1">
	<title>Multisector aid for basic soc. serv.
 (1)</title>
	</rect>
	<rect x="1160" y="147.267" width="10" height="6.229">
	<title>Water resources policy/admin. mgmt
 (53)</title>
	</rect>
	<rect x="1160" y="88.995" width="10" height="48.272">
	<title>Water supply and sanit. - large systems
 (410)</title>
	</rect>
</g>
<g id="text">
	<text transform="matrix(1 0 0 1 1033.9612 548.4363)" font-family="'SourceSansPro-Regular'" font-size="11">Agricultural development</text>
	<text transform="matrix(1 0 0 1 1050.6487 530.7048)" font-family="'SourceSansPro-Regular'" font-size="11">Agricultural extension</text>
	<text transform="matrix(1 0 0 1 1024.5022 517.3279)" font-family="'SourceSansPro-Regular'" font-size="11">Basic drinking water supply</text>
	<text transform="matrix(1 0 0 1 1094.0959 475.8816)" font-family="'SourceSansPro-Regular'" font-size="11">Bio-diversity</text>
	<text transform="matrix(1 0 0 1 1054.0686 426.116)" font-family="'SourceSansPro-Regular'" font-size="11">Biosphere protection</text>
	<text transform="matrix(1 0 0 1 976.2795 406.4431)" font-family="'SourceSansPro-Regular'" font-size="11">Disaster prevention and preparedness</text>
	<text transform="matrix(1 0 0 1 968.8538 296.9851)" font-family="'SourceSansPro-Regular'" font-size="11">Environmental policy and admin. mgmt</text>
	<text transform="matrix(1 0 0 1 984.1877 188.1833)" font-family="'SourceSansPro-Regular'" font-size="11">Food aid/Food security programmes</text>
	<text transform="matrix(1 0 0 1 1024.5686 177.5056)" font-family="'SourceSansPro-Regular'" font-size="11">Forestry education/training</text>
	<text transform="matrix(1 0 0 1 997.0686 167.4099)" font-family="'SourceSansPro-Regular'" font-size="11">Multisector aid for basic soc. serv.</text>
	<text transform="matrix(1 0 0 1 982.0315 154.2341)" font-family="'SourceSansPro-Regular'" font-size="11">Water resources policy/admin. mgmt</text>
	<text transform="matrix(1 0 0 1 973.0549 116.9822)" font-family="'SourceSansPro-Regular'" font-size="11">Water supply and sanit. - large systems</text>
	<text transform="matrix(1 0 0 1 15.9998 204.7771)" font-family="'SourceSansPro-Regular'" font-size="11">Australia</text>
	<text transform="matrix(1 0 0 1 15.9998 139.406)" font-family="'SourceSansPro-Regular'" font-size="11">Austria</text>
	<text transform="matrix(1 0 0 1 15.9998 604.1873)" font-family="'SourceSansPro-Regular'" font-size="11">Belgium</text>
	<text transform="matrix(1 0 0 1 15.9998 462.0398)" font-family="'SourceSansPro-Regular'" font-size="11">Canada</text>
	<text transform="matrix(1 0 0 1 15.9998 577.3416)" font-family="'SourceSansPro-Regular'" font-size="11">Czech Republic</text>
	<text transform="matrix(1 0 0 1 15.9998 249.9988)" font-family="'SourceSansPro-Regular'" font-size="11">Denmark</text>
	<text transform="matrix(1 0 0 1 15.9998 294.3318)" font-family="'SourceSansPro-Regular'" font-size="11">EU Institutions</text>
	<text transform="matrix(1 0 0 1 15.9998 150.7869)" font-family="'SourceSansPro-Regular'" font-size="11">Finland</text>
	<text transform="matrix(1 0 0 1 15.9998 46.9822)" font-family="'SourceSansPro-Regular'" font-size="11">France</text>
	<text transform="matrix(1 0 0 1 15.9998 226.4402)" font-family="'SourceSansPro-Regular'" font-size="11">Germany</text>
	<text transform="matrix(1 0 0 1 15.9998 128.9939)" font-family="'SourceSansPro-Regular'" font-size="11">Greece</text>
	<text transform="matrix(1 0 0 1 15.9998 107.5056)" font-family="'SourceSansPro-Regular'" font-size="11">Iceland</text>
	<text transform="matrix(1 0 0 1 15.9998 118.1833)" font-family="'SourceSansPro-Regular'" font-size="11">Ireland</text>
	<text transform="matrix(1 0 0 1 15.9998 448.2302)" font-family="'SourceSansPro-Regular'" font-size="11">Italy</text>
	<text transform="matrix(1 0 0 1 15.9998 373.5447)" font-family="'SourceSansPro-Regular'" font-size="11">Japan</text>
	<text transform="matrix(1 0 0 1 15.9998 84.2341)" font-family="'SourceSansPro-Regular'" font-size="11">Korea</text>
	<text transform="matrix(1 0 0 1 15.9998 97.4099)" font-family="'SourceSansPro-Regular'" font-size="11">Luxembourg</text>
	<text transform="matrix(1 0 0 1 15.9998 618.5984)" font-family="'SourceSansPro-Regular'" font-size="11">Netherlands</text>
	<text transform="matrix(1 0 0 1 15.9998 425.4617)" font-family="'SourceSansPro-Regular'" font-size="11">New Zealand</text>
	<text transform="matrix(1 0 0 1 15.9998 590.7048)" font-family="'SourceSansPro-Regular'" font-size="11">Norway</text>
	<text transform="matrix(1 0 0 1 15.9998 567.2859)" font-family="'SourceSansPro-Regular'" font-size="11">Portugal</text>
	<text transform="matrix(1 0 0 1 15.9998 436.7644)" font-family="'SourceSansPro-Regular'" font-size="11">Spain</text>
	<text transform="matrix(1 0 0 1 15.9998 184.5945)" font-family="'SourceSansPro-Regular'" font-size="11">Sweden</text>
	<text transform="matrix(1 0 0 1 15.9998 479.9275)" font-family="'SourceSansPro-Regular'" font-size="11">Switzerland</text>
	<text transform="matrix(1 0 0 1 15.9998 525.8816)" font-family="'SourceSansPro-Regular'" font-size="11">United Kingdom</text>
	<text transform="matrix(1 0 0 1 15.9998 165.5798)" font-family="'SourceSansPro-Regular'" font-size="11">United States</text>
</g>
</svg>
